<svg width="30" height="30" viewBox="0 0 30 30" fill="none" xmlns="http://www.w3.org/2000/svg">
<path d="M10.5945 15.7143C12.2391 16.4488 14.8215 16.5792 14.8215 16.5792C14.8792 16.5805 14.9357 16.5807 14.9924 16.581V16.5812C14.9949 16.5812 14.9974 16.5812 15 16.5812C15.0025 16.5812 15.0051 16.5812 15.0077 16.5812V16.581C15.0643 16.5807 15.1211 16.5803 15.1785 16.5792C15.1785 16.5792 17.7609 16.4488 19.4055 15.7142C19.4055 15.7142 19.6405 15.659 19.648 15.12C19.648 15.12 19.5635 12.7583 18.8483 11.6965C18.8483 11.6965 18.6691 11.4213 18.1615 11.232C18.1615 11.232 16.5055 10.7274 16.3939 10.2987C16.3939 10.2987 15.8454 11.7191 15.0001 11.7031C14.1548 11.7191 13.6062 10.2988 13.6062 10.2988C13.4945 10.7275 11.8387 11.232 11.8387 11.232C11.3347 11.4136 11.1517 11.6965 11.1517 11.6965C10.4366 12.7583 10.352 15.12 10.352 15.12C10.3595 15.659 10.5945 15.7143 10.5945 15.7143Z" fill="#333333"/>
<path d="M13.1763 8.61333C13.298 9.635 14.1761 10.6931 14.9722 10.6931C15.8879 10.6931 16.7567 9.57863 16.8933 8.61339C16.9434 8.57767 17.0301 8.48865 17.0589 8.28746C17.0589 8.28746 17.2532 7.5892 16.9936 7.6638C17.0864 7.39553 17.3848 6.34504 16.8068 5.69317C16.8068 5.69317 16.5373 5.32085 15.8755 5.12341C15.8491 5.10524 15.828 5.08584 15.8003 5.06637C15.8003 5.06637 15.8152 5.08454 15.8327 5.11276C15.7977 5.10395 15.7588 5.0952 15.7199 5.08578C15.6835 5.04629 15.641 5.00742 15.5971 4.9667C15.5971 4.9667 15.6386 5.00742 15.6849 5.07826C15.6649 5.07321 15.651 5.06637 15.6335 5.06508C15.6045 5.01808 15.5671 4.97292 15.5193 4.92654C15.5193 4.92654 15.5394 4.96165 15.5669 5.01801C15.4416 4.929 15.1988 4.72282 15.1988 4.4928C15.1988 4.4928 15.0439 4.56364 14.9574 4.69337C14.9203 4.63553 14.9524 4.5674 14.9524 4.5674C14.8822 4.60688 14.6996 4.75417 14.6418 4.95413L14.5895 4.88329C14.483 4.76107 14.2955 4.85508 14.2955 4.85508C14.2955 4.85508 13.3291 5.27317 13.0489 6.14003C13.0489 6.14003 12.8872 6.5299 13.1028 7.67754C12.7951 7.53272 13.005 8.2874 13.005 8.2874C13.0377 8.48988 13.1212 8.5789 13.1763 8.61333Z" fill="#333333"/>
<path d="M21.644 1.21725V0H19.6986V1.21725H10.3016V0H8.3573V1.21725H4.29559V30H25.7043V1.21725H21.644ZM5.41274 28.8869V2.33107H8.35742V3.88799H10.3018V2.33107H19.7012V3.88799H21.6442V2.33107H24.5899L24.5901 28.8869H5.41274Z" fill="#333333"/>
<path d="M19.3327 25.1287H7.99567V26.2568H19.3327V25.1287Z" fill="#333333"/>
<path d="M22.667 18.521H7.9939V19.6441H22.667V18.521Z" fill="#333333"/>
<path d="M21.5565 20.7788H7.99396V21.9082H21.5565V20.7788Z" fill="#333333"/>
<path d="M20.4434 22.9724H7.99396V24.0944H20.4434V22.9724Z" fill="#333333"/>
</svg>
