<?xml version="1.0" encoding="iso-8859-1"?>
<!-- Generator: Adobe Illustrator 16.0.0, SVG Export Plug-In . SVG Version: 6.00 Build 0)  -->
<!DOCTYPE svg PUBLIC "-//W3C//DTD SVG 1.1//EN" "http://www.w3.org/Graphics/SVG/1.1/DTD/svg11.dtd">
<svg version="1.1" id="Capa_1" xmlns="http://www.w3.org/2000/svg" xmlns:xlink="http://www.w3.org/1999/xlink" x="0px" y="0px"
	 width="31.332px" height="31.332px" viewBox="0 0 31.332 31.332" style="enable-background:new 0 0 31.332 31.332;"
	 xml:space="preserve">
<g>
	<path d="M23.047,15.266c0.781,0.781,0.781,2.047,0,2.828l-7.381,7.381l-7.379-7.379c-0.781-0.781-0.781-2.046,0-2.828
		c0.78-0.781,2.047-0.781,2.827,0l2.552,2.551V8.686c0-1.104,0.896-2,2-2c1.104,0,2,0.896,2,2v9.132l2.553-2.553
		C21,14.484,22.268,14.484,23.047,15.266z M31.332,15.666c0,8.639-7.027,15.666-15.666,15.666C7.026,31.332,0,24.305,0,15.666
		C0,7.028,7.026,0,15.666,0C24.307,0,31.332,7.028,31.332,15.666z M27.332,15.666C27.332,9.233,22.1,4,15.666,4
		C9.233,4,4,9.233,4,15.666C4,22.1,9.233,27.332,15.666,27.332C22.1,27.332,27.332,22.1,27.332,15.666z"/>
</g>
<g>
</g>
<g>
</g>
<g>
</g>
<g>
</g>
<g>
</g>
<g>
</g>
<g>
</g>
<g>
</g>
<g>
</g>
<g>
</g>
<g>
</g>
<g>
</g>
<g>
</g>
<g>
</g>
<g>
</g>
</svg>
