<svg width="76" height="75" viewBox="0 0 76 75" fill="none" xmlns="http://www.w3.org/2000/svg">
<g clip-path="url(#clip0_151_146)">
<path d="M38 75C17.3218 75 0.5 58.1773 0.5 37.5C0.5 16.8227 17.3218 0 38 0C58.6782 0 75.5 16.8227 75.5 37.5C75.5 58.1773 58.6782 75 38 75Z" fill="#6FCF97"/>
<path d="M75.5 37.5C75.5 16.8227 58.6782 0 38 0V75C58.6782 75 75.5 58.1773 75.5 37.5Z" fill="#6FCF97"/>
<path d="M37.9999 70.1087C20.0189 70.1087 5.39111 55.4802 5.39111 37.5C5.39111 19.5198 20.0189 4.89124 37.9999 4.89124C55.9808 4.89124 70.6086 19.5199 70.6086 37.5C70.6086 55.4801 55.9808 70.1087 37.9999 70.1087Z" fill="#27AE60"/>
<path d="M70.6087 37.5C70.6087 19.5199 55.981 4.89124 38 4.89124V70.1086C55.981 70.1087 70.6087 55.4801 70.6087 37.5Z" fill="#27AE60"/>
<path d="M34.7392 52.1739C33.4876 52.1739 32.2362 51.6962 31.2808 50.7408L21.2021 40.6621C19.2914 38.7523 19.2914 35.6555 21.2021 33.7454C23.1128 31.8347 26.2081 31.8347 28.1188 33.7454L34.7392 40.3651L48.6965 26.4083C50.6072 24.4976 53.7024 24.4976 55.6132 26.4083C57.5239 28.3182 57.5239 31.415 55.6132 33.325L38.1975 50.7408C37.2423 51.6962 35.9907 52.1739 34.7392 52.1739Z" fill="white"/>
<path d="M48.6964 26.4087L38 37.1045V50.9022C38.0637 50.8446 38.1359 50.8024 38.1975 50.7409L55.6131 33.3252C57.5239 31.4153 57.5239 28.3185 55.6131 26.4085C53.7025 24.4979 50.6072 24.4979 48.6964 26.4087Z" fill="#EDF0F2"/>
</g>
<defs>
<clipPath id="clip0_151_146">
<rect width="75" height="75" fill="white" transform="translate(0.5)"/>
</clipPath>
</defs>
</svg>
