<?xml version="1.0" encoding="iso-8859-1"?>
<!-- Generator: Adobe Illustrator 18.0.0, SVG Export Plug-In . SVG Version: 6.00 Build 0)  -->
<!DOCTYPE svg PUBLIC "-//W3C//DTD SVG 1.1//EN" "http://www.w3.org/Graphics/SVG/1.1/DTD/svg11.dtd">
<svg version="1.1" id="Capa_1" xmlns="http://www.w3.org/2000/svg" xmlns:xlink="http://www.w3.org/1999/xlink" x="0px" y="0px"
	 viewBox="0 0 277.112 277.112" style="enable-background:new 0 0 277.112 277.112;" xml:space="preserve">
<g>
	<path d="M266.339,124.055L144.92,2.636c-3.515-3.515-9.213-3.515-12.728,0L91,43.828v-7.232c0-4.971-4.029-9-9-9H54.928
		c-4.971,0-9,4.029-9,9v52.305l-35.154,35.154c-3.515,3.515-3.515,9.213,0,12.728c3.515,3.515,9.213,3.515,12.728,0L138.556,21.728
		l115.055,115.055c1.757,1.757,4.061,2.636,6.364,2.636s4.606-0.879,6.364-2.636C269.854,133.268,269.854,127.57,266.339,124.055z
		 M63.928,45.595H73v16.232l-9.073,9.073V45.595z"/>
	<path d="M144.92,47.058c-3.515-3.515-9.213-3.515-12.728,0L32.084,147.166c-1.688,1.688-2.636,3.977-2.636,6.364v114.582
		c0,4.971,4.029,9,9,9h73.369c4.971,0,9-4.029,9-9v-55.826h35.479l0,55.826c0,4.971,4.029,9,9,9h73.368c4.971,0,9-4.029,9-9V153.53
		c0-2.387-0.948-4.676-2.636-6.364L144.92,47.058z M229.664,259.112h-55.368l0-55.826c0-4.971-4.029-9-9-9h-53.479
		c-4.971,0-9,4.029-9,9v55.826H47.448V157.258l91.108-91.108l91.108,91.108V259.112z"/>
</g>
<g>
</g>
<g>
</g>
<g>
</g>
<g>
</g>
<g>
</g>
<g>
</g>
<g>
</g>
<g>
</g>
<g>
</g>
<g>
</g>
<g>
</g>
<g>
</g>
<g>
</g>
<g>
</g>
<g>
</g>
</svg>
