<svg xmlns="http://www.w3.org/2000/svg" width="50" height="50" viewBox="0 0 50 50" fill="#ffffff">
  <path id="Icon_awesome-instagram" data-name="Icon awesome-instagram" d="M25,14.667A12.819,12.819,0,1,0,37.816,27.486,12.8,12.8,0,0,0,25,14.667Zm0,21.154a8.334,8.334,0,1,1,8.332-8.334A8.348,8.348,0,0,1,25,35.821ZM41.33,14.143a2.989,2.989,0,1,1-2.989-2.99A2.983,2.983,0,0,1,41.33,14.143Zm8.489,3.035c-.19-4.005-1.1-7.553-4.038-10.476s-6.47-3.838-10.474-4.039c-4.127-.234-16.5-.234-20.625,0-3.993.19-7.54,1.1-10.474,4.028S.371,13.161.17,17.166c-.234,4.128-.234,16.5,0,20.629.19,4.005,1.1,7.553,4.038,10.476s6.47,3.838,10.474,4.039c4.127.234,16.5.234,20.625,0,4-.19,7.552-1.1,10.474-4.039S49.618,41.8,49.818,37.8C50.053,33.667,50.053,21.305,49.818,17.177ZM44.487,42.225a8.437,8.437,0,0,1-4.752,4.753c-3.291,1.305-11.1,1-14.735,1s-11.456.29-14.735-1a8.437,8.437,0,0,1-4.752-4.753c-1.305-3.291-1-11.1-1-14.738s-.29-11.458,1-14.738A8.437,8.437,0,0,1,10.265,8c3.291-1.305,11.1-1,14.735-1S36.455,6.7,39.735,8a8.437,8.437,0,0,1,4.752,4.753c1.305,3.291,1,11.1,1,14.738S45.792,38.945,44.487,42.225Z" transform="translate(0.006 -2.486)" fill="#ffffff"/>
</svg>
