<svg xmlns="http://www.w3.org/2000/svg" width="50" height="50" viewBox="0 0 50 50">
  <path id="Icon_awesome-linkedin" data-name="Icon awesome-linkedin" d="M46.429,2.5H3.56A3.587,3.587,0,0,0,0,6.1V48.9a3.587,3.587,0,0,0,3.56,3.6H46.429A3.6,3.6,0,0,0,50,48.9V6.1A3.6,3.6,0,0,0,46.429,2.5ZM15.112,45.357H7.7V21.5h7.422V45.357ZM11.406,18.237a4.3,4.3,0,1,1,4.3-4.3A4.3,4.3,0,0,1,11.406,18.237ZM42.891,45.357H35.48V33.75c0-2.768-.056-6.328-3.85-6.328-3.862,0-4.453,3.013-4.453,6.127V45.357H19.766V21.5h7.109v3.259h.1A7.806,7.806,0,0,1,34,20.9c7.5,0,8.9,4.944,8.9,11.373Z" transform="translate(0 -2.5)" fill="#343434"/>
</svg>
