<svg width="24" height="24" viewBox="0 0 24 24" fill="none" xmlns="http://www.w3.org/2000/svg">
<path d="M11.9999 0C7.10995 0 3.13159 3.97829 3.13159 8.86834C3.13159 13.6027 11.2164 23.38 11.5605 23.7939C11.6691 23.9244 11.8301 24 11.9999 24C12.1697 24 12.3308 23.9245 12.4393 23.7939C12.7836 23.38 20.8683 13.6027 20.8683 8.86834C20.8683 3.97829 16.89 0 11.9999 0ZM11.9999 22.5218C11.2831 21.6266 9.79361 19.7194 8.31971 17.5391C5.67331 13.6245 4.27445 10.6262 4.27445 8.86834C4.27445 4.60846 7.74013 1.14286 11.9999 1.14286C16.2597 1.14286 19.7254 4.60846 19.7254 8.86834C19.7254 10.6261 18.3266 13.6245 15.6802 17.5391C14.2062 19.7194 12.7168 21.6266 11.9999 22.5218Z" fill="#333333"/>
<path d="M14.9072 16.3015C14.6457 16.1248 14.2904 16.1936 14.1138 16.4551C13.3427 17.5966 12.4788 18.793 11.5462 20.0109C11.3544 20.2615 11.4019 20.6202 11.6525 20.812C11.7561 20.8914 11.8783 20.9298 11.9995 20.9298C12.1712 20.9298 12.3411 20.8526 12.4536 20.7057C13.3999 19.4699 14.2771 18.2551 15.0608 17.0949C15.2374 16.8334 15.1687 16.4781 14.9072 16.3015Z" fill="#333333"/>
<path d="M11.9999 4.38098C9.41623 4.38098 7.31421 6.483 7.31421 9.0667C7.31421 11.6504 9.41623 13.7524 11.9999 13.7524C14.5836 13.7524 16.6856 11.6504 16.6856 9.0667C16.6856 6.483 14.5836 4.38098 11.9999 4.38098ZM11.9999 12.6096C10.0464 12.6096 8.45707 11.0202 8.45707 9.0667C8.45707 7.11317 10.0464 5.52384 11.9999 5.52384C13.9535 5.52384 15.5428 7.11317 15.5428 9.0667C15.5428 11.0202 13.9535 12.6096 11.9999 12.6096Z" fill="#333333"/>
</svg>
