<?xml version="1.0" encoding="iso-8859-1"?>
<!-- Generator: Adobe Illustrator 19.0.0, SVG Export Plug-In . SVG Version: 6.00 Build 0)  -->
<svg version="1.1" id="Layer_1" xmlns="http://www.w3.org/2000/svg" xmlns:xlink="http://www.w3.org/1999/xlink" x="0px" y="0px"
	 viewBox="0 0 512 512" style="enable-background:new 0 0 512 512;" xml:space="preserve">
<g>
	<g>
		<path d="M255.949,414.76h-0.137c-5.77,0-10.449,4.678-10.449,10.449s4.679,10.449,10.449,10.449h0.137
			c5.771,0,10.449-4.678,10.449-10.449S261.719,414.76,255.949,414.76z"/>
	</g>
</g>
<g>
	<g>
		<path d="M256.086,414.76h-0.137c-5.77,0-10.449,4.678-10.449,10.449s4.679,10.449,10.449,10.449h0.137
			c5.77,0,10.449-4.678,10.449-10.449S261.856,414.76,256.086,414.76z"/>
	</g>
</g>
<g>
	<g>
		<path d="M501.551,485.529h-0.137c-5.77,0-10.449,4.678-10.449,10.449s4.679,10.449,10.449,10.449h0.137
			c5.77,0,10.449-4.678,10.449-10.449S507.321,485.529,501.551,485.529z"/>
	</g>
</g>
<g>
	<g>
		<path d="M10.586,485.527h-0.137C4.679,485.527,0,490.206,0,495.977c0,5.771,4.679,10.449,10.449,10.449h0.137
			c5.77,0,10.449-4.678,10.449-10.449C21.035,490.206,16.356,485.527,10.586,485.527z"/>
	</g>
</g>
<g>
	<g>
		<path d="M217.893,206.541c-6.44,0-11.679,5.239-11.679,11.68c0,6.44,5.239,11.679,11.679,11.679s11.68-5.239,11.68-11.679
			C229.572,211.78,224.332,206.541,217.893,206.541z"/>
	</g>
</g>
<g>
	<g>
		<path d="M294.107,206.541c-6.44,0-11.68,5.239-11.68,11.68c0,6.44,5.24,11.679,11.68,11.679s11.678-5.239,11.679-11.679
			C305.786,211.78,300.547,206.541,294.107,206.541z"/>
	</g>
</g>
<g>
	<g>
		<path d="M266.168,255.771h-20.422c-5.77,0-10.449,4.678-10.449,10.449c0,11.391,9.267,20.66,20.659,20.66
			s20.66-9.268,20.661-20.66C276.617,260.449,271.938,255.771,266.168,255.771z"/>
	</g>
</g>
<g>
	<g>
		<g>
			<path d="M112.001,173.566l-22.988-40.751c-1.853-3.284-5.331-5.315-9.101-5.315H33.936c-3.77,0-7.248,2.031-9.101,5.315
				L1.847,173.566c-1.797,3.186-1.797,7.081,0,10.267l22.988,40.751c1.853,3.284,5.331,5.315,9.101,5.315h45.976
				c3.77,0,7.247-2.031,9.101-5.315l22.988-40.751C113.798,180.647,113.798,176.752,112.001,173.566z M73.808,209.002H40.037
				L22.945,178.7l17.092-30.302h33.771L90.901,178.7L73.808,209.002z"/>
			<path d="M56.924,155.581c-12.587,0-22.827,10.371-22.827,23.117c0,12.748,10.24,23.118,22.827,23.118
				c12.586,0,22.827-10.371,22.828-23.118C79.752,165.952,69.511,155.581,56.924,155.581z M56.924,180.92
				c-1.064,0-1.929-0.997-1.929-2.22c0-1.224,0.865-2.219,1.929-2.219s1.93,0.995,1.93,2.219
				C58.854,179.924,57.989,180.92,56.924,180.92z"/>
		</g>
	</g>
</g>
<g>
	<g>
		<g>
			<path d="M56.924,33.654c-12.587,0-22.827,10.371-22.827,23.117c0,12.748,10.24,23.118,22.827,23.118
				c12.586,0,22.827-10.371,22.828-23.118C79.752,44.025,69.511,33.654,56.924,33.654z M56.924,58.992
				c-1.064,0-1.929-0.997-1.929-2.22s0.865-2.219,1.929-2.219s1.93,0.995,1.93,2.219S57.989,58.992,56.924,58.992z"/>
			<path d="M112.001,51.638L89.013,10.887c-1.853-3.284-5.331-5.315-9.101-5.315H33.936c-3.77,0-7.248,2.031-9.101,5.315
				L1.847,51.638c-1.797,3.186-1.797,7.081,0,10.267l22.988,40.751c1.853,3.284,5.331,5.315,9.101,5.315h45.976
				c3.77,0,7.247-2.031,9.101-5.315l22.988-40.751C113.798,58.719,113.798,54.824,112.001,51.638z M73.808,87.073H40.037
				L22.945,56.771l17.092-30.302h33.771l17.092,30.302L73.808,87.073z"/>
		</g>
	</g>
</g>
<g>
	<g>
		<path d="M82.496,402.598v-97.912c9.252-7.885,14.629-19.38,14.629-31.763c0-12.634-5.629-24.458-15.445-32.438
			c-2.995-2.435-7.085-3.02-10.642-1.525c-3.556,1.494-5.999,4.827-6.354,8.67c-0.449,4.855-4.471,8.516-9.355,8.516
			s-8.906-3.661-9.355-8.516c-0.355-3.842-2.798-7.175-6.355-8.671c-3.555-1.493-7.647-0.909-10.641,1.526
			c-9.815,7.981-15.445,19.804-15.445,32.437c0,12.383,5.377,23.878,14.629,31.763v97.912c-9.252,7.884-14.629,19.379-14.629,31.762
			c0,12.633,5.629,24.456,15.445,32.437c2.995,2.435,7.085,3.02,10.641,1.526c3.557-1.495,6-4.828,6.355-8.671
			c0.449-4.855,4.471-8.516,9.355-8.516s8.906,3.661,9.355,8.516c0.355,3.841,2.798,7.174,6.354,8.669
			c1.305,0.549,2.68,0.817,4.049,0.817c2.362,0,4.697-0.799,6.593-2.34c9.815-7.98,15.445-19.804,15.445-32.438
			C97.124,421.977,91.747,410.483,82.496,402.598z M66.465,416.68c6.113,3.862,9.761,10.471,9.761,17.678
			c0,1.302-0.119,2.586-0.353,3.84c-5.402-4.97-12.621-7.961-20.545-7.961s-15.143,2.992-20.545,7.961
			c-0.234-1.254-0.353-2.539-0.353-3.84c0-7.207,3.649-13.816,9.761-17.678c3.03-1.915,4.867-5.25,4.867-8.834V299.433
			c0-3.585-1.837-6.918-4.867-8.834c-6.113-3.863-9.761-10.472-9.761-17.679c0-1.301,0.119-2.585,0.353-3.839
			c5.402,4.97,12.621,7.961,20.545,7.961s15.143-2.992,20.545-7.961c0.234,1.253,0.353,2.537,0.353,3.839
			c0,7.208-3.649,13.816-9.761,17.679c-3.03,1.915-4.867,5.25-4.867,8.834v108.413C61.598,411.432,63.435,414.765,66.465,416.68z"/>
	</g>
</g>
<g>
	<g>
		<path d="M391.121,276.52c-6.569,0-11.913,5.344-11.913,11.912c0,6.568,5.344,11.912,11.913,11.912s11.912-5.344,11.912-11.912
			C403.033,281.863,397.689,276.52,391.121,276.52z"/>
	</g>
</g>
<g>
	<g>
		<path d="M391.121,329.316c-6.569,0-11.913,5.344-11.913,11.913c0,6.568,5.344,11.912,11.913,11.912s11.913-5.345,11.912-11.912
			C403.033,334.66,397.689,329.316,391.121,329.316z"/>
	</g>
</g>
<g>
	<g>
		<path d="M364.723,302.918c-6.568,0-11.912,5.344-11.912,11.912c0,6.568,5.344,11.912,11.912,11.912s11.912-5.344,11.912-11.912
			C376.635,308.262,371.291,302.918,364.723,302.918z"/>
	</g>
</g>
<g>
	<g>
		<path d="M417.519,302.918c-6.568,0-11.912,5.344-11.912,11.912c0,6.568,5.344,11.912,11.912,11.912s11.912-5.344,11.912-11.912
			C429.431,308.262,424.088,302.918,417.519,302.918z"/>
	</g>
</g>
<g>
	<g>
		<path d="M479.42,397.309c20.976-22.448,32.529-51.74,32.529-82.479c0-66.625-54.203-120.828-120.828-120.828
			c-5.133,0-10.281,0.335-15.379,0.985c-4.009-4.677-9.265-8.255-15.252-10.201v-5.847c10.173-8.3,15.589-17.977,15.62-28.367
			c0-0.015,0.002-0.028,0.002-0.042c0-0.004-0.001-0.008-0.001-0.014c0-0.011,0.001-0.023,0.001-0.034
			c0-0.447-0.102-54.97-0.102-54.97c0-0.374-0.021-0.749-0.061-1.121c-1.704-15.786-12.366-29.728-28.521-37.294
			c-0.185-0.087-0.372-0.168-0.562-0.243l-65.451-26.608c-15.968-7.383-34.961-7.382-50.929-0.002l-65.647,26.608
			c-0.192,0.076-0.38,0.158-0.567,0.246c-16.025,7.504-26.614,21.447-28.324,37.294c-0.04,0.372-0.162,0.754-0.162,1.129
			c0,0,0,54.515,0,54.964c0,0.012,0.001,0.023,0.001,0.034c0,0.004-0.001,0.008-0.001,0.014c0,0.015,0.002,0.028,0.002,0.042
			c0.031,10.424,5.485,20.131,15.723,28.448v5.766c-13.569,4.414-23.405,17.182-23.405,32.205c0,15.023,9.836,27.791,23.405,32.205
			v8.675c0,0.265,0.01,0.532,0.03,0.796c1.367,17.872,10.346,33.933,24.021,42.965c0.183,0.121,0.37,0.236,0.56,0.346l27.314,15.661
			v16.27c0,2.59-1.545,4.909-3.936,5.905l-67.248,28.019c-17.599,7.333-29.89,26.678-29.89,47.047v70.651H44.39
			c-5.77,0-10.449,4.678-10.449,10.449c0,5.771,4.679,10.449,10.449,10.449h423.22c5.77,0,10.449-4.678,10.449-10.449
			c0-5.771-4.679-10.449-10.449-10.449H409.64v-51.29C436.297,430.137,460.793,417.243,479.42,397.309z M156.786,96.131
			c1.093-8.254,7.074-15.685,16.112-19.997l65.683-26.623c0.17-0.069,0.339-0.143,0.505-0.221c10.403-4.871,23.324-4.87,33.725,0
			c0.163,0.076,0.328,0.149,0.496,0.217L338.8,76.132c9.166,4.37,15.221,11.803,16.312,20v43.901H156.786V96.131z M349.388,160.93
			c-4.446,4.19-11.262,8.316-19.838,11.85c-19.489,8.029-45.628,12.451-73.601,12.451s-54.11-4.422-73.601-12.451
			c-8.577-3.534-15.392-7.66-19.838-11.85H349.388z M186.828,284.024c-7.977-5.401-13.471-15.528-14.42-26.577v-17.052
			c0-5.771-4.679-10.449-10.449-10.449c-7.144,0-12.956-5.813-12.956-12.956c0-7.143,5.813-12.956,12.956-12.956
			c5.77,0,10.449-4.678,10.449-10.449v-2.32c0.653,0.282,1.311,0.563,1.981,0.839c21.955,9.045,50.92,14.026,81.561,14.026
			c30.641,0,59.605-4.981,81.561-14.026c0.704-0.29,1.396-0.585,2.083-0.882v2.364c0,5.771,4.679,10.449,10.449,10.449
			c7.144,0,12.956,5.813,12.956,12.956c0,7.143-5.813,12.956-12.956,12.956c-5.77,0-10.449,4.678-10.449,10.449v17.054
			c-0.961,11.279-6.261,21.164-14.246,26.572l-56.265,32.165c-0.195,0.111-0.386,0.229-0.573,0.352
			c-7.835,5.173-17.185,5.173-25.02,0c-0.183-0.121-0.37-0.236-0.56-0.346L186.828,284.024z M328.763,346.587l-16.262-6.775
			c-2.392-0.997-3.937-3.314-3.937-5.905v-16.222l12.686-7.252c-0.09,1.455-0.137,2.921-0.137,4.397
			C321.113,326.26,323.884,337.048,328.763,346.587z M287.685,334.415c-7.491,9.996-19.116,15.881-31.737,15.881
			c-12.559,0-24.144-5.84-31.638-15.757c0.004-0.212,0.023-0.421,0.023-0.633v-4.288l7.932,4.548
			c7.336,4.766,15.535,7.149,23.734,7.149c8.197,0,16.393-2.382,23.728-7.145l7.94-4.539v4.275
			C287.667,334.078,287.682,334.245,287.685,334.415z M145.712,485.529h-22.453v-70.651c0-11.778,7.322-23.711,17.03-27.756
			l5.423-2.26V485.529z M305.059,485.529h-98.22V472.99h98.22V485.529z M325.957,485.529v-22.988
			c0-5.771-4.679-10.449-10.449-10.449H196.39c-5.77,0-10.449,4.678-10.449,10.449v22.988H166.61V376.155l19.331-8.054v57.108
			c0,5.771,4.679,10.449,10.449,10.449h25.619c5.77,0,10.449-4.678,10.449-10.449s-4.679-10.449-10.449-10.449h-15.17v-55.366
			l0.698-0.29c2.583-1.076,4.933-2.516,7.005-4.242c11.081,10.409,25.755,16.336,41.407,16.336c15.687,0,30.375-5.942,41.459-16.381
			c2.085,1.746,4.45,3.203,7.054,4.288l0.596,0.249v55.409h-15.17c-5.77,0-10.449,4.678-10.449,10.449s4.679,10.449,10.449,10.449
			h25.619c5.77,0,10.449-4.678,10.449-10.449V368.06l19.331,8.054v109.414H325.957z M388.741,485.529h-22.555V384.82l5.523,2.302
			c9.71,4.046,17.032,15.979,17.032,27.756V485.529z M342.011,314.83c0-8.853,2.367-17.159,6.483-24.34
			c1.444-1.866,2.772-3.839,3.98-5.908c8.998-11.472,22.971-18.864,38.648-18.864c27.08,0,49.11,22.031,49.11,49.11
			c0,27.08-22.031,49.11-49.11,49.11S342.011,341.909,342.011,314.83z M409.601,413.044c-0.377-10.447-3.958-20.533-9.785-28.765
			c34.512-4.297,61.315-33.792,61.315-69.449c0-38.603-31.405-70.008-70.008-70.008c-10.983,0-21.371,2.56-30.631,7.086v-2.715
			c13.569-4.414,23.405-17.182,23.405-32.205c0-0.605-0.042-1.201-0.073-1.798c2.43-0.177,4.866-0.29,7.299-0.29
			c55.101,0,99.93,44.828,99.93,99.93C491.051,363.169,456.083,404.313,409.601,413.044z"/>
	</g>
</g>
<g>
</g>
<g>
</g>
<g>
</g>
<g>
</g>
<g>
</g>
<g>
</g>
<g>
</g>
<g>
</g>
<g>
</g>
<g>
</g>
<g>
</g>
<g>
</g>
<g>
</g>
<g>
</g>
<g>
</g>
</svg>
