<svg width="30" height="30" viewBox="0 0 30 30" fill="none" xmlns="http://www.w3.org/2000/svg">
<path d="M28.5 24.1C28.4 24.05 28.25 23.95 28.15 23.9C27.2788 23.4565 26.3773 23.0585 25.4491 22.7037C25.3972 22.6339 25.3312 22.5771 25.25 22.55C24.1 22.15 22.85 21.7501 21.6001 21.4501C21.5232 21.4308 21.4391 21.4339 21.3589 21.4562C20.7483 21.3125 20.1292 21.1846 19.5026 21.0715C19.5292 20.8844 19.5462 20.6939 19.55 20.5V19.1784C21.6589 17.3179 22.9625 14.3113 22.9 11.5V9.02578C22.9339 9.00135 22.9673 8.97615 23 8.95002C23.65 8.4 24.0001 7.60002 24.0001 6.80004C24 3.04998 20.95 0 17.25 0H12.8C9.04998 0 6 3.04998 5.94996 6.75C5.94996 7.60002 6.29994 8.35002 6.94998 8.89998C6.96633 8.91258 6.98338 8.9243 6.99996 8.93654V11.5C6.99996 14.3355 8.35031 17.3692 10.4999 19.2258V20.5C10.4999 20.6746 10.5107 20.8465 10.5297 21.0157C7.41838 21.5742 4.49514 22.5033 1.84992 23.8499L1.49994 24.0499C0.55002 24.5 0 25.45 0 26.5V29.5C0 29.8 0.19998 30 0.49998 30H5.49996H24.5H29.5C29.8 30 29.9999 29.8 29.9999 29.55V26.55C30 25.55 29.4 24.6 28.5 24.1ZM21.8 26H19.85L21.7837 22.5292C22.6216 22.7415 23.4412 22.9864 24.2394 23.2619L21.8 26ZM22.35 8.14998C22.3369 8.16146 22.3232 8.17213 22.3097 8.1832C22.2536 8.19627 22.199 8.2173 22.15 8.25C21.9337 8.41225 21.7027 8.51543 21.4651 8.56072C21.2767 8.58961 21.085 8.58703 20.9 8.55C17.3139 7.86908 13.6866 7.80645 10.2052 8.36191C9.81879 8.41775 9.43365 8.48021 9.05004 8.55C8.98846 8.55686 8.92687 8.56061 8.86541 8.56184C8.46346 8.55463 8.07393 8.44295 7.75002 8.20002C7.45002 8.00004 7.25004 7.70004 7.15002 7.40004L9.3 7.00002C13.05 6.3 16.9 6.3 20.75 7.00002L22.8832 7.39687C22.7725 7.67994 22.5881 7.94162 22.35 8.14998ZM12.75 1.00002H17.2C20.267 1.00002 22.7824 3.38842 22.9863 6.4043L20.9 6.05004C16.9501 5.35002 12.95 5.35002 9.10002 6.05004L7.01379 6.4043C7.21752 3.38842 9.73096 1.00002 12.75 1.00002ZM7.99998 11.5V9.45C8.4 9.55002 8.85 9.6 9.3 9.49998C11.1669 9.15152 13.0584 8.97662 14.9625 8.9751C16.8668 8.97662 18.7834 9.15146 20.7 9.49998C20.8366 9.53414 20.9497 9.54475 21.0555 9.5482C21.3703 9.57205 21.6993 9.52518 22 9.45V11.5C22 16.1628 18.5801 19.7158 15.3837 19.9832C15.3476 19.9861 15.3115 19.9891 15.2754 19.9912C15.2503 19.9927 15.2251 19.9939 15.2 19.9951C15.1332 19.9979 15.0665 20 14.9999 20C14.9333 20 14.8665 19.9979 14.7996 19.9951C14.7749 19.9939 14.7503 19.9928 14.7257 19.9912C14.687 19.989 14.6482 19.9858 14.6095 19.9826C13.9654 19.9279 13.3125 19.7402 12.6803 19.4365C12.675 19.4339 12.6696 19.4316 12.6642 19.4289C12.6604 19.4271 12.6566 19.4251 12.6528 19.4232C12.1993 19.1966 11.7607 18.9047 11.35 18.55C11.306 18.5207 11.2532 18.4958 11.197 18.4776C9.37547 16.968 7.99998 14.4571 7.99998 11.5ZM14.7594 20.995C14.7652 20.9953 14.771 20.9957 14.7768 20.9959C14.8509 20.9985 14.9252 20.9999 14.9999 20.9999C15.0746 20.9999 15.149 20.9985 15.2231 20.9959C15.2289 20.9957 15.2347 20.9953 15.2405 20.995C16.4241 20.95 17.5239 20.574 18.4999 19.9637V20.5C18.4999 22.45 16.9499 23.9999 14.9999 23.9999C13.0499 23.9999 11.5 22.45 11.5 20.5V19.965C12.4775 20.5746 13.5766 20.95 14.7594 20.995ZM10.8703 22.2994C10.8797 22.3211 10.8894 22.3425 10.8993 22.3639C11.1046 22.8189 11.3829 23.2326 11.7202 23.5905C11.7379 23.6095 11.7557 23.6282 11.7737 23.6467C11.7953 23.6689 11.817 23.691 11.8391 23.7128C11.8777 23.751 11.917 23.7884 11.957 23.8251C11.9618 23.8295 11.9664 23.8341 11.9713 23.8385C12.6613 24.4674 13.5418 24.873 14.5174 24.9743C14.533 24.9759 14.5487 24.9773 14.5644 24.9789C14.6195 24.984 14.6749 24.9882 14.7306 24.9913C14.7492 24.9924 14.7677 24.9937 14.7864 24.9946C14.8572 24.9978 14.9283 24.9999 15.0001 24.9999C15.0718 24.9999 15.1431 24.9978 15.2141 24.9946C15.2323 24.9938 15.2503 24.9925 15.2684 24.9915C15.3257 24.9882 15.3827 24.9839 15.4394 24.9786C15.4528 24.9773 15.4662 24.9762 15.4795 24.9748C16.9072 24.8285 18.154 24.0349 18.8616 22.8468C18.866 22.8396 18.8703 22.8323 18.8746 22.8252C18.8835 22.81 18.8925 22.7949 18.9012 22.7796C19.047 22.5349 19.1707 22.2754 19.2698 22.0034C19.7621 22.0844 20.2487 22.1782 20.7301 22.282L18.6873 25.9999H11.2852L9.24539 22.2875C9.74127 22.1799 10.2426 22.0831 10.75 22C10.7781 22.0777 10.8087 22.1538 10.8404 22.2293C10.8501 22.2529 10.8602 22.2761 10.8703 22.2994ZM5.80465 23.2553C6.60287 22.9766 7.42266 22.7312 8.26043 22.5192L10.15 26H8.20002L5.80465 23.2553ZM1.00002 26.5C1.00002 25.85 1.35 25.25 1.95 24.95L2.29998 24.7501C3.09393 24.3453 3.91705 23.9745 4.76613 23.6406L6.94113 26.0612C5.81818 26.3094 4.99992 27.2928 4.99992 28.5001V29H1.00002V26.5ZM6 29V28.5C6 27.65 6.64998 27 7.5 27H7.99998H11H19H22H22.5C23.35 27 24 27.65 24 28.5V29H6ZM29 29H25V28.5C25 27.2793 24.1637 26.287 23.0214 26.0527L25.2113 23.6156C26.0683 23.9444 26.899 24.3073 27.7 24.7C27.8 24.8 27.95 24.85 28.0499 24.8999C28.6499 25.2499 28.9999 25.8499 28.9999 26.5V29H29Z" fill="#333333"/>
<path d="M12.5 4.5H17.5C17.8 4.5 17.9999 4.30002 17.9999 4.00002V1.99998C17.9999 1.69998 17.8 1.5 17.5 1.5H12.5C12.2 1.5 12 1.69998 12 1.99998V3.99996C12 4.30002 12.2 4.5 12.5 4.5ZM13 2.50002H17V3.50004H13V2.50002V2.50002Z" fill="#333333"/>
<path d="M9.49998 27.5C9.19998 27.5 9 27.7 9 28C9 28.3 9.19998 28.5 9.49998 28.5C9.79998 28.5 9.99996 28.3 9.99996 28C9.99996 27.7 9.79998 27.5 9.49998 27.5Z" fill="#333333"/>
<path d="M20.5 27.5C20.2 27.5 20.0001 27.7 20.0001 28C20.0001 28.3 20.2 28.5 20.5 28.5C20.8 28.5 21 28.3 21 28C21 27.7 20.8 27.5 20.5 27.5Z" fill="#333333"/>
</svg>
