<?xml version="1.0" encoding="iso-8859-1"?>
<!-- Generator: Adobe Illustrator 19.0.0, SVG Export Plug-In . SVG Version: 6.00 Build 0)  -->
<svg version="1.1" id="Layer_1" xmlns="http://www.w3.org/2000/svg" xmlns:xlink="http://www.w3.org/1999/xlink" x="0px" y="0px"
	 viewBox="0 0 512 512" style="enable-background:new 0 0 512 512;" xml:space="preserve">
<g transform="translate(1 1)">
	<g>
		<g>
			<path d="M485.4,410.307c-1.707-0.853-4.267-2.56-5.973-3.413c-14.868-7.569-30.254-14.362-46.095-20.417
				c-0.886-1.191-2.012-2.161-3.398-2.623c-19.627-6.827-40.96-13.653-62.293-18.773c-1.311-0.328-2.747-0.275-4.116,0.104
				c-10.421-2.451-20.986-4.635-31.681-6.564c0.455-3.194,0.744-6.445,0.81-9.754v-22.556
				c35.991-31.753,58.24-83.064,57.173-131.044V153.04c0.579-0.417,1.149-0.847,1.707-1.293
				c11.093-9.387,17.067-23.04,17.067-36.693C408.6,51.053,356.547-1,293.4-1h-75.947c-64,0-116.053,52.053-116.907,115.2
				c0,14.507,5.973,27.307,17.067,36.693c0.279,0.215,0.57,0.415,0.853,0.624v43.749c0,48.394,23.046,100.169,59.733,131.854v21.746
				c0,2.981,0.184,5.914,0.508,8.802c-53.1,9.531-102.99,25.388-148.135,48.371l-5.973,3.413C8.387,417.133-1,433.347-1,451.267
				v51.2c0,5.12,3.413,8.533,8.533,8.533h85.333h324.267h85.333c5.12,0,8.533-3.413,8.533-7.68v-51.2
				C511,435.053,500.76,418.84,485.4,410.307z M371.053,442.733h-33.28l33.002-59.235c14.3,3.624,28.288,7.803,41.91,12.505
				L371.053,442.733z M380.44,138.093c-0.224,0.196-0.458,0.378-0.687,0.567c-0.959,0.223-1.89,0.582-2.726,1.14
				c-3.692,2.769-7.634,4.53-11.689,5.303c-3.216,0.493-6.488,0.449-9.644-0.183c-61.203-11.621-123.109-12.69-182.526-3.21
				c-6.594,0.953-13.167,2.019-19.714,3.21c-1.051,0.117-2.102,0.181-3.151,0.202c-6.86-0.123-13.508-2.029-19.036-6.175
				c-5.12-3.413-8.533-8.533-10.24-13.653l36.693-6.827c64-11.947,129.707-11.947,195.413,0l36.407,6.773
				C387.651,130.071,384.504,134.537,380.44,138.093z M216.6,16.067h75.947c52.343,0,95.272,40.762,98.752,92.233l-35.605-6.046
				c-67.413-11.947-135.68-11.947-201.387,0l-35.605,6.046C122.179,56.829,165.075,16.067,216.6,16.067z M135.533,195.267V160.28
				c6.827,1.707,14.507,2.56,22.187,0.853c31.861-5.947,64.144-8.932,96.64-8.958c32.5,0.026,65.21,3.01,97.92,8.958
				c2.331,0.583,4.261,0.764,6.068,0.823c5.372,0.407,10.986-0.393,16.118-1.676v34.987c0,79.578-58.365,140.216-112.917,144.78
				c-0.616,0.049-1.233,0.101-1.849,0.136c-0.429,0.026-0.858,0.047-1.287,0.066c-1.14,0.048-2.278,0.085-3.414,0.085
				c-1.137,0-2.278-0.037-3.42-0.085c-0.42-0.019-0.84-0.039-1.261-0.065c-0.66-0.038-1.322-0.093-1.983-0.147
				c-10.992-0.935-22.135-4.138-32.924-9.32c-0.091-0.045-0.184-0.084-0.275-0.13c-0.065-0.032-0.13-0.066-0.195-0.097
				c-7.739-3.868-15.225-8.849-22.235-14.903c-0.751-0.501-1.651-0.925-2.61-1.236C159.008,288.587,135.533,245.734,135.533,195.267
				z M250.894,357.315c0.099,0.004,0.198,0.012,0.297,0.015c1.264,0.045,2.533,0.069,3.808,0.069s2.544-0.025,3.808-0.069
				c0.099-0.004,0.199-0.011,0.298-0.015c20.2-0.769,38.97-7.186,55.627-17.601v9.152c0,33.28-26.453,59.733-59.733,59.733
				c-33.28,0-59.733-26.453-59.733-59.733v-9.13C211.949,350.139,230.708,356.547,250.894,357.315z M184.519,379.577
				c0.162,0.369,0.327,0.735,0.495,1.1c3.505,7.766,8.255,14.826,14.01,20.935c0.302,0.323,0.607,0.642,0.914,0.959
				c0.369,0.379,0.739,0.756,1.116,1.127c0.659,0.652,1.33,1.291,2.012,1.917c0.082,0.075,0.161,0.153,0.244,0.228
				c11.776,10.734,26.803,17.657,43.454,19.385c0.266,0.028,0.534,0.052,0.801,0.078c0.941,0.088,1.887,0.159,2.838,0.213
				c0.317,0.018,0.633,0.04,0.951,0.055c1.209,0.055,2.423,0.091,3.647,0.091c1.224,0,2.441-0.036,3.653-0.091
				c0.31-0.014,0.617-0.036,0.926-0.053c0.978-0.056,1.951-0.129,2.919-0.219c0.228-0.022,0.457-0.042,0.684-0.066
				c24.366-2.497,45.645-16.041,57.722-36.318c0.075-0.122,0.148-0.246,0.222-0.368c0.152-0.259,0.305-0.517,0.454-0.778
				c2.487-4.177,4.599-8.606,6.29-13.248c8.402,1.383,16.706,2.984,24.923,4.756l-34.864,63.452H191.6l-34.812-63.358
				c8.463-1.837,17.019-3.489,25.679-4.908c0.479,1.326,1.001,2.626,1.543,3.914C184.175,378.782,184.347,379.179,184.519,379.577z
				 M98.066,395.891c13.623-4.757,27.614-8.945,41.912-12.564l32.249,59.406h-33.28L98.066,395.891z M16.067,451.267
				c0-11.093,5.973-21.333,16.213-26.453l5.973-3.413c13.55-6.908,27.598-13.236,42.089-18.934l37.12,41.311
				c-19.165,4.235-33.13,21.019-33.13,41.623v8.533H16.067V451.267z M101.4,493.933V485.4c0-14.507,11.093-25.6,25.6-25.6h8.533
				h51.2h136.533h51.2H383c14.507,0,25.6,11.093,25.6,25.6v8.533H101.4z M493.933,493.933h-68.267V485.4
				c0-20.833-14.273-37.768-33.767-41.767l37.373-41.593c14.627,5.611,28.804,11.805,42.474,18.506
				c1.707,1.707,4.267,2.56,5.973,3.413c10.24,5.973,16.213,16.213,16.213,27.307V493.933z"/>
			<path d="M212.333,75.8h85.333c5.12,0,8.533-3.413,8.533-8.533V33.133c0-5.12-3.413-8.533-8.533-8.533h-85.333
				c-5.12,0-8.533,3.413-8.533,8.533v34.133C203.8,72.387,207.213,75.8,212.333,75.8z M220.867,41.667h68.267v17.067h-68.267V41.667
				z"/>
			<path d="M161.133,468.333c-5.12,0-8.533,3.413-8.533,8.533s3.413,8.533,8.533,8.533s8.533-3.413,8.533-8.533
				S166.253,468.333,161.133,468.333z"/>
			<path d="M348.867,468.333c-5.12,0-8.533,3.413-8.533,8.533s3.413,8.533,8.533,8.533s8.533-3.413,8.533-8.533
				S353.987,468.333,348.867,468.333z"/>
		</g>
	</g>
</g>
<g>
</g>
<g>
</g>
<g>
</g>
<g>
</g>
<g>
</g>
<g>
</g>
<g>
</g>
<g>
</g>
<g>
</g>
<g>
</g>
<g>
</g>
<g>
</g>
<g>
</g>
<g>
</g>
<g>
</g>
</svg>
