<svg width="60" height="60" viewBox="0 0 60 60" fill="none" xmlns="http://www.w3.org/2000/svg">
<path d="M48 22.3001C48 12.6351 40.165 4.80005 30.5 4.80005C20.835 4.80005 13 12.6351 13 22.3001C13 25.7676 14.025 28.9926 15.7625 31.7126H15.7425C21.6425 40.9501 30.5 54.8001 30.5 54.8001L45.2575 31.7126H45.24C46.975 28.9926 48 25.7676 48 22.3001ZM30.5 29.8001C26.3575 29.8001 23 26.4426 23 22.3001C23 18.1576 26.3575 14.8001 30.5 14.8001C34.6425 14.8001 38 18.1576 38 22.3001C38 26.4426 34.6425 29.8001 30.5 29.8001Z" fill="#F90E0E"/>
<circle cx="30.5" cy="21.5" r="13.5" fill="white"/>
<g clip-path="url(#clip0_202_228)">
<path d="M37.5363 29.6001C36.8883 29.6001 36.253 29.3368 35.7947 28.8786L27.58 20.6646C27.3738 20.4591 27.0887 20.3406 26.797 20.3406L26.7137 20.3436C25.453 20.4403 24.184 19.9828 23.2757 19.0746C22.453 18.2503 22 17.1538 22 15.9868C22 15.2023 22.1777 14.3181 22.5362 13.5276L25.393 16.3858C25.72 16.3311 26.119 16.0911 26.4467 15.6846C26.659 15.4221 26.767 15.1783 26.7962 15.0021L23.9268 12.1326C24.7188 11.7756 25.591 11.6001 26.368 11.6001C27.5177 11.6001 28.6502 12.0508 29.4753 12.8766C30.3812 13.7833 30.8425 15.0366 30.7427 16.3146C30.7195 16.6356 30.8365 16.9528 31.0652 17.1816L39.2785 25.3948C39.7435 25.8606 40 26.4793 40 27.1363C40 28.4946 38.8945 29.6001 37.5363 29.6001V29.6001ZM26.797 18.8428C27.4832 18.8428 28.1545 19.1211 28.639 19.6063L36.8538 27.8196C37.033 27.9996 37.282 28.1023 37.5355 28.1023C38.068 28.1023 38.5015 27.6696 38.5015 27.1371C38.5015 26.8791 38.401 26.6368 38.218 26.4538L30.0063 18.2406C29.47 17.7036 29.194 16.9603 29.2495 16.2021C29.3155 15.3568 29.0118 14.5318 28.4163 13.9356C28.0465 13.5666 27.5927 13.3108 27.0977 13.1856L28.2152 14.3038C28.3787 15.0546 28.309 15.7641 27.6122 16.6266C26.8607 17.5588 25.8932 18.0756 24.7022 17.8161L23.5855 16.6986C23.7108 17.1936 23.9665 17.6481 24.3355 18.0178C24.9325 18.6133 25.7553 18.9178 26.5983 18.8503L26.797 18.8428V18.8428ZM28.045 23.2506L24.5462 26.7208C24.3745 26.8926 24.1683 27.0261 23.9538 27.1393L23.5195 27.3658L22.75 28.9746L23.3747 29.6001L24.9505 28.7976L25.1763 28.3626C25.2888 28.1481 25.4365 27.9538 25.6068 27.7821L29.1055 24.3118L28.045 23.2506ZM33.4075 17.4021L36.7877 14.0278C36.9137 13.9003 37.1192 13.9018 37.246 14.0278C37.372 14.1553 37.3727 14.3593 37.246 14.4861L33.8658 17.8611L34.5333 18.5286L37.9135 15.1536C38.0403 15.0268 38.2442 15.0276 38.371 15.1543C38.497 15.2803 38.4985 15.4851 38.3718 15.6111L34.9907 18.9861L35.77 19.7653L39.3453 16.1961C39.7818 15.7588 40 15.1866 40 14.6136C40 14.0376 39.7802 13.4608 39.3392 13.0198C38.9012 12.5811 38.3268 12.3621 37.7545 12.3621C37.18 12.3621 36.6077 12.5818 36.1697 13.0198L32.5945 16.5891L33.4075 17.4021V17.4021ZM37.525 26.7501C37.318 26.7501 37.15 26.9181 37.15 27.1251C37.15 27.3321 37.318 27.5001 37.525 27.5001C37.732 27.5001 37.9 27.3321 37.9 27.1251C37.9 26.9181 37.7328 26.7501 37.525 26.7501Z" fill="#F90E0E"/>
</g>
<defs>
<clipPath id="clip0_202_228">
<rect width="18" height="18" fill="white" transform="translate(22 11.6001)"/>
</clipPath>
</defs>
</svg>
