<svg width="30" height="25" viewBox="0 0 30 25" fill="none" xmlns="http://www.w3.org/2000/svg">
<path d="M3 5H27C28.6568 5 30 3.88067 30 2.5C30 1.11933 28.6568 0 27 0H3C1.3432 0 0 1.11933 0 2.5C0 3.88067 1.3432 5 3 5Z" fill="#2A2929"/>
<path d="M27 10H3C1.3432 10 0 11.1193 0 12.5C0 13.8807 1.3432 15 3 15H27C28.6568 15 30 13.8807 30 12.5C30 11.1193 28.6568 10 27 10Z" fill="#2A2929"/>
<path d="M27 20H3C1.3432 20 0 21.1193 0 22.5C0 23.8807 1.3432 25 3 25H27C28.6568 25 30 23.8807 30 22.5C30 21.1193 28.6568 20 27 20Z" fill="#2A2929"/>
</svg>
