<svg width="327" height="329" viewBox="0 0 327 329" fill="none" xmlns="http://www.w3.org/2000/svg">
<path d="M32.97 169.93V148.7H11.33C5.46996 148.7 0.709961 153.45 0.709961 159.32C0.709961 165.19 5.45996 169.94 11.33 169.94H32.97V169.93Z" fill="#010101"/>
<path d="M315.72 148.7H294.08V169.94H315.72C321.58 169.94 326.34 165.19 326.34 159.32C326.34 153.45 321.59 148.7 315.72 148.7Z" fill="#010101"/>
<path d="M304.32 61.0101C304.32 81.9901 289.28 97.7701 280.48 105.22C276.3 108.79 273.33 113.52 271.91 118.84L264.86 145.35C263.85 149.06 263.34 152.9 263.34 156.75V328.37H204.36V166.53C204.36 156.24 202.34 146.06 198.42 136.55L196.87 132.84C193.77 125.29 188.57 118.84 182.07 113.92C169.39 104.24 165.88 92.3701 165.88 92.3701C154.75 58.5401 182.74 17.6701 182.74 17.6701L196.9 62.1201C196.9 62.1201 209.95 80.3001 239.83 70.0801C269.71 59.8601 264.62 39.6301 264.62 39.6301L254.2 0.8501C268.6 0.8401 304.32 31.3001 304.32 61.0101Z" fill="#010101"/>
<path d="M306.7 198.57L282.66 158.97L275.35 145.14L274.6 147.95C273.86 150.82 273.45 153.78 273.45 156.75V208.67L296.12 203.74C301.56 202.56 306.7 206.7 306.7 212.27V214.69C306.7 220.86 302.38 226.2 296.35 227.48L273.45 232.36V321.02C274.83 325.21 278.72 328.25 283.36 328.25H303.83C309.63 328.25 314.35 323.53 314.35 317.73V275.53C314.57 274.3 314.7 273.05 314.7 271.76V209.59C314.72 204.45 311.34 200.12 306.7 198.57Z" fill="#010101"/>
<path d="M194.24 283.48H118.48V252.53H194.24V245.6H111.66C95.6802 245.6 82.7301 232.65 82.7301 216.67V210.26H194.24V166.53C194.24 161.52 193.64 156.59 192.57 151.76H58.7701L80.9102 109.67C84.5202 103.76 91.6201 100.07 99.3601 100.07H158.08C157.02 97.7901 156.45 96.1201 156.24 95.4401C155.96 94.5801 155.72 93.7201 155.49 92.8601H92.6901C84.1501 92.8601 76.3101 97.5901 72.3201 105.14L43.8901 158.97L19.8601 198.56C15.2101 200.1 11.8301 204.44 11.8301 209.61V271.78C11.8301 272.59 11.8601 273.4 11.9601 274.17H11.8301V317.74C11.8301 323.54 16.5501 328.26 22.3501 328.26H42.8201C48.6201 328.26 53.3102 323.54 53.3102 317.74V293.29H194.26V283.48H194.24ZM63.0001 234.49L30.1802 227.49C24.1402 226.2 19.8301 220.87 19.8301 214.7V212.28C19.8301 206.71 24.9702 202.57 30.4102 203.75L53.7001 208.81C57.9501 209.73 61.6301 212.4 63.8301 216.16L69.3901 225.66C72.0001 230.12 68.0601 235.57 63.0001 234.49Z" fill="#010101"/>
<path d="M304.32 61.0101C304.32 81.9901 289.28 97.7701 280.48 105.22C276.3 108.79 273.33 113.52 271.91 118.84L264.86 145.35C263.85 149.06 263.34 152.9 263.34 156.75V328.37H204.36V166.53C204.36 156.24 202.34 146.06 198.42 136.55L196.87 132.84C193.77 125.29 188.57 118.84 182.07 113.92C169.39 104.24 165.88 92.3701 165.88 92.3701C154.75 58.5401 182.74 17.6701 182.74 17.6701L196.9 62.1201C196.9 62.1201 209.95 80.3001 239.83 70.0801C269.71 59.8601 264.62 39.6301 264.62 39.6301L254.2 0.8501C268.6 0.8401 304.32 31.3001 304.32 61.0101Z" fill="#010101"/>
</svg>
