<svg width="24" height="24" viewBox="0 0 24 24" fill="none" xmlns="http://www.w3.org/2000/svg">
<path d="M12 0C7.11001 0 3.13165 3.97829 3.13165 8.86834C3.13165 13.6027 11.2165 23.38 11.5606 23.7939C11.6692 23.9244 11.8302 24 12 24C12.1697 24 12.3308 23.9245 12.4394 23.7939C12.7836 23.38 20.8683 13.6027 20.8683 8.86834C20.8683 3.97829 16.8901 0 12 0ZM12 22.5218C11.2831 21.6266 9.79367 19.7194 8.31977 17.5391C5.67337 13.6245 4.27451 10.6262 4.27451 8.86834C4.27451 4.60846 7.74019 1.14286 12 1.14286C16.2598 1.14286 19.7255 4.60846 19.7255 8.86834C19.7255 10.6261 18.3267 13.6245 15.6802 17.5391C14.2062 19.7194 12.7169 21.6266 12 22.5218Z" fill="#F9430E"/>
<path d="M14.9072 16.3015C14.6457 16.1248 14.2904 16.1936 14.1138 16.4551C13.3427 17.5966 12.4789 18.793 11.5463 20.0109C11.3544 20.2615 11.402 20.6202 11.6526 20.812C11.7562 20.8914 11.8783 20.9298 11.9995 20.9298C12.1713 20.9298 12.3412 20.8526 12.4536 20.7057C13.3999 19.4699 14.2771 18.2551 15.0608 17.0949C15.2375 16.8334 15.1688 16.4781 14.9072 16.3015Z" fill="#F9430E"/>
<path d="M12 4.38098C9.41635 4.38098 7.31433 6.483 7.31433 9.0667C7.31433 11.6504 9.41635 13.7524 12 13.7524C14.5837 13.7524 16.6858 11.6504 16.6858 9.0667C16.6858 6.483 14.5837 4.38098 12 4.38098ZM12 12.6096C10.0465 12.6096 8.45719 11.0202 8.45719 9.0667C8.45719 7.11317 10.0465 5.52384 12 5.52384C13.9536 5.52384 15.5429 7.11317 15.5429 9.0667C15.5429 11.0202 13.9536 12.6096 12 12.6096Z" fill="#F9430E"/>
</svg>
