<svg width="60" height="60" viewBox="0 0 60 60" fill="none" xmlns="http://www.w3.org/2000/svg">
<path d="M30.0001 33.8386C34.1398 33.8386 43.8726 28.8566 43.8726 16.9191C43.8726 15.2542 43.832 13.6458 43.6948 12.1261C43.4695 9.13452 42.8568 6.48343 41.331 4.45161C39.3747 1.68761 35.9518 0 30.0001 0C24.0483 0 20.6254 1.68778 18.6689 4.45178C17.144 6.48257 16.531 9.13212 16.3056 12.1218C16.1681 13.6429 16.1274 15.2526 16.1274 16.9193C16.1274 28.8566 25.8605 33.8386 30.0001 33.8386ZM18.1913 14.3305C18.3509 14.6797 19.0299 16.0243 20.0813 16.1504C21.2893 16.2954 23.2948 11.8718 29.9999 11.8609C36.7052 11.8718 38.7106 16.2954 39.9186 16.1504C40.97 16.0243 41.6491 14.6795 41.8085 14.3305C41.8411 15.1873 41.853 16.0545 41.853 16.9193C41.853 22.7543 39.2764 26.3697 37.115 28.3751C34.3915 30.9021 31.3677 31.8193 29.9998 31.8193C28.6318 31.8193 25.6081 30.9021 22.8846 28.3751C20.7232 26.3697 18.1466 22.7543 18.1466 16.9193C18.1469 16.0545 18.1587 15.1873 18.1913 14.3305Z" fill="#F9430E"/>
<path d="M55.7546 51.1904C55.0465 46.7865 53.5884 41.1139 50.664 39.098C48.667 37.7212 41.6995 33.9986 38.7243 32.409L38.6728 32.3816C38.3326 32.1998 37.9173 32.2362 37.6141 32.4744C36.0555 33.698 34.3482 34.5227 32.5396 34.9254C32.2201 34.9966 31.9579 35.2236 31.8417 35.5296L30.0001 40.3841L28.1584 35.5296C28.0422 35.2236 27.78 34.9966 27.4605 34.9254C25.6519 34.5227 23.9446 33.698 22.386 32.4744C22.0826 32.2362 21.6674 32.1997 21.3273 32.3816C18.3874 33.9525 11.3346 37.7508 9.34486 39.092C5.9784 41.3599 4.50631 49.568 4.24549 51.1904C4.21958 51.3514 4.23468 51.5159 4.2889 51.6695C4.40936 52.0096 7.49904 60 30.0001 60C52.5011 60 55.5907 52.0096 55.7112 51.6695C55.7654 51.5159 55.7805 51.3512 55.7546 51.1904ZM44.2182 56.9688C40.7731 57.8461 36.1621 58.4623 29.9992 58.4623C23.836 58.4623 19.2255 57.8461 15.7799 56.9688C16.8328 47.9801 15.8333 40.1897 15.3 37.0012C15.8364 36.7034 16.3832 36.4028 16.9265 36.1049C18.9466 41.4452 19.3039 48.2078 19.3039 48.2078H29.0844H30.914H40.6942C40.6942 48.2078 41.0519 41.439 43.0748 36.0977C43.6176 36.3942 44.1639 36.6938 44.7002 36.9903C44.1672 40.1725 43.1641 47.9702 44.2182 56.9688Z" fill="#F9430E"/>
</svg>
