<?xml version="1.0" encoding="iso-8859-1"?>
<!-- Generator: Adobe Illustrator 19.0.0, SVG Export Plug-In . SVG Version: 6.00 Build 0)  -->
<svg version="1.1" id="Layer_1" xmlns="http://www.w3.org/2000/svg" xmlns:xlink="http://www.w3.org/1999/xlink" x="0px" y="0px"
	 viewBox="0 0 491.52 491.52" style="enable-background:new 0 0 491.52 491.52;" fill="#333333" xml:space="preserve">
<g>
	<g>
		<polygon points="235.155,182.95 224.915,165.21 204.8,176.823 204.8,153.6 184.32,153.6 184.32,176.821 164.21,165.21 
			153.97,182.95 174.079,194.56 153.97,206.17 164.21,223.91 184.32,212.299 184.32,235.52 204.8,235.52 204.8,212.297 
			224.915,223.91 235.155,206.17 215.046,194.56 		"/>
	</g>
</g>
<g>
	<g>
		<polygon points="337.555,182.95 327.315,165.21 307.2,176.823 307.2,153.6 286.72,153.6 286.72,176.821 266.61,165.21 
			256.37,182.95 276.479,194.56 256.37,206.17 266.61,223.91 286.72,212.299 286.72,235.52 307.2,235.52 307.2,212.297 
			327.315,223.91 337.555,206.17 317.446,194.56 		"/>
	</g>
</g>
<g>
	<g>
		<polygon points="439.955,182.95 429.715,165.21 409.6,176.823 409.6,153.6 389.12,153.6 389.12,176.821 369.01,165.21 
			358.77,182.95 378.879,194.56 358.77,206.17 369.01,223.91 389.12,212.299 389.12,235.52 409.6,235.52 409.6,212.297 
			429.715,223.91 439.955,206.17 419.846,194.56 		"/>
	</g>
</g>
<g>
	<g>
		<path d="M221.635,440.32l-12.7-64.74c6.805-8.12,10.495-18.18,10.495-28.88c0-25.01-20.345-45.35-45.35-45.35
			s-45.345,20.34-45.345,45.35c0,10.7,3.69,20.76,10.495,28.88l-12.7,64.74H221.635z M174.08,321.83
			c13.715,0,24.87,11.16,24.87,24.87c0,6.91-2.855,13.37-8.04,18.17l-4.19,3.88l10.025,51.09H151.42l10.025-51.09l-4.19-3.88
			c-5.185-4.8-8.04-11.26-8.04-18.17C149.215,332.99,160.37,321.83,174.08,321.83z"/>
	</g>
</g>
<g>
	<g>
		<path d="M296.96,122.88C296.96,55.12,241.835,0,174.08,0S51.2,55.12,51.2,122.88v102.4H0v266.24h348.16V266.24h143.36V122.88
			H296.96z M71.68,122.88c0-56.46,45.935-102.4,102.4-102.4s102.4,45.94,102.4,102.4H112.64v102.4H71.68V122.88z M327.68,471.04
			H20.48V245.76h92.16v20.48h215.04V471.04z M471.04,245.76H133.12v-102.4h337.92V245.76z"/>
	</g>
</g>
<g>
</g>
<g>
</g>
<g>
</g>
<g>
</g>
<g>
</g>
<g>
</g>
<g>
</g>
<g>
</g>
<g>
</g>
<g>
</g>
<g>
</g>
<g>
</g>
<g>
</g>
<g>
</g>
<g>
</g>
</svg>
