<svg width="24" height="24" viewBox="0 0 24 24" fill="none" xmlns="http://www.w3.org/2000/svg">
<g clip-path="url(#clip0_93_847)">
<path d="M20.9833 4.67544L16.4218 0.113883C16.3489 0.0409503 16.25 0 16.1469 0H4.12097C3.44929 0 2.90283 0.546454 2.90283 1.21814V22.7819C2.90283 23.4535 3.44929 24 4.12097 24H19.8791C20.5508 24 21.0972 23.4535 21.0972 22.7819V4.95032C21.0972 4.84722 21.0563 4.74832 20.9833 4.67544ZM16.5357 1.32731L19.7699 4.56155H16.9763C16.7333 4.56155 16.5357 4.3639 16.5357 4.12095V1.32731V1.32731ZM19.8791 23.2225H4.12097C3.87802 23.2225 3.68037 23.0248 3.68037 22.7819V1.21814C3.68037 0.975188 3.87802 0.777538 4.12097 0.777538H15.7581V4.12095C15.7581 4.79264 16.3046 5.33909 16.9763 5.33909H20.3197V22.7819C20.3197 23.0248 20.122 23.2225 19.8791 23.2225Z" fill="#333333"/>
<path d="M5.77988 3.26569H8.68269C8.89739 3.26569 9.07146 3.09163 9.07146 2.87693C9.07146 2.66222 8.89739 2.48816 8.68269 2.48816H5.77988C5.56518 2.48816 5.39111 2.66222 5.39111 2.87693C5.39111 3.09163 5.56518 3.26569 5.77988 3.26569Z" fill="#333333"/>
<path d="M5.77988 5.33906H10.3414C10.5561 5.33906 10.7302 5.165 10.7302 4.95029C10.7302 4.73559 10.5561 4.56152 10.3414 4.56152H5.77988C5.56518 4.56152 5.39111 4.73559 5.39111 4.95029C5.39111 5.165 5.56518 5.33906 5.77988 5.33906Z" fill="#333333"/>
<path d="M9.12305 8.2678C9.12305 8.4825 9.29711 8.65657 9.51182 8.65657H14.4881C14.7028 8.65657 14.8768 8.4825 14.8768 8.2678C14.8768 8.05309 14.7028 7.87903 14.4881 7.87903H9.51182C9.29711 7.87903 9.12305 8.05309 9.12305 8.2678Z" fill="#333333"/>
<path d="M18.2205 9.95251H5.77988C5.56518 9.95251 5.39111 10.1266 5.39111 10.3413C5.39111 10.556 5.56518 10.7301 5.77988 10.7301H18.2205C18.4352 10.7301 18.6093 10.556 18.6093 10.3413C18.6093 10.1266 18.4352 9.95251 18.2205 9.95251Z" fill="#333333"/>
<path d="M13.2442 17.4169H10.3414C10.1267 17.4169 9.95264 17.5909 9.95264 17.8056C9.95264 18.0203 10.1267 18.1944 10.3414 18.1944H13.2442C13.4589 18.1944 13.633 18.0203 13.633 17.8056C13.633 17.5909 13.4589 17.4169 13.2442 17.4169Z" fill="#333333"/>
<path d="M13.2442 19.4902H10.3414C10.1267 19.4902 9.95264 19.6643 9.95264 19.879C9.95264 20.0937 10.1267 20.2678 10.3414 20.2678H13.2442C13.4589 20.2678 13.633 20.0937 13.633 19.879C13.633 19.6643 13.4589 19.4902 13.2442 19.4902Z" fill="#333333"/>
<path d="M18.2205 12.0259H5.77988C5.56518 12.0259 5.39111 12.1999 5.39111 12.4146C5.39111 12.6294 5.56518 12.8034 5.77988 12.8034H18.2205C18.4352 12.8034 18.6093 12.6294 18.6093 12.4146C18.6093 12.1999 18.4352 12.0259 18.2205 12.0259Z" fill="#333333"/>
<path d="M18.2205 14.0994H5.77988C5.56518 14.0994 5.39111 14.2734 5.39111 14.4881C5.39111 14.7028 5.56518 14.8769 5.77988 14.8769H18.2205C18.4352 14.8769 18.6093 14.7028 18.6093 14.4881C18.6093 14.2734 18.4352 14.0994 18.2205 14.0994Z" fill="#333333"/>
<path d="M16.5617 17.0022C15.4327 17.0022 14.5142 17.9207 14.5142 19.0497C14.5142 20.1787 15.4327 21.0972 16.5617 21.0972C17.6907 21.0972 18.6092 20.1787 18.6092 19.0497C18.6092 17.9207 17.6907 17.0022 16.5617 17.0022ZM16.5617 20.3197C15.8614 20.3197 15.2917 19.75 15.2917 19.0497C15.2917 18.3495 15.8614 17.7797 16.5617 17.7797C17.2619 17.7797 17.8317 18.3495 17.8317 19.0497C17.8317 19.75 17.2619 20.3197 16.5617 20.3197Z" fill="#333333"/>
<path d="M16.5616 18.3499C16.1757 18.3499 15.8618 18.6638 15.8618 19.0496C15.8618 19.4355 16.1757 19.7494 16.5616 19.7494C16.9475 19.7494 17.2614 19.4355 17.2614 19.0496C17.2614 18.6638 16.9475 18.3499 16.5616 18.3499Z" fill="#333333"/>
</g>
<defs>
<clipPath id="clip0_93_847">
<rect width="24" height="24" fill="white"/>
</clipPath>
</defs>
</svg>
