<svg width="20" height="20" viewBox="0 0 20 20" fill="none" xmlns="http://www.w3.org/2000/svg">
<g clip-path="url(#clip0_92_373)">
<path d="M10 0.000976562C4.48601 0.000976562 0 4.48692 0 10.0009C0 15.5149 4.48601 20.0009 10 20.0009C15.5141 20.0009 20.0001 15.5149 20.0001 10.0009C20 4.48692 15.5141 0.000976562 10 0.000976562ZM15.7367 11.0551C15.7367 11.3395 15.5054 11.5708 15.221 11.5708H4.71457C4.43025 11.5708 4.19891 11.3395 4.19891 11.0551V8.99252C4.19891 8.7082 4.43025 8.47686 4.71457 8.47686H15.221C15.5054 8.47686 15.7367 8.7082 15.7367 8.99252V11.0551Z" fill="#EB5757"/>
</g>
<defs>
<clipPath id="clip0_92_373">
<rect width="20" height="20" fill="white"/>
</clipPath>
</defs>
</svg>
