<svg xmlns="http://www.w3.org/2000/svg" width="34.355" height="35.255" viewBox="0 0 34.355 35.255">
  <path id="Icon_map-car-repair" data-name="Icon map-car-repair" d="M15.432,5.536,13.68,7.92H9.588a3.818,3.818,0,0,0,4.465,2.347A18.341,18.341,0,0,1,18,10.08c1.273.305.742.307,3.025,2.138L32.4,21.6a1.511,1.511,0,0,0,2.205-.332,1.892,1.892,0,0,0-.045-2.548L20.16,7.2a4.927,4.927,0,0,1-1.44-2.88A5.464,5.464,0,0,0,13.708.745,5.627,5.627,0,0,0,9.36,3.6h4.32Zm9.878,17.5L20.86,15.314c-.176-.32-.62-.914-.985-.914H7.485c-.365,0-.809.594-.986.914L2.16,23.04H2.049c-.731,0-1.329.266-1.329,1v6.646c0,.732.6,1,1.329,1H3.6v2.326A1.822,1.822,0,0,0,5.372,36h.665A1.908,1.908,0,0,0,7.92,34.006V31.68H19.44v2.326A1.908,1.908,0,0,0,21.323,36h.665a1.822,1.822,0,0,0,1.773-1.994V31.68h1.551c.731,0,1.329-.266,1.329-1V24.037C26.64,23.306,26.042,23.04,25.311,23.04ZM4.375,28.025a1.662,1.662,0,1,1,1.662-1.662,1.661,1.661,0,0,1-1.662,1.662ZM5.7,23.04,8.4,17.4c.163-.327.6-.844.962-.844H18c.365,0,.8.517.962.844l2.694,5.636Zm17.28,4.985a1.662,1.662,0,1,1,1.662-1.662,1.662,1.662,0,0,1-1.662,1.662Z" transform="translate(-0.72 -0.745)" fill="#ffffff"/>
</svg>
