<svg width="60" height="60" viewBox="0 0 60 60" fill="none" xmlns="http://www.w3.org/2000/svg">
<path d="M30 0C13.4325 0 0 13.4325 0 30C0 46.5675 13.4325 60 30 60C46.5675 60 60 46.5675 60 30C60 13.4325 46.5675 0 30 0ZM49.3825 45.7625C48.73 44.2975 47.41 43.285 44.705 42.66C38.9725 41.3375 33.635 40.1775 36.2225 35.2975C44.085 20.4425 38.305 12.5 30 12.5C21.53 12.5 15.89 20.7475 23.7775 35.2975C26.4425 40.2075 20.9075 41.365 15.295 42.66C12.585 43.285 11.275 44.305 10.6275 45.775C7.115 41.4675 5 35.9775 5 30C5 16.215 16.215 5 30 5C43.785 5 55 16.215 55 30C55 35.9725 52.8875 41.4575 49.3825 45.7625Z" fill="#F9430E"/>
</svg>
