<svg width="300" height="215" viewBox="0 0 300 215" fill="none" xmlns="http://www.w3.org/2000/svg">
<path d="M258.586 185.317C258.586 185.317 264.886 183.924 273.503 182.89C282.119 181.856 288.724 177.979 289.36 173.759C289.996 169.539 283.204 166.624 273.373 170.915C263.85 175.072 258.586 185.317 258.586 185.317Z" fill="#FC6A3C"/>
<path d="M260.278 184.103C266.484 179.742 274.717 174.947 284.173 171.888" stroke="#DC9E9C" stroke-width="1.09644" stroke-miterlimit="10" stroke-linecap="round" stroke-linejoin="round"/>
<path d="M263.759 172.013C256.789 177.074 246.804 182.299 243.944 185.252C243.944 185.252 242.244 180.817 243.504 174.585C244.154 171.399 245.574 167.742 248.399 163.97C248.689 163.581 248.984 163.21 249.279 162.849C257.399 152.917 266.349 154.245 269.519 157.224C272.804 160.313 270.724 166.956 263.759 172.013Z" fill="#647CA3"/>
<path d="M249.279 162.849L248.899 171.306L243.504 174.585C244.154 171.399 245.574 167.742 248.399 163.97C248.689 163.581 248.984 163.21 249.279 162.849Z" fill="#404B7C"/>
<path d="M264.369 159.328C264.369 159.328 252.781 164.974 244.874 182.114" stroke="#D4E6FC" stroke-width="1.04332" stroke-miterlimit="10" stroke-linecap="round" stroke-linejoin="round"/>
<path d="M41.4139 185.317C41.4139 185.317 35.1139 183.924 26.4973 182.89C17.8808 181.856 11.2762 177.979 10.64 173.759C10.0039 169.539 16.796 166.624 26.6266 170.915C36.1502 175.072 41.4139 185.317 41.4139 185.317Z" fill="#FC6A3C"/>
<path d="M39.7224 184.103C33.5158 179.742 25.2831 174.947 15.8265 171.888" stroke="#DC9E9C" stroke-width="1.05091" stroke-miterlimit="10" stroke-linecap="round" stroke-linejoin="round"/>
<path d="M56.7076 185.253C56.7076 185.253 60.5941 175.115 52.251 163.97C43.9079 152.825 34.4162 154.137 31.1322 157.225C27.8482 160.312 29.9257 166.955 36.8933 172.014C43.8609 177.073 53.8496 182.298 56.7076 185.253Z" fill="#647CA3"/>
<path d="M36.283 159.328C36.283 159.328 47.8704 164.974 55.778 182.114" stroke="#DEEBFF" stroke-miterlimit="10" stroke-linecap="round" stroke-linejoin="round"/>
<path d="M102.422 185.318C102.422 185.318 106.505 183.999 112.192 182.783C117.88 181.567 121.875 178.555 121.806 175.672C121.736 172.788 116.813 171.231 110.691 174.717C104.761 178.094 102.422 185.318 102.422 185.318Z" fill="#647CA3"/>
<path d="M223.634 43.638C223.634 43.638 222.437 50.8813 215.31 53.032C215.31 53.032 216.936 58.581 227.226 58.5879C237.516 58.5948 240.638 54.5332 240.638 54.5332C240.638 54.5332 235.1 52.1266 236.345 46.2261C237.589 40.3257 225.173 39.222 223.634 43.638Z" fill="#404B7C"/>
<path d="M181.523 30.6025L180.709 30.0835C180.167 29.7383 179.763 29.2964 179.538 28.8031L176.641 22.436C176.526 22.1832 176.701 21.9096 177.044 21.8061C177.403 21.6974 177.819 21.8143 177.978 22.0689L179.577 24.6276L178.4 21.0962C178.312 20.8324 178.535 20.5666 178.902 20.497H178.902C179.246 20.4316 179.604 20.5615 179.734 20.7987L181.508 24.0494L180.845 20.2553C180.791 19.9488 181.106 19.6722 181.537 19.6471C181.899 19.626 182.232 19.7912 182.33 20.0412L183.779 23.7234L183.215 20.3794C183.171 20.1206 183.423 19.8838 183.784 19.8449C184.134 19.8073 184.465 19.9686 184.543 20.2148L186.401 26.0515L186.894 24.1987C186.986 23.8539 187.458 23.6314 187.938 23.7071V23.7071C188.34 23.7705 188.626 24.0265 188.622 24.3208L188.583 27.2827C188.574 27.9823 188.202 28.6546 187.539 29.1695L186.483 29.9897L187.65 32.329L182.964 33.3705L181.523 30.6025Z" fill="#DC9E9C"/>
<path d="M186.211 26.403C186.211 26.403 183.433 26.9488 183.593 29.3401" stroke="#404B7C" stroke-width="1.05091" stroke-miterlimit="10" stroke-linecap="round" stroke-linejoin="round"/>
<path d="M179.538 25.4969C179.538 25.4969 182.086 24.5824 184.489 24.2142" stroke="#404B7C" stroke-width="1.05091" stroke-miterlimit="10" stroke-linecap="round" stroke-linejoin="round"/>
<path d="M180.963 32.8013L188.128 31.3559L200.687 50.3533L217.729 56.5347C217.729 56.5347 223.704 58.6648 220.466 63.2181C217.228 67.7713 210.745 65.3284 210.745 65.3284L194.276 57.4035C192.32 56.4624 190.867 55.0767 190.154 53.4714L180.963 32.8013Z" fill="#FC6A3C"/>
<path d="M204.976 168.065L204.791 174.595L208.856 173.98L209.607 167.653L204.976 168.065Z" fill="#DC9E9C"/>
<path d="M210.383 171.604V184.595H195.97C195.698 183.183 195.715 181.867 196.337 180.756C196.337 180.756 196.825 180.403 197.569 179.717C199.063 178.337 201.578 175.593 203.16 171.604H210.383Z" fill="#FC6A3C"/>
<path d="M210.383 182.144V184.595H195.97C195.698 183.183 195.715 181.867 196.337 180.756C196.337 180.756 196.698 180.257 197.569 179.717C198.58 179.095 200.278 178.42 202.899 178.42C207.779 178.42 208.44 182.144 208.44 182.144H210.383Z" fill="#647CA3"/>
<path d="M208.439 172.863C208.439 172.863 207.648 176.255 205.867 177.998" stroke="#DC9E9C" stroke-width="1.09644" stroke-miterlimit="10" stroke-linecap="round" stroke-linejoin="round"/>
<path d="M204.284 172.863C204.284 172.863 203.492 176.255 201.711 177.998" stroke="#DC9E9C" stroke-width="1.09644" stroke-miterlimit="10" stroke-linecap="round" stroke-linejoin="round"/>
<path d="M223.334 100.119L219.999 118.728L211.033 168.772L202.056 168.883L198.715 98.9249C198.603 96.5689 199.417 94.2375 201.066 92.1954L202.651 90.2326C204.959 87.3741 209.576 85.8969 214.099 86.5697H214.099C218.746 87.261 222.199 90.057 222.581 93.4367L223.334 100.119Z" fill="#647CA3"/>
<path d="M223.334 100.119L219.999 118.728L215.39 106.747L212.06 97.6746L223.334 100.119Z" fill="#404B7C"/>
<path d="M214.812 105.224L217.094 111.241C217.424 112.113 218.428 112.77 219.673 112.93L221.007 113.102" stroke="#D4E6FC" stroke-width="1.04332" stroke-miterlimit="10" stroke-linecap="round" stroke-linejoin="round"/>
<path d="M216.186 115.451L209.445 166.736" stroke="#D4E6FC" stroke-width="1.04332" stroke-miterlimit="10" stroke-linecap="round" stroke-linejoin="round"/>
<path d="M206.861 143.349C209.024 143.263 210.625 141.229 210.436 138.807C210.247 136.385 208.34 134.491 206.177 134.577C204.014 134.663 202.413 136.696 202.602 139.119C202.791 141.541 204.698 143.435 206.861 143.349Z" stroke="#D4E6FC" stroke-width="1.04332" stroke-miterlimit="10" stroke-linecap="round" stroke-linejoin="round"/>
<path d="M203.099 167.294L210.657 167.236" stroke="#D4E6FC" stroke-width="1.04332" stroke-miterlimit="10" stroke-linecap="round" stroke-linejoin="round"/>
<path d="M244.762 168.108L245.82 174.595L241.691 174.26L240.097 168.014L244.762 168.108Z" fill="#DC9E9C"/>
<path d="M240.228 171.604V184.595H254.641C254.913 183.183 254.896 181.867 254.274 180.756C254.274 180.756 253.786 180.403 253.042 179.717C251.548 178.337 249.033 175.593 247.451 171.604H240.228Z" fill="#FC6A3C"/>
<path d="M240.228 182.144V184.595H254.641C254.913 183.183 254.896 181.866 254.274 180.756C254.274 180.756 253.913 180.256 253.042 179.717C252.031 179.095 250.333 178.42 247.712 178.42C242.832 178.42 242.171 182.144 242.171 182.144H240.228Z" fill="#647CA3"/>
<path d="M242.172 172.862C242.172 172.862 242.963 176.255 244.744 177.998" stroke="#DC9E9C" stroke-width="1.09644" stroke-miterlimit="10" stroke-linecap="round" stroke-linejoin="round"/>
<path d="M246.327 172.862C246.327 172.862 247.119 176.255 248.9 177.998" stroke="#DC9E9C" stroke-width="1.09644" stroke-miterlimit="10" stroke-linecap="round" stroke-linejoin="round"/>
<path d="M216.584 99.1732L223.205 120.023L238.828 169.225L247.778 168.723L240.845 97.6375L237.853 93.0399C235.733 89.7822 230.745 88.0021 225.825 88.7477H225.825C221.396 89.4191 218.024 91.9937 217.382 95.1952L216.584 99.1732Z" fill="#647CA3"/>
<path d="M226.562 116.5L240.135 167.09" stroke="#D4E6FC" stroke-width="1.04332" stroke-miterlimit="10" stroke-linecap="round" stroke-linejoin="round"/>
<path d="M239.578 143.633C241.742 143.571 243.387 141.556 243.251 139.132C243.115 136.707 241.249 134.793 239.084 134.855C236.92 134.917 235.275 136.932 235.411 139.356C235.547 141.78 237.413 143.695 239.578 143.633Z" stroke="#D4E6FC" stroke-width="1.04332" stroke-miterlimit="10" stroke-linecap="round" stroke-linejoin="round"/>
<path d="M246.528 167.213L238.996 167.67" stroke="#D4E6FC" stroke-width="1.04332" stroke-miterlimit="10" stroke-linecap="round" stroke-linejoin="round"/>
<path d="M224.656 56.3953C217.631 56.5319 213.427 55.2158 213.427 55.2158C213.427 55.2158 205.006 67.7069 205.301 69.2619C205.596 70.8169 207.511 78.0099 207.511 78.0099L196.801 96.4485C196.801 96.4485 204.116 101.33 215.989 101.479C227.862 101.628 243.698 97.328 243.698 97.328C243.698 97.328 235.606 81.4917 235.509 79.7248C235.413 77.9579 241.658 68.6332 241.96 64.6757C242.262 60.7182 224.656 56.3953 224.656 56.3953Z" fill="#FC6A3C"/>
<path d="M212.935 55.9527C212.041 57.2967 210.086 60.2671 208.378 63.0772" stroke="#DC9E9C" stroke-width="0.852492" stroke-miterlimit="10" stroke-linecap="round" stroke-linejoin="round"/>
<path d="M200.166 95.3199C200.166 95.3199 207.385 98.3638 215.498 98.8639C223.61 99.3641 240.634 95.4178 240.634 95.4178" stroke="#DC9E9C" stroke-width="1.09644" stroke-miterlimit="10" stroke-linecap="round" stroke-linejoin="round"/>
<path d="M225.745 55.9013C219.596 55.0383 217.958 58.9115 217.955 61.2672C217.955 61.2672 220.133 60.4206 223.959 60.2818C223.959 60.2818 226.002 60.9899 228.044 63.1115C228.044 63.1115 234.517 57.1322 225.745 55.9013Z" fill="#647CA3"/>
<path d="M229.578 50.6288L229.282 52.1673L228.181 57.8333L224.353 59.3417L222.513 57.5956L223.872 54.0552L224.629 52.0849L229.578 50.6288Z" fill="#DC9E9C"/>
<path d="M229.578 50.6288L229.282 52.1673C227.42 53.7205 224.949 54.0084 223.872 54.0553L224.629 52.0849L229.578 50.6288Z" fill="#404B7C"/>
<path d="M222.038 43.5574C222.038 43.5574 219.95 46.3399 220.149 49.8235C220.348 53.3071 224.245 53.4997 228.04 52.1383C231.835 50.7768 233.883 46.6684 233.883 46.6684C233.883 46.6684 235.336 43.1362 231.932 41.7081C228.527 40.28 224.18 40.9167 222.038 43.5574Z" fill="#DC9E9C"/>
<path d="M231.549 42.823C231.549 42.823 226.627 45.9981 220.012 44.3741C217.405 40.5949 225.456 35.2968 232.024 40.5202C241.545 42.3072 238.023 49.2662 232.613 48.6908C232.613 48.6908 230.186 46.8994 231.549 42.823Z" fill="#404B7C"/>
<path d="M230.092 50.2812L231.817 48.2374C231.817 48.2374 233.71 46.84 235.692 47.5939C237.674 48.3477 236.012 52.2553 230.092 50.2812Z" fill="#DC9E9C"/>
<path d="M235.18 48.4695C235.18 48.4695 232.972 48.4142 231.274 49.5041" stroke="#404B7C" stroke-width="1.04016" stroke-miterlimit="10" stroke-linecap="round" stroke-linejoin="round"/>
<path d="M233.638 49.949C233.638 49.949 233.773 49.3376 233.558 48.6327" stroke="#404B7C" stroke-width="1.04016" stroke-miterlimit="10" stroke-linecap="round" stroke-linejoin="round"/>
<path d="M231.919 50.0801C231.053 50.1207 230.428 51.003 230.524 52.0507C230.621 53.0984 231.401 53.9148 232.268 53.8742C233.135 53.8335 233.759 52.9513 233.663 51.9036C233.626 51.4993 233.487 51.1295 233.28 50.83" stroke="#FC6A3C" stroke-width="1.04016" stroke-miterlimit="10" stroke-linecap="round" stroke-linejoin="round"/>
<path d="M229.839 45.7023C229.839 45.7023 229.392 44.1895 227.782 44.44C227.782 44.44 227.853 44.128 227.482 44.0528C227.112 43.9776 226.775 44.8044 226.775 44.8044C226.775 44.8044 228.523 45.0179 229.839 45.7023Z" fill="#404B7C"/>
<path d="M221.592 44.8703C221.592 44.8703 222.199 43.5244 223.168 44.1063C223.168 44.1063 223.287 43.8591 223.537 43.8747C223.969 43.9015 223.772 44.7022 223.772 44.7022C223.772 44.7022 222.574 44.4988 221.592 44.8703Z" fill="#404B7C"/>
<path d="M228.214 47.5801C228.335 47.1933 228.078 46.823 227.64 46.753C227.202 46.6829 226.749 46.9397 226.628 47.3265C226.506 47.7134 226.763 48.0837 227.201 48.1537C227.639 48.2237 228.092 47.9669 228.214 47.5801Z" fill="#404B7C"/>
<path d="M227.324 47.3312C227.443 47.3312 227.54 47.2621 227.54 47.1769C227.54 47.0916 227.443 47.0225 227.324 47.0225C227.204 47.0225 227.108 47.0916 227.108 47.1769C227.108 47.2621 227.204 47.3312 227.324 47.3312Z" fill="white"/>
<path d="M223.542 46.8333C223.663 46.4465 223.406 46.0762 222.968 46.0061C222.53 45.9361 222.077 46.1929 221.956 46.5797C221.834 46.9665 222.091 47.3369 222.529 47.4069C222.967 47.4769 223.421 47.2201 223.542 46.8333Z" fill="#404B7C"/>
<path d="M222.652 46.5844C222.771 46.5844 222.868 46.5153 222.868 46.4301C222.868 46.3448 222.771 46.2757 222.652 46.2757C222.532 46.2757 222.436 46.3448 222.436 46.4301C222.436 46.5153 222.532 46.5844 222.652 46.5844Z" fill="white"/>
<path d="M224.859 46.8907L224.415 48.2582C224.415 48.2582 223.04 48.0466 223.172 48.6542C223.301 49.251 224.43 49.2312 224.43 49.2312" stroke="#404B7C" stroke-width="1.03614" stroke-miterlimit="10" stroke-linecap="round" stroke-linejoin="round"/>
<path d="M222.966 50.9043C222.966 50.9043 225.02 51.3623 227.12 50.3746C225.334 50.3546 223.743 50.2093 222.721 49.6962L222.966 50.9043Z" fill="white"/>
<path d="M240.638 62.5694C243.848 64.2394 255.699 83.2702 255.699 83.2702C255.699 83.2702 257.198 87.5221 250.959 88.5791C250.959 88.5791 243.568 89.3279 244.354 85.1472L245.577 83.8695C245.577 83.8695 236.657 75.3444 232.752 71.3262C228.848 67.3081 234.965 59.618 240.638 62.5694Z" fill="#FC6A3C"/>
<path d="M235.597 74.1853C234.522 73.121 233.536 72.1328 232.752 71.3262C229.177 67.6463 234.006 60.8868 239.202 62.0417" stroke="#DC9E9C" stroke-width="0.852492" stroke-miterlimit="10" stroke-linecap="round" stroke-linejoin="round"/>
<path d="M34.915 64.789C34.915 64.789 34.9307 64.8129 34.9592 64.852C35.1218 65.0556 35.2477 65.268 35.3382 65.4855C35.9654 66.7438 36.7169 69.5585 33.2303 72.5596C27.8875 73.3505 24.7596 71.5565 23.4945 70.5721C23.268 70.413 23.0644 70.2339 22.8889 70.0359C22.8539 69.9997 22.8349 69.9771 22.8349 69.9771C21.7467 68.6843 22.219 67.0564 23.8865 66.3402C25.5539 65.6241 27.7851 66.091 28.8733 67.3837C27.7851 66.091 28.2574 64.463 29.9249 63.7469C31.5923 63.0308 33.8268 63.4962 34.915 64.789Z" fill="#647CA3"/>
<path d="M278.457 126.586C278.457 126.586 278.444 126.602 278.424 126.629C278.323 126.773 278.202 126.906 278.063 127.027C277.297 127.767 275.335 129.156 271.594 128.887C268.906 127.011 269.138 125.045 269.439 124.15C269.479 123.996 269.544 123.844 269.635 123.697C269.651 123.668 269.661 123.652 269.661 123.652C270.277 122.711 271.761 122.277 272.975 122.682C274.189 123.087 274.674 124.177 274.058 125.119C274.674 124.177 276.157 123.744 277.371 124.149C278.585 124.554 279.072 125.645 278.457 126.586Z" fill="#647CA3"/>
<path d="M112.343 60.9027L111.56 60.2497C111.04 59.8154 110.69 59.2901 110.546 58.7275L108.697 51.4653C108.624 51.177 108.871 50.8966 109.267 50.8196H109.267C109.682 50.7388 110.112 50.9102 110.233 51.2052L111.452 54.1694L110.896 50.187C110.854 49.8895 111.152 49.6226 111.568 49.5852C111.957 49.5501 112.322 49.7298 112.414 50.0027L113.681 53.7413L113.74 49.526C113.745 49.1855 114.146 48.9165 114.622 48.9345C115.023 48.9497 115.352 49.1652 115.408 49.4487L116.23 53.6246L116.304 49.9116C116.31 49.6242 116.634 49.3921 117.037 49.3877C117.427 49.3834 117.755 49.5946 117.79 49.8718L118.613 56.4447L119.535 54.4724C119.706 54.1054 120.268 53.9121 120.777 54.0454H120.777C121.203 54.1571 121.462 54.4669 121.397 54.788L120.743 58.02C120.588 58.7834 120.043 59.4787 119.212 59.9714L117.889 60.7562L118.68 63.4351L113.346 64.0789L112.343 60.9027Z" fill="#DC9E9C"/>
<path d="M118.333 56.8088C118.333 56.8088 115.185 57.1122 114.865 59.7416" stroke="#404B7C" stroke-width="1.05091" stroke-miterlimit="10" stroke-linecap="round" stroke-linejoin="round"/>
<path d="M111.229 55.115C111.229 55.115 114.202 54.3846 116.904 54.2357" stroke="#404B7C" stroke-width="1.05091" stroke-miterlimit="10" stroke-linecap="round" stroke-linejoin="round"/>
<path d="M126.235 59.5995L117.364 74.8834L119.861 80.4888C121.117 82.6258 125.241 82.7492 126.661 80.6649C130.534 74.9792 138.918 63.6345 138.918 63.6345C140.807 60.4099 131.984 50.5192 126.235 59.5995Z" fill="#647CA3"/>
<path d="M111.348 66.911L109.896 63.844L120.047 61.814L121.207 64.9013L111.348 66.911Z" fill="white"/>
<path d="M111.348 66.911L109.896 63.844L120.047 61.814L121.207 64.9013L111.348 66.911Z" stroke="#647CA3" stroke-width="1.05091" stroke-miterlimit="10" stroke-linecap="round" stroke-linejoin="round"/>
<path d="M121.432 63.6345L110.141 66.3157C110.141 66.3157 112.816 74.1759 114.957 80.0659C116.067 83.1221 121.172 84.3869 124.693 82.4784L124.693 82.4784C126.714 81.3835 127.595 79.5193 126.918 77.7737L121.432 63.6345Z" fill="#647CA3"/>
<path d="M126.918 77.7737L122.96 67.5729" stroke="#404B7C" stroke-width="1.05091" stroke-miterlimit="10" stroke-linecap="round" stroke-linejoin="round"/>
<path d="M113.167 68.7794C113.797 68.7794 114.309 68.4141 114.309 67.9636C114.309 67.5131 113.797 67.1478 113.167 67.1478C112.536 67.1478 112.024 67.5131 112.024 67.9636C112.024 68.4141 112.536 68.7794 113.167 68.7794Z" fill="#404B7C"/>
<path d="M185.299 65.4126L186.181 64.8741C186.768 64.5158 187.212 64.0527 187.466 63.532L190.746 56.8107C190.876 56.5439 190.699 56.2503 190.338 56.1347C189.959 56.0135 189.514 56.131 189.337 56.3991L187.556 59.093L188.918 55.3583C189.02 55.0793 188.792 54.7933 188.404 54.7134C188.04 54.6383 187.655 54.7707 187.51 55.0207L185.522 58.4474L186.347 54.4252C186.413 54.1003 186.087 53.8012 185.63 53.7676V53.7676C185.245 53.7393 184.887 53.9096 184.774 54.1737L183.118 58.0643L183.824 54.519C183.878 54.2446 183.617 53.9889 183.235 53.9417H183.235C182.865 53.8961 182.508 54.0623 182.417 54.3227L180.258 60.4968L179.792 58.5195C179.706 58.1515 179.21 57.9074 178.698 57.9801C178.268 58.0411 177.957 58.3086 177.952 58.6215L177.9 61.7704C177.887 62.5141 178.262 63.2347 178.95 63.7927L180.046 64.6815L178.732 67.1493L183.68 68.3317L185.299 65.4126Z" fill="#DC9E9C"/>
<path d="M180.449 60.8735C180.449 60.8735 183.384 61.4983 183.139 64.0375" stroke="#404B7C" stroke-width="1.05091" stroke-miterlimit="10" stroke-linecap="round" stroke-linejoin="round"/>
<path d="M187.57 60.0176C187.57 60.0176 184.891 59.0047 182.348 58.5746" stroke="#404B7C" stroke-width="1.05091" stroke-miterlimit="10" stroke-linecap="round" stroke-linejoin="round"/>
<path d="M171.678 62.0489L177.128 78.1297L173.446 83.3913C171.741 85.3634 167.64 85.0292 166.69 82.813C164.096 76.7675 158.273 64.6323 158.273 64.6323C157.105 61.2375 167.967 52.4421 171.678 62.0489Z" fill="#647CA3"/>
<path d="M184.799 70.9188L186.899 68.0495L177.311 64.9211L175.496 67.8429L184.799 70.9188Z" fill="white"/>
<path d="M184.799 70.9188L186.899 68.0495L177.311 64.9211L175.496 67.8429L184.799 70.9188Z" stroke="#647CA3" stroke-width="1.05091" stroke-miterlimit="10" stroke-linecap="round" stroke-linejoin="round"/>
<path d="M175.548 66.5665L186.121 70.4643C186.121 70.4643 181.774 77.9338 178.382 83.516C176.623 86.4124 171.305 87.0973 168.24 84.8223L168.24 84.8223C166.482 83.5171 166.015 81.5779 167.063 79.9283L175.548 66.5665Z" fill="#647CA3"/>
<path d="M168.652 77.4254L173.184 70.2884" stroke="#404B7C" stroke-width="1.05091" stroke-miterlimit="10" stroke-linecap="round" stroke-linejoin="round"/>
<path d="M182.775 72.5734C183.406 72.5734 183.917 72.2082 183.917 71.7577C183.917 71.3071 183.406 70.9419 182.775 70.9419C182.144 70.9419 181.633 71.3071 181.633 71.7577C181.633 72.2082 182.144 72.5734 182.775 72.5734Z" fill="#404B7C"/>
<path d="M150.879 170.007C150.879 170.007 150.929 170.852 150.99 171.912C151.103 173.666 151.249 176.009 151.267 176.069C151.296 176.163 148.876 177.099 148.876 177.099L145.937 176.772L145.315 173.738L144.742 170.931L150.879 170.007Z" fill="#DC9E9C"/>
<path d="M138.524 185.317H154.133C154.133 185.317 154.215 184.276 154.117 182.822C153.984 180.685 153.468 177.649 151.76 175.717C151.76 175.717 147.822 176.55 144.595 175.845C144.595 175.845 142.237 179.063 139.972 181.372C139.956 181.39 139.936 181.408 139.921 181.426C138.795 182.566 138.519 184.078 138.524 185.317Z" fill="#404B7C"/>
<path d="M144.767 181.572C144.767 181.572 146.93 179.464 148.564 176.971" stroke="#647CA3" stroke-width="1.05091" stroke-miterlimit="10" stroke-linecap="round" stroke-linejoin="round"/>
<path d="M136.279 185.317H154.629V182.822H148.226C148.226 182.822 148.262 178.884 142.657 178.884C137.051 178.884 136.279 182.274 136.279 185.317Z" fill="#FC6A3C"/>
<path d="M150.879 170.007C150.879 170.007 150.929 170.852 150.99 171.912C149.672 172.334 147.29 173.107 145.315 173.738L144.742 170.931L150.879 170.007Z" fill="#404B7C"/>
<path d="M124.325 100.071C124.325 100.071 132.21 136.542 133.644 141.659C135.074 146.78 142.959 171.86 142.959 171.86C142.959 171.86 147.484 172.148 153.348 171.476C153.348 171.092 150.392 144.154 150.214 141.724C150.112 140.342 150.505 131.075 150.859 123.22C151.042 119.251 151.214 115.642 151.305 113.596C151.354 112.571 151.381 111.938 151.381 111.845C151.381 111.204 152.799 95.9522 145.108 90.0901C137.417 84.228 123.61 89.3223 124.325 100.071Z" fill="#FC6A3C"/>
<path d="M141.321 148.61C143.735 148.411 145.343 146.09 144.911 143.426C144.48 140.763 142.173 138.765 139.759 138.965C137.345 139.164 135.737 141.485 136.169 144.149C136.6 146.812 138.907 148.81 141.321 148.61Z" stroke="#DC9E9C" stroke-width="1.05091" stroke-miterlimit="10" stroke-linecap="round" stroke-linejoin="round"/>
<path d="M146.004 113.844C146.004 113.844 147.079 141.276 147.079 143.963C147.079 146.651 150.125 169.94 150.125 169.94" stroke="#DC9E9C" stroke-width="1.05091" stroke-miterlimit="10" stroke-linecap="round" stroke-linejoin="round"/>
<path d="M145.757 106.288C145.757 106.288 144.309 114.428 150.859 123.22C151.042 119.251 151.214 115.642 151.305 113.596L149.182 113.124C149.182 113.124 146.672 108.796 145.757 106.288Z" fill="#404B7C"/>
<path d="M144.309 100.637C144.309 100.637 145.899 109.478 149.182 113.124L151.305 113.596C151.305 113.596 148.539 107.448 148.073 100.637" stroke="#DC9E9C" stroke-width="1.05091" stroke-miterlimit="10" stroke-linecap="round" stroke-linejoin="round"/>
<path d="M174.068 170.007C174.068 170.007 174.117 170.852 174.178 171.912C174.291 173.666 174.437 176.009 174.455 176.069C174.484 176.163 172.064 177.099 172.064 177.099L169.125 176.772L168.504 173.738L167.93 170.931L174.068 170.007Z" fill="#DC9E9C"/>
<path d="M181.385 185.317H165.777C165.777 185.317 165.695 184.276 165.792 182.822C165.925 180.685 166.442 177.649 168.15 175.717C168.15 175.717 172.088 176.55 175.315 175.845C175.315 175.845 177.672 179.063 179.938 181.372C179.953 181.39 179.974 181.408 179.989 181.426C181.114 182.566 181.39 184.078 181.385 185.317Z" fill="#404B7C"/>
<path d="M175.142 181.572C175.142 181.572 172.98 179.464 171.345 176.971" stroke="#647CA3" stroke-width="1.05091" stroke-miterlimit="10" stroke-linecap="round" stroke-linejoin="round"/>
<path d="M183.63 185.317H165.281V182.822H171.684C171.684 182.822 171.648 178.884 177.253 178.884C182.858 178.884 183.63 182.274 183.63 185.317Z" fill="#FC6A3C"/>
<path d="M174.068 170.007C174.068 170.007 174.117 170.852 174.178 171.912C172.86 172.334 170.478 173.107 168.504 173.738L167.93 170.931L174.068 170.007Z" fill="#404B7C"/>
<path d="M147.513 100.071C147.513 100.071 158.531 136.542 159.966 141.659C161.396 146.78 166.147 171.86 166.147 171.86C166.147 171.86 170.672 172.148 176.536 171.476C176.536 171.092 176.713 144.154 176.536 141.724C176.434 140.342 175.988 95.9522 168.297 90.0901C160.606 84.228 146.798 89.3223 147.513 100.071Z" fill="#FC6A3C"/>
<path d="M170.902 148.61C173.332 148.56 175.212 146.346 175.102 143.666C174.992 140.985 172.934 138.854 170.505 138.905C168.076 138.955 166.195 141.169 166.305 143.849C166.415 146.53 168.473 148.661 170.902 148.61Z" stroke="#DC9E9C" stroke-width="1.05091" stroke-miterlimit="10" stroke-linecap="round" stroke-linejoin="round"/>
<path d="M154.936 114.465C154.936 114.465 163.162 141.429 163.558 144.101C163.954 146.773 167.297 169.941 167.297 169.941" stroke="#DC9E9C" stroke-width="1.05091" stroke-miterlimit="10" stroke-linecap="round" stroke-linejoin="round"/>
<path d="M166.607 84.4276C165.666 79.0531 170.906 68.6879 168.219 58.1307C168.219 58.1307 160.292 54.0038 152.498 53.236C144.705 52.4683 130.21 56.1949 130.21 56.1949C130.21 56.1949 129.254 82.2202 128.985 84.1397C128.716 86.0592 121.192 100.551 121.192 100.551C121.192 100.551 128.208 104.285 138.403 106.31L146.81 99.3036C146.81 99.3036 152.265 105.655 153.799 107.503C160.488 107.161 167.606 105.587 174.534 101.895C174.534 101.895 167.547 89.8022 166.607 84.4276Z" fill="#647CA3"/>
<path d="M168.408 58.9307C169.683 64.7874 168.622 70.5475 167.643 75.3886C167.643 75.3886 166.531 80.3856 166.526 82.0468" stroke="#404B7C" stroke-width="1.05091" stroke-miterlimit="10" stroke-linecap="round" stroke-linejoin="round"/>
<path d="M129.23 81.7705C129.735 76.4855 129.609 63.1458 130.032 58.2584" stroke="#404B7C" stroke-width="1.05091" stroke-miterlimit="10" stroke-linecap="round" stroke-linejoin="round"/>
<path d="M165.263 92.5854L166.293 95.1767L156.037 97.0962L154.962 94.4729L165.263 92.5854Z" fill="#404B7C"/>
<path d="M131.379 91.8771L130.131 94.419L140.206 96.7789L141.501 94.207L131.379 91.8771Z" fill="#404B7C"/>
<path d="M147.393 98.8718L150.08 96.8803C150.08 96.8803 148.199 89.4183 148.064 77.1336" stroke="#404B7C" stroke-width="1.05091" stroke-miterlimit="10" stroke-linecap="round" stroke-linejoin="round"/>
<path d="M151.827 52.0364C151.827 52.0364 155.253 52.5162 161.165 54.8196C161.165 54.8196 164.099 57.5229 165.711 61.5538L158.993 62.5135L162.038 66.7364L148.064 76.6537L137.674 66.0326L141.436 61.1059L134.897 60.2102C134.897 60.2102 138.032 55.4594 139.734 54.2438C141.436 53.0281 149.139 51.7804 151.827 52.0364Z" fill="#404B7C"/>
<path d="M151.961 53.3081C153.924 53.5884 157.914 54.8535 159.925 55.5158C158.844 58.3647 154.095 69.3824 148.244 74.6703C148.244 74.6703 143.658 61.2742 141.69 54.5639C144.276 54.0511 149.917 53.0161 151.961 53.3081Z" fill="white"/>
<path d="M145.987 67.9807C146.403 65.9886 147.604 60.7111 149.318 57.139L151.323 56.8351L152.722 57.459C152.722 57.459 153.77 62.2198 153.607 68.0236C152.002 70.5312 150.184 72.9165 148.244 74.6703C148.244 74.6703 147.248 71.7629 145.987 67.9807Z" fill="#404B7C"/>
<path d="M152.364 59.9533C152.364 59.9533 150.315 59.8108 149.106 59.8583" stroke="#647CA3" stroke-width="1.05091" stroke-miterlimit="10" stroke-linecap="round" stroke-linejoin="round"/>
<path d="M150.862 57.3949C150.862 57.3949 153.505 58.2906 156.237 60.2101C156.237 60.2101 156.864 53.364 151.803 52.6921C146.742 52.0203 145.354 59.2504 145.354 59.2504C145.354 59.2504 146.652 58.2906 150.862 57.3949Z" fill="white"/>
<path d="M148.229 53.7676C146.045 55.6511 145.354 59.2504 145.354 59.2504C145.354 59.2504 146.652 58.2907 150.862 57.3949C150.862 57.3949 153.505 58.2907 156.237 60.2102C156.237 60.2102 156.56 56.6866 154.873 54.4471" stroke="#647CA3" stroke-width="1.05091" stroke-miterlimit="10" stroke-linecap="round" stroke-linejoin="round"/>
<path d="M149.956 55.4204C149.956 55.4204 151.402 56.1383 153.38 55.6124L154.062 52.1458L154.815 48.3414L150.031 45.4084L149.988 45.3815V45.6195L149.983 47.5774L149.956 55.4204Z" fill="#DC9E9C"/>
<path d="M149.983 47.5772C150.204 49.1012 151.064 51.2626 154.062 52.1455L154.815 48.3411L150.032 45.4081C150.01 45.4888 149.999 45.5579 149.989 45.6193C149.956 45.8112 149.956 45.9264 149.956 45.9341C149.956 45.9341 149.849 46.6328 149.983 47.5772Z" fill="#404B7C"/>
<path d="M158.562 44.4727C158.562 44.4727 159.692 43.2971 161.017 43.8868C162.343 44.4766 161.258 46.9938 158.342 47.2615L158.562 44.4727Z" fill="#DC9E9C"/>
<path d="M160.483 44.6316C160.483 44.6316 159.533 44.917 158.838 46.0734" stroke="#404B7C" stroke-width="1.05091" stroke-miterlimit="10" stroke-linecap="round" stroke-linejoin="round"/>
<path d="M153.986 39.2354C158.252 38.8368 159.624 43.2343 159.365 46.5133C159.106 49.7923 155.455 52.0402 151.418 49.6904C147.38 47.3406 145.264 40.0503 153.986 39.2354Z" fill="#DC9E9C"/>
<path d="M149.992 50.3914L150.011 48.3987L149.883 46.4871L148.974 44.2766C148.974 44.2766 152.387 44.2189 150.832 41.4712C150.832 41.4712 155.438 44.6532 159.607 44.1612C163.776 43.6731 166.412 39.9816 165.547 39.0073C164.723 38.0735 162.897 39.2776 162.752 39.3754C162.931 39.1515 166.431 34.8547 163.52 32.6676C160.534 30.4259 153.73 35.2052 149.8 38.1027C149.198 38.5454 148.608 38.9581 148.043 39.3464C148.33 38.6274 148.758 37.4755 149.067 36.285C149.57 34.3198 145.6 35.1725 146.578 40.3023C146.578 40.3023 143.344 37.7487 141.747 38.584C140.4 39.2831 143.097 40.6603 145.484 41.0845C143.669 42.3545 142.468 43.4077 142.515 44.6231C142.596 46.6567 149.992 50.3914 149.992 50.3914Z" fill="#404B7C"/>
<path d="M148.894 45.4554C148.894 45.4554 148.057 44.1875 146.018 44.6326C143.98 45.0778 145.522 48.3037 149.659 47.4528L148.894 45.4554Z" fill="#DC9E9C"/>
<path d="M148.716 46.6202C148.716 46.6202 147.911 45.3798 146.143 45.3937" stroke="#404B7C" stroke-width="1.05091" stroke-miterlimit="10" stroke-linecap="round" stroke-linejoin="round"/>
<path d="M147.063 46.6303C147.063 46.6303 147.019 46.1252 147.544 45.6814" stroke="#404B7C" stroke-width="1.05091" stroke-miterlimit="10" stroke-linecap="round" stroke-linejoin="round"/>
<path d="M151.464 44.1785C151.464 44.1785 152.169 42.9323 153.494 43.3223C153.494 43.3223 153.5 43.0475 153.833 43.0236C154.166 42.9996 154.278 43.7441 154.278 43.7441C154.278 43.7441 152.736 43.7362 151.464 44.1785Z" fill="#404B7C"/>
<path d="M159.063 43.6502C159.063 43.6502 158.373 42.524 157.607 43.0881C157.607 43.0881 157.473 42.8817 157.259 42.9108C156.888 42.9612 157.158 43.6413 157.158 43.6413C157.158 43.6413 158.169 43.3904 159.063 43.6502Z" fill="#404B7C"/>
<path d="M153.587 46.3388C153.976 46.3266 154.275 46.0377 154.254 45.6934C154.233 45.3491 153.9 45.0798 153.51 45.092C153.12 45.1041 152.821 45.3931 152.842 45.7373C152.863 46.0816 153.197 46.3509 153.587 46.3388Z" fill="#404B7C"/>
<path d="M153.69 45.6239C153.794 45.6239 153.878 45.5638 153.878 45.4897C153.878 45.4156 153.794 45.3555 153.69 45.3555C153.586 45.3555 153.502 45.4156 153.502 45.4897C153.502 45.5638 153.586 45.6239 153.69 45.6239Z" fill="white"/>
<path d="M157.745 46.2089C158.135 46.1968 158.434 45.9079 158.413 45.5636C158.391 45.2193 158.058 44.95 157.668 44.9622C157.279 44.9743 156.98 45.2632 157.001 45.6075C157.022 45.9518 157.355 46.2211 157.745 46.2089Z" fill="#404B7C"/>
<path d="M157.849 45.4941C157.952 45.4941 158.037 45.434 158.037 45.3599C158.037 45.2858 157.952 45.2257 157.849 45.2257C157.745 45.2257 157.661 45.2858 157.661 45.3599C157.661 45.434 157.745 45.4941 157.849 45.4941Z" fill="white"/>
<path d="M156.311 46.922C156.311 46.922 157.166 47.1161 157.008 47.555C156.826 48.0637 155.808 47.9117 155.808 47.9117" stroke="#404B7C" stroke-width="1.05091" stroke-miterlimit="10" stroke-linecap="round" stroke-linejoin="round"/>
<path d="M153.496 47.1354C154.577 47.1354 155.454 46.509 155.454 45.7364C155.454 44.9637 154.577 44.3374 153.496 44.3374C152.414 44.3374 151.537 44.9637 151.537 45.7364C151.537 46.509 152.414 47.1354 153.496 47.1354Z" stroke="#404B7C" stroke-width="1.05091" stroke-miterlimit="10" stroke-linecap="round" stroke-linejoin="round"/>
<path d="M158.324 46.894C159.406 46.894 160.283 46.2676 160.283 45.495C160.283 44.7224 159.406 44.096 158.324 44.096C157.242 44.096 156.365 44.7224 156.365 45.495C156.365 46.2676 157.242 46.894 158.324 46.894Z" stroke="#404B7C" stroke-width="1.05091" stroke-miterlimit="10" stroke-linecap="round" stroke-linejoin="round"/>
<path d="M156.326 48.8751C156.326 48.8751 154.767 49.3233 153.181 48.249" stroke="#404B7C" stroke-width="1.05091" stroke-miterlimit="10" stroke-linecap="round" stroke-linejoin="round"/>
<path d="M95.4397 126.669V128.693" stroke="#6B81BE" stroke-miterlimit="10" stroke-linecap="round" stroke-linejoin="round"/>
<path d="M95.4397 130.853V132.877" stroke="#6B81BE" stroke-miterlimit="10" stroke-linecap="round" stroke-linejoin="round"/>
<path d="M99.785 129.773H96.9518" stroke="#6B81BE" stroke-miterlimit="10" stroke-linecap="round" stroke-linejoin="round"/>
<path d="M93.9276 129.773H91.0944" stroke="#6B81BE" stroke-miterlimit="10" stroke-linecap="round" stroke-linejoin="round"/>
<path d="M266.22 104.799V106.162" stroke="#6B81BE" stroke-miterlimit="10" stroke-linecap="round" stroke-linejoin="round"/>
<path d="M266.22 107.618V108.982" stroke="#6B81BE" stroke-miterlimit="10" stroke-linecap="round" stroke-linejoin="round"/>
<path d="M269.149 106.89H267.24" stroke="#6B81BE" stroke-miterlimit="10" stroke-linecap="round" stroke-linejoin="round"/>
<path d="M265.201 106.89H263.292" stroke="#6B81BE" stroke-miterlimit="10" stroke-linecap="round" stroke-linejoin="round"/>
<path d="M255.201 43.874V45.1557" stroke="#6B81BE" stroke-miterlimit="10" stroke-linecap="round" stroke-linejoin="round"/>
<path d="M255.201 46.5239V47.8057" stroke="#6B81BE" stroke-miterlimit="10" stroke-linecap="round" stroke-linejoin="round"/>
<path d="M257.953 45.8398H256.158" stroke="#6B81BE" stroke-miterlimit="10" stroke-linecap="round" stroke-linejoin="round"/>
<path d="M254.243 45.8398H252.448" stroke="#6B81BE" stroke-miterlimit="10" stroke-linecap="round" stroke-linejoin="round"/>
<path d="M45.3632 47.0679V48.3496" stroke="#6B81BE" stroke-miterlimit="10" stroke-linecap="round" stroke-linejoin="round"/>
<path d="M45.3632 49.7178V50.9996" stroke="#6B81BE" stroke-miterlimit="10" stroke-linecap="round" stroke-linejoin="round"/>
<path d="M48.1153 49.0338H46.3209" stroke="#6B81BE" stroke-miterlimit="10" stroke-linecap="round" stroke-linejoin="round"/>
<path d="M44.4054 49.0338H42.611" stroke="#6B81BE" stroke-miterlimit="10" stroke-linecap="round" stroke-linejoin="round"/>
<path d="M34.2317 129.301V130.313" stroke="#6B81BE" stroke-miterlimit="10" stroke-linecap="round" stroke-linejoin="round"/>
<path d="M34.2317 131.393V132.405" stroke="#6B81BE" stroke-miterlimit="10" stroke-linecap="round" stroke-linejoin="round"/>
<path d="M36.4044 130.853H34.9878" stroke="#6B81BE" stroke-miterlimit="10" stroke-linecap="round" stroke-linejoin="round"/>
<path d="M33.4757 130.853H32.0591" stroke="#6B81BE" stroke-miterlimit="10" stroke-linecap="round" stroke-linejoin="round"/>
<path d="M19.9742 97.8507C21.2142 97.8507 22.2194 97.1326 22.2194 96.2469C22.2194 95.3612 21.2142 94.6432 19.9742 94.6432C18.7342 94.6432 17.729 95.3612 17.729 96.2469C17.729 97.1326 18.7342 97.8507 19.9742 97.8507Z" stroke="#6B81BE" stroke-miterlimit="10" stroke-linecap="round" stroke-linejoin="round"/>
<path d="M208.529 35.8885C209.909 35.8885 211.029 35.089 211.029 34.1027C211.029 33.1164 209.909 32.3169 208.529 32.3169C207.148 32.3169 206.029 33.1164 206.029 34.1027C206.029 35.089 207.148 35.8885 208.529 35.8885Z" fill="#E9F3FF"/>
<path d="M275.664 77.3897C276.75 77.3897 277.632 76.7604 277.632 75.9841C277.632 75.2078 276.75 74.5785 275.664 74.5785C274.577 74.5785 273.696 75.2078 273.696 75.9841C273.696 76.7604 274.577 77.3897 275.664 77.3897Z" fill="#E9F3FF"/>
<path d="M45.3632 114.607C45.3632 114.607 53.9569 121.635 74.481 120.621C95.0051 119.608 100.727 111.535 100.727 111.535L95.7637 95.1181L53.9825 98.9153L45.3632 114.607Z" fill="#647CA3"/>
<path d="M86.2563 169.841L85.9253 175.28C85.9253 175.28 84.2229 176.09 82.1421 175.28L81.5746 169.436L86.2563 169.841Z" fill="#DC9E9C"/>
<path d="M79.3046 180.043C79.1008 181.466 79.3489 183.236 79.9194 185.253L81.5746 185.253C81.5746 185.253 82.3312 182.069 83.1825 180.651C84.0337 179.232 80.1086 178.793 79.3046 180.043Z" fill="#404B7C"/>
<path d="M81.5741 174.469C81.5741 174.469 83.3711 175.111 86.4923 174.469C86.4923 174.469 91.5997 180.617 93.3495 181.731C95.0992 182.846 98.9298 184.062 100.254 184.569C101.578 185.076 91.4578 185.447 89.0933 185.143C86.7288 184.839 84.7426 182.711 82.7564 181.563C80.7701 180.414 79.3041 180.042 79.3041 180.042C79.3041 180.042 79.8243 176.901 81.5741 174.469Z" fill="#FC6A3C"/>
<path d="M93.9647 97.115C93.9647 97.115 97.0386 108.635 96.613 113.397C96.1874 118.159 92.4987 138.427 92.4987 138.427L87.8169 170.348C87.8169 170.348 82.4967 171.057 80.014 170.095C80.014 170.095 79.2337 161.177 78.3825 156.515C77.5312 151.854 78.3825 147.395 78.9499 143.696C78.9499 143.696 75.3322 128.293 74.481 114.714C73.6297 101.135 76.1834 93.6358 83.5608 93.1291C90.9381 92.6224 93.9647 97.115 93.9647 97.115Z" fill="#404B7C"/>
<path d="M82.4258 169.267C82.4258 169.267 80.6287 157.377 80.7233 154.539C80.8179 151.702 81.9529 143.798 81.9529 143.798L78.9128 114.225" stroke="#647CA3" stroke-width="0.993116" stroke-miterlimit="10" stroke-linecap="round" stroke-linejoin="round"/>
<path d="M54.2322 169.5L53.3334 175.344C53.3334 175.344 51.6309 176.154 49.5501 175.344L49.5504 169.094L54.2322 169.5Z" fill="#DC9E9C"/>
<path d="M46.7127 180.106C46.5089 181.53 46.757 183.3 47.3275 185.317L48.9826 185.317C48.9826 185.317 49.7393 182.133 50.5905 180.714C51.4418 179.296 47.5166 178.857 46.7127 180.106Z" fill="#404B7C"/>
<path d="M48.9821 174.533C48.9821 174.533 50.7792 175.175 53.9003 174.533C53.9003 174.533 59.0077 180.681 60.7575 181.795C62.5072 182.91 66.3378 184.126 67.6619 184.633C68.9861 185.139 58.8659 185.511 56.5013 185.207C54.1368 184.903 52.1506 182.775 50.1644 181.626C48.1782 180.478 46.7122 180.106 46.7122 180.106C46.7122 180.106 47.2324 176.965 48.9821 174.533Z" fill="#FC6A3C"/>
<path d="M78.2051 103.124L76.9637 115.048C76.9637 115.048 65.9686 137.882 63.6987 142.848C61.4287 147.813 56.4159 169.263 56.4159 169.263C56.4159 169.263 54.9026 170.258 51.5923 170.258C48.2819 170.258 47.5253 169.128 47.5253 169.128C47.5253 169.128 46.8159 152.982 47.5253 148.827C48.2347 144.672 50.5046 138.389 50.6465 135.45C50.7883 132.511 50.5046 116.399 51.4977 109.711C52.4908 103.022 56.8888 92.7076 67.0327 92.7475C77.1765 92.7873 78.6984 98.3852 78.2051 103.124Z" fill="#404B7C"/>
<path d="M56.4159 103.597C56.4159 103.597 54.2405 123.729 54.2405 127.58C54.2405 131.431 53.3893 136.227 52.9164 138.862C52.4435 141.497 50.741 148.388 50.4573 153.522C50.1735 158.656 49.9844 168.452 49.9844 168.452" stroke="#647CA3" stroke-width="0.993116" stroke-miterlimit="10" stroke-linecap="round" stroke-linejoin="round"/>
<path d="M81.1489 102.212L80.3988 111.768C80.3343 112.589 79.7963 113.355 78.9128 113.883L76.9637 115.048" stroke="#647CA3" stroke-width="0.993116" stroke-miterlimit="10" stroke-linecap="round" stroke-linejoin="round"/>
<path d="M78.2051 102.49L76.9637 115.048" stroke="#647CA3" stroke-width="0.993116" stroke-miterlimit="10" stroke-linecap="round" stroke-linejoin="round"/>
<path d="M73.6227 57.7693C73.6227 57.7693 83.2971 50.4791 99.3164 40.1186L102.127 40.7123C102.127 40.7123 107.358 43.7215 107.649 45.4406C107.94 47.1597 93.7023 58.6044 84.6045 63.3511C75.5067 68.0977 73.6227 57.7693 73.6227 57.7693Z" fill="#FC6A3C"/>
<path d="M98.1654 39.6459C98.1654 39.6459 98.6084 43.9146 104.446 46.2246C108.75 47.9277 111.515 46.5648 111.515 46.5648L112.514 43.7365C112.514 43.7365 110.343 40.5047 106.74 38.5128C103.138 36.5208 99.9483 36.3569 99.9483 36.3569L98.1654 39.6459Z" fill="#404B7C"/>
<path d="M117.554 18.8596L114.494 25.131C114.259 25.6167 113.844 26.0489 113.294 26.381L112.199 26.731C111.729 27.5667 108.684 42.9239 108.684 42.9239C103.869 41.4239 101.099 37.6846 101.099 37.6846L106.274 28.981L107.744 26.3417L106.549 25.3739C105.909 24.8524 105.559 24.181 105.569 23.4846L105.619 20.5489C105.624 20.256 105.914 20.006 106.314 19.9489C106.794 19.881 107.254 20.1096 107.334 20.4524L107.769 22.2989L109.784 16.5382C109.859 16.3239 110.129 16.1739 110.434 16.1739C110.474 16.1739 110.509 16.1774 110.549 16.181C110.904 16.2274 111.149 16.4632 111.094 16.7203L110.439 20.0274L111.984 16.3989C112.079 16.1703 112.374 16.0167 112.699 16.0167C112.724 16.0167 112.754 16.0167 112.779 16.0203C113.209 16.0524 113.514 16.331 113.449 16.6346L112.679 20.3846L114.534 17.1882C114.644 16.9989 114.899 16.881 115.174 16.881C115.239 16.881 115.304 16.8882 115.369 16.9024C115.729 16.9774 115.944 17.2453 115.849 17.5024L114.579 20.9881L116.239 18.4739C116.359 18.2917 116.614 18.1846 116.884 18.1846C116.979 18.1846 117.079 18.1989 117.174 18.2274C117.509 18.3346 117.674 18.6096 117.554 18.8596Z" fill="#DC9E9C"/>
<path d="M107.947 22.7003C107.947 22.7003 110.686 23.2833 110.458 25.6522" stroke="#404B7C" stroke-width="1.05091" stroke-miterlimit="10" stroke-linecap="round" stroke-linejoin="round"/>
<path d="M114.592 21.9018C114.592 21.9018 112.092 20.9568 109.72 20.5555" stroke="#404B7C" stroke-width="1.05091" stroke-miterlimit="10" stroke-linecap="round" stroke-linejoin="round"/>
<path d="M71.4323 40.7086C71.4323 40.7086 70.6927 37.58 67.8416 36.3054C64.9904 35.0309 61.8914 36.8421 60.2259 39.519C58.5604 42.1958 60.3831 45.2153 65.8768 43.5745C70.1927 42.2855 71.4323 40.7086 71.4323 40.7086Z" fill="#404B7C"/>
<path d="M70.6008 40.5688C70.6008 40.5688 64.7653 41.3453 63.836 44.6991C62.9067 48.053 69.6598 52.391 74.7431 51.5466C79.8264 50.702 79.9756 47.8331 79.9756 47.8331C79.9756 47.8331 83.8294 48.4613 85.0698 45.8989C86.3103 43.3366 84.6634 42.4481 82.6201 42.2668C82.6201 42.2668 84.7865 39.2268 80.7691 37.9745C76.7517 36.7223 72.8911 37.5842 70.6008 40.5688Z" fill="#404B7C"/>
<path d="M70.6008 40.5688C70.5987 40.5691 66.3109 41.1401 64.502 43.4161" stroke="#647CA3" stroke-width="0.993116" stroke-miterlimit="10" stroke-linecap="round" stroke-linejoin="round"/>
<path d="M74.481 55.4446L64.1244 61.8795C64.1244 61.8795 53.484 99.4756 53.9096 99.4756C54.3352 99.4756 68.1914 102.617 80.7707 100.894C93.35 99.1716 95.6199 96.8408 95.6199 96.8408L89.5194 72.5199L88.6935 60.0552C88.5384 57.7136 85.9174 55.8396 82.6393 55.7264L74.481 55.4446Z" fill="#647CA3"/>
<path d="M53.9095 99.4756C54.3352 99.4756 68.1913 102.617 80.7706 100.894C93.35 99.1716 95.6199 96.8408 95.6199 96.8408" stroke="#404B7C" stroke-width="0.993116" stroke-miterlimit="10" stroke-linecap="round" stroke-linejoin="round"/>
<path d="M60.0101 98.7325C60.0101 98.7325 80.345 100.151 93.4918 95.8951" stroke="#404B7C" stroke-width="0.993116" stroke-miterlimit="10" stroke-linecap="round" stroke-linejoin="round"/>
<path d="M74.481 85.0858C73.2496 100.42 65.1175 113.055 65.1175 113.055C57.0762 116.298 45.3632 114.607 45.3632 114.607C45.3632 114.607 53.0129 92.5847 54.9027 83.667C56.7924 74.7494 58.2395 61.5755 58.2395 61.5755C58.2395 61.5755 66.0765 56.6668 71.6549 55.1589C71.3996 57.0518 70.4575 64.8872 71.4052 70.4932C72.4948 76.9099 74.481 85.0858 74.481 85.0858Z" fill="#FC6A3C"/>
<path d="M76.9637 55.1589C76.9637 55.1589 78.0122 54.7634 79.8184 54.1894C84.1447 52.8145 89.0229 55.0685 89.0229 58.4508V62.0822C89.0229 62.0822 92.0022 69.1758 92.144 70.4425C92.2859 71.7093 90.7963 76.1174 90.7963 76.1174C90.7963 76.1174 99.7342 100.793 100.727 111.535C100.727 111.535 95.4071 111.332 89.8741 110.369C89.8741 110.369 89.8977 101.165 89.4248 94.3412C88.9519 87.5178 87.4386 82.9239 87.4386 82.9239C87.4386 82.9239 82.0475 66.8451 80.7706 63.4672C79.4938 60.0893 76.9637 55.1589 76.9637 55.1589Z" fill="#FC6A3C"/>
<path d="M93.8725 85.0838C92.1554 79.8687 90.7962 76.1164 90.7962 76.1164C90.7962 76.1164 92.2859 71.7083 92.144 70.4416C92.0021 69.1749 89.0228 62.0813 89.0228 62.0813L89.1554 58.6728C89.2256 56.8671 87.7845 55.2049 85.4901 54.4452L83.7532 53.8701" stroke="#DC9E9C" stroke-width="0.852492" stroke-miterlimit="10" stroke-linecap="round" stroke-linejoin="round"/>
<path d="M73.4406 53.8399C70.5818 54.1595 68.0967 58.704 67.0327 62.7237L70.2367 64.818L67.0327 68.8715C67.0327 68.8715 71.8327 77.4514 74.481 85.0855C74.481 85.0855 73.2514 72.6548 72.4002 65.7976C72.5657 58.7547 77.1056 58.4983 80.7706 65.1221C84.3174 72.4521 87.4386 82.9236 87.4386 82.9236C87.4386 82.9236 87.8169 72.4521 87.0603 66.811L82.3312 64.21L83.7499 61.5753C83.7499 61.5753 78.879 53.2318 73.4406 53.8399Z" fill="#FC6A3C"/>
<path d="M87.3832 80.5664C87.3832 80.5664 87.8169 72.4524 87.0603 66.8113L82.3312 64.2103L83.7499 61.5755C83.7499 61.5755 82.0998 58.7491 79.6482 56.5063" stroke="#DC9E9C" stroke-width="0.852492" stroke-miterlimit="10" stroke-linecap="round" stroke-linejoin="round"/>
<path d="M70.061 56.1953C68.7168 57.9493 67.6419 60.4227 67.0327 62.724L70.2367 64.8183L67.0327 68.8718C67.0327 68.8718 70.6975 75.4224 73.3893 82.169" stroke="#DC9E9C" stroke-width="0.852492" stroke-miterlimit="10" stroke-linecap="round" stroke-linejoin="round"/>
<path d="M80.7688 65.1223C80.0594 66.9788 78.0278 67.7895 78.0278 67.7895C75.0031 67.6233 72.3983 65.7993 72.3983 65.7993V58.6692C72.3643 56.7276 71.7343 52.0539 71.496 50.3515C71.4393 49.9542 71.4052 49.7191 71.4052 49.7191L76.087 50.4325C76.087 50.4325 76.1891 52.0093 76.3821 53.7645C76.5693 55.4345 76.8531 57.2708 77.222 58.0612C77.9824 59.6826 80.7688 65.1223 80.7688 65.1223Z" fill="#DC9E9C"/>
<path d="M76.3821 53.7645C73.6865 53.1686 72.2451 51.6121 71.496 50.3515C71.4393 49.9542 71.4052 49.7191 71.4052 49.7191L76.087 50.4325C76.087 50.4325 76.1891 52.0093 76.3821 53.7645Z" fill="#404B7C"/>
<path d="M80.5254 44.6576C80.5254 44.6576 81.4623 47.3524 80.237 50.2913C79.0117 53.2301 75.631 52.7916 72.8085 51.0442C69.9861 49.2968 69.486 45.478 69.486 45.478C69.486 45.478 69.3173 42.2422 72.6525 41.5513C75.9877 40.8604 79.4999 42.0753 80.5254 44.6576Z" fill="#DC9E9C"/>
<path d="M72.6407 42.5608C72.6407 42.5608 75.8738 46.0285 82.0053 45.667C82.0053 45.667 80.4587 39.3942 72.9333 40.5243C65.4079 41.6543 66.7774 46.0213 69.9549 47.3982C69.9549 47.3982 72.5673 46.2465 72.6407 42.5608Z" fill="#404B7C"/>
<path d="M71.622 49.1438L70.7709 47.1348C70.7709 47.1348 69.5813 45.6511 67.6631 45.9872C65.7449 46.3233 65.9771 49.9113 71.622 49.1438Z" fill="#DC9E9C"/>
<path d="M67.8345 46.8128C67.8345 46.8128 69.7331 47.107 70.8505 48.2988" stroke="#404B7C" stroke-width="0.993116" stroke-miterlimit="10" stroke-linecap="round" stroke-linejoin="round"/>
<path d="M68.6998 48.3123C68.6998 48.3123 68.7691 47.77 69.1673 47.2026" stroke="#404B7C" stroke-width="0.993116" stroke-miterlimit="10" stroke-linecap="round" stroke-linejoin="round"/>
<path d="M70.1255 48.6899C70.852 48.8585 71.1171 49.7072 70.7175 50.5855C70.3179 51.4637 69.405 52.0389 68.6784 51.8703C67.9519 51.7016 67.6869 50.8529 68.0864 49.9747C68.2406 49.6358 68.4713 49.342 68.7381 49.1187" stroke="#FC6A3C" stroke-width="0.993116" stroke-miterlimit="10" stroke-linecap="round" stroke-linejoin="round"/>
<path d="M72.9248 45.6858C72.9248 45.6858 73.7674 44.4605 75.069 44.9248C75.069 44.9248 75.1031 44.6468 75.4431 44.6399C75.7832 44.6331 75.8202 45.393 75.8202 45.393C75.8202 45.393 74.2591 45.3043 72.9248 45.6858Z" fill="#404B7C"/>
<path d="M80.2348 46.2538C80.2348 46.2538 80.1251 45.0078 79.1192 45.3554C79.1192 45.3554 79.0925 45.1254 78.8738 45.0999C78.4956 45.0558 78.4211 45.7716 78.4211 45.7716C78.4211 45.7716 79.5079 45.7835 80.2348 46.2538Z" fill="#404B7C"/>
<path d="M75.4869 47.1404C75.5008 46.7906 75.1909 46.5004 74.7948 46.4922C74.3987 46.4841 74.0663 46.7611 74.0525 47.111C74.0386 47.4608 74.3485 47.751 74.7446 47.7591C75.1407 47.7672 75.4731 47.4902 75.4869 47.1404Z" fill="#404B7C"/>
<path d="M74.937 47.0403C75.0423 47.0403 75.1278 46.9793 75.1278 46.9041C75.1278 46.8288 75.0423 46.7678 74.937 46.7678C74.8316 46.7678 74.7462 46.8288 74.7462 46.9041C74.7462 46.9793 74.8316 47.0403 74.937 47.0403Z" fill="white"/>
<path d="M79.7121 47.2265C79.726 46.8767 79.4161 46.5865 79.02 46.5784C78.6239 46.5702 78.2915 46.8473 78.2777 47.1971C78.2638 47.5469 78.5737 47.8371 78.9698 47.8452C79.3659 47.8533 79.6983 47.5763 79.7121 47.2265Z" fill="#404B7C"/>
<path d="M79.1622 47.1265C79.2676 47.1265 79.353 47.0654 79.353 46.9902C79.353 46.9149 79.2676 46.8539 79.1622 46.8539C79.0568 46.8539 78.9714 46.9149 78.9714 46.9902C78.9714 47.0654 79.0568 47.1265 79.1622 47.1265Z" fill="white"/>
<path d="M77.1331 47.0417L77.0968 48.2809C77.0968 48.2809 78.3378 48.3133 78.0403 48.8127C77.7481 49.3034 76.7877 49.1112 76.7877 49.1112" stroke="#404B7C" stroke-width="0.993116" stroke-miterlimit="10" stroke-linecap="round" stroke-linejoin="round"/>
<path d="M77.26 50.4711C77.26 50.4711 75.6348 50.8434 74.1384 49.6722" stroke="#404B7C" stroke-width="0.993116" stroke-miterlimit="10" stroke-linecap="round" stroke-linejoin="round"/>
<path d="M213.197 185.317H265.988" stroke="#6B81BE" stroke-miterlimit="10" stroke-linecap="round" stroke-linejoin="round"/>
<path d="M34.9808 185.317H200.527" stroke="#6B81BE" stroke-miterlimit="10" stroke-linecap="round" stroke-linejoin="round"/>
<path d="M87.4381 191.793H61.0571" stroke="#6B81BE" stroke-miterlimit="10" stroke-linecap="round" stroke-linejoin="round"/>
<path d="M247.498 191.793H96.028" stroke="#6B81BE" stroke-miterlimit="10" stroke-linecap="round" stroke-linejoin="round"/>
<path d="M173.947 198.269H191.826" stroke="#6B81BE" stroke-miterlimit="10" stroke-linecap="round" stroke-linejoin="round"/>
<path d="M87.6442 198.269H168.047" stroke="#6B81BE" stroke-miterlimit="10" stroke-linecap="round" stroke-linejoin="round"/>
<path d="M66.296 84.2447C63.4445 86.6209 51.2246 155.13 51.2246 155.13C51.2246 155.13 59.7791 156.148 61.2048 156.148C62.6306 156.148 63.8187 152.754 66.6702 152.414C69.5216 152.075 76.1751 155.639 76.888 156.148V154.451C76.888 154.451 125.838 163.956 157.442 163.956C189.046 163.956 238.947 155.3 238.947 155.3V153.263C238.947 153.263 243.462 152.923 248.215 156.148C252.967 159.373 260.096 162.089 265.561 162.259C265.561 162.259 249.4 85.5947 248.45 83.3882L243.418 81.3805C243.418 81.3805 201.512 90.8017 154.17 90.8017C106.829 90.8017 70.9474 82.4848 70.9474 82.4848L66.296 84.2447Z" fill="#E9F3FF"/>
<path d="M74.1385 92.5854C74.1385 92.5854 101.278 105.985 130.131 109.994" stroke="#647CA3" stroke-width="0.852492" stroke-miterlimit="10" stroke-linecap="round" stroke-linejoin="round"/>
<path d="M233.619 90.9786C233.619 90.9786 209.694 102.016 186.121 103.597" stroke="#647CA3" stroke-width="0.852492" stroke-miterlimit="10" stroke-linecap="round" stroke-linejoin="round"/>
<path d="M240.634 93.5764L239.331 147.44" stroke="#647CA3" stroke-width="0.852492" stroke-miterlimit="10" stroke-linecap="round" stroke-linejoin="round"/>
<path d="M234.191 101.483C234.191 101.483 210.966 142.688 170.124 151.344" stroke="#647CA3" stroke-width="0.852492" stroke-miterlimit="10" stroke-linecap="round" stroke-linejoin="round"/>
<path d="M80.2348 113.883C80.2348 113.883 110.211 147.95 148.736 148.119C148.736 148.119 171.321 147.222 186.899 136.024" stroke="#647CA3" stroke-width="0.852492" stroke-miterlimit="10" stroke-linecap="round" stroke-linejoin="round"/>
<path d="M75.3912 112.431L76.751 149.138" stroke="#647CA3" stroke-width="0.852492" stroke-miterlimit="10" stroke-linecap="round" stroke-linejoin="round"/>
<path d="M72.0567 97.4272L62.7482 150.496" stroke="#647CA3" stroke-width="0.852492" stroke-miterlimit="10" stroke-linecap="round" stroke-linejoin="round"/>
<path d="M123.735 129.954C120.231 129.792 116.724 129.525 113.211 129.077C113.297 127.537 113.385 125.952 113.476 124.303C116.603 124.786 119.727 125.102 122.848 125.292C122.886 124.463 122.925 123.608 122.964 122.725C119.851 122.533 116.734 122.218 113.615 121.755C113.696 120.248 113.779 118.685 113.864 117.058C117.153 117.427 120.439 117.711 123.721 117.9C123.762 116.912 123.803 115.896 123.844 114.852C119.073 114.575 114.296 114.175 109.511 113.81C109.147 119.916 108.812 125.267 108.505 130.902C113.556 131.549 118.595 131.85 123.628 132.056C123.663 131.383 123.699 130.682 123.735 129.954Z" fill="#647CA3" stroke="#647CA3" stroke-width="0.25" stroke-miterlimit="10"/>
<path d="M142.061 130.31C138.651 130.256 135.241 130.172 131.834 130.027C132.303 125.842 132.838 120.864 133.431 115.192C131.941 115.094 130.451 114.985 128.962 114.865C128.222 121.739 127.581 127.458 127.043 131.929C131.969 132.254 136.893 132.518 141.817 132.756C141.898 131.952 141.979 131.136 142.061 130.31Z" fill="#647CA3" stroke="#647CA3" stroke-width="0.25" stroke-miterlimit="10"/>
<path d="M156.171 133.337C159.169 133.339 161.543 132.857 162.62 132.38C162.383 131.408 162.147 130.463 161.911 129.544C160.725 130.019 158.8 130.371 156.953 130.429C151.484 130.552 148.328 128.213 148.422 124.467C148.526 120.301 152.195 117.974 157.194 117.795C159.239 117.709 160.842 117.917 162.007 118.187C162.346 117.425 162.684 116.687 163.02 115.978C162.112 115.725 160.003 115.406 157.053 115.456C149.562 115.439 143.85 119.15 143.679 124.902C143.524 130.004 148.245 133.159 156.171 133.337Z" fill="#647CA3" stroke="#647CA3" stroke-width="0.25" stroke-miterlimit="10"/>
<path d="M176.362 132.915C183.265 132.432 188.337 129.097 188.262 123.466C188.198 118.324 183.894 114.706 176.717 115.018C169.796 115.125 165.028 118.066 164.967 123.467C164.911 128.539 169.312 133.158 176.362 132.915ZM176.615 117.112C181.109 117.047 183.447 119.911 183.473 123.213C183.501 126.804 181.031 129.81 176.625 129.922C172.256 130.007 169.725 126.756 169.747 123.219C169.769 119.613 172.157 117.147 176.615 117.112Z" fill="#647CA3" stroke="#647CA3" stroke-width="0.25" stroke-miterlimit="10"/>
<path d="M91.445 128.276C93.0914 128.447 94.7389 128.612 96.3873 128.77C96.4767 128.623 96.5641 128.476 96.6534 128.33C94.5862 126.801 92.6735 125.289 90.9305 123.839C91.0964 125.318 91.2672 126.797 91.445 128.276Z" fill="#647CA3"/>
<path d="M82.3439 116.114C82.2242 114.455 82.0988 112.795 81.9937 111.137C80.5342 110.966 79.0757 110.789 77.618 110.608L80.2347 113.883C80.2347 113.883 80.9651 114.713 82.3439 116.114Z" fill="#647CA3"/>
<path d="M102.878 113.229C101.626 115.733 100.353 118.234 99.0611 120.731C98.0491 122.748 97.1189 124.642 96.3433 126.473L96.2688 126.467C96.2237 124.587 96.0452 122.644 95.7915 120.565C95.45 117.878 95.1282 115.192 94.8257 112.506C93.295 112.358 91.7649 112.205 90.2356 112.047C88.8492 114.521 87.4422 116.991 86.0149 119.457C85.9891 119.504 85.9634 119.55 85.9376 119.596C86.7019 120.306 87.5349 121.061 88.4385 121.855C88.5852 121.603 88.7344 121.351 88.8806 121.099C90.0034 119.232 90.7993 117.639 91.5889 115.866L91.6607 115.873C91.5867 117.744 91.7051 119.403 91.9527 121.408C92.1104 122.683 92.2737 123.957 92.4403 125.232C94.21 126.665 96.1503 128.159 98.2456 129.668C101.382 124.327 104.414 118.965 107.338 113.585C105.851 113.472 104.364 113.353 102.878 113.229Z" fill="#647CA3"/>
<path d="M81.4339 123.724L81.3603 123.715C81.351 121.982 81.2779 119.75 81.1581 117.615C81.0994 116.619 81.0565 115.623 81.003 114.627C79.6502 113.213 79.0719 112.331 79.0719 112.331L76.5805 109.101C76.4908 109.089 76.1994 109.054 76.1097 109.042C76.5722 114.93 77.1391 120.823 77.8105 126.718C79.4635 126.925 81.1177 127.125 82.7732 127.319C84.1984 125.025 85.6027 122.727 86.9913 120.425C86.1023 119.622 85.2834 118.859 84.5323 118.143C83.3779 120.147 82.2429 122.028 81.4339 123.724Z" fill="#647CA3"/>
<path d="M195.803 131.413C195.768 130.412 195.73 129.41 195.694 128.409C194.417 129.662 193.243 130.73 192.216 131.616C193.412 131.551 194.608 131.485 195.803 131.413Z" fill="#647CA3"/>
<path d="M200.699 121.353C199.316 119.137 197.954 116.916 196.614 114.691C194.685 114.817 192.754 114.933 190.823 115.041C190.91 120.779 190.969 126.518 190.999 132.257C191.246 132.244 191.493 132.229 191.741 132.216C192.768 131.329 193.941 130.262 195.219 129.009C195.172 127.705 195.126 126.401 195.076 125.097C194.984 122.75 194.805 120.024 194.644 117.783L194.717 117.779C195.622 119.872 196.782 122.153 198.018 124.273C198.241 124.645 198.468 125.016 198.691 125.387C199.537 124.45 200.406 123.445 201.288 122.373C201.094 122.033 200.9 121.692 200.699 121.353Z" fill="#647CA3"/>
<path d="M213.966 112.77C212.066 112.945 210.165 113.11 208.263 113.268C207.527 115.637 206.767 118.006 205.983 120.374C205.339 122.449 204.801 124.616 204.4 126.515L204.288 126.524C203.542 124.992 202.685 123.381 201.764 121.773C200.881 122.846 200.012 123.85 199.166 124.788C200.365 126.779 201.577 128.768 202.809 130.753C203.999 130.67 205.189 130.583 206.378 130.493C207.239 127.934 208.073 125.373 208.879 122.811C209.638 120.569 210.276 118.18 210.718 116.038L210.825 116.028C211.177 118.334 211.806 120.975 212.326 123.163C212.657 124.542 212.99 125.919 213.323 127.297C214.568 126.115 215.759 124.934 216.897 123.761C215.911 120.099 214.932 116.435 213.966 112.77Z" fill="#647CA3"/>
<path d="M214.027 126.432C214.256 127.359 214.482 128.285 214.712 129.211C216.212 129.077 217.712 128.937 219.21 128.791C218.663 126.824 218.123 124.855 217.583 122.887C216.45 124.062 215.266 125.247 214.027 126.432Z" fill="#647CA3"/>
<path d="M234.971 112.255C234.762 111.411 234.552 110.566 234.342 109.721C232.271 109.983 230.197 110.231 228.122 110.473C227.441 111.385 226.706 112.342 225.923 113.333C228.942 112.994 231.959 112.637 234.971 112.255Z" fill="#647CA3"/>
<path d="M225.288 114.23C226.077 113.241 226.816 112.287 227.503 111.376C224.939 111.668 222.374 111.947 219.806 112.207C220.263 114.515 220.721 116.823 221.179 119.132C222.491 117.641 223.708 116.191 224.827 114.804C224.791 114.634 225.098 114.251 225.288 114.23Z" fill="#647CA3"/>
<path d="M239.098 126.563C238.887 125.718 238.676 124.873 238.465 124.029C234.962 124.475 231.453 124.893 227.94 125.283C227.579 123.621 227.217 121.959 226.855 120.298C229.951 119.954 233.042 119.588 236.13 119.2C235.924 118.363 235.717 117.527 235.511 116.69C232.447 117.075 229.379 117.438 226.308 117.779C226.027 116.489 225.746 115.198 225.465 113.908C224.353 115.298 223.144 116.751 221.84 118.245C222.524 121.604 223.208 124.963 223.893 128.321C228.971 127.794 234.04 127.207 239.098 126.563Z" fill="#647CA3"/>
<path d="M58.2395 61.5756C62.252 62.3105 68.0747 67.0044 65.8194 73.0429C63.8023 78.4437 56.7394 90.2007 54.3287 91.4314C51.9179 92.6621 47.7412 91.1267 47.7412 91.1267L47.7857 82.6477C47.7857 82.6477 52.5341 70.1282 54.6781 66.0329C56.8222 61.9376 58.2395 61.5756 58.2395 61.5756Z" fill="#FC6A3C"/>
<path d="M65.6995 73.3562C63.5367 78.8848 56.6938 90.224 54.3287 91.4314C51.9179 92.6622 47.7412 91.1268 47.7412 91.1268" stroke="#DC9E9C" stroke-width="0.852492" stroke-miterlimit="10" stroke-linecap="round" stroke-linejoin="round"/>
<path d="M49.9406 81.3533C42.9513 81.2312 41.1816 87.2457 45.156 91.5291C49.1305 95.8125 59.1866 92.7593 59.3711 88.0255C59.5556 83.2918 55.9171 81.4576 49.9406 81.3533Z" fill="#404B7C"/>
<path d="M64.6145 85.2384C63.8053 86.5025 62.6704 88.5137 62.0166 89.6844L54.8906 84.6835C54.8906 84.6835 50.3938 81.8089 47.1816 85.6574C43.9695 89.5059 48.9646 91.5337 48.9646 91.5337C48.9646 91.5337 54.9388 92.8779 60.099 93.8362L60.101 93.8315C62.5253 94.2735 64.9596 94.6101 65.5144 94.4723C66.9787 94.1066 67.8134 91.1889 67.8134 91.1889C67.8134 91.1889 70.2821 90.7394 72.761 90.8093C75.2419 90.8747 75.703 89.702 73.5227 89.3912C73.5227 89.3912 75.2957 89.3042 75.4997 88.6223C75.6854 87.9826 73.9101 87.8283 73.7038 87.8081C73.9002 87.7852 75.4019 87.5968 75.4227 87.0228C75.4497 86.4347 73.2843 86.2706 73.0695 86.2535C73.2226 86.2312 74.587 86.0124 74.5213 85.4396C74.4461 84.839 68.9763 84.6568 66.3477 85.588C66.3477 85.588 67.1982 84.6403 67.9023 83.7983C68.6064 82.9563 65.8182 83.3654 64.6145 85.2384Z" fill="#DC9E9C"/>
<path d="M72.8078 89.3969C72.8078 89.3969 69.6502 89.1661 68.0857 89.3353" stroke="#404B7C" stroke-width="0.993116" stroke-miterlimit="10" stroke-linecap="round" stroke-linejoin="round"/>
<path d="M72.874 87.7833C72.874 87.7833 69.7293 87.6179 68.1782 87.8034" stroke="#404B7C" stroke-width="0.993116" stroke-miterlimit="10" stroke-linecap="round" stroke-linejoin="round"/>
<path d="M72.5924 86.2762C72.5924 86.2762 69.571 86.3191 67.9775 86.6036" stroke="#404B7C" stroke-width="0.993116" stroke-miterlimit="10" stroke-linecap="round" stroke-linejoin="round"/>
<path d="M252.553 88.8113C253.967 87.7764 250.992 84.3229 249.915 83.4647C249.844 83.4077 249.781 83.3445 249.723 83.2775C249.413 83.0385 249.111 82.8087 248.838 82.6065C246.567 80.9308 243.376 81.2432 244.57 81.9527C245.765 82.6623 247.172 83.4454 247.172 83.4454C243.876 83.1576 238.134 84.8215 238.37 85.4827C238.601 86.1117 240.173 85.9787 240.348 85.9614C240.128 86.0373 237.903 86.7942 238.241 87.4146C238.566 88.0218 240.268 87.8193 240.49 87.791C240.28 87.8681 238.466 88.5096 239.002 89.1426C239.578 89.8155 241.517 89.4321 241.517 89.4321C239.353 90.3496 240.463 91.4773 243.076 90.7411C245.685 90.0005 248.557 89.817 248.557 89.817C248.557 89.817 251.139 89.8462 252.553 88.8113Z" fill="#DC9E9C"/>
<path d="M242.282 89.2461C242.282 89.2461 245.531 88.1515 247.29 87.9118" stroke="#404B7C" stroke-width="0.993116" stroke-miterlimit="10" stroke-linecap="round" stroke-linejoin="round"/>
<path d="M241.363 87.5424C241.363 87.5424 244.631 86.5192 246.385 86.3026" stroke="#404B7C" stroke-width="0.993116" stroke-miterlimit="10" stroke-linecap="round" stroke-linejoin="round"/>
<path d="M240.869 85.8575C240.869 85.8575 244.117 85.0916 245.967 84.9671" stroke="#404B7C" stroke-width="0.993116" stroke-miterlimit="10" stroke-linecap="round" stroke-linejoin="round"/>
</svg>
