<svg width="31" height="30" viewBox="0 0 31 30" fill="none" xmlns="http://www.w3.org/2000/svg">
<path d="M28 2.5V30H3V2.5H6.75C8.2875 2.5 9.47625 1.145 10.5 0H20.5C21.525 1.145 22.7138 2.5 24.25 2.5H28ZM14.25 3.75C14.25 4.44 14.81 5 15.5 5C16.1912 5 16.75 4.44 16.75 3.75C16.75 3.06 16.1912 2.5 15.5 2.5C14.81 2.5 14.25 3.06 14.25 3.75ZM25.5 5H20.5L18 7.5H13.1287L10.5 5H5.5V27.5H25.5V5ZM9.25 17.1613L10.3187 16.1725C11.5688 16.7775 12.3625 17.2375 13.7687 18.24C16.41 15.2413 18.1575 13.72 21.4013 11.7013L21.75 12.5013C19.0737 14.8375 17.1137 17.4375 14.2913 22.5C12.55 20.45 11.3888 19.1425 9.25 17.1613Z" fill="white"/>
</svg>
