<svg width="20" height="20" viewBox="0 0 20 20" fill="none" xmlns="http://www.w3.org/2000/svg">
<path d="M5 8C4.80222 8 4.60888 8.05865 4.44443 8.16853C4.27998 8.27841 4.15181 8.43459 4.07612 8.61732C4.00043 8.80004 3.98063 9.00111 4.01921 9.19509C4.0578 9.38907 4.15304 9.56725 4.29289 9.70711C4.43275 9.84696 4.61093 9.9422 4.80491 9.98079C4.99889 10.0194 5.19996 9.99957 5.38268 9.92388C5.56541 9.84819 5.72159 9.72002 5.83147 9.55557C5.94135 9.39112 6 9.19778 6 9C6 8.73478 5.89464 8.48043 5.70711 8.29289C5.51957 8.10536 5.26522 8 5 8ZM17 4H16V1C16 0.734784 15.8946 0.48043 15.7071 0.292893C15.5196 0.105357 15.2652 0 15 0H5C4.73478 0 4.48043 0.105357 4.29289 0.292893C4.10536 0.48043 4 0.734784 4 1V4H3C2.20435 4 1.44129 4.31607 0.87868 4.87868C0.316071 5.44129 0 6.20435 0 7V13C0 13.7956 0.316071 14.5587 0.87868 15.1213C1.44129 15.6839 2.20435 16 3 16H4V19C4 19.2652 4.10536 19.5196 4.29289 19.7071C4.48043 19.8946 4.73478 20 5 20H15C15.2652 20 15.5196 19.8946 15.7071 19.7071C15.8946 19.5196 16 19.2652 16 19V16H17C17.7956 16 18.5587 15.6839 19.1213 15.1213C19.6839 14.5587 20 13.7956 20 13V7C20 6.20435 19.6839 5.44129 19.1213 4.87868C18.5587 4.31607 17.7956 4 17 4ZM6 2H14V4H6V2ZM14 18H6V14H14V18ZM18 13C18 13.2652 17.8946 13.5196 17.7071 13.7071C17.5196 13.8946 17.2652 14 17 14H16V13C16 12.7348 15.8946 12.4804 15.7071 12.2929C15.5196 12.1054 15.2652 12 15 12H5C4.73478 12 4.48043 12.1054 4.29289 12.2929C4.10536 12.4804 4 12.7348 4 13V14H3C2.73478 14 2.48043 13.8946 2.29289 13.7071C2.10536 13.5196 2 13.2652 2 13V7C2 6.73478 2.10536 6.48043 2.29289 6.29289C2.48043 6.10536 2.73478 6 3 6H17C17.2652 6 17.5196 6.10536 17.7071 6.29289C17.8946 6.48043 18 6.73478 18 7V13Z" fill="white"/>
</svg>
