<svg xmlns="http://www.w3.org/2000/svg" xmlns:xlink="http://www.w3.org/1999/xlink" viewBox="0 0 4680 3120"><defs><style>.cls-1,.cls-10,.cls-17,.cls-61{fill:none;}.cls-2,.cls-20,.cls-35,.cls-8{fill:#fff;}.cls-3{clip-path:url(#clip-path);}.cls-4{fill:#e0effd;}.cls-5{fill:#54a7cb;}.cls-6{fill:#0041bc;}.cls-34,.cls-7{fill:#9ccffd;}.cls-10,.cls-8{stroke:#0041bc;}.cls-10,.cls-16,.cls-17,.cls-18,.cls-20,.cls-21,.cls-22,.cls-23,.cls-24,.cls-25,.cls-26,.cls-27,.cls-29,.cls-30,.cls-32,.cls-34,.cls-35,.cls-36,.cls-37,.cls-38,.cls-39,.cls-40,.cls-42,.cls-46,.cls-51,.cls-61,.cls-62,.cls-8{stroke-miterlimit:10;stroke-width:6px;}.cls-24,.cls-9{fill:#0231bb;}.cls-11,.cls-12,.cls-46{fill:#75baf5;}.cls-11{opacity:0.25;}.cls-13{fill:#3b5c75;}.cls-14{fill:#9ecefc;}.cls-15{fill:#0136bd;}.cls-16{fill:#5cabf7;}.cls-16,.cls-17,.cls-18,.cls-22,.cls-23,.cls-24,.cls-26,.cls-36,.cls-37,.cls-42{stroke:#fff;}.cls-18,.cls-32,.cls-50,.cls-63{fill:#27397c;}.cls-19,.cls-29,.cls-30{fill:#009bdd;}.cls-20{stroke:#257cc0;}.cls-21,.cls-47{fill:#012ebc;}.cls-21{stroke:#e0eefa;}.cls-22,.cls-39{fill:#0a73dd;}.cls-23,.cls-25,.cls-31{fill:#4e92fe;}.cls-25{stroke:#5fccf5;}.cls-26{fill:#3b3393;}.cls-27{fill:#005a7e;}.cls-27,.cls-29,.cls-32,.cls-34,.cls-35,.cls-38,.cls-39,.cls-40,.cls-46,.cls-62{stroke:#247cc0;}.cls-28{fill:#007dc2;}.cls-30{stroke:#3e69b1;}.cls-33{fill:#0082c8;}.cls-36{fill:#93c7fd;}.cls-37{fill:#00b2f0;}.cls-38{fill:#284ba0;}.cls-40{fill:#40baec;}.cls-41{fill:#464da0;}.cls-42{fill:#4b80c1;}.cls-43{fill:#5eaaf4;}.cls-44{fill:#223179;}.cls-45{fill:#233781;opacity:0.67;}.cls-48{fill:#00a7e1;}.cls-49{fill:#247cc0;}.cls-51{fill:#fcd645;stroke:#f16723;}.cls-52{fill:#441413;}.cls-53{fill:#212940;}.cls-54{fill:#ffa402;}.cls-55{fill:#ffcaa9;}.cls-56{fill:#fe8200;}.cls-57,.cls-62{fill:#f04c23;}.cls-58{fill:#2968b2;}.cls-59{fill:#ef7e7b;}.cls-60{fill:#231f20;}.cls-61{stroke:#231f20;}.cls-63{opacity:0.5;}</style><clipPath id="clip-path"><path class="cls-1" d="M1216.66,585.81c-373.4,214.11-475,601.26-500.92,732.29-13,65.78-57.22,320.77,53,614.63,16.79,44.78,171.66,439.86,567.72,627.47,66.86,31.67,118.49,47,217.83,76.38,151.43,44.84,338.47,88,623.44,100.77a4892.86,4892.86,0,0,0,1041.73-64.86c220.67-37.65,444.71-93,631.69-230.08s332-371.12,326.15-626.28c-5.55-241.65-145.3-461.7-322.33-596.93S3467.23,1021.05,3259,974.39c-110-24.64-179.25-40.94-244.75-58-159.61-41.54-273.82-69.54-374.81-106.78a1120.3,1120.3,0,0,1-157.1-72.09c-122.76-65.66-201.64-131.34-219.93-145.61C2122.75,483,1637,344.81,1216.66,585.81Z"/></clipPath></defs><title>02</title><g id="_02" data-name="02"><rect id="_02-2" data-name="02" class="cls-2" width="4680" height="3120"/><g class="cls-3"><path class="cls-4" d="M1218.74,577.56c-373.4,214.1-475,601.25-500.91,732.29-13,65.77-57.23,320.77,53,614.63,16.8,44.77,171.66,439.85,567.73,627.47,66.85,31.67,118.48,47,217.82,76.37,151.43,44.85,338.47,88,623.45,100.77a4892.76,4892.76,0,0,0,1041.72-64.85c220.67-37.66,444.72-93,631.69-230.09s332-371.11,326.15-626.27c-5.55-241.66-145.3-461.71-322.33-596.94s-387.77-198.15-596-244.8c-110-24.64-179.25-40.95-244.75-58-159.6-41.54-273.82-69.55-374.81-106.78a1122.17,1122.17,0,0,1-157.1-72.09c-122.76-65.66-201.63-131.34-219.93-145.62C2124.83,474.73,1639,336.56,1218.74,577.56Z"/><path class="cls-5" d="M471.33,1903.24H4443.5L3940.55,2852l-2143.26,51.44S677.08,2520.48,471.33,1903.24Z"/><path class="cls-6" d="M4012.76,2137l-474.79-.35-32.29-52.84-7.33,29.26,14.4,23.56-760.1-.55,0-.14-.1.14-2027.88-1.48c2.54,5.89,5.36,12,8.45,18.06,3.92,7.7,7.71,14.32,11.28,20l281.76-.08L954.21,2491l12.14,15.72,75.47-334.08,288.69-.08-85,593.68h19.3l85-593.68,266.73-.07-54.38,586.95h14l54.39-587,773.61-.2,48.93,587.16h13.89L2418,2172.27l327.1-.09L2878.58,2763h15.69l-133.47-590.8,773.52-.21,332.62,544.29,8.44-27.44L3559.52,2172l446.1-.11C4007.91,2160.84,4010.41,2148.62,4012.76,2137Z"/><rect class="cls-7" x="581.75" y="1571.29" width="2458.55" height="578.39"/><rect class="cls-8" x="581.75" y="1571.2" width="2762.6" height="287.66"/><rect class="cls-9" x="943.62" y="1694.08" width="165.75" height="41.9"/><path class="cls-10" d="M2672.52,1858.86v288.57"/><rect class="cls-9" x="955.69" y="1905.78" width="33.02" height="131.36"/><rect class="cls-9" x="1065.76" y="1911.07" width="33.02" height="131.36"/><rect class="cls-9" x="2592.75" y="1671.37" width="165.75" height="41.9"/><path class="cls-11" d="M696.52,1574.7c30.39,44.11,71.68,94.34,126.3,140.1,59.35,49.73,119.49,81.66,174.67,102.13,102.3,37.94,184.91,32.79,184.83,35.91-.09,3.75-119.21,5.66-594.4-.64-.41-180.32-.63-275-.63-275h0l19.69-.63C617.1,1576.28,640.51,1575.72,696.52,1574.7Z"/><path class="cls-12" d="M587.92,1852.2l-6.17,297.49,752.35-1.57A1374.38,1374.38,0,0,1,587.92,1852.2Z"/><path class="cls-13" d="M2821.27,1194.21H2667.22q.22-14.87.46-29.73c12.24-3.52,15.88-4.8,15.81-5.08,0-.12-.89,0-.89,0,0,.32,62,.23,138.67,0Z"/><path class="cls-13" d="M2835.19,1565.18h-165a80.07,80.07,0,0,1-79.83-79.84V1273.53a80.07,80.07,0,0,1,79.83-79.84h165a80.07,80.07,0,0,1,79.83,79.84v211.81A80.07,80.07,0,0,1,2835.19,1565.18Z"/><rect class="cls-14" x="2618.89" y="1196.09" width="303.78" height="367.63" rx="78.94"/><rect class="cls-15" x="2683.41" y="1159.63" width="154.05" height="36.25"/><rect class="cls-16" x="2699.78" y="1314.58" width="143.26" height="169.15"/><line class="cls-17" x1="2672.59" y1="1271.43" x2="2699.78" y2="1314.58"/><line class="cls-17" x1="2699.78" y1="1483.73" x2="2672.59" y2="1516.52"/><path class="cls-18" d="M2907.63,1924l-164,289.44,385.93,180.17,821.1-36.31s146.18-126.24,207.59-392.42Z"/><path class="cls-19" d="M3640.34,2044.21s-153.83,12.41-202.56,42.46l-8.39,7.49,51,5.08s24.49-23.54,135.38-27.2Z"/><path class="cls-20" d="M3340,2123.16c-.84-1.74-6.46-13.94-.48-27a31.81,31.81,0,0,1,15-15.13l244.08,16.48v24.77l-224.4-17.8a17.82,17.82,0,0,0-6,4.28c-6.46,7.09-4.58,17-4.28,18.49Z"/><path class="cls-21" d="M3113.2,877.1c-37.64-3.56-98.86-3.07-143.15,36-16.11,14.2-24,28.23-32.69,43.49-48.18,84.75-102.55,166-149.1,251.61h0s-12.92,7.64-5.79,62.65l80.08,539.84,4.86,39.6h40.22v22.88l1259.75,39.16s74.19-385.39-278.43-704.13a1165.68,1165.68,0,0,0-180-130.64c-117.84-69.4-219.9-101.41-332.87-136.08A2359.51,2359.51,0,0,0,3113.2,877.1Z"/><path class="cls-22" d="M2966.39,1870.8a166.52,166.52,0,0,1,31.78-44.68s27.18-27.1,68.46-41.32c169.23-58.28,468.43-50.35,468.43-50.35s410.93,10.9,550.63,81.49c41.78,21.11,63.22,54.08,63.22,54.08a142.76,142.76,0,0,1,18.47,42.28Z"/><path class="cls-18" d="M3295.23,918.23c-58.81-1.34-104.63,9.53-133.39,18.61-24.39,7.69-154.53,49.21-211.58,164a269.63,269.63,0,0,0-18.88,49.9,752.94,752.94,0,0,0,22.18,393.7c.25.27.7.74,1.27,1.31,28,28.36,70.19,30,88.44,30.06,78.47.47,300.09-20.29,300.09-20.29,35.25-3.31,161.09-2.6,412.77-1.18h1.45c142.42.85,270.5,20.32,385.15,51.09-30.81-85.9-89.76-214.6-203.28-339.19-21.2-23.27-119.25-128.64-275.44-213.39-57.38-31.13-108.44-51.8-135.75-62.76A1474.25,1474.25,0,0,0,3295.23,918.23Z"/><rect class="cls-23" x="3076.91" y="1639.27" width="1053.35" height="50.62" rx="25.31" transform="translate(49.28 -102.79) rotate(1.65)"/><path class="cls-24" d="M2966.39,1733.91h-76.84l-14.16-91h91Z"/><path class="cls-17" d="M2679.8,2111.52s35.65,3.68,60.25,16.71l167.58-278h0s-35.63-229.09-67.06-431-10.48-202.7-10.48-202.7S2927,1005.87,2991.73,949.6s200.59-56.47,200.59-56.47"/><path class="cls-23" d="M2907.63,1850.26V1924L2782,2155.32l-41.95-27.09Z"/><path class="cls-25" d="M2907.63,1920.17l1250.59,40.88,29.82-70.51-1280.41-40.28Z"/><path class="cls-26" d="M2635.51,2555.48l64.42,220.57s164.54-5.45,501.3-64.25l333.86-80.43Z"/><path class="cls-27" d="M3230.43,2106.26v130.58l-19.44,71s-193.82-.1-261.86-39.67Z"/><polygon class="cls-28" points="3230.43 2106.26 3158.45 2287.64 2949.13 2268.17 2952.98 2253.24 3166.01 2106 3230.43 2106.26"/><path class="cls-20" d="M3218.85,2206l69.83-2.93c8.91-6.68,14.24-13,14.77-18.31,2.05-20.61,25.44-12.49,25.44-12.49l-1.63-30.37c-5.75-.4-26.58-1.3-33.16,10.18a15.31,15.31,0,0,0-.94,2c-1.9,12.38-7.52,18.23-10.25,20.59-8.75,7.55-20.57,7.43-38,7.24a150.28,150.28,0,0,1-19.48-1.46c-.84-.17-6-1.17-10.3,2.18s-5.11,9-4.11,12.84C3212.49,2201.13,3218.85,2205.94,3218.85,2206Z"/><path class="cls-20" d="M3202.29,2269.49l78.93-2.93c10.07-6.67,16.1-13,16.7-18.3,2.32-20.61,28.76-12.49,28.76-12.49l-1.85-30.38c-6.5-.39-30-1.29-37.48,10.19a14.67,14.67,0,0,0-1.07,2c-2.14,12.38-8.49,18.23-11.58,20.59-9.89,7.55-23.25,7.43-43,7.24a191.81,191.81,0,0,1-22-1.46c-.94-.17-6.81-1.17-11.63,2.18a11.88,11.88,0,0,0-4.65,12.84C3195.1,2264.68,3202.29,2269.49,3202.29,2269.49Z"/><path class="cls-29" d="M3369.43,2128.33c-1.11-.62-26.7-14.55-39.46-4.09-1.56,1.28-1.54,1.79-9.81,27.67-3,9.45-5.09,15.86-2.28,22.65a20,20,0,0,0,4.58,6.66,23.91,23.91,0,0,0,7.34,5.06c5.46,2.16,14.49,3.58,28.77.65Z"/><path class="cls-29" d="M3349.43,2207.4c-1.11-.62-26.7-14.55-39.46-4.09-1.57,1.29-1.54,1.79-9.81,27.67-3,9.45-5.1,15.86-2.28,22.65a20,20,0,0,0,4.58,6.66,23.91,23.91,0,0,0,7.34,5.06c5.46,2.16,14.49,3.59,28.77.65Z"/><path class="cls-29" d="M2948,2002.65s70.56-120.61,181.57-14.43l1.36,29.54H2942.65Z"/><path class="cls-30" d="M2976.65,2013.13s-44.19-20.66-63.37,10.16-62.38,118.64-62.38,118.64,4.32,55.48,35.4,66.28,99.55,12.58,99.55,12.58Z"/><path class="cls-31" d="M3352.41,1994.82s224.13-76.33,339-13.69c0,0,10.13-3.25,51.27,58.43l-52.93,20.77-33.8-20a66.84,66.84,0,0,0-19.74-16.66,65,65,0,0,0-17.74-6.67,74.92,74.92,0,0,0-20.54-1c-15,1.5-107.7,21-234.2,49.8l-55.05-17.31S3331.58,1997.56,3352.41,1994.82Z"/><path class="cls-8" d="M3656,2026.62l-57.34,64.51v53.15l227.17,17.23q.76-64.37,1.51-128.72Z"/><path class="cls-32" d="M3827.31,2032.79s-83.86,37.64-49.29,125.45l47.78,3.27Z"/><path class="cls-33" d="M3691.43,1981.13c-.83-.2-2.35-.46-2.39-1-.27-3.23,48.34-10.19,89-13.74,89.15-7.77,108,3.69,117.76,13,8.93,8.53,13.63,18.53,15.83,23.3,8.4,18.23,8.78,36.2,4.71,66.39a523,523,0,0,1-20.55,90.29l-56.47-3c7.13-17.91,12.46-33.08,16.19-44.22,0,0,5.84-17.49,14.36-58.37,0,0,3.46-16.59-1.47-31.37a21.64,21.64,0,0,0-4.44-7.91c-4.76-5.31-11.14-6.71-14.09-7.15a643.88,643.88,0,0,0-65.78,1.09c-21.07,1.44-40.63,3.81-58.5,6.68C3710.6,1990.61,3699.36,1983,3691.43,1981.13Z"/><path class="cls-34" d="M3373,2107.54,3336,2271l4.82,46.23h116.23l6.15-152.87q.38-26.79.77-53.59Z"/><line class="cls-35" x1="3598.63" y1="2091.13" x2="3755.08" y2="2099.24"/><path class="cls-36" d="M2602.9,2139.6s-113.31,199.2,32.61,414.93c0,0,164.38,96.57,328.74,30.67l7.75-192.56-110.14-147.48S2706.08,2042,2602.9,2139.6Z"/><path class="cls-9" d="M2603,2142.48c-1.55,45.74,2.36,129.55,48.88,217C2745.74,2536,2934,2578.84,2964.25,2585.2a56.22,56.22,0,0,1-10.73-8.84c-11.08-11.76-14.08-25.51-15.24-30.48-4.54-19.51-23.18-86.54-48.26-179.08-4-12.89-9.86-30.11-17.94-50-7.9-19.45-16.95-39-23.82-51.91-13.3-25-39.51-74.26-93.82-106.68-17.86-10.66-53-31-100-28.1A153.73,153.73,0,0,0,2603,2142.48Z"/><circle class="cls-4" cx="2830.36" cy="2446.27" r="73.26"/><circle class="cls-37" cx="2679.8" cy="2361.59" r="97.07"/><circle class="cls-2" cx="2705.82" cy="2225.23" r="42.61"/><path class="cls-32" d="M2936.83,2102s-23.69,27.91-3.77,89.57l19.92,61.66,187.6,14.93,61.74-155-20-117.72Z"/><path class="cls-8" d="M2985.85,1992.35l196.5,3.07-52.82,154s-6.37,24.87-60,21.2-111.89-10.44-111.89-10.44-30.87-31.41-15-70.19Z"/><path class="cls-29" d="M3963.11,2328.51l-505.81-7.4c-7.15-12.28-25.6-47.86-18.56-93.25,1.62-10.38,8.77-55.27,44.76-79.56a90.85,90.85,0,0,1,32.44-13.46l450.38,14.56s80.87,40.24,57.54,118.77l-46.4,60.34Z"/><path class="cls-38" d="M3966.32,2149.4a167.27,167.27,0,0,0-24.74,31.26c-36,58.81-24.78,123.66-19.44,147.25l55.32.6,46.4-60.34S4054.32,2204.73,3966.32,2149.4Z"/><path class="cls-39" d="M4150,1999.59s-61.51-27.71-103.45,0c-40.84,27-50.87,79.88-63,161.92a765,765,0,0,0-6.09,167,856.77,856.77,0,0,0,66.38-90A869.84,869.84,0,0,0,4150,1999.59Z"/><path class="cls-8" d="M3570.64,2159.69l52.26,1.83s-60,76.86-16.53,132.53l-51.74-2.46a110.73,110.73,0,0,1-14.69-49.84C3537.93,2197.49,3564.19,2166.82,3570.64,2159.69Z"/><path class="cls-8" d="M3660.12,2162.83l52.26,1.82s-60,76.86-16.53,132.53l-51.73-2.46a110.55,110.55,0,0,1-14.7-49.84C3627.41,2200.62,3653.67,2170,3660.12,2162.83Z"/><path class="cls-8" d="M3756,2166.18l52.26,1.83s-60,76.85-16.53,132.53l-51.74-2.47a110.65,110.65,0,0,1-14.69-49.84C3723.29,2204,3749.55,2173.31,3756,2166.18Z"/><path class="cls-9" d="M3218.29,1987l134.12,7.78s-33.56,45.68,11.34,71l-138.13,21a112.36,112.36,0,0,0,8.24-37.54C3235.12,2019.58,3224.11,1997.14,3218.29,1987Z"/><path class="cls-9" d="M2867.41,1850.26h40.22l-167.58,278s-41.54-17.67-60.25-16.71Z"/><path class="cls-40" d="M3222.17,1990.59c-4.47-4-8.91-6.31-12.81-5.26-11.91,3.2-13.66,36.48-10.58,59.44,2.19,16.27,9.06,44.08,19.17,44.5,5.07.21,9.48-6.52,12.33-12a136.68,136.68,0,0,0-8.11-86.7Z"/><ellipse class="cls-41" cx="3215.67" cy="2037.18" rx="6.34" ry="21.28" transform="translate(-180.34 317.38) rotate(-5.5)"/><path class="cls-42" d="M2868.14,1810.66,2602.9,2140.55c37.17-7.43,66.81-4.3,87.71.5,122.23,28.09,178.67,166.67,185.75,184.79,7.74,19.8,16,47.81,32.39,103.83,10,34.17,17.74,62.57,22.86,81.91,17,38.75,23.6,52.76,24.66,53.66.15.13.87,1.66,1.82,3.08,0,0,11.38,18.19,35,29.86,132.75,65.68,303.17,65.85,303.17,65.85,31.16,0,105.46.11,178.92-13.07,272.58-48.89,485-271.53,531.89-322.45,0,0-877.15-.06-1006.38-45.9s-155.11-60.54-155.11-60.54c-10.13-18.37-35.17-57.62-84.37-84.88a219.34,219.34,0,0,0-79.74-25.67l191.65-261.26Z"/><path class="cls-24" d="M3022.1,2378.23a94.37,94.37,0,0,0-15.35,26c-21.42,55.2,18.73,112.25,24.7,120.46a1006.76,1006.76,0,0,0,162.76,55.64c39.74,9.85,81.31,17.35,146.41,24.46,57.52,6.29,135.34,12.48,230.16,13.51,40.14-16.27,82.25-35.16,125.74-57.15A1661.89,1661.89,0,0,0,3921.32,2424,2643.3,2643.3,0,0,1,3612.69,2443,2658.52,2658.52,0,0,1,3022.1,2378.23Z"/></g><rect class="cls-9" x="886.42" y="1359.38" width="534.84" height="211.92"/><rect class="cls-43" x="848.83" y="1300.11" width="604.22" height="59.26"/><rect class="cls-15" x="1116.21" y="1263.04" width="181.76" height="39.19"/><rect class="cls-2" x="1048.31" y="1411.41" width="286.21" height="92.51"/><rect class="cls-44" x="886.29" y="1359.43" width="536.37" height="19.05"/><path class="cls-45" d="M886.29,1359.43A729.62,729.62,0,0,0,995,1449.61c122.8,83.14,245.78,111.35,325.14,121.92l-433.7-.24Z"/><path class="cls-45" d="M1116.21,1263s28,36.38,54.68,37.34h-56.2Z"/><path class="cls-45" d="M848.83,1300.11s74.4,56.47,132.5,58.37l-132.5.9Z"/><path class="cls-13" d="M1726.74,615H553.63V506.24l1160.11-13.33h0l13,13.33Z"/><rect class="cls-13" x="544.01" y="577.1" width="1150.79" height="616.7"/><rect class="cls-46" x="544.92" y="597.8" width="1122.29" height="581"/><rect class="cls-47" x="502.5" y="489.1" width="1203.28" height="108.7"/><path class="cls-48" d="M544.92,597.8V835.55S715.57,1007,949.9,854.6s714.42-163.84,714.42-163.84l2.89-93Z"/><circle class="cls-35" cx="660.32" cy="1147.34" r="19.69"/><circle class="cls-35" cx="1530.96" cy="1147.34" r="19.69"/><path class="cls-44" d="M1524.06,659.35v72.93h50.67V659.35a66.06,66.06,0,0,1,30.13,65.33c-4.42,28.81-27.36,42.48-30.13,44.06q.16,112.23.34,224.45c27.37,15.22,42.6,43.62,38.57,71.48-4.61,31.9-32.34,48.28-36.17,50.47v-77.49h-53.41v79c-31.25-19.93-46-53.8-37.48-83.1,7.26-24.95,28.86-37.9,35.08-41.35l1-223.47c-18-9.48-30.16-28.67-31.5-50.13C1489.64,693.81,1502.76,670,1524.06,659.35Z"/><path class="cls-44" d="M1176.23,706.5v60h46.24v-60c20.09,11.21,31,33,27.49,53.73-4,23.69-25,34.93-27.49,36.24V968.89c27.18,15.2,41.28,44.42,35.5,70.95s-29.17,39.46-33,41.5v-63.72h-48.74v65c-25-14.59-38.5-42-34.19-68.33,4.92-30.09,30.81-44.77,34.19-46.62q-.62-85.59-1.25-171.17c-16.44-7.8-27.51-23.58-28.73-41.24C1144.83,734.84,1156.8,715.24,1176.23,706.5Z"/><path class="cls-44" d="M1176.23,726.82v60h46.24v-60c20.09,11.21,31,32.95,27.49,53.73-4,23.69-25,34.93-27.49,36.24V989.21c27.18,15.2,41.28,44.42,35.5,71s-29.17,39.46-33,41.5v-63.72h-48.74v65c-25-14.59-38.5-42-34.19-68.33,4.92-30.09,30.81-44.77,34.19-46.62q-.62-85.59-1.25-171.17c-16.44-7.8-27.51-23.58-28.73-41.24C1144.83,755.16,1156.8,735.56,1176.23,726.82Z"/><path class="cls-44" d="M1354.91,679.35v69.73h46.24V679.35c20.09,13,31,38.3,27.49,62.47-4,27.55-25,40.62-27.49,42.13q.15,107.32.31,214.63c25,14.56,38.86,41.72,35.19,68.36-4.21,30.51-29.51,46.18-33,48.26v-74.09h-48.74v75.55c-28.5-19.06-42-51.45-34.19-79.46,6.62-23.87,26.33-36.25,32-39.55l.93-213.7c-16.44-9.06-27.51-27.42-28.73-47.94C1323.51,712.29,1335.48,689.5,1354.91,679.35Z"/><path class="cls-44" d="M1059.37,730.13h-26.24V711.39H991.9v18.74H928.18v60H991.9v303.62h41.23V790.11h81.22S1118.1,748.87,1059.37,730.13Z"/><path class="cls-35" d="M1161,706.5v60h46.24v-60c20.09,11.21,31,33,27.48,53.73-4,23.69-25,34.93-27.48,36.24V968.89c27.18,15.2,41.28,44.42,35.5,70.95s-29.17,39.46-33,41.5v-63.72H1161v65c-25-14.59-38.5-42-34.19-68.33,4.92-30.09,30.81-44.77,34.19-46.62q-.62-85.59-1.25-171.17c-16.44-7.8-27.51-23.58-28.74-41.24C1129.59,734.84,1141.56,715.24,1161,706.5Z"/><path class="cls-44" d="M680.9,778.62v39.13h30.16V778.62c13.12,7.31,20.25,21.49,17.94,35-2.63,15.46-16.29,22.8-17.94,23.65V949.83c17.74,9.92,26.94,29,23.17,46.29s-19,25.76-21.54,27.09V981.63H680.9V1024c-16.29-9.52-25.13-27.39-22.32-44.59,3.22-19.63,20.11-29.21,22.32-30.42q-.42-55.85-.82-111.69a32.52,32.52,0,0,1-18.75-26.91C660.41,797.1,668.21,784.32,680.9,778.62Z"/><path class="cls-44" d="M820.59,758.46v44.21h34.08V758.46c14.82,8.26,22.87,24.29,20.27,39.61-3,17.46-18.41,25.75-20.27,26.71V951.89c20,11.2,30.44,32.75,26.17,52.3s-21.5,29.1-24.33,30.6v-47H820.59v47.9c-18.4-10.76-28.39-31-25.21-50.38,3.63-22.18,22.72-33,25.21-34.36q-.47-63.09-.92-126.19a36.76,36.76,0,0,1-21.19-30.4C797.44,779.35,806.26,764.9,820.59,758.46Z"/><path class="cls-35" d="M806.72,749.68v44.21h34.09V749.68c14.81,8.25,22.87,24.28,20.26,39.6-3,17.47-18.4,25.75-20.26,26.72V943.11c20,11.2,30.43,32.74,26.17,52.3s-21.5,29.09-24.33,30.59V979H806.72v47.9c-18.4-10.76-28.38-31-25.2-50.38,3.63-22.18,22.71-33,25.2-34.36q-.45-63.11-.92-126.19a36.76,36.76,0,0,1-21.18-30.4C783.58,770.56,792.4,756.12,806.72,749.68Z"/><path class="cls-35" d="M667.88,765.6v39.13H698V765.6c13.12,7.31,20.25,21.5,17.94,35.06-2.63,15.46-16.29,22.79-17.94,23.64V936.81c17.74,9.92,26.94,29,23.17,46.29s-19,25.76-21.53,27.09V968.61h-31.8V1011c-16.29-9.52-25.13-27.39-22.31-44.59,3.21-19.63,20.1-29.21,22.31-30.41q-.4-55.86-.82-111.7a32.54,32.54,0,0,1-18.75-26.91C647.39,784.09,655.2,771.3,667.88,765.6Z"/><path class="cls-35" d="M1339.67,659v69.74h46.24V659c20.09,13,31,38.31,27.48,62.48-4,27.55-25,40.61-27.48,42.13q.15,107.32.31,214.63c25,14.56,38.86,41.72,35.19,68.36-4.21,30.51-29.51,46.18-33,48.26v-74.09h-48.73v75.55c-28.51-19.06-42-51.45-34.19-79.46,6.62-23.87,26.33-36.25,32-39.55l.93-213.7c-16.44-9.06-27.51-27.42-28.73-47.94C1308.27,692,1320.24,669.18,1339.67,659Z"/><path class="cls-35" d="M1503.1,639V712h50.67V639a66.06,66.06,0,0,1,30.13,65.33c-4.42,28.81-27.36,42.48-30.13,44.06q.18,112.23.35,224.44c27.37,15.22,42.59,43.63,38.57,71.49-4.62,31.9-32.34,48.28-36.18,50.47v-77.49H1503.1v79c-31.24-19.93-46-53.8-37.47-83.1,7.25-25,28.85-37.9,35.08-41.35l1-223.47c-18-9.48-30.16-28.67-31.49-50.13C1468.69,673.49,1481.8,649.65,1503.1,639Z"/><path class="cls-35" d="M1046,717.75H1019.8V699H978.56v18.74H914.84v60h63.72v303.62h41.24V777.72H1101S1104.77,736.49,1046,717.75Z"/><rect class="cls-49" x="676.99" y="828.4" width="10.48" height="22.38"/><rect class="cls-49" x="676.99" y="863.01" width="10.48" height="22.38"/><rect class="cls-49" x="676.99" y="902.38" width="10.48" height="22.38"/><rect class="cls-49" x="817.01" y="833.56" width="10.48" height="22.38"/><rect class="cls-49" x="817.01" y="868.17" width="10.48" height="22.38"/><rect class="cls-49" x="817.01" y="907.54" width="10.48" height="22.38"/><rect class="cls-49" x="1174.09" y="800.86" width="14.61" height="25.15"/><rect class="cls-49" x="1174.09" y="839.74" width="14.61" height="25.15"/><rect class="cls-49" x="1174.09" y="925.76" width="14.61" height="25.15"/><rect class="cls-49" x="1174.09" y="883.85" width="14.61" height="25.15"/><rect class="cls-49" x="1353.81" y="811.65" width="14.61" height="25.15"/><rect class="cls-49" x="1353.81" y="850.54" width="14.61" height="25.15"/><rect class="cls-49" x="1353.81" y="936.56" width="14.61" height="25.15"/><rect class="cls-49" x="1353.81" y="894.65" width="14.61" height="25.15"/><rect class="cls-49" x="1353.81" y="772.09" width="14.61" height="25.15"/><rect class="cls-49" x="1519.89" y="797.09" width="17.06" height="29.37"/><rect class="cls-49" x="1519.89" y="842.5" width="17.06" height="29.37"/><rect class="cls-49" x="1519.89" y="942.97" width="17.06" height="29.37"/><rect class="cls-49" x="1519.89" y="894.02" width="17.06" height="29.37"/><rect class="cls-49" x="1519.89" y="750.88" width="17.06" height="29.37"/><path class="cls-44" d="M980.62,775.3l36.43-.48v29.06a40.77,40.77,0,0,1-13.43-3.52C988.84,793.6,982.46,779.76,980.62,775.3Z"/><rect class="cls-44" x="981.17" y="708.86" width="35.88" height="11.43"/><rect class="cls-44" x="538.39" y="595.51" width="1125.92" height="22.86"/><circle class="cls-35" cx="660.32" cy="545.98" r="19.69"/><circle class="cls-35" cx="1530.96" cy="545.98" r="19.69"/><path class="cls-10" d="M1026.5,1858.86v288.57"/><path class="cls-50" d="M2382.2,2653l5.56,84.5a1431.88,1431.88,0,0,1-974.18-26.93q2.79-47.58,5.57-95.15a2490.48,2490.48,0,0,1,963,37.58Z"/><path class="cls-51" d="M2282.7,1176.22s12.6,297,35.45,319.77,28.7,152.39,28.7,152.39S2366,2410.44,2375.42,2472s29.51,165.88,29.51,165.88l-22.34,15.1s-244.12,122.28-417.06,22.58-420-1.85-448.1-11.32a251.73,251.73,0,0,1-48.81-22.61c-9.2-2.37-47.3-13.33-71.52-52.16-16.78-26.9-18.43-53.6-18.46-65.3a2294.1,2294.1,0,0,0,66.58-246.25c31.34-148.1,40.7-264.63,47.46-367.32,18.75-285,23.36-552.95,24.22-731.79a820.46,820.46,0,0,1,96.4-74.29s71-46.73,138-72.88C1851.07,992.72,2059.69,1039.62,2282.7,1176.22Z"/><path class="cls-32" d="M1843.72,934.61s-13.18-13.53-92.8,64.93c0,0-47.94,53.25-58.78,52.53,0,0,51.89,193.4,21.63,272.41,0,0,170.28,13.32,202.49,41.58,0,0,14.8,7.35,22,39.23s94.89,48.09,94.89,48.09,67.85,27.5,79.57,72.48c0,0-29.38-125.14-203.06-317.75l-26.38-37.95Z"/><path class="cls-52" d="M1886.33,885.83l-74.39-257s-11.94-68,17.31-112.82l44.13-100.92a668.93,668.93,0,0,1,117.37-81.17,210.68,210.68,0,0,1,54.52-19.52,208.21,208.21,0,0,1,51.22-4.23A724.16,724.16,0,0,1,2178.85,327c66,17.52,101.27,36.85,149.63,55.09,37.67,14.22,92.2,31.14,162.81,40.82,0,0-15.37,52.79-54.82,70.61,0,0,38.34,4.21,54.82-5.31a375.61,375.61,0,0,1-79.1,75.51c-13.92,9.81-24.55,15.85-27.69,17.68-71.83,42.05-113,164-187.19,231.28-105.5,95.61-287.6,89.59-287.63,89.6h0Z"/><path class="cls-53" d="M1941.84,2104.75s-37.78,293.33-114.94,293.46l-157.2-38.81,22.44-239.53,27.77-82.39,129.59-57.6Z"/><path class="cls-54" d="M1628.75,1271.8c39.94,54.33,92.6,141.1,114.31,255.91,36.56,193.36-42.23,318.9,20.32,381.65,33.13,33.22,107.17,49.25,284.5-20.33-19,22.36-84.17,93.53-182.89,99.07a223.17,223.17,0,0,1-61-5.08l-127.64-15.24-24.77-447.69Z"/><path class="cls-51" d="M2112.74,1525.86c8.68,122.3,9.93,222.45,9.35,293-.87,105.34-5.92,155.41,6.49,238.49,14.66,98.11,40.74,155.75,58.18,208.34,31.23,94.15,56.19,236.57,21.29,441.91a747.56,747.56,0,0,0,196.88-69.71s-29.72-155.71-31.73-190.08-6.3-132.35-6.3-132.35,2.66-162.67,2.41-331.27c-.21-148,3.9-238.62-15-366.89-4.5-30.59-6.57-38.66-17.27-98.51-25.62-143.15-43-260.44-54.35-342.57L2087.17,1069l6.52,145.35Z"/><path class="cls-55" d="M2362.58,844.11,2380,911.53s-25.49,19.94-43.11,15.32c-2.48-3.39-13.17-18.79-10.38-39.31C2329.17,867.86,2343.19,851.12,2362.58,844.11Z"/><path class="cls-32" d="M2093.69,1214.34l19,311.52c3.58-31.1,8.57-70.66,15.36-115.9,1.75-11.69,4.42-28.65,13.84-48.3,6.85-14.31,13.11-21.35,18.3-29.33,9.77-15,19.57-39.35,18.23-79.46q5.37-17.89,10.76-35.79l53.2,65s-15.84-106.86-34.35-127.5S2103.61,1051,2103.61,1051l-45.83-19.43-7.27,63.55Z"/><path class="cls-50" d="M1516.9,1178.82a425.23,425.23,0,0,0-134.2,141.26c-49.94,85.32-58.2,166.66-59.71,205.78,0,0-18.36,81.3,3.69,184.79s29,249.47,29,249.47a241.42,241.42,0,0,0-18.2,86.19c-2,85.8,43.44,146.62,58.75,165.45,30.79,72.84,77.14,120.49,112.3,132.5,27,9.22,60.07,10.65,60.07,10.65,9.33.41,19.57.8,32.48-1.22a137,137,0,0,0,54.77-21.68l49.29-359.11s-2.3-14.44-18.86-14.29l11-456.87c-3-48.29-14.83-130.58-63.54-216.27a478.33,478.33,0,0,0-77.12-101.35Z"/><path class="cls-56" d="M2154.71,1577.5s-23,3.28-21.2,25.35l98.92,71s16-14.9,50.27-20.65Z"/><path class="cls-57" d="M2154.71,1577.5s2.17-17.24,22.2-5l67.21,43s10.94,5.4,10.41,21Z"/><path class="cls-54" d="M2360.06,2473.74s-218.6,193.85-369.84,146.28-256.75-105.49-256.75-105.49-17.38-90.53,57-67.53S2087.43,2641.45,2360.06,2473.74Z"/><path class="cls-58" d="M1686.57,1945.35c-85.33-55.19-182.73-53.09-237.55-1.12-31.46,29.82-41.78,69.32-45.5,93.25l47.63-57.49,41.88-19.87Z"/><path class="cls-58" d="M1664.71,1949.38a571.39,571.39,0,0,0-158.19,69.38c-13.52,8.59-26.14,17.42-37.9,26.32-9.23,24.39-15.61,62.82-21.33,110.11-6.88,56.82-6.16,117.17,24.21,131.27a218.09,218.09,0,0,1,5.36-137.09l25.7-61.22q31.11-27.42,63.07-55Q1615.48,1990.27,1664.71,1949.38Z"/><path class="cls-58" d="M1559.36,1452.69s120.77,201,124.24,362.15c.08,3.53.1,7,.06,10.52-1.81,162.79,0-7,0-7S1721.61,1488.62,1559.36,1452.69Z"/><path class="cls-50" d="M2282.7,1176.22c.06.11,34.15,59.54,39.1,68.28l93.64,281.36s74.59,104.2,76.21,174.07,7.19,41.59,7.19,41.59,9.51,110.63,34.59,132.72,48.55,122.58,13.09,158S2486,2240.2,2486,2240.2s27.7,157.2-147.85,60.89c-27.3-27-65.4-73.38-84.59-140.4-52.42-183.1,87.24-342.41,97.48-353.74a803.6,803.6,0,0,0,8-155c-3.86-84.54-19.88-138.86-36.61-217.39A2323.81,2323.81,0,0,1,2282.7,1176.22Z"/><path class="cls-55" d="M1849.5,1979.88s168.36-12.13,305.21-196.82c0,0,45.1-112.76,105.78-125.16s80.91-23.31,156.5,21.69c0,0,6.4,42.29-2,40.91l-8.36-1.39s43.84,9.76,34.57,35.33-35.75,85.3-35.75,85.3l-602.27,413.55s-115.2-48-117-53.53,9.58-159.26,9.58-159.26Z"/><path class="cls-28" d="M1658.78,1975.91c8.26-11.81,27-38.6,54.38-40.81,17.33-1.41,27.56,7.9,47.79,16.34,19.56,8.16,48.37,15.46,88.55,11.21,0,0,10.92,6.48-20.36,72.67s-25.5,244.79-25.5,244.79,3.07,93.25,13.17,105.55l10.09,12.3s-169.56,31.1-225.85-46.32C1601.32,2328.54,1605.69,2051.8,1658.78,1975.91Z"/><path class="cls-53" d="M2299.31,1968.73s64.43-27.83,125.73,161.6c0,0,22.64,47.82,51.36,86.49,0,0,22.51,67.19-28.76,92.21s-126.41-13.25-143.22-89.52S2228,2073.79,2299.31,1968.73Z"/><path class="cls-55" d="M2375.77,562.92s29,109.26-14.76,287.69a653.94,653.94,0,0,1-29.9,90.67c-8.36,20.22-22.94,52.52-48.61,86.36-13.06,17.22-22.91,26.82-37.15,32.46-18.59,7.38-36.09,4.6-45.47,2.27,0,0-52.51-8.36-80.77-24.94,0,0-50.31,39.45-55.1,72.15l29.68,104.76s-50.14,65.32-210.39-44.18c0,0-76.29-106.42-75.26-204.39,0,0,73-49.78,108.22-133.56,0,0,50.69,36,73,30.62s69.12-37.44,69.12-37.44-65.26-56.29-29.73-133.46c0,0,33.31-79.13,80.39-14.38,0,0,11,103.32,59.67,106l4.29-46.44s-1.35-13.3,24.5-30.57,64-134.94,64-134.94S2328,588,2375.77,562.92Z"/><path class="cls-59" d="M2084.13,700.73l2.67,82.18c-6.88-6.55-20.13-20.54-26.36-38.73a49.41,49.41,0,0,1-2.91-16.63c0-6.39.09-14.83,6-20.95C2071,698.77,2082.5,700.47,2084.13,700.73Z"/><path class="cls-59" d="M2059.39,877.06a335.21,335.21,0,0,0,59.72,160.37c-1.92,1.64-18.33,15.61-28.76,27.2a119.52,119.52,0,0,0-9,10.95c-2.3,3.19-6.05,8.76-6.05,8.76h0s-16.45-53.3-22.21-81.55C2047.12,973.83,2044.45,932.11,2059.39,877.06Z"/><ellipse class="cls-60" cx="2321.8" cy="762.52" rx="17.92" ry="18.49"/><path class="cls-61" d="M2277.38,700.4s48.73-20.56,75.63,13.18"/><path class="cls-61" d="M2302,969.24s-33.76,3-49.3-24.75"/><path class="cls-59" d="M1891.34,1971.9a149.54,149.54,0,0,0-27,36.25c-37.75,71.47-3.1,151,4.13,166.78l-65.23,62.39c.11-4.72.3-12,.53-21,.33-12.56.61-22,.64-23.17,1.2-41.62,1.89-65.36,6.67-93,3.7-21.49,8.41-36.92,13.74-54.32a577.54,577.54,0,0,1,24.67-65.9q8.84-1.17,18.35-2.9C1876.13,1975.47,1884,1973.75,1891.34,1971.9Z"/><polygon class="cls-62" points="2202.45 1855.47 1751.88 2286.46 2282.7 2097.85 2703.07 1691.98 2202.45 1855.47"/><path class="cls-55" d="M2419.77,2114.61h0s-64.78,38.12-93.77,49.44c-38.25,14.93-99,16.32-197.42-44.18l-153.87,28.86s-14.23-17.46,24.77-32.84,78.64-26.25,78.64-26.25l-53.66-32.29s4.42-27.73,104.12,0l32.83,9.27-97.11-60.41s2.3-27.6,78-2.65S2215,2023,2215,2023l25.57-16.76L2230.13,1881s9.46-38.78,34.95-4.08l21.75,90.36s76.72-6.5,107-26.5c0,0,17-17.33,37-55.39,0,0,23.7-38.44,47.58-22.9l11.94,5.24s-34.61,33.67-34.61,65.31-52,98.57-64.05,107.44l-2.68,1.3h0c-1.29-2.69,14,29.31,14,29.31C2412.73,2093.11,2419.77,2114.61,2419.77,2114.61Z"/><path class="cls-28" d="M2389.59,2041.16s43.83,118,57.8,130.69,39.22,67.72,39.22,67.72l21.75-116s-29.21-104.14-64.78-146.05C2443.58,1977.54,2415.62,2029.85,2389.59,2041.16Z"/><path class="cls-2" d="M1875.15,1158.13a231.81,231.81,0,0,0,88.27,52.71c58.69,19,109,9,130.27,3.5l16.82,303.77c-22.76-72.22-53-122.79-77.16-156.22-24.85-34.4-44.11-51.86-89.62-110.09C1913.58,1213.22,1890.35,1180.34,1875.15,1158.13Z"/><path class="cls-63" d="M1633.83,2037.63s-68.58,339.1,142.89,362c0,0-124.64,18.41-175.67-48C1601.05,2351.64,1603.35,2111.92,1633.83,2037.63Z"/><path class="cls-59" d="M2362.58,844.11c-3.6,15.47-8.08,31.95-13.69,49.22-3.84,11.81-7.88,23-12,33.52a50.62,50.62,0,0,0,15.82-.5A52.87,52.87,0,0,0,2380,911.53q-6.75-27.06-14-54.39Q2364.32,850.62,2362.58,844.11Z"/><ellipse class="cls-59" cx="2249.52" cy="820.62" rx="28.27" ry="49.18" transform="translate(1118.42 2931.16) rotate(-81.85)"/></g></svg>