<svg width="4680" height="3120" viewBox="0 0 4680 3120" fill="none" xmlns="http://www.w3.org/2000/svg">
<g clip-path="url(#clip0_261_1092)">
<path d="M4288 722.116C4288 722.116 4237.87 761.012 4188.84 775.71C4060.18 814.282 3953.82 688.838 3819.26 722.116C3702.34 751.033 3758.35 823.679 3666.02 869.501C3380.1 1011.41 3115.59 592.053 2728.55 650.656C2483.07 687.826 2377 775.71 2377 775.71" stroke="#E0EFFD" stroke-width="30" stroke-miterlimit="3.23955" stroke-linecap="round" stroke-dasharray="75 75"/>
<path d="M1095.92 583.858C724.917 796.585 623.969 1181.25 598.225 1311.45C585.308 1376.8 541.362 1630.17 650.885 1922.14C667.577 1966.63 821.445 2359.17 1214.98 2545.59C1281.4 2577.06 1332.7 2592.29 1431.4 2621.47C1581.86 2666.03 1767.7 2708.91 2050.85 2721.6C2397.18 2737.08 2744.17 2715.48 3085.89 2657.16C3305.15 2619.74 3527.76 2564.76 3713.54 2428.55C3899.31 2292.34 4043.41 2059.82 4037.59 1806.29C4032.08 1566.18 3893.23 1347.54 3717.33 1213.18C3541.44 1078.81 3332.05 1016.3 3125.15 969.947C3015.86 945.465 2947.05 929.259 2881.97 912.319C2723.39 871.045 2609.91 843.214 2509.56 806.223C2455.77 786.396 2403.58 762.449 2353.47 734.595C2231.5 669.356 2153.13 604.097 2134.95 589.909C1996.21 481.687 1513.49 344.403 1095.92 583.858Z" fill="#E0EFFD"/>
<path d="M353.306 1901.04H4300.01C4300.01 1901.04 4030.04 2491.47 3721.25 2745.35C3074.8 3276.85 1583.04 2888.43 1583.04 2888.43C1583.04 2888.43 557.737 2514.32 353.306 1901.04Z" fill="#BBD0E3"/>
<path d="M3872.03 2133.3L3400.29 2132.95L3368.21 2080.45L3360.92 2109.52L3375.23 2132.93L2620 2132.39V2132.25L2619.9 2132.39L605.023 2130.92C607.547 2136.77 610.349 2142.84 613.419 2148.86C617.314 2156.51 621.079 2163.09 624.627 2168.73L904.58 2168.65L833.092 2485.03L845.154 2500.65L920.14 2168.71L1206.98 2168.63L1122.52 2758.51H1141.7L1226.16 2168.63L1491.18 2168.56L1437.14 2751.75H1451.05L1505.1 2168.51L2273.75 2168.32L2322.36 2751.71H2336.16L2287.5 2168.35L2612.5 2168.26L2745.13 2755.29H2760.71L2628.1 2168.28L3396.66 2168.07L3727.15 2708.87L3735.54 2681.6L3421.7 2168.08L3864.94 2167.97C3867.22 2156.99 3869.7 2144.85 3872.03 2133.3Z" fill="#0041BC"/>
<path d="M2905.81 1571.22H463.02V2145.9H2905.81V1571.22Z" fill="#9CCFFD"/>
<path d="M3207.91 1571.13H463.02V1856.94H3207.91V1571.13Z" fill="white" stroke="#0041BC" stroke-width="6" stroke-miterlimit="10"/>
<path d="M987.256 1693.22H822.568V1734.85H987.256V1693.22Z" fill="#043C7D"/>
<path d="M2540.38 1856.94V2143.66" stroke="#0041BC" stroke-width="6" stroke-miterlimit="10"/>
<path d="M867.369 1903.56H834.561V2034.08H867.369V1903.56Z" fill="#043C7D"/>
<path d="M976.73 1908.82H943.922V2039.34H976.73V1908.82Z" fill="#043C7D"/>
<path d="M2625.81 1670.66H2461.12V1712.29H2625.81V1670.66Z" fill="#043C7D"/>
<path opacity="0.25" d="M577.053 1574.6C607.248 1618.43 648.273 1668.34 702.543 1713.81C761.513 1763.22 821.267 1794.94 876.093 1815.28C977.738 1852.98 1059.82 1847.86 1059.74 1850.96C1059.65 1854.69 941.293 1856.59 469.149 1850.33C468.742 1671.16 468.523 1577.09 468.523 1577.09L488.087 1576.46C498.142 1576.17 521.402 1575.62 577.053 1574.6Z" fill="#75BAF5"/>
<path d="M469.15 1850.33L463.02 2145.91L1210.55 2144.35C939.662 2122.3 681.518 2019.93 469.15 1850.33V1850.33Z" fill="#75BAF5"/>
<path d="M2688.18 1196.55H2535.12C2535.26 1186.7 2535.41 1176.86 2535.57 1167.02C2547.74 1163.52 2551.35 1162.25 2551.28 1161.97C2551.28 1161.85 2550.4 1161.97 2550.4 1161.97C2550.4 1162.29 2612 1162.2 2688.18 1161.97V1196.55Z" fill="#3B5C75"/>
<path d="M2702.01 1565.15H2538.07C2517.05 1565.08 2496.91 1556.71 2482.05 1541.84C2467.19 1526.98 2458.81 1506.84 2458.75 1485.82V1275.37C2458.81 1254.35 2467.19 1234.21 2482.05 1219.34C2496.91 1204.48 2517.05 1196.1 2538.07 1196.04H2702.01C2723.03 1196.1 2743.17 1204.48 2758.03 1219.34C2772.89 1234.21 2781.27 1254.35 2781.33 1275.37V1485.82C2781.27 1506.84 2772.89 1526.98 2758.03 1541.84C2743.17 1556.71 2723.03 1565.08 2702.01 1565.15Z" fill="#3B5C75"/>
<path d="M2710.5 1198.42H2565.53C2522.21 1198.42 2487.1 1233.54 2487.1 1276.86V1485.26C2487.1 1528.58 2522.21 1563.7 2565.53 1563.7H2710.5C2753.81 1563.7 2788.93 1528.58 2788.93 1485.26V1276.86C2788.93 1233.54 2753.81 1198.42 2710.5 1198.42Z" fill="#9ECEFC"/>
<path d="M2704.27 1162.2H2551.2V1198.21H2704.27V1162.2Z" fill="#F9430E"/>
<path d="M2709.81 1316.15H2567.47V1484.22H2709.81V1316.15Z" fill="#5CABF7" stroke="white" stroke-width="6" stroke-miterlimit="10"/>
<path d="M2540.45 1273.28L2567.47 1316.15" stroke="white" stroke-width="6" stroke-miterlimit="10"/>
<path d="M2567.47 1484.22L2540.45 1516.8" stroke="white" stroke-width="6" stroke-miterlimit="10"/>
<path d="M2773.99 1921.67L2611.04 2209.25L2994.49 2388.27L3810.33 2352.19C3810.33 2352.19 3955.57 2226.76 4016.59 1962.28L2773.99 1921.67Z" fill="#27397C" stroke="white" stroke-width="6" stroke-miterlimit="10"/>
<path d="M3502 2041.11C3502 2041.11 3349.16 2053.44 3300.74 2083.29L3292.4 2090.74L3343.08 2095.78C3343.08 2095.78 3367.41 2072.39 3477.59 2068.76L3502 2041.11Z" fill="#009BDD"/>
<path d="M3203.58 2119.55C3202.75 2117.82 3197.17 2105.7 3203.11 2092.72C3206.2 2086.15 3211.46 2080.84 3218.01 2077.69L3460.53 2094.06V2118.68L3237.56 2100.99C3235.3 2101.98 3233.27 2103.42 3231.6 2105.24C3225.18 2112.29 3227.05 2122.13 3227.35 2123.61L3203.58 2119.55Z" fill="white" stroke="#257CC0" stroke-width="6" stroke-miterlimit="10"/>
<path d="M2978.24 881.478C2940.84 877.94 2880.01 878.427 2836.01 917.247C2820 931.356 2812.16 945.296 2803.53 960.458C2755.65 1044.66 2701.63 1125.39 2655.38 1210.46C2655.38 1210.46 2642.54 1218.05 2649.63 1272.7L2729.2 1809.08L2734.02 1848.43H2773.99V1871.16L4025.66 1910.07C4025.66 1910.07 4099.38 1527.15 3749.02 1210.46C3693.67 1161.59 3633.79 1118.12 3570.17 1080.65C3453.09 1011.7 3351.68 979.893 3239.43 945.445C3153.66 919.142 3066.46 897.785 2978.24 881.478V881.478Z" fill="#0173B3" stroke="#E0EEFA" stroke-width="6" stroke-miterlimit="10"/>
<path d="M2832.37 1868.81C2840.37 1852.37 2851.04 1837.37 2863.95 1824.41C2863.95 1824.41 2890.95 1797.49 2931.97 1783.36C3100.11 1725.45 3397.4 1733.33 3397.4 1733.33C3397.4 1733.33 3805.69 1744.16 3944.5 1814.3C3986.01 1835.27 4007.31 1868.03 4007.31 1868.03C4015.67 1880.95 4021.86 1895.14 4025.66 1910.04L2832.37 1868.81Z" fill="#0A73DD" stroke="white" stroke-width="6" stroke-miterlimit="10"/>
<path d="M3159.1 922.343C3100.67 921.012 3055.14 931.812 3026.57 940.834C3002.33 948.475 2873.03 989.728 2816.34 1103.78C2808.47 1119.65 2802.18 1136.26 2797.58 1153.36C2770.05 1283.4 2777.66 1418.42 2819.62 1544.54C2819.87 1544.81 2820.32 1545.27 2820.88 1545.84C2848.7 1574.02 2890.62 1575.65 2908.76 1575.71C2986.72 1576.18 3206.92 1555.55 3206.92 1555.55C3241.95 1552.26 3366.98 1552.96 3617.05 1554.38H3618.49C3760 1555.22 3887.25 1574.57 4001.17 1605.14C3970.56 1519.79 3911.98 1391.91 3799.19 1268.12C3778.13 1245 3680.71 1140.31 3525.52 1056.1C3468.51 1025.17 3417.77 1004.63 3390.64 993.743C3315.56 963.59 3238.12 939.708 3159.1 922.343V922.343Z" fill="#27397C" stroke="white" stroke-width="6" stroke-miterlimit="10"/>
<path d="M3964.01 1653.4L2968.12 1624.71C2954.23 1624.31 2942.66 1635.24 2942.26 1649.12C2941.86 1663 2952.79 1674.58 2966.67 1674.98L3962.56 1703.67C3976.44 1704.07 3988.02 1693.14 3988.42 1679.26C3988.82 1665.37 3977.89 1653.8 3964.01 1653.4Z" fill="#4E92FE" stroke="white" stroke-width="6" stroke-miterlimit="10"/>
<path d="M2832.37 1732.79H2756.02L2741.95 1642.38H2832.37V1732.79Z" fill="#043C7D" stroke="white" stroke-width="6" stroke-miterlimit="10"/>
<path d="M2547.62 2107.98C2547.62 2107.98 2583.04 2111.64 2607.48 2124.59L2773.99 1848.37C2773.99 1848.37 2738.59 1620.75 2707.36 1420.13C2676.13 1219.52 2696.94 1218.73 2696.94 1218.73C2696.94 1218.73 2793.23 1009.42 2857.55 953.513C2921.86 897.603 3056.85 897.405 3056.85 897.405" stroke="white" stroke-width="6" stroke-miterlimit="10"/>
<path d="M2773.99 1848.4V1921.67L2649.16 2151.5L2607.48 2124.59L2773.99 1848.4Z" fill="#4E92FE" stroke="white" stroke-width="6" stroke-miterlimit="10"/>
<path d="M2773.99 1917.86L4016.56 1958.48L4046.19 1888.42L2773.99 1848.4V1917.86Z" fill="#4E92FE" stroke="#5FCCF5" stroke-width="6" stroke-miterlimit="10"/>
<path d="M2503.61 2549.1L2567.62 2768.25C2567.62 2768.25 2731.1 2762.84 3065.7 2704.42L3397.42 2624.5L2503.61 2549.1Z" fill="#043C7D" stroke="white" stroke-width="6" stroke-miterlimit="10"/>
<path d="M3094.72 2102.76V2232.5L3075.4 2303.05C3075.4 2303.05 2882.82 2302.95 2815.22 2263.63L3094.72 2102.76Z" fill="#005A7E" stroke="#247CC0" stroke-width="6" stroke-miterlimit="10"/>
<path d="M3094.72 2102.76L3023.2 2282.97L2815.22 2263.63L2819.05 2248.8L3030.71 2102.5L3094.72 2102.76Z" fill="#007DC2"/>
<path d="M3083.21 2201.86L3152.59 2198.95C3161.45 2192.31 3166.74 2186.03 3167.27 2180.76C3169.31 2160.28 3192.55 2168.35 3192.55 2168.35L3190.93 2138.17C3185.21 2137.77 3164.52 2136.88 3157.98 2148.28C3157.62 2148.92 3157.31 2149.59 3157.04 2150.27C3155.16 2162.57 3149.57 2168.38 3146.86 2170.73C3138.17 2178.23 3126.42 2178.11 3109.1 2177.92C3102.63 2177.86 3096.16 2177.38 3089.75 2176.47C3088.91 2176.3 3083.79 2175.31 3079.52 2178.64C3075.24 2181.97 3074.44 2187.58 3075.43 2191.4C3076.89 2197.02 3083.21 2201.8 3083.21 2201.86Z" fill="white" stroke="#257CC0" stroke-width="6" stroke-miterlimit="10"/>
<path d="M3066.76 2264.94L3145.18 2262.03C3155.19 2255.4 3161.18 2249.11 3161.77 2243.85C3164.08 2223.37 3190.35 2231.44 3190.35 2231.44L3188.51 2201.25C3182.05 2200.87 3158.7 2199.97 3151.27 2211.38C3150.87 2212.01 3150.51 2212.68 3150.21 2213.36C3148.08 2225.67 3141.77 2231.48 3138.7 2233.82C3128.88 2241.32 3115.6 2241.2 3095.98 2241.02C3088.67 2240.95 3081.37 2240.47 3074.12 2239.57C3073.19 2239.4 3067.35 2238.4 3062.56 2241.73C3060.58 2243.12 3059.07 2245.1 3058.24 2247.38C3057.41 2249.66 3057.31 2252.15 3057.94 2254.49C3059.61 2260.16 3066.76 2264.94 3066.76 2264.94Z" fill="white" stroke="#257CC0" stroke-width="6" stroke-miterlimit="10"/>
<path d="M3232.83 2124.69C3231.72 2124.07 3206.3 2110.23 3193.62 2120.62C3192.07 2121.89 3192.09 2122.4 3183.87 2148.12C3180.89 2157.51 3178.81 2163.87 3181.61 2170.62C3182.66 2173.11 3184.21 2175.36 3186.16 2177.24C3188.25 2179.36 3190.73 2181.06 3193.45 2182.27C3198.88 2184.41 3207.85 2185.82 3222.04 2182.91L3232.83 2124.69Z" fill="#009BDD" stroke="#247CC0" stroke-width="6" stroke-miterlimit="10"/>
<path d="M3212.95 2203.25C3211.85 2202.63 3186.43 2188.79 3173.75 2199.19C3172.19 2200.47 3172.22 2200.96 3164 2226.68C3161.02 2236.07 3158.93 2242.44 3161.73 2249.18C3162.78 2251.68 3164.33 2253.93 3166.28 2255.8C3168.38 2257.92 3170.85 2259.62 3173.58 2260.83C3179 2262.97 3187.98 2264.4 3202.16 2261.47L3212.95 2203.25Z" fill="#009BDD" stroke="#247CC0" stroke-width="6" stroke-miterlimit="10"/>
<path d="M2814.1 1999.81C2814.1 1999.81 2884.21 1879.97 2994.5 1985.47L2995.86 2014.82H2808.78L2814.1 1999.81Z" fill="#009BDD" stroke="#247CC0" stroke-width="6" stroke-miterlimit="10"/>
<path d="M2842.56 2010.22C2842.56 2010.22 2798.66 1989.7 2779.6 2020.32C2760.54 2050.94 2717.62 2138.2 2717.62 2138.2C2717.62 2138.2 2721.91 2193.32 2752.79 2204.05C2783.67 2214.79 2851.7 2216.55 2851.7 2216.55L2842.56 2010.22Z" fill="#009BDD" stroke="#3E69B1" stroke-width="6" stroke-miterlimit="10"/>
<path d="M3215.91 1992.03C3215.91 1992.03 3438.61 1916.19 3552.74 1978.43C3552.74 1978.43 3562.81 1975.2 3603.68 2036.49L3551.09 2057.12L3517.51 2037.25C3512.11 2030.51 3505.45 2024.89 3497.9 2020.7C3492.38 2017.64 3486.44 2015.41 3480.27 2014.07C3473.54 2012.8 3466.68 2012.47 3459.86 2013.08C3444.96 2014.57 3352.85 2033.94 3227.16 2062.56L3172.46 2045.36C3172.46 2045.36 3195.22 1994.75 3215.91 1992.03Z" fill="#4E92FE"/>
<path d="M3517.56 2023.63L3460.59 2087.73V2140.53L3686.3 2157.65C3686.81 2115.02 3687.31 2072.38 3687.8 2029.76L3517.56 2023.63Z" fill="white" stroke="#0041BC" stroke-width="6" stroke-miterlimit="10"/>
<path d="M3687.77 2029.76C3687.77 2029.76 3604.45 2067.16 3638.8 2154.41L3686.27 2157.65L3687.77 2029.76Z" fill="#27397C" stroke="#247CC0" stroke-width="6" stroke-miterlimit="10"/>
<path d="M3552.76 1978.43C3551.94 1978.23 3550.43 1977.97 3550.39 1977.44C3550.12 1974.23 3598.42 1967.31 3638.82 1963.79C3727.4 1956.06 3746.12 1967.45 3755.82 1976.7C3764.7 1985.18 3769.36 1995.11 3771.55 1999.85C3779.9 2017.97 3780.27 2035.82 3776.23 2065.82C3772.09 2096.27 3765.26 2126.29 3755.81 2155.53L3699.7 2152.55C3706.79 2134.75 3712.08 2119.68 3715.79 2108.61C3715.79 2108.61 3721.59 2091.23 3730.06 2050.61C3730.06 2050.61 3733.5 2034.13 3728.6 2019.45C3727.7 2016.54 3726.2 2013.87 3724.19 2011.59C3719.46 2006.31 3713.12 2004.92 3710.19 2004.48C3688.4 2003.73 3666.58 2004.09 3644.83 2005.57C3623.89 2007 3604.46 2009.35 3586.7 2012.2C3571.81 1987.85 3560.64 1980.29 3552.76 1978.43Z" fill="#0082C8"/>
<path d="M3236.37 2104.03L3199.61 2266.44L3204.4 2312.38H3319.88L3325.99 2160.49C3326.25 2142.74 3326.5 2124.99 3326.76 2107.24L3236.37 2104.03Z" fill="#9CCFFD" stroke="#247CC0" stroke-width="6" stroke-miterlimit="10"/>
<path d="M3460.56 2087.72L3616 2095.78" stroke="#247CC0" stroke-width="6" stroke-miterlimit="10"/>
<path d="M2471.21 2135.88C2471.21 2135.88 2358.63 2333.81 2503.61 2548.15C2503.61 2548.15 2666.94 2644.11 2830.24 2578.63L2837.94 2387.3L2728.51 2240.77C2728.51 2240.77 2573.73 2038.91 2471.21 2135.88Z" fill="#93C7FD" stroke="white" stroke-width="6" stroke-miterlimit="10"/>
<path d="M2471.31 2138.75C2469.77 2184.19 2473.65 2267.47 2519.88 2354.35C2613.13 2529.74 2800.19 2572.31 2830.24 2578.63C2826.34 2576.15 2822.76 2573.2 2819.58 2569.84C2808.57 2558.16 2805.59 2544.5 2804.44 2539.56C2799.93 2520.17 2781.41 2453.57 2756.49 2361.63C2752.51 2348.82 2746.69 2331.71 2738.66 2311.95C2730.81 2292.62 2721.82 2273.2 2715 2260.37C2701.78 2235.53 2675.74 2186.59 2621.78 2154.38C2604.03 2143.78 2569.12 2123.57 2522.42 2126.46C2504.8 2127.57 2487.51 2131.73 2471.31 2138.75V2138.75Z" fill="#043C7D"/>
<path d="M2697.21 2513.38C2737.41 2513.38 2770 2480.79 2770 2440.59C2770 2400.39 2737.41 2367.8 2697.21 2367.8C2657.01 2367.8 2624.42 2400.39 2624.42 2440.59C2624.42 2480.79 2657.01 2513.38 2697.21 2513.38Z" fill="#E0EFFD"/>
<path d="M2547.62 2452.9C2600.88 2452.9 2644.06 2409.72 2644.06 2356.45C2644.06 2303.18 2600.88 2260 2547.62 2260C2494.35 2260 2451.17 2303.18 2451.17 2356.45C2451.17 2409.72 2494.35 2452.9 2547.62 2452.9Z" fill="#116D9E" stroke="white" stroke-width="6" stroke-miterlimit="10"/>
<path d="M2573.47 2263.3C2596.85 2263.3 2615.81 2244.35 2615.81 2220.97C2615.81 2197.58 2596.85 2178.63 2573.47 2178.63C2550.09 2178.63 2531.13 2197.58 2531.13 2220.97C2531.13 2244.35 2550.09 2263.3 2573.47 2263.3Z" fill="white"/>
<path d="M2803 2098.53C2803 2098.53 2779.46 2126.26 2799.25 2187.52L2819.05 2248.79L3005.44 2263.62L3066.79 2109.61L3046.92 1992.65L2803 2098.53Z" fill="#27397C" stroke="#247CC0" stroke-width="6" stroke-miterlimit="10"/>
<path d="M2851.71 1989.58L3046.95 1992.63L2994.46 2145.64C2994.46 2145.64 2988.14 2170.35 2934.85 2166.71C2881.56 2163.06 2823.68 2156.33 2823.68 2156.33C2823.68 2156.33 2793 2125.12 2808.77 2086.59L2851.71 1989.58Z" fill="white" stroke="#0041BC" stroke-width="6" stroke-miterlimit="10"/>
<path d="M3822.7 2323.58L3320.13 2316.23C3313.03 2304.03 3294.7 2268.68 3301.69 2223.58C3303.3 2213.27 3310.41 2168.66 3346.17 2144.53C3355.94 2138.02 3366.89 2133.47 3378.4 2131.16L3825.89 2145.62C3825.89 2145.62 3906.24 2185.6 3883.06 2263.63L3836.96 2323.58H3822.7Z" fill="#009BDD" stroke="#247CC0" stroke-width="6" stroke-miterlimit="10"/>
<path d="M3825.89 2145.62C3816.49 2154.96 3808.24 2165.38 3801.31 2176.68C3765.54 2235.11 3776.69 2299.55 3781.99 2322.99L3836.96 2323.58L3883.06 2263.63C3883.06 2263.63 3913.33 2200.6 3825.89 2145.62Z" fill="#284BA0" stroke="#247CC0" stroke-width="6" stroke-miterlimit="10"/>
<path d="M4008.39 1996.77C4008.39 1996.77 3947.28 1969.24 3905.61 1996.77C3865.03 2023.6 3855.06 2076.14 3843.01 2157.65C3834.94 2212.58 3832.91 2268.22 3836.96 2323.58C3860.87 2295.24 3882.9 2265.37 3902.91 2234.16C3949.83 2160.8 3985.39 2080.76 4008.39 1996.77Z" fill="#0A73DD" stroke="#247CC0" stroke-width="6" stroke-miterlimit="10"/>
<path d="M3432.75 2155.85L3484.67 2157.66C3484.67 2157.66 3425.06 2234.03 3468.25 2289.34L3416.84 2286.9C3408.12 2271.78 3403.11 2254.81 3402.24 2237.38C3400.25 2193.4 3426.34 2162.93 3432.75 2155.85Z" fill="white" stroke="#0041BC" stroke-width="6" stroke-miterlimit="10"/>
<path d="M3521.65 2158.97L3573.58 2160.77C3573.58 2160.77 3513.96 2237.14 3557.15 2292.45L3505.75 2290.01C3497.02 2274.9 3492.01 2257.92 3491.15 2240.49C3489.15 2196.51 3515.24 2166.09 3521.65 2158.97Z" fill="white" stroke="#0041BC" stroke-width="6" stroke-miterlimit="10"/>
<path d="M3616.92 2162.29L3668.84 2164.11C3668.84 2164.11 3609.23 2240.47 3652.42 2295.79L3601.01 2293.34C3592.28 2278.22 3587.28 2261.25 3586.41 2243.82C3584.42 2199.87 3610.51 2169.38 3616.92 2162.29Z" fill="white" stroke="#0041BC" stroke-width="6" stroke-miterlimit="10"/>
<path d="M3082.66 1984.26L3215.92 1991.99C3215.92 1991.99 3182.57 2037.38 3227.18 2062.54L3089.94 2083.4C3094.79 2071.53 3097.56 2058.91 3098.13 2046.1C3099.38 2016.63 3088.44 1994.34 3082.66 1984.26Z" fill="#043C7D"/>
<path d="M2734.02 1848.4H2773.99L2607.48 2124.62C2607.48 2124.62 2566.21 2107.06 2547.62 2108.01L2734.02 1848.4Z" fill="#043C7D"/>
<path d="M3086.51 1987.83C3082.07 1983.86 3077.66 1981.56 3073.78 1982.6C3061.95 1985.78 3060.21 2018.85 3063.27 2041.66C3065.45 2057.83 3072.27 2085.46 3082.32 2085.88C3087.35 2086.09 3091.74 2079.4 3094.57 2073.95C3101.34 2045.13 3098.52 2014.88 3086.51 1987.81V1987.83Z" fill="#40BAEC" stroke="#247CC0" stroke-width="6" stroke-miterlimit="10"/>
<path d="M3082.19 2054.96C3085.65 2054.63 3087.55 2044.94 3086.43 2033.31C3085.31 2021.69 3081.6 2012.54 3078.13 2012.87C3074.67 2013.2 3072.77 2022.9 3073.89 2034.52C3075.01 2046.14 3078.72 2055.3 3082.19 2054.96Z" fill="#464DA0"/>
<path d="M2734.75 1809.05L2471.21 2136.83C2508.14 2129.45 2537.59 2132.56 2558.36 2137.33C2679.8 2165.24 2735.88 2302.93 2742.92 2320.93C2750.61 2340.6 2758.81 2368.43 2775.1 2424.1C2785.04 2458.05 2792.73 2486.26 2797.81 2505.48C2814.7 2543.98 2821.26 2557.9 2822.32 2558.8C2822.46 2558.93 2823.18 2560.45 2824.12 2561.86C2824.12 2561.86 2835.43 2579.93 2858.9 2591.52C2990.8 2656.78 3160.13 2656.95 3160.13 2656.95C3191.09 2656.95 3264.91 2657.06 3337.9 2643.97C3608.73 2595.39 3819.79 2374.18 3866.38 2323.58C3866.38 2323.58 2994.85 2323.52 2866.45 2277.98C2738.05 2232.43 2712.33 2217.83 2712.33 2217.83C2702.27 2199.57 2677.39 2160.58 2628.51 2133.49C2603.98 2119.98 2577.08 2111.32 2549.28 2107.98L2739.7 1848.4L2734.75 1809.05Z" fill="#4B80C1" stroke="white" stroke-width="6" stroke-miterlimit="10"/>
<path d="M2887.72 2372.99C2881.29 2380.72 2876.14 2389.44 2872.47 2398.82C2851.19 2453.66 2891.08 2510.35 2897.01 2518.51C2949.24 2541.51 3003.35 2560.01 3058.73 2573.79C3098.22 2583.58 3139.52 2591.03 3204.2 2598.09C3261.35 2604.34 3338.67 2610.49 3432.89 2611.52C3472.77 2595.35 3514.61 2576.58 3557.82 2554.73C3635.76 2515.29 3710.45 2469.72 3781.18 2418.46C3679.42 2430.73 3577.03 2437.04 3474.53 2437.34C3277.14 2437.88 3080.31 2416.29 2887.72 2372.99V2372.99Z" fill="#043C7D" stroke="white" stroke-width="6" stroke-miterlimit="10"/>
<path d="M1297.15 1360.67H765.737V1571.23H1297.15V1360.67Z" fill="#043C7D"/>
<path d="M1328.74 1301.78H728.39V1360.66H1328.74V1301.78Z" fill="#5EAAF4"/>
<path d="M1174.65 1264.94H994.054V1303.88H1174.65V1264.94Z" fill="#F98E0E"/>
<path d="M1210.97 1412.36H926.591V1504.28H1210.97V1412.36Z" fill="white"/>
<path d="M1298.54 1360.72H765.607V1379.64H1298.54V1360.72Z" fill="#116D9E"/>
<path opacity="0.67" d="M765.607 1360.72C798.629 1394.01 834.803 1424.01 873.621 1450.32C995.633 1532.93 1117.82 1560.95 1196.68 1571.46L765.756 1571.22L765.607 1360.72Z" fill="#233781"/>
<path opacity="0.67" d="M994.053 1264.9C994.053 1264.9 1021.87 1301.05 1048.38 1302H992.543L994.053 1264.9Z" fill="#233781"/>
<path opacity="0.67" d="M728.39 1301.78C728.39 1301.78 802.313 1357.88 860.04 1359.77L728.39 1360.67V1301.78Z" fill="#233781"/>
<path d="M1600.67 621.058H435.083V512.995L1587.76 499.751L1600.67 512.995V621.058Z" fill="#3B5C75"/>
<path d="M1568.94 583.4H425.523V1196.15H1568.94V583.4Z" fill="#3B5C75"/>
<path d="M1541.52 603.968H426.425V1181.24H1541.52V603.968Z" fill="#75BAF5" stroke="#247CC0" stroke-width="6" stroke-miterlimit="10"/>
<path d="M1579.85 495.965H384.278V603.968H1579.85V495.965Z" fill="url(#paint0_linear_261_1092)"/>
<path d="M426.425 603.967V840.194C426.425 840.194 595.981 1010.54 828.809 859.121C1061.64 707.698 1538.65 696.332 1538.65 696.332L1541.52 603.928L426.425 603.967Z" fill="#00A7E1"/>
<path d="M541.089 1169.55C551.894 1169.55 560.653 1160.79 560.653 1149.98C560.653 1139.18 551.894 1130.42 541.089 1130.42C530.284 1130.42 521.525 1139.18 521.525 1149.98C521.525 1160.79 530.284 1169.55 541.089 1169.55Z" fill="white" stroke="#247CC0" stroke-width="6" stroke-miterlimit="10"/>
<path d="M1406.15 1169.55C1416.95 1169.55 1425.71 1160.79 1425.71 1149.98C1425.71 1139.18 1416.95 1130.42 1406.15 1130.42C1395.34 1130.42 1386.58 1139.18 1386.58 1149.98C1386.58 1160.79 1395.34 1169.55 1406.15 1169.55Z" fill="white" stroke="#247CC0" stroke-width="6" stroke-miterlimit="10"/>
<path d="M1399.29 665.124V737.586H1449.64V665.124C1460.37 671.893 1468.9 681.626 1474.22 693.146C1479.53 704.666 1481.39 717.479 1479.57 730.035C1475.18 758.66 1452.39 772.242 1449.64 773.812C1449.74 848.153 1449.86 922.49 1449.97 996.824C1477.17 1011.95 1492.3 1040.16 1488.3 1067.85C1483.72 1099.54 1456.16 1115.82 1452.36 1117.99V1041H1399.29V1119.49C1368.24 1099.69 1353.59 1066.04 1362.05 1036.92C1369.27 1012.13 1390.73 999.268 1396.91 995.84L1397.9 773.802C1380.02 764.383 1367.93 745.316 1366.6 723.994C1365.09 699.363 1378.13 675.705 1399.29 665.124Z" fill="#116D9E"/>
<path d="M1053.69 711.971V771.587H1099.63V711.971C1119.59 723.109 1130.44 744.76 1126.95 765.357C1122.97 788.895 1102.11 800.063 1099.63 801.364V972.679C1126.64 987.782 1140.65 1016.81 1134.91 1043.17C1129.16 1069.53 1105.92 1082.38 1102.12 1084.41V1021.1H1053.69V1085.68C1028.85 1071.18 1015.44 1043.95 1019.72 1017.79C1024.61 987.891 1050.33 973.305 1053.69 971.467C1053.28 914.773 1052.87 858.082 1052.45 801.394C1036.11 793.644 1025.11 777.965 1023.9 760.419C1022.49 740.13 1034.38 720.655 1053.69 711.971Z" fill="#116D9E"/>
<path d="M1053.69 732.161V791.776H1099.63V732.161C1119.59 743.299 1130.44 764.9 1126.95 785.546C1122.97 809.084 1102.11 820.252 1099.63 821.554V992.869C1126.64 1007.97 1140.65 1037 1134.91 1063.41C1129.16 1089.82 1105.92 1102.62 1102.12 1104.65V1041.34H1053.69V1105.92C1028.85 1091.42 1015.44 1064.19 1019.72 1038.03C1024.61 1008.13 1050.33 993.544 1053.69 991.706C1053.28 935.012 1052.87 878.321 1052.45 821.633C1036.11 813.883 1025.11 798.205 1023.9 780.658C1022.49 760.319 1034.38 740.845 1053.69 732.161Z" fill="#116D9E"/>
<path d="M1231.22 684.995V754.278H1277.17V684.995C1297.13 697.912 1307.97 723.05 1304.48 747.065C1300.51 774.438 1279.64 787.424 1277.17 788.925C1277.27 860.013 1277.37 931.097 1277.47 1002.18C1302.31 1016.65 1316.09 1043.63 1312.44 1070.1C1308.26 1100.41 1283.12 1115.98 1279.65 1118.05V1044.44H1231.22V1119.5C1202.91 1100.56 1189.49 1068.38 1197.25 1040.55C1203.83 1016.83 1223.41 1004.53 1229.05 1001.25L1229.97 788.925C1213.64 779.923 1202.64 761.68 1201.43 741.292C1200.02 717.724 1211.92 695.08 1231.22 684.995Z" fill="#116D9E"/>
<path d="M937.58 735.45H911.509V716.83H870.543V735.45H807.231V795.065H870.543V1096.74H911.509V795.045H992.208C992.208 795.045 995.934 754.069 937.58 735.45Z" fill="#116D9E"/>
<path d="M1038.56 711.971V771.587H1084.5V711.971C1104.46 723.109 1115.3 744.76 1111.81 765.357C1107.83 788.895 1086.97 800.063 1084.5 801.364V972.679C1111.51 987.782 1125.52 1016.81 1119.77 1043.17C1114.03 1069.53 1090.79 1082.38 1086.99 1084.41V1021.1H1038.56V1085.68C1013.72 1071.18 1000.31 1043.95 1004.59 1017.79C1009.48 987.891 1035.2 973.305 1038.56 971.467C1038.15 914.773 1037.73 858.082 1037.32 801.394C1020.98 793.644 1009.98 777.965 1008.76 760.419C1007.35 740.13 1019.24 720.655 1038.56 711.971Z" fill="white" stroke="#247CC0" stroke-width="6" stroke-miterlimit="10"/>
<path d="M561.535 783.629V822.508H591.502V783.629C604.538 790.892 611.622 804.981 609.327 818.404C606.714 833.765 593.141 841.058 591.502 841.903V953.741C609.128 963.598 618.269 982.555 614.523 999.735C610.778 1016.91 595.645 1025.33 593.121 1026.65V985.337H561.535V1027.44C545.35 1017.98 536.566 1000.22 539.358 983.132C542.558 963.627 559.339 954.109 561.535 952.907C561.257 915.912 560.985 878.921 560.721 841.933C555.525 839.526 551.061 835.783 547.788 831.084C544.515 826.386 542.548 820.903 542.091 815.195C541.177 801.99 548.927 789.292 561.535 783.629Z" fill="#116D9E"/>
<path d="M700.328 763.598V807.525H734.19V763.598C748.915 771.805 756.913 787.732 754.33 802.954C751.349 820.302 736.038 828.539 734.19 829.493V955.788C754.062 966.916 764.435 988.328 760.192 1007.75C755.95 1027.18 738.83 1036.67 736.018 1038.16V991.458H700.328V1039.05C682.046 1028.36 672.12 1008.25 675.28 988.994C678.887 966.956 697.854 956.205 700.328 954.854C700.017 913.064 699.712 871.27 699.414 829.473C693.544 826.754 688.502 822.525 684.803 817.217C681.104 811.91 678.88 805.716 678.36 799.268C677.327 784.354 686.09 769.997 700.328 763.598Z" fill="#116D9E"/>
<path d="M686.547 754.874V798.801H720.418V754.874C735.133 763.071 743.142 778.999 740.549 794.22C737.568 811.578 722.266 819.805 720.418 820.769V947.064C740.29 958.192 750.653 979.594 746.421 999.029C742.188 1018.46 725.058 1027.93 722.247 1029.42V982.724H686.547V1030.32C668.265 1019.63 658.349 999.516 661.508 980.26C665.115 958.222 684.073 947.472 686.547 946.12C686.249 904.317 685.944 862.523 685.633 820.739C679.765 818.019 674.724 813.789 671.027 808.482C667.33 803.175 665.108 796.981 664.589 790.534C663.555 775.62 672.319 761.273 686.547 754.874Z" fill="white" stroke="#247CC0" stroke-width="6" stroke-miterlimit="10"/>
<path d="M548.601 770.693V809.572H578.527V770.693C591.563 777.956 598.648 792.055 596.352 805.528C593.739 820.889 580.167 828.172 578.527 829.016V940.805C596.154 950.661 605.295 969.619 601.549 986.798C597.803 1003.98 582.671 1012.39 580.157 1013.71V972.401H548.561V1014.52C532.375 1005.06 523.592 987.305 526.394 970.215C529.583 950.711 546.365 941.193 548.561 940C548.296 902.999 548.024 866.004 547.746 829.016C542.551 826.608 538.089 822.864 534.816 818.166C531.543 813.469 529.576 807.986 529.116 802.279C528.242 789.064 536.002 776.356 548.601 770.693Z" fill="white" stroke="#247CC0" stroke-width="6" stroke-miterlimit="10"/>
<path d="M1216.08 664.776V734.069H1262.02V664.776C1281.99 677.693 1292.83 702.84 1289.33 726.855C1285.35 754.229 1264.49 767.205 1262.02 768.715C1262.12 839.803 1262.23 910.888 1262.33 981.969C1287.17 996.436 1300.94 1023.42 1297.3 1049.89C1293.11 1080.21 1267.98 1095.78 1264.51 1097.84V1024.23H1216.09V1099.29C1187.76 1080.35 1174.36 1048.17 1182.12 1020.34C1188.7 996.625 1208.28 984.324 1213.91 981.045L1214.84 768.715C1198.5 759.713 1187.5 741.471 1186.29 721.083C1184.88 697.564 1196.77 674.891 1216.08 664.776Z" fill="white" stroke="#247CC0" stroke-width="6" stroke-miterlimit="10"/>
<path d="M1378.47 644.904V717.436H1428.81V644.904C1439.54 651.673 1448.08 661.406 1453.39 672.926C1458.7 684.446 1460.57 697.259 1458.75 709.815C1454.36 738.44 1431.56 752.022 1428.81 753.592C1428.93 827.933 1429.05 902.266 1429.16 976.594C1456.35 991.716 1471.48 1019.94 1467.48 1047.63C1462.89 1079.32 1435.35 1095.6 1431.53 1097.77V1020.78H1378.47V1099.27C1347.43 1079.47 1332.76 1045.82 1341.24 1016.7C1348.44 991.865 1369.9 979.048 1376.09 975.62L1377.09 753.582C1359.2 744.163 1347.12 725.096 1345.8 703.774C1344.28 679.172 1357.3 655.485 1378.47 644.904Z" fill="white" stroke="#247CC0" stroke-width="6" stroke-miterlimit="10"/>
<path d="M924.297 723.148H898.265V704.518H857.289V723.138H793.978V782.754H857.289V1084.43H898.265V782.734H978.944C978.944 782.734 982.69 741.768 924.297 723.148Z" fill="white" stroke="#247CC0" stroke-width="6" stroke-miterlimit="10"/>
<path d="M568.065 833.09H557.652V855.326H568.065V833.09Z" fill="#247CC0"/>
<path d="M568.065 867.478H557.652V889.714H568.065V867.478Z" fill="#247CC0"/>
<path d="M568.065 906.595H557.652V928.832H568.065V906.595Z" fill="#247CC0"/>
<path d="M707.187 838.217H696.774V860.453H707.187V838.217Z" fill="#247CC0"/>
<path d="M707.187 872.605H696.774V894.841H707.187V872.605Z" fill="#247CC0"/>
<path d="M707.187 911.722H696.774V933.959H707.187V911.722Z" fill="#247CC0"/>
<path d="M1066.08 805.726H1051.56V830.715H1066.08V805.726Z" fill="#247CC0"/>
<path d="M1066.08 844.357H1051.56V869.346H1066.08V844.357Z" fill="#247CC0"/>
<path d="M1066.08 929.826H1051.56V954.815H1066.08V929.826Z" fill="#247CC0"/>
<path d="M1066.08 888.184H1051.56V913.173H1066.08V888.184Z" fill="#247CC0"/>
<path d="M1244.65 816.447H1230.13V841.436H1244.65V816.447Z" fill="#247CC0"/>
<path d="M1244.65 855.088H1230.13V880.077H1244.65V855.088Z" fill="#247CC0"/>
<path d="M1244.65 940.556H1230.13V965.545H1244.65V940.556Z" fill="#247CC0"/>
<path d="M1244.65 898.915H1230.13V923.904H1244.65V898.915Z" fill="#247CC0"/>
<path d="M1244.65 777.141H1230.13V802.13H1244.65V777.141Z" fill="#247CC0"/>
<path d="M1412.1 801.98H1395.15V831.162H1412.1V801.98Z" fill="#247CC0"/>
<path d="M1412.1 847.099H1395.15V876.281H1412.1V847.099Z" fill="#247CC0"/>
<path d="M1412.1 946.925H1395.15V976.107H1412.1V946.925Z" fill="#247CC0"/>
<path d="M1412.1 898.289H1395.15V927.471H1412.1V898.289Z" fill="#247CC0"/>
<path d="M1412.1 756.067H1395.15V785.248H1412.1V756.067Z" fill="#247CC0"/>
<path d="M859.333 780.33L895.529 779.853V808.727C890.914 808.332 886.4 807.15 882.185 805.229C867.5 798.513 861.161 784.761 859.333 780.33Z" fill="#116D9E"/>
<path d="M895.531 714.316H859.881V725.673H895.531V714.316Z" fill="#116D9E"/>
<path d="M1538.64 601.692H419.94V624.406H1538.64V601.692Z" fill="#116D9E"/>
<path d="M541.089 572.044C551.894 572.044 560.653 563.285 560.653 552.48C560.653 541.675 551.894 532.916 541.089 532.916C530.284 532.916 521.525 541.675 521.525 552.48C521.525 563.285 530.284 572.044 541.089 572.044Z" fill="white" stroke="#247CC0" stroke-width="6" stroke-miterlimit="10"/>
<path d="M1406.15 572.044C1416.95 572.044 1425.71 563.285 1425.71 552.48C1425.71 541.675 1416.95 532.916 1406.15 532.916C1395.34 532.916 1386.58 541.675 1386.58 552.48C1386.58 563.285 1395.34 572.044 1406.15 572.044Z" fill="white" stroke="#247CC0" stroke-width="6" stroke-miterlimit="10"/>
<path d="M904.919 1856.94V2143.66" stroke="#0041BC" stroke-width="6" stroke-miterlimit="10"/>
<path d="M2251.93 2645.99L2257.45 2729.95C1941.6 2834.48 1599.11 2825.01 1289.52 2703.19C1291.37 2671.68 1293.21 2640.16 1295.05 2608.65C1613.38 2558.68 1938.41 2571.37 2251.88 2645.99H2251.93Z" fill="#27397C"/>
<path d="M2153.07 1178.68C2153.07 1178.68 2165.59 1473.78 2188.29 1496.4C2210.99 1519.02 2216.81 1647.81 2216.81 1647.81C2216.81 1647.81 2235.83 2404.99 2245.19 2466.15C2254.55 2527.32 2274.51 2630.97 2274.51 2630.97L2252.32 2645.97C2252.32 2645.97 2009.76 2767.47 1837.93 2668.41C1666.1 2569.35 1420.62 2666.57 1392.7 2657.16C1375.78 2651.43 1359.52 2643.9 1344.21 2634.7C1335.06 2632.34 1297.21 2621.45 1273.14 2582.87C1256.47 2556.14 1254.83 2529.61 1254.8 2517.99C1281.37 2437.72 1303.46 2356.04 1320.96 2273.32C1352.09 2126.17 1361.4 2010.38 1368.11 1908.35C1386.74 1625.18 1391.32 1358.95 1392.18 1181.25C1422.23 1154.31 1454.25 1129.64 1487.96 1107.44C1487.96 1107.44 1558.5 1061.01 1625.07 1035.03C1724.2 996.356 1931.49 1042.96 2153.07 1178.68Z" fill="#F9430E" stroke="#F98E0E" stroke-width="6" stroke-miterlimit="10"/>
<path d="M1716.9 938.619C1716.9 938.619 1703.8 925.176 1624.7 1003.13C1624.7 1003.13 1577.06 1056.04 1566.29 1055.33C1566.29 1055.33 1617.85 1247.49 1587.78 1325.99C1587.78 1325.99 1756.97 1339.22 1788.98 1367.3C1788.98 1367.3 1803.68 1374.61 1810.83 1406.28C1817.99 1437.96 1905.12 1454.06 1905.12 1454.06C1905.12 1454.06 1972.53 1481.39 1984.18 1526.08C1984.18 1526.08 1954.98 1401.74 1782.42 1210.37L1756.21 1172.66L1716.9 938.619Z" fill="#27397C" stroke="#247CC0" stroke-width="6" stroke-miterlimit="10"/>
<path d="M1759.24 890.151L1685.32 634.799C1685.32 634.799 1673.46 567.235 1702.52 522.702L1746.37 422.429C1782.26 391.465 1821.35 364.428 1862.99 341.779C1880.07 332.852 1898.29 326.325 1917.16 322.385C1933.88 318.887 1950.98 317.476 1968.05 318.182C1995.63 322.167 2022.95 327.75 2049.88 334.904C2115.46 352.312 2150.5 371.518 2198.55 389.641C2235.98 403.77 2290.16 420.581 2360.32 430.199C2360.32 430.199 2345.05 482.651 2305.85 500.356C2305.85 500.356 2343.94 504.539 2360.32 495.08C2337.92 523.789 2311.44 549.066 2281.73 570.106C2267.9 579.853 2257.33 585.855 2254.21 587.673C2182.84 629.453 2141.94 750.622 2068.22 817.47C1963.4 912.467 1782.47 906.486 1782.44 906.496L1759.24 890.151Z" fill="#441413"/>
<path d="M1814.39 2101.26C1814.39 2101.26 1776.85 2392.71 1700.19 2392.84L1544 2354.28L1566.29 2116.28L1593.89 2034.42L1722.64 1977.19L1814.39 2101.26Z" fill="#212940"/>
<path d="M1503.31 1273.65C1542.99 1327.63 1595.32 1413.84 1616.89 1527.92C1653.21 1720.04 1574.93 1844.77 1637.08 1907.12C1669.99 1940.13 1743.56 1956.06 1919.75 1886.92C1900.87 1909.14 1836.12 1979.85 1738.04 1985.36C1717.7 1986.47 1697.3 1984.77 1677.43 1980.31L1550.6 1965.17L1525.99 1520.35L1503.31 1273.65Z" fill="#E13402"/>
<path d="M1984.2 1526.08C1992.82 1647.59 1994.06 1747.1 1993.49 1817.2C1992.62 1921.87 1987.61 1971.61 1999.94 2054.16C2014.5 2151.64 2040.41 2208.91 2057.74 2261.17C2088.77 2354.71 2113.57 2496.22 2078.9 2700.24C2147.02 2686.42 2212.87 2663.11 2274.51 2630.98C2274.51 2630.98 2244.98 2476.27 2242.99 2442.12C2240.99 2407.97 2236.73 2310.62 2236.73 2310.62C2236.73 2310.62 2239.37 2148.99 2239.12 1981.47C2238.91 1834.42 2243 1744.38 2224.22 1616.93C2219.75 1586.54 2217.69 1578.52 2207.06 1519.05C2181.6 1376.82 2164.33 1260.28 2153.06 1178.68L1958.79 1072.15L1965.27 1216.57L1984.2 1526.08Z" fill="#F9430E" stroke="#F16723" stroke-width="6" stroke-miterlimit="10"/>
<path d="M2232.43 848.699L2249.74 915.687C2249.74 915.687 2224.42 935.499 2206.91 930.908C2204.44 927.54 2193.82 912.239 2196.6 891.85C2199.24 872.297 2213.17 855.664 2232.43 848.699Z" fill="#C64F06"/>
<path d="M1965.27 1216.56L1984.15 1526.08C1987.7 1495.18 1992.66 1455.87 1999.41 1410.92C2001.15 1399.31 2003.8 1382.46 2013.16 1362.93C2019.97 1348.71 2026.19 1341.72 2031.34 1333.79C2041.05 1318.89 2050.79 1294.69 2049.46 1254.84C2053.01 1242.99 2056.58 1231.13 2060.15 1219.28L2113.01 1283.86C2113.01 1283.86 2097.27 1177.69 2078.88 1157.18C2060.48 1136.67 1975.12 1054.26 1975.12 1054.26L1929.59 1034.96L1922.37 1098.1L1965.27 1216.56Z" fill="#27397C" stroke="#247CC0" stroke-width="6" stroke-miterlimit="10"/>
<path d="M1392.17 1181.26C1337.46 1217.1 1291.82 1265.14 1258.83 1321.62C1209.22 1406.39 1201.01 1487.21 1199.51 1526.08C1199.51 1526.08 1181.27 1606.86 1203.17 1709.68C1225.08 1812.51 1231.99 1957.56 1231.99 1957.56C1220.76 1984.75 1214.63 2013.78 1213.9 2043.19C1211.92 2128.44 1257.07 2188.87 1272.28 2207.58C1302.87 2279.96 1348.92 2327.3 1383.86 2339.23C1410.69 2348.39 1443.54 2349.81 1443.54 2349.81C1452.81 2350.22 1462.99 2350.61 1475.82 2348.6C1495.3 2345.45 1513.87 2338.1 1530.23 2327.06L1579.21 1970.25C1579.21 1970.25 1576.92 1955.91 1560.47 1956.05L1571.4 1502.11C1568.42 1454.13 1556.66 1372.37 1508.27 1287.23C1487.33 1250.4 1461.56 1216.53 1431.64 1186.53L1392.17 1181.26Z" fill="#27397C"/>
<path d="M2025.9 1577.39C2025.9 1577.39 2003.05 1580.65 2004.84 1602.58L2103.12 1673.12C2103.12 1673.12 2119.02 1658.32 2153.07 1652.6L2025.9 1577.39Z" fill="#7D4810"/>
<path d="M2025.9 1577.39C2025.9 1577.39 2028.06 1560.26 2047.96 1572.42L2114.74 1615.14C2114.74 1615.14 2125.61 1620.51 2125.08 1636.01L2025.9 1577.39Z" fill="#EB5757"/>
<path d="M2229.93 2467.88C2229.93 2467.88 2012.73 2660.49 1862.46 2613.22C1712.19 2565.96 1607.36 2508.41 1607.36 2508.41C1607.36 2508.41 1590.09 2418.46 1663.99 2441.31C1737.89 2464.17 1959.05 2634.52 2229.93 2467.88Z" fill="#E13402"/>
<path d="M1560.76 1942.88C1475.98 1888.04 1379.2 1890.13 1324.73 1941.77C1293.47 1971.4 1283.22 2010.64 1279.52 2034.42L1326.85 1977.3L1368.46 1957.55L1560.76 1942.88Z" fill="#2968B2"/>
<path d="M1539.04 1946.88C1483.45 1961.77 1430.46 1985.01 1381.86 2015.82C1368.43 2024.35 1355.89 2033.13 1344.2 2041.97C1335.03 2066.2 1328.69 2104.39 1323.01 2151.38C1316.18 2207.83 1316.89 2267.79 1347.07 2281.8C1334.14 2237.01 1336.01 2189.24 1352.39 2145.59L1377.93 2084.76C1398.53 2066.6 1419.42 2048.39 1440.59 2030.12C1473.61 2001.71 1506.43 1973.97 1539.04 1946.88Z" fill="#2968B2"/>
<path d="M1434.36 1453.38C1434.36 1453.38 1554.36 1653.09 1557.81 1813.21C1557.89 1816.71 1557.91 1820.16 1557.87 1823.66C1556.07 1985.41 1557.87 1816.7 1557.87 1816.7C1557.87 1816.7 1595.57 1489.08 1434.36 1453.38Z" fill="#2968B2"/>
<path d="M2153.07 1178.68C2153.13 1178.79 2187 1237.84 2191.92 1246.52L2284.96 1526.08C2284.96 1526.08 2359.07 1629.61 2360.68 1699.03C2362.29 1768.46 2367.82 1740.36 2367.82 1740.36C2367.82 1740.36 2377.27 1850.28 2402.19 1872.23C2427.11 1894.17 2450.43 1994.02 2415.2 2029.21C2379.96 2064.41 2355.06 2235.84 2355.06 2235.84C2355.06 2235.84 2382.59 2392.03 2208.16 2296.34C2181.04 2269.51 2143.18 2223.43 2124.11 2156.84C2072.03 1974.91 2210.8 1816.62 2220.97 1805.37C2228.58 1754.41 2231.24 1702.83 2228.92 1651.36C2225.08 1567.36 2209.17 1513.39 2192.54 1435.36C2174.58 1350.61 2161.4 1264.91 2153.07 1178.68V1178.68Z" fill="#27397C"/>
<path d="M1722.64 1977.19C1722.64 1977.19 1889.92 1965.14 2025.9 1781.63C2025.9 1781.63 2070.71 1669.59 2131 1657.27C2191.29 1644.95 2211.39 1634.11 2286.5 1678.82C2286.5 1678.82 2292.85 1720.84 2284.51 1719.47L2276.2 1718.09C2276.2 1718.09 2319.76 1727.79 2310.55 1753.19C2301.34 1778.6 2275.03 1837.95 2275.03 1837.95L1676.62 2248.85C1676.62 2248.85 1562.16 2201.15 1560.37 2195.66C1558.58 2190.16 1569.89 2037.42 1569.89 2037.42L1722.64 1977.19Z" fill="#C64F06"/>
<path d="M1533.15 1973.24C1541.35 1961.51 1559.97 1934.89 1587.18 1932.69C1604.4 1931.29 1614.56 1940.54 1634.66 1948.93C1654.1 1957.04 1682.72 1964.29 1722.64 1960.07C1722.64 1960.07 1733.49 1966.51 1702.41 2032.27C1671.33 2098.04 1677.08 2275.49 1677.08 2275.49C1677.08 2275.49 1680.13 2368.15 1690.16 2380.37L1700.19 2392.59C1700.19 2392.59 1531.72 2423.49 1475.79 2346.56C1476.05 2323.61 1480.4 2048.65 1533.15 1973.24Z" fill="#007DC2"/>
<path d="M2169.57 1966.11C2169.57 1966.11 2233.59 1938.46 2294.49 2126.67C2294.49 2126.67 2316.99 2174.19 2345.52 2212.61C2345.52 2212.61 2367.89 2279.37 2316.95 2304.23C2266.01 2329.09 2191.35 2291.06 2174.65 2215.28C2157.95 2139.5 2098.72 2070.5 2169.57 1966.11Z" fill="#212940"/>
<path d="M2245.54 569.312C2245.54 569.312 2274.35 677.871 2230.87 855.157C2223.18 885.871 2213.25 915.981 2201.17 945.246C2192.86 965.337 2178.37 997.43 2152.87 1031.05C2139.89 1048.16 2130.1 1057.7 2115.96 1063.3C2097.49 1070.64 2080.1 1067.88 2070.78 1065.56C2070.78 1065.56 2018.6 1057.25 1990.53 1040.78C1990.53 1040.78 1940.54 1079.98 1935.78 1112.47L1965.27 1216.56C1965.27 1216.56 1915.45 1281.46 1756.23 1172.66C1756.23 1172.66 1680.43 1066.92 1681.45 969.579C1681.45 969.579 1753.98 920.118 1788.98 836.875C1788.98 836.875 1839.34 872.645 1861.51 867.299C1883.67 861.954 1930.18 830.099 1930.18 830.099C1930.18 830.099 1865.34 774.17 1900.65 697.495C1900.65 697.495 1933.74 618.872 1980.52 683.207C1980.52 683.207 1991.45 785.864 2039.81 788.527L2044.07 742.385C2044.07 742.385 2042.73 729.17 2068.41 712.011C2094.1 694.852 2132 577.936 2132 577.936C2132 577.936 2198.08 594.231 2245.54 569.312Z" fill="#C64F06"/>
<path d="M1955.77 706.238L1958.43 787.891C1951.59 781.383 1938.43 767.483 1932.24 749.41C1930.33 744.108 1929.35 738.519 1929.34 732.886C1929.34 726.537 1929.43 718.151 1935.31 712.07C1942.73 704.291 1954.15 705.98 1955.77 706.238Z" fill="#A84304"/>
<path d="M1931.19 881.438C1936.85 938.791 1957.3 993.694 1990.53 1040.78C1988.62 1042.41 1972.32 1056.29 1961.95 1067.81C1958.76 1071.25 1955.77 1074.88 1953.01 1078.69C1950.72 1081.85 1947 1087.39 1947 1087.39C1947 1087.39 1930.65 1034.43 1924.93 1006.36C1919 977.587 1916.35 936.135 1931.19 881.438Z" fill="#A84304"/>
<path d="M2191.92 786.004C2201.75 786.004 2209.72 777.778 2209.72 767.632C2209.72 757.486 2201.75 749.261 2191.92 749.261C2182.08 749.261 2174.11 757.486 2174.11 767.632C2174.11 777.778 2182.08 786.004 2191.92 786.004Z" fill="#231F20"/>
<path d="M2147.78 705.911C2147.78 705.911 2196.2 685.483 2222.93 719.006" stroke="#231F20" stroke-width="6" stroke-miterlimit="10"/>
<path d="M2172.24 973.027C2172.24 973.027 2138.7 976.008 2123.26 948.435" stroke="#231F20" stroke-width="6" stroke-miterlimit="10"/>
<path d="M1764.21 1969.26C1753.5 1979.84 1744.45 1991.98 1737.39 2005.28C1699.88 2076.29 1734.31 2155.31 1741.49 2170.99L1676.68 2232.98C1676.79 2228.29 1676.98 2221.05 1677.21 2212.11C1677.53 2199.63 1677.81 2190.25 1677.84 2189.09C1679.03 2147.74 1679.72 2124.15 1684.47 2096.69C1688.15 2075.33 1692.83 2060 1698.12 2042.72C1704.95 2020.41 1713.14 1998.54 1722.63 1977.24C1728.49 1976.46 1734.57 1975.5 1740.87 1974.36C1749.1 1972.81 1756.92 1971.1 1764.21 1969.26Z" fill="#A84304"/>
<path d="M2073.33 1853.58L1625.65 2281.8L2153.07 2094.4L2570.74 1691.13L2073.33 1853.58Z" fill="#441413" stroke="#247CC0" stroke-width="6" stroke-miterlimit="10"/>
<path d="M2289.26 2111.05C2289.26 2111.05 2224.9 2148.93 2196.09 2160.18C2158.09 2175.01 2097.73 2176.39 1999.94 2116.28L1847.05 2144.96C1847.05 2144.96 1832.91 2127.61 1871.66 2112.33C1910.41 2097.04 1949.8 2086.24 1949.8 2086.24L1896.48 2054.16C1896.48 2054.16 1900.88 2026.61 1999.94 2054.16L2032.56 2063.37L1936.07 2003.35C1936.07 2003.35 1938.35 1975.93 2013.57 2000.72C2088.78 2025.51 2085.8 2020.03 2085.8 2020.03L2111.21 2003.38L2100.84 1878.94C2100.84 1878.94 2110.24 1840.41 2135.56 1874.89L2157.17 1964.67C2157.17 1964.67 2233.4 1958.21 2263.49 1938.34C2263.49 1938.34 2280.38 1921.12 2300.25 1883.3C2300.25 1883.3 2323.8 1845.11 2347.52 1860.55L2359.39 1865.76C2359.39 1865.76 2325 1899.21 2325 1930.65C2325 1962.09 2273.33 2028.59 2261.36 2037.4L2258.7 2038.69C2257.42 2036.02 2272.61 2067.81 2272.61 2067.81C2282.27 2089.69 2289.26 2111.05 2289.26 2111.05Z" fill="#C64F06"/>
<path d="M2259.27 2038.08C2259.27 2038.08 2302.82 2155.32 2316.7 2167.93C2330.58 2180.54 2355.67 2235.21 2355.67 2235.21L2377.28 2119.96C2377.28 2119.96 2348.26 2016.49 2312.92 1974.84C2312.92 1974.86 2285.14 2026.84 2259.27 2038.08Z" fill="#007DC2"/>
<path d="M1748.13 1160.71C1773.08 1184.51 1803.05 1202.41 1835.83 1213.08C1894.15 1231.96 1944.13 1222.02 1965.27 1216.56L1981.98 1518.38C1959.37 1446.62 1929.32 1396.38 1905.31 1363.16C1880.62 1328.98 1861.49 1311.63 1816.27 1253.78C1786.31 1215.44 1763.23 1182.77 1748.13 1160.71Z" fill="white"/>
<path opacity="0.5" d="M1508.36 2034.57C1508.36 2034.57 1440.22 2371.49 1650.33 2394.25C1650.33 2394.25 1526.49 2412.54 1475.79 2346.56C1475.79 2346.57 1478.07 2108.38 1508.36 2034.57Z" fill="#27397C"/>
<path d="M2232.44 848.699C2228.86 864.07 2224.41 880.444 2218.83 897.603C2215.02 909.338 2211 920.456 2206.91 930.908C2212.14 931.568 2217.45 931.4 2222.63 930.412C2232.94 928.328 2242.38 923.199 2249.74 915.687C2245.27 897.762 2240.64 879.749 2235.83 861.645C2234.72 857.327 2233.59 853.011 2232.44 848.699Z" fill="#A84304"/>
<path d="M2168.61 832.361C2170.81 817.005 2150.93 801.455 2124.22 797.629C2097.5 793.803 2074.06 803.15 2071.86 818.507C2069.67 833.863 2089.54 849.413 2116.25 853.239C2142.97 857.065 2166.41 847.718 2168.61 832.361Z" fill="#A84304"/>
<path d="M4526 300.334C4526 171.467 4421.53 67.0004 4292.67 67.0004C4163.8 67.0004 4059.33 171.467 4059.33 300.334C4059.33 346.567 4073 389.567 4096.17 425.834H4095.9C4174.57 549 4292.67 733.667 4292.67 733.667L4489.43 425.834H4489.2C4512.33 389.567 4526 346.567 4526 300.334ZM4292.67 400.334C4237.43 400.334 4192.67 355.567 4192.67 300.334C4192.67 245.1 4237.43 200.334 4292.67 200.334C4347.9 200.334 4392.67 245.1 4392.67 300.334C4392.67 355.567 4347.9 400.334 4292.67 400.334Z" fill="#F9430E"/>
<circle cx="4292.67" cy="289.667" r="180" fill="white"/>
<g clip-path="url(#clip1_261_1092)">
<path d="M4386.48 397.668C4377.84 397.668 4369.37 394.158 4363.26 388.048L4253.73 278.528C4250.98 275.788 4247.18 274.208 4243.29 274.208L4242.18 274.248C4225.37 275.538 4208.45 269.438 4196.34 257.328C4185.37 246.338 4179.33 231.718 4179.33 216.158C4179.33 205.698 4181.7 193.908 4186.48 183.368L4224.57 221.478C4228.93 220.748 4234.25 217.548 4238.62 212.128C4241.45 208.628 4242.89 205.378 4243.28 203.028L4205.02 164.768C4215.58 160.008 4227.21 157.668 4237.57 157.668C4252.9 157.668 4268 163.678 4279 174.688C4291.08 186.778 4297.23 203.488 4295.9 220.528C4295.59 224.808 4297.15 229.038 4300.2 232.088L4409.71 341.598C4415.91 347.808 4419.33 356.058 4419.33 364.818C4419.33 382.928 4404.59 397.668 4386.48 397.668V397.668ZM4243.29 254.238C4252.44 254.238 4261.39 257.948 4267.85 264.418L4377.38 373.928C4379.77 376.328 4383.09 377.698 4386.47 377.698C4393.57 377.698 4399.35 371.928 4399.35 364.828C4399.35 361.388 4398.01 358.158 4395.57 355.718L4286.08 246.208C4278.93 239.048 4275.25 229.138 4275.99 219.028C4276.87 207.758 4272.82 196.758 4264.88 188.808C4259.95 183.888 4253.9 180.478 4247.3 178.808L4262.2 193.718C4264.38 203.728 4263.45 213.188 4254.16 224.688C4244.14 237.118 4231.24 244.008 4215.36 240.548L4200.47 225.648C4202.14 232.248 4205.55 238.308 4210.47 243.238C4218.43 251.178 4229.4 255.238 4240.64 254.338L4243.29 254.238V254.238ZM4259.93 313.008L4213.28 359.278C4210.99 361.568 4208.24 363.348 4205.38 364.858L4199.59 367.878L4189.33 389.328L4197.66 397.668L4218.67 386.968L4221.68 381.168C4223.18 378.308 4225.15 375.718 4227.42 373.428L4274.07 327.158L4259.93 313.008ZM4331.43 235.028L4376.5 190.038C4378.18 188.338 4380.92 188.358 4382.61 190.038C4384.29 191.738 4384.3 194.458 4382.61 196.148L4337.54 241.148L4346.44 250.048L4391.51 205.048C4393.2 203.358 4395.92 203.368 4397.61 205.058C4399.29 206.738 4399.31 209.468 4397.62 211.148L4352.54 256.148L4362.93 266.538L4410.6 218.948C4416.42 213.118 4419.33 205.488 4419.33 197.848C4419.33 190.168 4416.4 182.478 4410.52 176.598C4404.68 170.748 4397.02 167.828 4389.39 167.828C4381.73 167.828 4374.1 170.758 4368.26 176.598L4320.59 224.188L4331.43 235.028V235.028ZM4386.33 359.668C4383.57 359.668 4381.33 361.908 4381.33 364.668C4381.33 367.428 4383.57 369.668 4386.33 369.668C4389.09 369.668 4391.33 367.428 4391.33 364.668C4391.33 361.908 4389.1 359.668 4386.33 359.668Z" fill="#F9430E"/>
</g>
</g>
<defs>
<linearGradient id="paint0_linear_261_1092" x1="1251.06" y1="457.564" x2="1199.6" y2="775.148" gradientUnits="userSpaceOnUse">
<stop stop-color="#FF2E00"/>
<stop offset="1" stop-color="#FF8B00"/>
</linearGradient>
<clipPath id="clip0_261_1092">
<rect width="4680" height="3120" fill="white"/>
</clipPath>
<clipPath id="clip1_261_1092">
<rect width="240" height="240" fill="white" transform="translate(4179.33 157.668)"/>
</clipPath>
</defs>
</svg>
