<svg width="500" height="380" viewBox="0 0 500 380" fill="none" xmlns="http://www.w3.org/2000/svg">
<path d="M70.3436 128.583C75.9061 123.997 83.4374 123.333 90.3124 124.598C97.6561 125.927 104.344 129.5 111.125 132.504C118.125 135.635 125.25 137.88 132.937 138.26C140.594 138.671 148.25 137.564 155.687 135.667C171.219 131.714 185.469 124.124 200.375 118.4C207.844 115.522 215.562 113.024 223.5 111.885C227.812 111.253 232.156 111.095 236.5 111.569C240.625 112.012 244.656 112.992 248.687 114.004C257.594 116.25 266.469 118.21 275.594 119.317C285 120.456 294.5 120.835 303.969 120.519C304.562 120.487 304.562 119.538 303.969 119.57C286.781 120.203 269.594 118.337 252.906 114.131C244.937 112.107 237.031 110.02 228.75 110.431C220.719 110.842 212.781 112.992 205.219 115.617C190.062 120.898 175.812 128.646 160.437 133.358C152.625 135.73 144.531 137.374 136.344 137.406C128.031 137.438 120.219 135.477 112.625 132.125C105.125 128.836 97.7811 124.756 89.6249 123.491C82.6874 122.416 75.2811 123.27 69.6874 127.887C69.2186 128.298 69.8749 128.994 70.3436 128.583Z" fill="#E8E8E8"/>
<path d="M238.656 99.6788C260.312 109.134 284.906 107.553 307.062 100.691C319.062 96.9591 331 91.9625 343.781 91.9941C356.656 92.0257 368.875 96.5796 381.469 98.6035C392.906 100.438 405.5 100.216 415.312 93.2591C415.812 92.9112 415.344 92.089 414.844 92.4369C405.781 98.8565 394.281 99.4258 383.656 97.9711C371.625 96.3266 360.062 92.089 347.906 91.2035C335.75 90.3181 324.281 94.0181 312.875 97.8129C301.5 101.576 290 104.517 278.031 105.213C264.781 106.004 251.375 104.201 239.156 98.8565C238.594 98.6035 238.125 99.4258 238.656 99.6788Z" fill="#E8E8E8"/>
<path d="M58.4061 178.517C65.2499 173.584 73.3436 170.548 81.7186 169.726C85.9061 169.315 90.1249 169.473 94.2499 170.2C98.5311 170.959 102.656 172.414 106.75 173.868C114.344 176.525 121.875 178.549 129.875 176.683C136.781 175.07 143.031 171.433 149.156 167.986C156.375 163.907 163.875 159.733 172.25 158.974C172.844 158.91 172.844 157.962 172.25 158.025C157.312 159.385 146.094 170.738 132.156 175.07C128.625 176.177 124.937 176.746 121.25 176.525C116.719 176.24 112.312 174.817 108.062 173.331C103.781 171.845 99.4999 170.232 94.9999 169.378C91.1249 168.65 87.1561 168.429 83.2499 168.682C74.1874 169.251 65.3436 172.382 57.9374 177.727C57.4374 178.043 57.9061 178.865 58.4061 178.517Z" fill="#E8E8E8"/>
<path d="M141.25 190.661C153.406 177.663 171.281 172.351 188.562 172.192C198.594 172.098 208.594 173.552 218.375 175.671C227.687 177.663 236.719 180.257 246.344 178.96C256.406 177.6 265.812 173.236 274.812 168.651C275.344 168.366 274.875 167.544 274.344 167.828C265.781 172.192 256.875 176.335 247.344 177.853C242.469 178.612 237.562 178.549 232.687 177.758C227.75 176.968 222.937 175.639 218.031 174.596C200.156 170.801 181.125 169.188 163.562 175.355C154.906 178.391 146.906 183.229 140.594 189.965C140.187 190.439 140.844 191.104 141.25 190.661Z" fill="#E8E8E8"/>
<path d="M286.094 200.116C291.187 201.919 296.406 200.243 301.062 197.997C306.281 195.468 311.187 192.337 316.531 190.091C321.875 187.846 327.625 186.328 333.437 187.056C338.75 187.72 343.656 190.123 348.312 192.685C352.719 195.12 357.062 197.776 361.75 199.642C366.969 201.697 372.594 202.678 378.187 202.551C389.656 202.298 399.406 196.511 409.875 192.59C419.656 188.921 432.687 187.277 440.531 195.879C440.937 196.321 441.594 195.657 441.187 195.215C435.031 188.479 425.219 187.72 416.781 189.522C405.781 191.862 396.281 198.662 385.219 200.844C379.312 202.014 373.125 201.856 367.281 200.433C361.844 199.104 356.969 196.511 352.094 193.76C347.687 191.262 343.219 188.668 338.375 187.182C333.344 185.633 328.094 185.601 323 186.866C316.781 188.415 311.062 191.483 305.469 194.582C299.687 197.744 293 201.603 286.281 199.231C285.781 199.009 285.531 199.927 286.094 200.116Z" fill="#E8E8E8"/>
<path d="M368.375 215.359C381.313 216.15 391.969 207.263 404.188 204.575C407.438 203.848 410.875 203.532 414.188 204.101C417.156 204.607 419.844 205.84 422.406 207.422C426.812 210.141 431.094 213.651 436.469 214.031C443 214.474 448.781 210.362 453.656 206.504C454.125 206.125 453.469 205.461 453 205.84C448.25 209.572 442.562 213.651 436.188 213.051C430.656 212.545 426.281 208.497 421.625 205.872C410.906 199.8 399.438 204.575 389.156 209.161C382.563 212.07 375.719 214.885 368.406 214.442C367.781 214.379 367.781 215.327 368.375 215.359Z" fill="#E8E8E8"/>
<path d="M73.4062 275.824C77.9375 271.46 84.6562 269.752 90.6875 271.428C97 273.168 101.062 278.67 106.125 282.465C116.219 290.023 129.969 288.821 141.062 284.362C154.156 279.113 165.062 269.626 178.125 264.281C184.5 261.656 191.406 259.98 198.344 260.455C205.094 260.929 210.844 263.87 216.187 267.855C221.5 271.808 226.5 276.488 232.719 278.986C239.375 281.643 246.875 281.074 253.125 277.563C253.656 277.279 253.187 276.456 252.656 276.741C246.281 280.315 238.656 280.631 232 277.658C226.437 275.16 221.875 270.986 217.031 267.317C212.062 263.554 206.781 260.613 200.531 259.727C194.094 258.842 187.531 259.949 181.437 262.004C168.094 266.527 157.094 275.856 144.437 281.833C132.75 287.367 117.719 289.96 106.625 281.643C101.094 277.5 96.75 271.586 89.625 270.195C83.5937 269.025 77.1875 270.859 72.75 275.16C72.3125 275.571 72.9687 276.267 73.4062 275.824Z" fill="#E8E8E8"/>
<path d="M193.469 293.47C198.625 290.086 204.75 288.474 210.906 288.98C216.531 289.454 221.844 291.573 227 293.691C232 295.747 237.063 297.897 242.438 298.783C248.063 299.7 253.75 299.004 259.156 297.328C265.625 295.304 271.625 292.079 277.531 288.821C278.062 288.537 277.594 287.715 277.062 287.999C266.25 293.913 254.375 300.143 241.688 297.676C231.094 295.62 221.781 288.98 210.875 288.031C204.563 287.493 198.25 289.169 192.969 292.648C192.5 292.996 192.969 293.818 193.469 293.47Z" fill="#E8E8E8"/>
<path d="M311.437 314.911C318.25 308.46 326.625 303.811 335.656 301.439C340.25 300.238 344.969 299.637 349.719 299.669C355 299.732 360.25 300.586 365.5 301.092C375.687 302.072 385.469 300.333 395 296.569C404.094 292.996 412.656 286.798 422.437 285.28C433.875 283.509 442.719 291.193 450 299.068C450.406 299.51 451.062 298.846 450.656 298.404C444.656 291.921 437.594 285.216 428.469 284.173C418.469 283.034 409.375 288.98 400.687 293.059C390.687 297.771 379.906 300.997 368.812 300.364C363.281 300.048 357.812 299.036 352.25 298.751C347.531 298.498 342.781 298.846 338.156 299.827C327.937 301.945 318.406 306.942 310.781 314.184C310.343 314.658 311 315.322 311.437 314.911Z" fill="#E8E8E8"/>
<path d="M128.469 115.08C137.219 121.942 148.625 118.906 158.156 115.744C169.969 111.791 181.937 109.292 194.437 109.039C195.031 109.039 195.031 108.091 194.437 108.091C182.937 108.312 171.594 110.304 160.656 113.91C150.75 117.167 138.437 121.752 129.125 114.415C128.656 114.036 128 114.7 128.469 115.08Z" fill="#161616"/>
<path d="M212.719 57.5872C223.281 56.7966 233.469 53.824 243.687 51.3257C254.312 48.7009 264.969 46.9616 275.937 48.1633C287 49.365 297.719 52.7488 308.562 55.1522C319 57.4924 329.594 58.5676 340.281 58.03C352.312 57.4291 364.187 54.8676 375.406 50.5035C375.969 50.2821 375.719 49.365 375.156 49.5864C354.75 57.524 332.469 59.2001 311.094 54.7095C300.437 52.4642 290 49.1753 279.219 47.5941C268.812 46.0761 258.656 46.93 248.406 49.2069C236.531 51.8317 224.875 55.6898 212.719 56.6069C212.125 56.7018 212.125 57.6505 212.719 57.5872Z" fill="#161616"/>
<path d="M381.844 136.837C390.969 133.421 400.437 138.292 409.562 139.177C414.469 139.651 419.344 139.177 424.125 138.039C428.812 136.9 433.375 135.224 438.156 134.497C443.281 133.706 448.75 134.022 453.188 136.963C453.688 137.311 454.156 136.489 453.656 136.141C445.781 130.955 436.156 133.738 427.844 136.078C422.625 137.564 417.406 138.639 411.969 138.418C406.781 138.228 401.812 136.774 396.75 135.698C391.719 134.655 386.531 134.086 381.625 135.92C381.031 136.109 381.281 137.027 381.844 136.837Z" fill="#161616"/>
<path d="M63.3124 232.784C71.2499 225.637 82.4374 231.962 91.2499 233.321C101.437 234.903 111.625 232.056 121.344 229.305C121.937 229.147 121.687 228.23 121.094 228.388C110.344 231.424 99.2186 234.428 88.0624 231.74C79.9061 229.78 69.9373 225.605 62.6248 232.12C62.1873 232.499 62.8436 233.163 63.3124 232.784Z" fill="#161616"/>
<path d="M163.25 321.584C165.781 318.548 169.687 316.903 173.625 317.409C175.875 317.694 177.937 318.738 180 319.655C181.719 320.414 183.469 321.046 185.25 321.552C192.906 323.703 201.125 323.386 208.594 320.73C209.156 320.54 208.906 319.623 208.344 319.813C199.969 322.754 190.719 322.754 182.375 319.592C178.75 318.232 175.375 316.05 171.344 316.366C167.937 316.619 164.781 318.263 162.562 320.888C162.187 321.394 162.875 322.058 163.25 321.584Z" fill="#161616"/>
<path d="M216.437 318.991C222.125 317.315 227.969 316.492 233.906 316.524C234.5 316.524 234.5 315.575 233.906 315.575C227.906 315.544 221.969 316.398 216.187 318.074C215.625 318.263 215.844 319.18 216.437 318.991Z" fill="#161616"/>
<path d="M223.875 73.1779C229.406 77.4787 234.687 82.0958 239.75 86.9975C240.187 87.4087 240.843 86.7445 240.406 86.3334C235.312 81.4001 229.937 76.7514 224.344 72.3873C223.875 71.9762 223.406 72.7984 223.875 73.1779Z" fill="#161616"/>
<path d="M169.687 89.8436C170.219 86.871 170.781 83.8983 171.312 80.894C171.437 80.2932 170.531 80.0402 170.406 80.641C169.875 83.6137 169.312 86.5863 168.781 89.5906C168.687 90.1915 169.594 90.4445 169.687 89.8436Z" fill="#161616"/>
<path d="M349.875 108.691C350.876 108.691 351.688 107.87 351.688 106.857C351.688 105.844 350.876 105.023 349.875 105.023C348.874 105.023 348.062 105.844 348.062 106.857C348.062 107.87 348.874 108.691 349.875 108.691Z" fill="#EB5757"/>
<path d="M113.062 260.17C114.253 260.17 115.219 259.193 115.219 257.988C115.219 256.783 114.253 255.806 113.062 255.806C111.872 255.806 110.906 256.783 110.906 257.988C110.906 259.193 111.872 260.17 113.062 260.17Z" fill="#EB5757"/>
<path d="M102.625 62.4889C105.352 62.4889 107.562 60.2518 107.562 57.4923C107.562 54.7328 105.352 52.4957 102.625 52.4957C99.8981 52.4957 97.6875 54.7328 97.6875 57.4923C97.6875 60.2518 99.8981 62.4889 102.625 62.4889Z" fill="#EB5757"/>
<path d="M112.531 67.3274C113.446 67.3274 114.187 66.577 114.187 65.6513C114.187 64.7256 113.446 63.9752 112.531 63.9752C111.617 63.9752 110.875 64.7256 110.875 65.6513C110.875 66.577 111.617 67.3274 112.531 67.3274Z" fill="#EB5757"/>
<path d="M207.156 348.622C209.193 348.622 210.844 346.951 210.844 344.891C210.844 342.83 209.193 341.159 207.156 341.159C205.12 341.159 203.469 342.83 203.469 344.891C203.469 346.951 205.12 348.622 207.156 348.622Z" fill="#EB5757"/>
<path d="M378.531 69.0034C380.326 69.0034 381.781 67.531 381.781 65.7146C381.781 63.8981 380.326 62.4257 378.531 62.4257C376.736 62.4257 375.281 63.8981 375.281 65.7146C375.281 67.531 376.736 69.0034 378.531 69.0034Z" fill="#EB5757"/>
<path d="M382.688 61.7615C383.792 61.7615 384.688 60.8553 384.688 59.7376C384.688 58.6198 383.792 57.7136 382.688 57.7136C381.583 57.7136 380.688 58.6198 380.688 59.7376C380.688 60.8553 381.583 61.7615 382.688 61.7615Z" fill="#EB5757"/>
<path d="M107.594 57.2393C110.321 57.2393 112.531 55.0022 112.531 52.2427C112.531 49.4831 110.321 47.2461 107.594 47.2461C104.867 47.2461 102.656 49.4831 102.656 52.2427C102.656 55.0022 104.867 57.2393 107.594 57.2393Z" fill="#116D9E"/>
<path d="M105.125 263.111C106.488 263.111 107.594 261.993 107.594 260.613C107.594 259.233 106.488 258.115 105.125 258.115C103.762 258.115 102.656 259.233 102.656 260.613C102.656 261.993 103.762 263.111 105.125 263.111Z" fill="#116D9E"/>
<path d="M191.906 341.38C193.114 341.38 194.094 340.389 194.094 339.167C194.094 337.944 193.114 336.953 191.906 336.953C190.698 336.953 189.719 337.944 189.719 339.167C189.719 340.389 190.698 341.38 191.906 341.38Z" fill="#116D9E"/>
<path d="M366.531 57.7136C369.396 57.7136 371.719 55.3633 371.719 52.464C371.719 49.5648 369.396 47.2145 366.531 47.2145C363.666 47.2145 361.344 49.5648 361.344 52.464C361.344 55.3633 363.666 57.7136 366.531 57.7136Z" fill="#116D9E"/>
<path d="M281.125 137.216C281.746 137.216 282.25 136.707 282.25 136.078C282.25 135.449 281.746 134.939 281.125 134.939C280.504 134.939 280 135.449 280 136.078C280 136.707 280.504 137.216 281.125 137.216Z" fill="#116D9E"/>
<path d="M269.594 69.4461C268.937 70.9957 268.312 72.5769 267.656 74.1265C267.437 74.6957 268.344 74.9487 268.562 74.3794C269.219 72.8299 269.844 71.2487 270.5 69.6991C270.719 69.1299 269.812 68.8769 269.594 69.4461Z" fill="#116D9E"/>
<path d="M269.438 70.2051C270.594 71.4385 271.5 72.8299 272.094 74.4111C272.313 74.9804 273.219 74.7274 273 74.1581C272.313 72.4188 271.344 70.9009 270.094 69.541C269.688 69.0983 269 69.7624 269.438 70.2051Z" fill="#116D9E"/>
<path d="M267.906 74.9486C268.812 76.6563 269.844 78.2692 271 79.7871C271.375 80.2615 272.187 79.7871 271.812 79.3128C270.656 77.7632 269.625 76.1504 268.719 74.4743C268.406 73.9367 267.625 74.411 267.906 74.9486Z" fill="#116D9E"/>
<path d="M272.156 74.4743C271.781 76.2452 271.438 78.0162 271.063 79.7871C270.938 80.388 271.844 80.641 271.969 80.0401C272.344 78.2692 272.687 76.4982 273.062 74.7273C273.187 74.1581 272.281 73.9051 272.156 74.4743Z" fill="#116D9E"/>
<path d="M357.625 204.828C356.875 206.22 356.375 207.706 356.156 209.287C356.062 209.888 356.969 210.141 357.062 209.54C357.281 208.054 357.719 206.662 358.437 205.334C358.719 204.765 357.906 204.291 357.625 204.828Z" fill="#116D9E"/>
<path d="M357.563 205.113C358.188 206.789 358.906 208.402 359.719 209.951C360 210.489 360.813 210.014 360.531 209.477C359.75 207.991 359.063 206.441 358.469 204.86C358.25 204.291 357.344 204.544 357.563 205.113Z" fill="#116D9E"/>
<path d="M355.969 209.951C356.781 211.121 357.563 212.291 358.375 213.461C358.719 213.967 359.531 213.493 359.188 212.987C358.375 211.817 357.594 210.647 356.781 209.477C356.438 208.971 355.625 209.445 355.969 209.951Z" fill="#116D9E"/>
<path d="M359.375 209.793C358.719 210.71 358.406 211.754 358.406 212.861C358.406 213.461 359.344 213.461 359.344 212.861C359.344 211.912 359.625 211.026 360.187 210.267C360.531 209.761 359.719 209.287 359.375 209.793Z" fill="#116D9E"/>
<path d="M96.2188 294.356C95.3751 296.221 94.5313 298.056 93.6876 299.921C93.4376 300.459 94.2501 300.965 94.5001 300.396C95.3438 298.53 96.1876 296.696 97.0314 294.83C97.2814 294.292 96.5001 293.818 96.2188 294.356Z" fill="#116D9E"/>
<path d="M96.3751 294.609C97.1876 296.569 98.0001 298.53 98.8126 300.491C99.0314 301.06 99.9376 300.807 99.7189 300.238C98.9064 298.277 98.0939 296.316 97.2814 294.356C97.0626 293.786 96.1564 294.039 96.3751 294.609Z" fill="#116D9E"/>
<path d="M93.4688 300.775C94.3126 302.451 95.125 304.159 95.9688 305.835C96.125 306.12 96.5 306.12 96.7188 305.93C97.375 305.392 97.6875 304.475 98.0313 303.748C98.5313 302.736 99.0313 301.724 99.5313 300.712C99.8125 300.174 99 299.7 98.7188 300.237C98.2813 301.123 97.8125 302.008 97.375 302.894C97 303.653 96.6563 304.696 96 305.234C96.25 305.266 96.5 305.297 96.75 305.329C95.9063 303.653 95.0938 301.945 94.2501 300.269C94.0001 299.763 93.1876 300.237 93.4688 300.775Z" fill="#116D9E"/>
<path d="M410.75 147.367C409.781 149.233 409.188 151.194 408.906 153.281C408.813 153.882 409.75 153.882 409.844 153.281C410.094 151.352 410.656 149.55 411.531 147.842C411.844 147.304 411.031 146.83 410.75 147.367Z" fill="#116D9E"/>
<path d="M410.625 148.474C411.594 150.372 412.531 152.269 413.5 154.167C413.781 154.704 414.594 154.23 414.312 153.692C413.344 151.795 412.406 149.897 411.437 148C411.156 147.462 410.343 147.937 410.625 148.474Z" fill="#116D9E"/>
<path d="M408.969 153.408C409.75 155.305 410.687 157.076 411.812 158.752C412.156 159.258 412.969 158.784 412.625 158.278C411.531 156.665 410.594 154.957 409.875 153.155C409.656 152.617 408.75 152.87 408.969 153.408Z" fill="#116D9E"/>
<path d="M413.219 153.819C412.656 155.59 412.188 157.392 411.875 159.258C411.781 159.859 412.688 160.112 412.781 159.511C413.094 157.677 413.531 155.874 414.125 154.072C414.313 153.503 413.406 153.25 413.219 153.819Z" fill="#116D9E"/>
<path d="M407.125 300.902C406.75 302.167 406.406 303.4 406.031 304.665C405.875 305.266 406.75 305.487 406.938 304.918C407.313 303.653 407.656 302.42 408.031 301.155C408.219 300.554 407.313 300.301 407.125 300.902Z" fill="#116D9E"/>
<path d="M407.062 301.597C407.625 302.862 408.219 304.127 408.781 305.361C409.031 305.93 409.844 305.424 409.594 304.886C409.031 303.621 408.437 302.356 407.875 301.123C407.625 300.554 406.812 301.028 407.062 301.597Z" fill="#116D9E"/>
<path d="M406.281 305.266C406.563 306.752 407.25 308.08 408.219 309.219C408.625 309.693 409.281 308.997 408.875 308.555C408 307.543 407.438 306.341 407.188 305.044C407.063 304.412 406.156 304.665 406.281 305.266Z" fill="#116D9E"/>
<path d="M408.75 305.139C408.344 306.467 408.156 307.827 408.187 309.187C408.219 309.788 409.156 309.788 409.125 309.187C409.094 307.891 409.25 306.626 409.656 305.392C409.844 304.823 408.937 304.57 408.75 305.139Z" fill="#116D9E"/>
<path d="M84.4376 134.054C83.7501 135.572 83.0938 137.09 82.4063 138.608C82.1563 139.145 82.9688 139.651 83.2188 139.082C83.9063 137.564 84.5626 136.046 85.2501 134.528C85.5001 133.991 84.6876 133.485 84.4376 134.054Z" fill="#116D9E"/>
<path d="M82.5314 139.398C83.2501 141.264 83.9376 143.098 84.6563 144.964C84.8751 145.533 85.7813 145.28 85.5626 144.711C84.8438 142.845 84.1563 141.011 83.4376 139.145C83.2188 138.576 82.3126 138.829 82.5314 139.398Z" fill="#116D9E"/>
<path d="M84.4375 134.117C85.4062 135.825 86.375 137.564 87.3437 139.272C87.6562 139.809 88.4375 139.335 88.1562 138.797C87.1875 137.09 86.2187 135.35 85.25 133.643C84.9375 133.105 84.125 133.579 84.4375 134.117Z" fill="#116D9E"/>
<path d="M87.5624 138.861C86.5624 140.758 85.6874 142.719 84.9374 144.711C84.7186 145.28 85.6249 145.533 85.8436 144.964C86.5624 143.035 87.4061 141.138 88.3749 139.335C88.6561 138.797 87.8436 138.323 87.5624 138.861Z" fill="#116D9E"/>
<path d="M320 163.211C320.625 162.009 321.812 161.187 323.187 161.25C324.312 161.282 325.156 162.073 326.156 162.452C327.906 163.085 328.437 161.946 329.75 161.092C331.531 159.891 333.25 162.579 335.156 162.547C336.25 162.515 337.156 161.978 337.187 160.808C336.937 160.934 336.719 161.092 336.469 161.219C337.437 161.725 338.406 162.231 339.344 162.768C339.875 163.053 340.344 162.231 339.812 161.946C338.844 161.44 337.875 160.934 336.937 160.397C336.625 160.238 336.25 160.428 336.219 160.808C336.125 163.053 331.812 159.859 331 159.764C329.156 159.511 328.437 161.82 326.844 161.567C325.156 161.282 324.094 160.049 322.281 160.365C320.906 160.618 319.781 161.472 319.156 162.737C318.937 163.274 319.719 163.749 320 163.211Z" fill="#116D9E"/>
<path d="M331.969 156.791C333.375 155.21 335.594 157.202 337.187 157.392C339.031 157.614 340.469 155.621 342.25 156.633C343.719 157.487 346.406 159.511 347.469 156.918C347.687 156.349 346.781 156.096 346.562 156.665C345.812 158.499 343.125 155.938 342.219 155.558C341 155.02 340.187 155.463 339.094 156.001C337.781 156.633 336.844 156.412 335.594 155.843C335.031 155.59 334.469 155.368 333.844 155.273C332.875 155.147 332 155.337 331.312 156.096C330.906 156.57 331.562 157.234 331.969 156.791Z" fill="#116D9E"/>
<path d="M306.594 82.1906C307.031 81.3683 307.531 81.147 308.094 81.5264C308.344 81.6213 308.594 81.7478 308.844 81.9059C309.125 82.0324 309.406 82.2222 309.688 82.317C310.188 82.4752 310.688 82.5384 311.188 82.4119C312.531 82.0324 313.219 80.3247 314.656 80.3564C316 80.388 316.969 81.6846 318.375 81.0205C318.969 80.7359 319.375 80.2299 319.937 79.9136C321.187 79.2179 322.719 79.4709 323.781 80.3564C324.25 80.7359 324.906 80.0717 324.437 79.6923C323.031 78.5222 321.094 78.1743 319.469 79.0914C318.75 79.5025 318.156 80.388 317.219 80.2615C316.687 80.1982 316.219 79.8188 315.719 79.629C314.969 79.3444 314.281 79.2495 313.531 79.5974C312.594 80.0401 311.969 81.2735 310.938 81.4948C309.625 81.7794 308.75 80.4196 307.531 80.388C306.375 80.3564 305.031 81.4948 305.813 82.6649C306.125 83.1709 306.938 82.6965 306.594 82.1906Z" fill="#EB5757"/>
<path d="M316.969 76.5932C317.344 74.5376 320.875 76.5299 322.125 76.3086C322.937 76.1821 323.531 75.6128 324.281 75.3282C325.469 74.8539 326.625 75.0436 327.719 75.7077C328.25 76.0239 328.719 75.2017 328.187 74.8855C327.25 74.3162 326.25 74.0316 325.187 74.1265C324.719 74.1581 324.281 74.2846 323.875 74.4427C322.625 74.9803 322.125 75.5812 320.562 75.2017C319.062 74.8222 316.5 74.0633 316.094 76.3402C315.937 76.941 316.844 77.194 316.969 76.5932Z" fill="#EB5757"/>
<path d="M80.375 190.882C80.7812 188.89 83.5 191.609 84.0312 191.957C84.625 192.368 85.2812 192.653 86 192.495C86.9375 192.337 87.6562 191.546 88.625 191.325C90.1875 190.977 91.75 191.483 92.875 192.621C93.3125 193.064 93.9687 192.368 93.5312 191.957C92.5625 190.977 91.375 190.376 90 190.281C89.3125 190.218 88.625 190.313 87.9687 190.534C86.9375 190.882 86.125 191.894 84.875 191.388C83.5625 190.85 83.0625 189.491 81.5625 189.332C80.5937 189.238 79.6875 189.617 79.5 190.629C79.3437 191.23 80.25 191.483 80.375 190.882Z" fill="#EB5757"/>
<path d="M90.7813 188.605C91.4688 187.656 94.6251 189.554 95.5313 189.775C97.0001 190.123 98.5001 190.123 100 189.933C100.594 189.838 100.344 188.921 99.7501 189.016C97.1563 189.364 95.1563 188.668 92.8126 187.72C91.7501 187.308 90.6875 187.15 89.9688 188.131C89.625 188.605 90.4375 189.079 90.7813 188.605Z" fill="#EB5757"/>
<path d="M166.969 254.889C167.469 254.098 168.25 253.592 169.219 253.592C170.031 253.592 170.531 254.098 171.25 254.32C171.969 254.573 172.562 254.414 173.187 254.003C174.406 253.181 175 252.169 176.656 252.232C178.156 252.264 179.594 252.991 180.906 253.655C181.437 253.94 181.906 253.118 181.375 252.833C178.906 251.568 175.906 250.367 173.531 252.422C173 252.865 172.937 252.991 172.125 253.15C171.219 253.339 171.312 253.213 170.625 252.928C170.031 252.675 169.469 252.58 168.812 252.644C167.656 252.77 166.75 253.434 166.156 254.383C165.844 254.92 166.656 255.395 166.969 254.889Z" fill="#EB5757"/>
<path d="M177.375 256.723C178.844 255.426 181.625 258.146 183.437 257.893C184.531 257.735 185.031 256.913 185.75 256.154C187.125 254.667 189.187 254.446 190.875 255.553C191.375 255.869 191.844 255.079 191.344 254.731C190.125 253.94 188.687 253.687 187.281 254.098C186.656 254.288 186.094 254.573 185.594 254.984C184.844 255.616 184.375 256.755 183.312 256.944C181.031 257.356 178.875 254.13 176.719 256.059C176.281 256.47 176.937 257.134 177.375 256.723Z" fill="#EB5757"/>
<path d="M134.75 53.8871C135 52.8435 135.594 52.0213 136.594 51.5786C137.469 51.1991 138.187 51.4521 139.094 51.4205C140.094 51.3572 140.844 50.8512 141.437 50.0923C142.344 48.9538 142.937 47.7837 144.219 47.0247C145.688 46.1709 147.375 46.0128 149 46.5188C149.594 46.7085 149.813 45.7914 149.25 45.6017C146.25 44.6846 143.281 45.8547 141.469 48.4162C140.75 49.4282 140.219 50.4401 138.844 50.4718C138 50.5034 137.281 50.3136 136.469 50.5983C135.094 51.0726 134.156 52.2427 133.844 53.6342C133.687 54.235 134.594 54.488 134.75 53.8871Z" fill="#EB5757"/>
<path d="M139.156 57.524C137.812 53.9188 144.25 54.1086 146.187 53.4128C148.594 52.559 150.656 51.041 152.687 49.5231C153.156 49.1752 152.687 48.353 152.219 48.7009C150.844 49.7445 149.437 50.7564 147.937 51.5787C146.062 52.5906 144.281 52.9069 142.25 53.2231C140.094 53.571 137.281 55.0889 138.281 57.7453C138.469 58.3146 139.375 58.0932 139.156 57.524Z" fill="#EB5757"/>
<path d="M263.781 238.824C266.156 232.531 270.188 228.42 274.344 224.15C279.813 218.553 289.969 208.149 300.313 209.793C309.125 211.185 308.156 219.755 320.25 225.985C331.656 231.898 336.031 226.048 347.406 232.404C349.094 233.353 361 240.215 363.719 253.181C364.844 258.557 364.563 265.926 362.219 266.621C359.563 267.412 358.656 251.916 348.031 245.844C339.906 241.196 328.719 243.441 327.813 246.761C326.844 250.272 338.063 252.58 344.406 264.787C347.188 270.1 347.781 274.938 348.625 281.579C349.406 287.841 350.281 300.68 347.406 301.439C345.031 302.072 343.75 293.502 335.031 286.481C330.438 282.781 325.531 281.263 315.719 278.227C306.875 275.508 302.406 274.179 300 276.393C296.438 279.682 299.188 288.031 299.688 289.517C303.188 300.143 312.125 304.57 311.469 305.709C310.594 307.132 294.281 303.02 280.969 289.833C269.594 278.544 256.875 257.071 263.781 238.824Z" fill="#EB5757"/>
<path d="M365.813 275.476C365.688 276.361 365.031 281.295 367.906 284.457C371.094 287.936 374.969 285.279 378.875 288.726C382.469 291.889 382 296.632 383.094 296.538C384.344 296.443 386.25 290.023 383.563 286.133C382.719 284.9 380.656 283.793 376.563 281.643C372.375 279.429 371.813 279.524 370.719 278.322C368 275.349 368.406 271.46 367.438 271.46C366.688 271.46 366.031 273.8 365.813 275.476Z" fill="#EB5757"/>
<path d="M338.938 312.603C337.188 315.259 337.375 318.105 337.531 321.109C337.719 324.177 337.844 326.675 339.625 328.92C341.656 331.482 345.031 332.557 345.469 331.988C345.813 331.545 344.281 330.344 342.906 327.719C342.75 327.403 340.719 323.513 340.813 318.959C340.906 313.267 344.219 309.883 343.375 309.282C342.75 308.808 340.344 310.452 338.938 312.603Z" fill="#EB5757"/>
<path d="M351.469 260.17C356.719 263.68 353.844 271.808 357.281 276.551C357.625 277.026 358.438 276.551 358.094 276.077C354.531 271.144 357.563 263.111 351.938 259.348C351.438 259 350.969 259.822 351.469 260.17Z" fill="#EB5757"/>
<path d="M349.594 237.274C355.219 241.638 359.125 247.868 360.687 254.857C360.812 255.458 361.719 255.205 361.594 254.604C359.969 247.362 355.906 240.974 350.094 236.484C349.563 236.073 349.094 236.895 349.594 237.274Z" fill="#116D9E"/>
<path d="M331.469 254.794C335.969 258.526 339.5 263.301 341.688 268.772C341.906 269.341 342.813 269.088 342.594 268.519C340.313 262.89 336.781 257.988 332.125 254.13C331.688 253.75 331 254.415 331.469 254.794Z" fill="#116D9E"/>
<path d="M343.875 273.99C344.719 276.267 345.281 278.575 345.5 280.978C345.562 281.579 346.5 281.579 346.437 280.978C346.187 278.48 345.625 276.077 344.75 273.737C344.594 273.167 343.688 273.42 343.875 273.99Z" fill="#116D9E"/>
<path d="M295.781 279.239C295 284.015 295.906 288.79 298.469 292.901C298.781 293.407 299.594 292.932 299.281 292.426C296.875 288.568 295.938 284.014 296.688 279.492C296.781 278.891 295.875 278.638 295.781 279.239Z" fill="#116D9E"/>
<path d="M299.719 295.494C300.844 297.581 302.281 299.447 304 301.06C304.437 301.471 305.094 300.807 304.656 300.396C303 298.815 301.625 297.012 300.531 295.02C300.25 294.482 299.437 294.956 299.719 295.494Z" fill="#116D9E"/>
<path d="M263.844 247.299C263.594 250.303 263.875 253.276 264.719 256.185C264.875 256.786 265.781 256.533 265.625 255.932C264.813 253.086 264.531 250.24 264.781 247.299C264.844 246.698 263.906 246.698 263.844 247.299Z" fill="#116D9E"/>
<path d="M265.656 259.411C266.156 261.878 267.063 264.155 268.375 266.305C268.688 266.811 269.5 266.337 269.188 265.831C267.938 263.744 267.063 261.562 266.563 259.158C266.438 258.589 265.531 258.842 265.656 259.411Z" fill="#116D9E"/>
<path d="M184.063 61.73C183.188 64.1334 182.125 67.4223 181.094 71.4069C180.031 75.5496 177.531 86.4599 177.781 100.817C178.031 114.668 180.719 124.851 183.188 133.927C187.031 148.095 191.719 158.278 194.5 164.192C194.5 164.192 203.344 183.134 218 203.437C220.594 207.01 223.906 211.533 223.906 211.533C226.313 214.79 228.375 217.509 229.813 219.47C230.969 220.798 232.438 222.285 234.344 223.708C237.906 226.396 241.438 227.756 243.906 228.451C247.969 224.941 252.031 221.399 256.094 217.889C257.938 219.66 259.813 221.399 261.656 223.17C264.219 220.514 266.5 218.395 268.281 216.845C276.031 210.046 282.438 206.568 283.938 205.745C285.219 205.05 286.313 204.512 287.063 204.164C285.906 201.824 284.75 199.484 283.594 197.112C285.469 195.468 287.625 193.728 290.031 192.021C293.281 189.712 296.406 187.846 299.25 186.392C299.219 183.735 298.875 179.719 297.156 175.291C295.875 171.971 294.344 169.726 293.688 168.777C286.469 158.246 307.75 187.277 279.938 147.115C269.156 131.556 263.781 123.745 261.313 120.519C253.594 110.304 247.531 103.315 243.219 98.3505C234.969 88.8317 231.25 85.2898 228.25 82.6966C224.156 79.0915 219.625 75.2018 212.781 71.5966C208.469 69.3513 204.906 68.118 199.719 66.3154C193.313 64.1018 187.906 62.6471 184.063 61.73Z" fill="white"/>
<path d="M183.094 62.2992C176.313 83.4556 176.313 106.288 181.188 127.856C182.406 133.263 183.938 138.608 185.75 143.826C186.656 146.482 187.75 149.075 188.719 151.7C189.063 152.617 189.125 153.534 189.531 154.451C190.125 155.874 190.75 157.298 191.375 158.721C192.531 161.377 193.75 164.002 195.031 166.627C196.313 169.22 197.875 171.686 199.031 174.311C199.469 175.292 199.844 176.335 200.344 177.284C201 178.486 201.969 179.403 202.656 180.573C204.094 183.008 205.469 185.506 206.969 187.91C213.813 199.073 221.594 209.604 229.563 219.945C229.938 220.419 230.594 219.755 230.219 219.28C223.188 210.141 216.313 200.875 210.125 191.167C208.594 188.763 207.125 186.36 205.688 183.893C205 182.723 204.313 181.521 203.656 180.32C203 179.15 202.125 178.327 201.438 177.189C200.875 176.24 200.469 175.228 200.063 174.216C199.5 172.857 198.75 171.623 198.063 170.327C196.75 167.892 195.531 165.425 194.375 162.927C193.156 160.302 192 157.645 190.844 154.989C190.344 153.819 190.156 152.586 189.688 151.384C189.188 150.087 188.656 148.791 188.156 147.463C186.25 142.371 184.594 137.185 183.219 131.904C180.469 121.215 178.875 110.241 178.719 99.1727C178.563 86.7445 180.25 74.3163 184.063 62.4573C184.156 61.983 183.25 61.73 183.094 62.2992Z" fill="black"/>
<path d="M183.531 62.2992C188.75 62.7103 194.063 64.5445 198.969 66.2838C203.813 68.0231 208.594 69.9206 213.031 72.5137C221.875 77.7 229.688 84.4992 236.813 91.8992C244.156 99.5206 250.844 107.901 257.313 116.281C263.75 124.63 269.906 133.263 275.844 141.991C282.406 151.7 288.719 161.598 294.906 171.591C295.219 172.097 296.031 171.623 295.719 171.117C284.375 152.87 272.656 134.844 259.625 117.768C247.031 101.228 233.531 84.3411 215.844 73.1146C211.031 70.0471 205.875 67.8334 200.563 65.8411C195.188 63.8488 189.313 61.7932 183.563 61.3188C182.938 61.3188 182.938 62.2676 183.531 62.2992Z" fill="black"/>
<path d="M230.906 219.66C245.469 204.639 261.844 191.451 279.562 180.446C284.562 177.347 289.625 174.438 294.812 171.718C295.344 171.433 294.875 170.611 294.344 170.896C275.937 180.636 258.687 192.621 243.156 206.568C238.719 210.552 234.406 214.695 230.25 218.996C229.812 219.439 230.469 220.103 230.906 219.66Z" fill="black"/>
<path d="M230 220.387C233.719 224.593 238.563 227.566 243.969 228.894C244.563 229.052 244.813 228.135 244.219 227.977C238.938 226.649 234.281 223.803 230.656 219.691C230.25 219.249 229.594 219.944 230 220.387Z" fill="black"/>
<path d="M294.656 171.971C297.094 176.303 298.5 181.079 298.813 186.044C298.844 186.645 299.781 186.645 299.75 186.044C299.438 180.889 297.969 175.987 295.469 171.497C295.188 170.959 294.375 171.433 294.656 171.971Z" fill="black"/>
<path d="M244.531 228.641C261.438 213.019 279.75 199.041 299.281 186.929C299.781 186.613 299.313 185.791 298.813 186.107C279.25 198.25 260.844 212.292 243.875 227.977C243.437 228.388 244.094 229.052 244.531 228.641Z" fill="black"/>
<path d="M256.312 218.458C258.031 220.166 259.75 221.874 261.469 223.613C261.656 223.803 261.969 223.803 262.125 223.613C267.187 218.174 272.875 213.367 279.094 209.35C280.594 208.37 282.125 207.453 283.687 206.568C284.687 205.998 286.594 205.461 287.187 204.385C287.812 203.31 286.875 201.856 286.375 200.938C285.5 199.326 284.469 197.839 283.344 196.448C282.969 195.974 282.312 196.638 282.687 197.112C283.781 198.472 284.75 199.895 285.562 201.413C285.75 201.729 286.156 202.267 286.187 202.646C286.062 203.215 285.937 203.753 285.812 204.322C285.656 204.417 285.5 204.48 285.344 204.575C284.719 205.05 283.906 205.334 283.219 205.745C280.5 207.295 277.844 208.971 275.281 210.774C270.281 214.347 265.656 218.427 261.469 222.917C261.687 222.917 261.906 222.917 262.125 222.917C260.406 221.209 258.687 219.502 256.969 217.762C256.531 217.351 255.875 218.015 256.312 218.458Z" fill="black"/>
<path d="M185.313 140.505C193 131.334 202 123.397 211.219 115.839C220.469 108.28 230.156 101.197 241 96.1685C241.563 95.9155 241.063 95.0932 240.531 95.3462C229.781 100.311 220.188 107.332 211 114.795C201.625 122.448 192.469 130.512 184.656 139.809C184.25 140.315 184.906 140.98 185.313 140.505Z" fill="black"/>
<path d="M241.188 100.596C240.156 100.659 239.719 98.9197 240.875 98.8248C241.281 98.7932 241.75 98.9829 241.906 99.394C242.125 99.9949 241.563 100.627 240.969 100.627C240.531 100.627 240.5 101.355 240.969 101.355C241.938 101.355 242.781 100.438 242.625 99.4573C242.5 98.6351 241.656 98.1291 240.875 98.1607C240.031 98.224 239.375 98.9197 239.469 99.7735C239.563 100.627 240.313 101.418 241.188 101.355C241.656 101.291 241.656 100.564 241.188 100.596Z" fill="black"/>
<path d="M288.906 170.548C288.938 170.548 288.938 170.548 288.969 170.516C288.875 170.516 288.781 170.485 288.688 170.485C289.031 170.643 288.844 169.979 288.813 169.884C288.813 169.789 288.844 169.662 288.875 169.568C288.969 169.378 289.125 169.188 289.313 169.093C289.719 168.903 290.156 169.22 290.281 169.631C290.531 170.453 289.344 170.864 289.031 170.137C288.844 169.726 288.25 170.074 288.438 170.485C288.813 171.37 290.094 171.433 290.719 170.769C291.438 169.979 290.906 168.65 289.938 168.366C288.906 168.081 287.906 169.188 288.156 170.2C288.25 170.611 288.781 171.117 289.188 170.706C289.5 170.39 289.188 169.694 288.719 169.884C288.313 170.042 288.5 170.706 288.906 170.548Z" fill="black"/>
<path opacity="0.15" d="M184.062 61.9197C189 65.1453 195.687 69.8889 203 76.2453C207.531 80.1983 219.281 90.7923 233.969 111.348C249.906 133.643 257.875 144.774 259.469 157.203C260.281 163.685 261.406 182.154 245.312 204.86C251.969 199.737 258.656 194.582 265.312 189.459C268.219 194.297 271.094 199.136 274 203.974C270.875 206.315 267.75 208.623 264.625 210.963C266.156 212.829 267.687 214.663 269.219 216.529C271.094 214.695 273.344 212.734 275.937 210.805C279.937 207.832 283.781 205.714 287.094 204.164C285.844 201.729 284.625 199.262 283.375 196.827C288.75 193.254 294.125 189.649 299.5 186.075C299.219 183.387 298.562 179.497 296.844 175.133C294.844 170.01 292.312 166.595 291.344 165.267C284.344 155.685 287.75 157.993 273.094 137.153C262.562 122.163 256.75 113.783 247.437 102.936C241.469 95.9787 237.5 91.3932 231.156 85.7325C224.406 79.6923 216.219 72.5137 203.719 67.2641C195.75 63.9752 188.75 62.5838 184.062 61.9197Z" fill="#494949"/>
<path opacity="0.11" d="M284.406 153.787C284.125 155.811 283.563 158.91 282.156 162.421C278.906 170.548 273.906 174.09 263.469 184.779C258.531 189.839 251.188 197.333 251.875 198.156C252.531 198.946 260.563 192.685 274.594 183.324C282.813 177.821 289.719 173.552 294.25 170.769C290.969 165.109 287.688 159.448 284.406 153.787Z" fill="#494949"/>
<path opacity="0.08" d="M294.906 171.718C294.469 171.813 295.531 175.26 294.25 179.561C293.312 182.723 291.719 184.241 287.812 189.016C286.125 191.072 283.656 194.171 280.719 198.156C286.844 193.918 292.969 189.68 299.094 185.443C296.312 174.248 295.281 171.655 294.906 171.718Z" fill="#494949"/>
<path d="M242.125 275.223C242.219 276.14 242.562 276.868 243.094 277.753C245.344 281.421 249.062 283.667 251.75 284.963C250.687 288.347 249.406 293.217 248.469 299.163C247.594 304.886 246.562 311.559 247.906 312.002C248.375 312.16 249.75 311.717 262.531 286.102C264.312 282.528 265.781 279.556 266.75 277.532C259.937 274.433 253.156 271.302 246.344 268.203C245.687 268.709 241.781 271.586 242.125 275.223Z" fill="#161616" stroke="#161616" stroke-width="2" stroke-miterlimit="10"/>
<path d="M227.875 205.271C222.125 209.319 218.406 213.24 215.094 216.782C213.75 218.205 207.313 225.131 200.531 236.009C197.531 240.816 195.313 245.054 193.781 248.248C193.969 249.544 194.406 251.41 195.563 253.276C196.844 255.363 198.281 256.28 200.531 258.304C203.281 260.771 204.281 262.226 205.875 263.87C208.969 267.096 213.313 269.531 221.875 274.306C232.625 280.283 238.406 282.465 240.188 283.129C242.375 283.92 244.219 284.521 245.531 284.932C246.156 281.991 246.906 278.86 247.844 275.571C248.688 272.63 249.594 269.879 250.5 267.317C243.844 262.384 237 256.85 230.063 250.588C227.656 248.438 225.344 246.256 223.125 244.105C225.375 241.354 228.531 237.749 232.531 233.859C233.688 232.721 236.125 230.38 239.094 227.914C242.844 224.846 248.5 220.735 256.313 216.94C257.656 207.864 256.063 199.389 251.156 196.638C245.031 193.222 235.719 199.768 227.875 205.271Z" fill="white"/>
<path d="M221.562 209.983C210.5 219.47 201.344 231.203 194.844 244.326C194.187 245.686 193.25 247.204 193.125 248.722C193 250.335 193.969 251.568 194.844 252.802C196.937 255.679 199.312 258.367 201.844 260.866C207.219 266.084 213.406 270.385 219.906 274.021C227.906 278.512 236.375 282.085 244.812 285.627C245.375 285.849 245.625 284.932 245.062 284.71C231.25 278.891 217.156 272.946 205.625 263.048C203.031 260.803 200.562 258.399 198.344 255.774C197.187 254.383 196.031 252.96 195.031 251.473C194.406 250.556 193.937 249.703 194.094 248.532C194.25 247.394 194.906 246.319 195.406 245.275C198.406 239.109 202 233.258 206.125 227.787C210.844 221.494 216.25 215.77 222.219 210.679C222.687 210.268 222.031 209.603 221.562 209.983Z" fill="black"/>
<path d="M248.063 220.893C237.344 227.914 227.969 236.8 220.375 247.173C220.031 247.679 220.844 248.153 221.188 247.647C228.688 237.401 237.969 228.609 248.531 221.684C249.031 221.399 248.563 220.577 248.063 220.893Z" fill="black"/>
<path d="M222.594 244.579C231.375 252.612 240.406 260.328 249.719 267.697C250.187 268.076 250.844 267.412 250.375 267.033C241.063 259.664 232 251.948 223.25 243.915C222.813 243.504 222.156 244.168 222.594 244.579Z" fill="black"/>
<path d="M249.75 267.57C247.781 273.199 246.25 278.955 245.125 284.805C245 285.406 245.906 285.659 246.031 285.058C247.156 279.208 248.719 273.452 250.656 267.823C250.844 267.254 249.937 267.001 249.75 267.57Z" fill="black"/>
<path opacity="0.11" d="M239.969 217.351C235.656 217.731 232.406 220.925 222.375 235.029C218.531 240.437 215.312 245.149 212.844 248.88C216.406 251.41 219.219 253.497 221 254.857C230.969 262.415 235.156 266.653 243.625 271.27C245.469 272.282 247 273.009 247.906 273.421C248.625 271.428 249.344 269.436 250.031 267.444C247.656 265.356 245.281 263.301 242.875 261.214C236.25 255.521 229.687 250.019 223.156 244.674C225.875 240.816 228.438 237.907 230.313 235.915C235.844 230.064 241.344 226.111 245.625 223.075C247.094 222.032 248.344 221.209 249.156 220.672C245.125 217.541 241.969 217.162 239.969 217.351Z" fill="#494949"/>
<path opacity="0.08" d="M241.219 225.605C238.531 226.238 234.937 227.471 231.281 229.938C222.344 235.978 219.344 245.212 218.469 248.374C223.281 252.169 228.25 255.996 233.406 259.822C238.406 263.554 243.375 267.096 248.219 270.511C248.937 269.467 249.656 268.392 250.344 267.349C243.687 262.447 236.781 256.786 229.875 250.303C227.687 248.279 225.594 246.224 223.594 244.2C224.688 242.745 225.875 241.259 227.125 239.741C231.812 234.112 236.625 229.463 241.219 225.605Z" fill="#494949"/>
<path d="M300.375 264.882C303.688 268.044 307.031 271.238 310.344 274.401C309.469 294.577 311.125 299.32 312.875 299.668C315.594 300.206 320.25 290.687 322.281 283.192C323.813 277.5 323.969 272.503 323.813 269.12C318.625 264.439 313.438 259.759 308.25 255.047C305.625 258.336 303 261.625 300.375 264.882Z" fill="#161616" stroke="#161616" stroke-width="2" stroke-miterlimit="10"/>
<path d="M235.344 207.991C235.625 213.24 239.25 216.434 239.25 216.434C241.5 218.426 244.031 218.964 245.281 219.122C246.281 219.533 247.281 219.976 248.313 220.387C249.875 222.664 252.188 225.89 255.25 229.558C259.313 234.491 264.781 240.373 278.156 251.505C284.75 256.976 293.25 263.712 303.531 271.112C305 270.385 306.75 269.309 308.5 267.728C312.344 264.281 314.125 260.265 314.938 257.988C313.125 256.217 310.438 253.561 307.313 250.272C293.438 235.756 284.188 223.328 277.125 213.778C272.469 207.485 266.5 199.104 259.906 188.985C244.813 193.159 234.969 201.255 235.344 207.991Z" fill="white"/>
<path d="M240.188 217.636C242.688 218.521 245.156 219.375 247.656 220.261C248.219 220.45 248.469 219.533 247.906 219.344C245.406 218.458 242.938 217.604 240.438 216.719C239.875 216.529 239.625 217.446 240.188 217.636Z" fill="black"/>
<path d="M246.625 219.312C258.375 235.662 273.594 248.88 289.375 261.119C293.906 264.629 298.5 268.108 303.094 271.555C303.594 271.934 304.031 271.08 303.563 270.732C287.75 258.874 271.844 246.856 258.406 232.246C254.5 228.009 250.844 223.518 247.469 218.838C247.094 218.363 246.281 218.838 246.625 219.312Z" fill="black"/>
<path d="M265.063 197.27C276.125 214.442 288.594 230.633 302.344 245.686C306.313 250.05 310.406 254.288 314.563 258.431C315 258.873 315.656 258.178 315.219 257.767C300.75 243.409 287.5 227.819 275.625 211.216C272.25 206.504 269 201.697 265.844 196.796C265.531 196.29 264.719 196.764 265.063 197.27Z" fill="black"/>
<path d="M314.032 257.83C312.219 263.269 308.719 268.329 303.438 270.732C302.875 270.985 303.375 271.808 303.906 271.555C309.406 269.056 313.031 263.744 314.907 258.083C315.125 257.514 314.219 257.261 314.032 257.83Z" fill="black"/>
<path opacity="0.09" d="M265.094 196.764C263.313 194.329 261.813 192.337 260.813 191.04C259.813 192.906 258.438 196.037 258.313 199.926C258.031 208.718 264.406 212.481 282.688 232.973C290.656 241.891 294.875 247.268 305.156 257.893C307.562 260.36 309.594 262.415 311.062 263.87C312.187 261.878 313.312 259.885 314.469 257.893C304.562 247.837 296.719 238.761 290.844 231.582C285.188 224.656 280.125 218.458 274.906 210.742C273.563 208.813 270.156 203.658 265.094 196.764Z" fill="#494949"/>
<path opacity="0.09" d="M270.625 205.65C271.062 207.832 271.969 211.532 273.75 215.833C278.906 228.103 286.531 233.29 300.25 248.627C302.875 251.568 306.938 256.217 311.687 262.226C312.781 260.644 313.875 259.095 314.969 257.514C313.969 256.565 312.375 255.079 310.438 253.181C306.875 249.703 297.219 239.994 278.781 216.308C276.781 213.778 273.969 210.109 270.625 205.65Z" fill="#494949"/>
<path d="M136.187 170.643C135.531 171.022 134.312 171.686 134.062 173.078C133.75 174.627 134.844 175.892 135 176.05C134.812 176.272 134.25 176.936 134.187 177.948C134.125 179.624 135.594 180.604 135.656 180.667C135.594 180.731 134.687 181.679 135 182.976C135.25 184.083 136.219 184.557 136.344 184.589C136.281 184.779 136.062 185.601 136.469 186.36C137.094 187.498 138.594 187.435 138.75 187.435C139.812 187.372 140.812 186.644 141.281 185.538C141.875 185.885 143.437 186.708 145.562 186.486C147 186.328 148.062 185.759 148.625 185.411C149.75 187.403 151.5 190.091 154.094 192.843C156.375 195.246 160.625 199.768 166.937 201.634C174.812 203.974 181.781 200.938 185.781 199.199C196.531 194.519 201.875 185.917 203.844 182.691C207.156 177.189 208.312 172.477 209.312 168.208C210.937 161.44 210.375 158.784 209.844 157.234C209.531 156.285 207.687 150.846 203.437 150.214C199.969 149.676 197.094 152.68 196.75 153.06C195.562 154.325 194.937 156.001 193.687 159.29C193.062 160.966 192.656 162.231 192.469 162.8C190.437 169.473 189.406 172.793 189.125 173.489C188.375 175.386 186.594 179.719 182.312 183.102C178.219 186.328 173.937 187.024 172.031 187.308C169.156 187.72 165.625 188.226 161.875 186.36C157.687 184.273 155.812 180.478 155.312 179.466C153.812 176.335 153.531 172.856 153.312 170.39C153.031 167.227 153.25 164.761 151.437 162.8C151.094 162.452 150.281 161.567 149.437 161.725C148.219 161.978 147.531 164.35 146.906 166.595C146.375 168.492 146.531 168.714 146.094 169.156C145.187 170.073 144.031 169.599 140.062 169.82C137.75 169.979 136.937 170.232 136.187 170.643Z" fill="white"/>
<path d="M142.656 169.283C139.281 168.65 133.344 169.536 133.813 174.216C134.219 178.422 139.156 179.15 142.125 177.315C142.625 176.999 142.156 176.177 141.656 176.493C139.188 178.011 134.719 177.6 134.719 173.805C134.719 170.137 139.813 169.726 142.406 170.2C143 170.326 143.25 169.409 142.656 169.283Z" fill="black"/>
<path d="M134.625 175.766C131.25 179.94 139.375 185.19 141.781 179.94C142.031 179.402 141.219 178.896 140.969 179.466C139.094 183.514 132.844 179.466 135.313 176.43C135.688 175.987 135.031 175.291 134.625 175.766Z" fill="black"/>
<path d="M134.812 180.003C134.094 181.648 134.594 183.735 136.25 184.589C137.875 185.443 139.906 184.652 140.75 183.071C141.031 182.533 140.219 182.059 139.937 182.597C139.312 183.703 137.906 184.336 136.719 183.767C135.531 183.197 135.094 181.648 135.625 180.478C135.875 179.94 135.062 179.466 134.812 180.003Z" fill="black"/>
<path d="M135.563 184.241C135.438 185.917 136.406 187.435 138.094 187.783C139.656 188.099 141.094 187.055 141.625 185.632C141.844 185.063 140.938 184.81 140.719 185.379C140.313 186.455 139.188 187.15 138.063 186.802C136.906 186.455 136.438 185.379 136.5 184.241C136.531 183.64 135.594 183.64 135.563 184.241Z" fill="black"/>
<path d="M138.531 173.9C139.344 173.805 140.188 173.837 140.875 174.311C141.531 174.754 141.906 175.639 141.531 176.367C141.25 176.904 142.063 177.379 142.344 176.841C142.844 175.861 142.625 174.722 141.875 173.932C141.031 173.015 139.688 172.825 138.5 172.951C137.938 173.046 137.938 173.995 138.531 173.9Z" fill="black"/>
<path d="M141.438 186.265C143.063 185.664 144.625 187.024 146.313 186.834C147.594 186.676 148.719 185.98 149.781 185.348C150.281 185.032 149.813 184.209 149.313 184.526C147.719 185.506 146.344 186.202 144.438 185.632C143.281 185.285 142.375 184.905 141.188 185.348C140.625 185.569 140.844 186.486 141.438 186.265Z" fill="black"/>
<path d="M142.406 170.105C144.031 170.674 146.219 170.769 147.125 168.967C147.625 167.955 147.312 166.721 147.531 165.646C147.781 164.191 148.594 162.99 149.719 162.073C150.187 161.693 149.531 161.029 149.062 161.408C147.844 162.42 146.969 163.812 146.656 165.393C146.5 166.279 146.719 167.322 146.469 168.176C145.906 169.884 144.031 169.662 142.719 169.188C142.094 168.998 141.844 169.915 142.406 170.105Z" fill="black"/>
<path d="M149.031 162.136C151.687 162.484 152.031 167.006 152.469 169.062C153 171.75 153.281 174.469 153.781 177.157C154.594 181.458 157.062 184.874 161 186.803C165.125 188.795 169.812 188.7 174.125 187.498C178.562 186.233 183.156 183.956 186.031 180.193C186.406 179.719 185.75 179.055 185.375 179.529C182.375 183.45 177.5 185.759 172.812 186.866C168.094 187.973 162.937 187.562 159 184.462C154.75 181.142 154.656 176.145 153.812 171.18C153.406 168.84 153.062 166.31 152.219 164.097C151.687 162.705 150.844 161.44 149.312 161.219C148.687 161.124 148.437 162.041 149.031 162.136Z" fill="black"/>
<path d="M148.344 185.98C152.125 190.661 155.781 196.005 160.781 199.452C165.687 202.804 171.75 203.152 177.437 202.203C189 200.243 198.812 192.305 204.437 182.059C207.656 176.24 209.562 169.789 210.406 163.179C210.469 162.579 209.531 162.579 209.469 163.179C208.031 174.469 203.156 185.538 194.469 193.001C190.187 196.669 185.094 199.42 179.625 200.749C173.969 202.14 167.437 202.33 162.281 199.262C156.781 196.005 152.937 190.186 149 185.285C148.625 184.842 147.969 185.506 148.344 185.98Z" fill="black"/>
<path d="M203.875 150.087C201.281 149.044 198.531 150.403 196.719 152.332C194.594 154.546 193.531 157.487 192.75 160.397C191.844 163.78 191.031 167.132 189.75 170.39C188.375 173.9 186.625 177.22 184.625 180.383C184.281 180.889 185.094 181.363 185.438 180.857C188.656 175.829 191.125 170.358 192.656 164.571C193.469 161.535 194 158.373 195.5 155.621C197 152.838 200.188 149.613 203.625 151.004C204.188 151.226 204.438 150.309 203.875 150.087Z" fill="black"/>
<path d="M139.938 183.735C140.813 183.798 140.625 185.285 140.469 185.822C140.281 186.391 141.188 186.644 141.375 186.075C141.781 184.873 141.5 182.913 139.938 182.786C139.344 182.755 139.344 183.703 139.938 183.735Z" fill="black"/>
<path d="M140.469 180.826C140.656 181.585 140.375 182.375 139.781 182.818C139.281 183.166 139.75 183.988 140.25 183.64C141.219 182.944 141.687 181.743 141.375 180.573C141.25 179.972 140.344 180.225 140.469 180.826Z" fill="black"/>
<path d="M141 177.537C141.844 177.948 141.281 179.308 140.875 179.845C140.5 180.32 141.313 180.794 141.688 180.32C142.406 179.371 142.781 177.347 141.469 176.715C140.938 176.462 140.469 177.284 141 177.537Z" fill="black"/>
<path opacity="0.11" d="M134.563 177.663C135.063 177.379 135.875 179.149 137.969 180.035C138.75 180.351 139.719 180.573 144.156 180.035C145.594 179.845 147.469 179.592 149.719 179.181C150.156 180.984 151.062 183.703 152.906 186.518C153.687 187.688 156.844 192.242 162.938 194.93C169.469 197.839 175.375 196.859 177.656 196.448C179.594 196.1 185 195.056 189.813 190.819C193.031 188.004 195.094 184.589 198.125 175.702C200.187 169.662 202.687 161.282 204.531 150.878C205.781 152.174 207.719 154.514 208.812 157.993C209.344 159.669 209.844 162.136 209.437 165.994C208.594 174.311 204.469 181.237 201.969 184.778C199.375 188.478 194.75 194.867 186.187 198.82C185.031 199.357 178.5 202.235 170.187 201.855C168.281 201.761 166.531 201.666 164.375 200.875C162.031 200.021 159.688 197.808 155.031 193.443C153.094 191.641 151.188 189.743 149.25 186.992C148.875 186.455 148.563 185.98 148.344 185.664C147.688 186.107 146.719 186.613 145.625 186.486C144.156 186.36 143.656 185.284 142.438 185.474C141.375 185.632 141.375 186.518 140.094 186.992C139.094 187.34 137.688 187.308 136.75 186.581C136.063 186.043 135.969 185.443 135.188 182.027C134.438 178.675 134.219 177.853 134.563 177.663Z" fill="#494949"/>
<path d="M199.969 150.814C200.406 153.85 201.25 158.657 203 164.349C206.687 176.24 211.031 181.332 216.781 195.12C218.219 198.567 220.25 203.753 222.25 210.299C225.969 211.532 232.875 213.208 241.313 211.722C255.188 209.287 263.344 199.99 265.625 197.175C260.875 188.32 256.094 178.738 251.437 168.461C246.812 158.278 242.781 148.474 239.281 139.145C236.344 138.038 228.656 135.572 219.219 137.912C207.937 140.663 201.719 148.474 199.969 150.814Z" fill="#EB5757"/>
<path opacity="0.13" d="M227.406 136.837C228.594 139.367 230.094 142.814 231.688 146.988C236.688 160.27 238.5 171.18 239.156 175.07C240.563 183.102 241.781 195.562 239.781 211.564C244.125 211.438 247.344 210.426 249.375 209.635C255.188 207.295 259.406 203.215 263.469 199.262C264.406 198.377 265.125 197.586 265.594 197.112C264.25 194.772 262.219 191.103 259.844 186.518C252.969 173.299 248.469 162.326 244.688 153.028C243.344 149.771 241.5 145.091 239.344 139.43C237.625 138.702 235.469 137.975 232.938 137.501C230.875 137.09 229 136.9 227.406 136.837Z" fill="#494949"/>
<path opacity="0.1" d="M248.094 161.914C248.625 167.575 249.062 172.319 249.375 175.734C250.562 189.111 250.781 192.811 250.875 195.183C251.125 200.78 251.125 205.366 251.094 208.37C253.031 207.674 255.531 206.536 258.125 204.702C261.375 202.393 263.562 199.863 264.969 197.997C259.344 185.949 253.719 173.932 248.094 161.914Z" fill="#494949"/>
<path d="M225.906 131.271C224.406 131.714 223.594 133.896 223.094 136.141C222.094 140.726 222.625 144.648 222.813 146.008C223.719 152.048 225.344 156.57 225.875 158.056C227.25 161.725 229.125 166.626 233.219 171.844C235.563 174.817 237.563 177.379 241.25 179.276C243.406 180.414 247.875 182.723 252.469 180.889C252.688 180.794 257.188 178.928 258.344 174.944C258.594 174.058 258.656 173.173 258.75 171.433C258.813 170.39 258.844 168.556 258.625 166.279C258.313 163.274 257.656 160.934 257.156 159.258C254.938 151.826 253.844 148.126 251.531 144.901C249.625 142.244 247.469 139.209 243.906 138.797C243.594 138.766 240 138.418 237.875 140.948C236.406 142.719 236.5 144.901 236.531 146.356C236.625 149.138 237.688 151.131 239.344 154.198C241 157.234 241.656 157.614 243.625 161.219C246.313 166.152 246.031 166.626 245.906 166.753C245.375 167.227 243.25 165.741 242.781 165.393C242.344 165.077 241.719 164.634 240.938 163.78C238.5 161.029 237.063 156.886 237.063 156.886C235.781 154.325 234.094 150.688 232.375 146.071C232.906 144.015 233.719 142.561 234.375 141.612C235.438 140.094 236.625 139.05 236.906 137.153C237.031 136.426 236.969 135.793 236.906 135.382C237.438 134.876 237.594 134.117 237.313 133.485C236.969 132.757 236.125 132.409 235.313 132.662C235.313 132.567 235.219 131.745 234.5 131.303C233.906 130.923 233.094 130.986 232.5 131.429C231.563 130.702 230.781 130.512 230.219 130.48C229.563 130.449 229.25 130.607 227.688 130.891C226.375 131.239 226.281 131.176 225.906 131.271Z" fill="white"/>
<path d="M233.75 144.616C234.594 142.497 235.656 140.568 236.812 138.608C237.406 137.596 238.094 136.331 237.281 135.224C235.437 132.82 232.937 135.888 232.156 137.469C231.875 138.007 232.687 138.481 232.969 137.944C233.437 136.995 233.969 135.825 235.062 135.509C235.375 135.35 235.687 135.35 236.031 135.445C236.125 136.173 236.219 136.9 236.344 137.627C236.25 138.038 235.687 138.703 235.469 139.082C234.469 140.758 233.656 142.529 232.906 144.332C232.625 144.932 233.531 145.154 233.75 144.616Z" fill="black"/>
<path d="M223.531 148.696C223.062 145.312 223 141.865 223.375 138.481C223.719 135.382 224.375 130.67 228.625 131.556C229.219 131.682 229.469 130.765 228.875 130.638C225.531 129.943 223.437 132.346 222.875 135.414C222.031 139.873 222 144.426 222.625 148.949C222.719 149.55 223.625 149.297 223.531 148.696Z" fill="black"/>
<path d="M227.437 134.117C227.781 133.295 228.156 132.441 228.812 131.809C229.937 130.702 231.375 131.303 232.594 131.903C233.125 132.188 233.594 131.366 233.062 131.081C231.781 130.417 230.344 129.785 228.969 130.512C227.781 131.144 227.156 132.441 226.656 133.611C226.406 134.212 227.219 134.686 227.437 134.117Z" fill="black"/>
<path d="M230.219 134.402C231.375 132.884 232.906 131.302 234.906 132.504C235.437 132.82 235.906 131.998 235.375 131.682C233 130.259 231 131.808 229.562 133.706C229.187 134.212 229.844 134.876 230.219 134.402Z" fill="black"/>
<path d="M232.312 135.097C232.906 134.465 233.531 133.801 234.344 133.485C235.312 133.074 237.094 133.327 236.719 134.813C236.594 135.414 237.469 135.667 237.625 135.066C237.937 133.769 237.094 132.568 235.812 132.346C234.094 132.03 232.75 133.295 231.656 134.433C231.25 134.876 231.906 135.54 232.312 135.097Z" fill="black"/>
<path d="M232.687 144.142C231.594 146.514 232.938 148.917 233.875 151.099C235.188 154.167 236.563 157.234 238.25 160.08C240.437 163.812 245.187 170.516 250.156 166.69C250.625 166.31 250.156 165.488 249.687 165.868C244.906 169.568 240.469 162.104 238.531 158.657C237.406 156.633 236.406 154.546 235.469 152.427C234.531 150.309 232.437 146.988 233.531 144.616C233.75 144.079 232.937 143.573 232.687 144.142Z" fill="black"/>
<path d="M236.719 141.738C233.969 151.194 242.406 158.531 245.5 166.627C245.719 167.196 246.625 166.943 246.406 166.374C243.406 158.531 234.969 151.131 237.625 141.991C237.781 141.391 236.875 141.138 236.719 141.738Z" fill="black"/>
<path d="M222.594 148.443C224.187 157.297 227.906 165.678 233.375 172.793C236.031 176.209 239.062 179.529 243.25 180.921C246.812 182.091 251.719 182.691 255.031 180.509C258.656 178.169 259.125 173.394 259.281 169.441C259.312 168.84 258.375 168.84 258.344 169.441C258.156 174.533 257.031 180.162 251.062 180.889C245.562 181.553 240.437 179.339 236.719 175.323C229.812 167.891 225.281 158.183 223.469 148.19C223.406 147.589 222.5 147.842 222.594 148.443Z" fill="black"/>
<path d="M237.344 143.003C238.344 138.956 243.156 138.671 246.156 140.442C249.219 142.244 251.313 145.502 252.844 148.633C254.437 151.921 255.594 155.463 256.719 158.942C258 162.927 258.969 167.101 258.312 171.307C258.219 171.908 259.125 172.161 259.219 171.56C259.969 166.753 258.781 162.104 257.25 157.55C255.844 153.408 254.469 149.139 252.125 145.407C250.156 142.244 247.219 138.956 243.344 138.418C240.344 138.007 237.156 139.651 236.406 142.75C236.281 143.351 237.188 143.604 237.344 143.003Z" fill="black"/>
<path opacity="0.1" d="M227.062 130.86C229.562 129.848 232 130.955 232.594 131.239C230.844 133.58 227.125 139.24 226.812 147.241C226.344 158.626 233.062 166.184 235.437 168.872C238.5 172.319 242.5 176.809 247.656 176.177C250.562 175.829 253.312 173.868 254.719 171.37C256.125 168.872 256.031 166.152 254.344 159.132C251.75 148.506 248.906 142.276 249.312 142.086C249.719 141.897 253.094 147.241 255.625 153.945C255.875 154.641 257.969 160.27 258.719 168.018C259.187 172.793 258.781 174.754 257.812 176.493C256.312 179.181 253.875 180.383 252.937 180.794C249.156 182.407 245.531 181.268 243.812 180.668C237.656 178.58 234.375 173.521 231.062 168.429C225.969 160.555 224.562 153.819 223.219 147.336C222.281 142.845 221.656 137.627 224 133.801C224.406 133.01 225.312 131.587 227.062 130.86Z" fill="#494949"/>
<path d="M181.938 115.459C181.844 116.945 182.375 118.621 183.5 121.973C184.75 125.737 186.094 129.753 189.469 133.706C191.625 136.236 194.25 139.335 198.719 140.22C202.25 140.916 205.219 139.904 206.719 139.272C207.063 140.22 207.531 141.232 208.125 142.276C209.688 145.059 211.625 147.02 213.156 148.316C214.313 148.19 216.563 147.715 218.5 145.944C220 144.553 220.719 142.908 221.156 141.833C221.688 140.568 221.969 139.461 222.094 138.671C221.156 138.102 220.125 137.343 219.125 136.299C216 133.073 215.156 129.247 214.906 127.413C215.313 123.776 215.75 120.108 216.156 116.471C216.625 116.534 217.625 116.597 218.5 115.997C219.469 115.332 219.656 114.226 219.906 112.992C220.156 111.759 220.438 110.178 219.75 108.375C219.438 107.585 218.438 105.055 216.313 104.897C214.875 104.77 213.406 105.75 212.563 107.268C210.75 105.497 206.875 102.367 201.438 101.861C192.031 100.975 182.469 108.407 181.938 115.459Z" fill="white"/>
<path d="M195.812 129.911C195.562 130.575 196.281 131.524 196.812 131.998C198.281 133.295 200.875 133.232 202.75 132.346C205.375 131.113 206.219 128.456 206.594 127.255C207.031 125.926 207.594 124.187 206.687 122.638C205.906 121.278 204.531 120.803 204 120.645C203.469 121.752 203.062 122.574 202.75 123.112C202.375 123.776 202.25 123.997 202.031 124.503C201.719 125.167 201.687 125.42 201.25 126.021C199.469 128.362 197.031 129.215 197.031 129.215C196.469 129.342 195.969 129.468 195.812 129.911Z" fill="black"/>
<path d="M182.438 119.254C184.906 127.065 188 136.173 195.969 139.841C199.219 141.327 203.094 141.612 206.406 140.157C210.125 138.544 212.313 134.813 213.813 131.208C215.781 126.496 216.625 121.373 216.313 116.281C216.281 115.68 215.344 115.68 215.375 116.281C215.688 121.594 214.75 126.938 212.531 131.777C210.375 136.489 206.969 140.252 201.5 140.189C190.5 140.062 186.031 127.792 183.281 119.032C183.156 118.4 182.281 118.653 182.438 119.254Z" fill="black"/>
<path d="M212.906 108.154C212.937 106.256 214.875 105.118 216.594 105.656C218.187 106.193 219.187 107.774 219.531 109.356C219.844 110.873 219.719 112.644 219.25 114.099C218.875 115.301 218.406 115.933 216.969 115.933C216.469 115.933 215.969 115.744 215.438 115.744C214.844 115.744 214.844 116.692 215.438 116.692C216.5 116.692 217.531 117.198 218.563 116.661C219.313 116.281 219.75 115.522 220.062 114.732C220.875 112.581 220.969 109.672 219.937 107.553C219.094 105.814 217.281 104.327 215.281 104.549C213.438 104.738 212 106.256 211.969 108.122C211.969 108.755 212.906 108.755 212.906 108.154Z" fill="black"/>
<path d="M214.75 125.484C214.656 130.702 216.938 135.698 221 138.955C221.469 139.335 222.125 138.671 221.656 138.291C217.781 135.192 215.594 130.512 215.688 125.484C215.688 124.883 214.75 124.883 214.75 125.484Z" fill="black"/>
<path d="M206.688 139.651C207.875 142.972 209.813 145.881 212.406 148.221C212.844 148.632 213.531 147.968 213.063 147.557C210.563 145.312 208.719 142.561 207.563 139.398C207.375 138.829 206.469 139.082 206.688 139.651Z" fill="black"/>
<path d="M212.625 148.538C215.312 149.518 218 147.209 219.656 145.28C221.406 143.256 222.937 140.632 222.187 137.88C222.031 137.279 221.125 137.532 221.281 138.133C221.906 140.537 220.5 142.877 218.969 144.616C217.531 146.261 215.187 148.474 212.844 147.62C212.312 147.399 212.062 148.316 212.625 148.538Z" fill="black"/>
<path d="M185.938 115.933C185.531 114.763 186.469 113.498 187.156 112.676C188.188 111.379 189.781 111.032 190.969 112.36C192.344 113.878 192.719 116.597 192.906 118.558C193.031 119.918 192.563 121.657 193.344 122.859C194.188 124.156 195.75 124.915 197.219 125.199C197.813 125.326 198.063 124.409 197.469 124.282C196.688 124.124 196 123.871 195.313 123.428C194.188 122.669 193.938 121.847 193.906 120.487C193.875 119.317 193.844 118.179 193.656 117.009C193.344 115.079 192.813 112.613 191.25 111.316C189.938 110.209 188.313 110.241 187.031 111.348C185.813 112.423 184.406 114.479 185 116.155C185.25 116.756 186.156 116.503 185.938 115.933Z" fill="black"/>
<path d="M194.594 109.103C194.813 105.276 199.531 103.885 201.719 107.015C202.063 107.521 202.875 107.047 202.531 106.541C199.813 102.62 193.938 104.296 193.656 109.103C193.625 109.703 194.563 109.703 194.594 109.103Z" fill="black"/>
<path d="M190.344 118.463C189.906 117.862 189.656 117.198 189.625 116.471C189.375 116.597 189.156 116.756 188.906 116.882C189.625 117.356 190 118.115 189.969 118.969C190.156 118.811 190.375 118.653 190.562 118.526C189.781 118.242 189.281 117.356 189.437 116.534C189.219 116.629 188.969 116.724 188.75 116.819C189.125 117.04 189.437 117.356 189.656 117.767C189.75 117.957 189.812 118.147 189.844 118.368C189.844 118.526 189.844 118.337 189.812 118.273C189.75 118.147 189.687 118.052 189.625 117.926C189.375 117.356 188.562 117.862 188.812 118.4C189 118.843 189.312 119.317 189.875 119.349C190.344 119.38 190.75 119.064 190.812 118.59C190.906 117.546 190.094 116.503 189.25 116.028C189 115.87 188.625 115.997 188.562 116.313C188.312 117.673 189.062 119.001 190.344 119.475C190.656 119.57 190.937 119.317 190.937 119.032C190.969 117.831 190.406 116.756 189.406 116.123C189.125 115.933 188.687 116.186 188.687 116.534C188.719 117.42 189 118.273 189.531 119.001C189.906 119.444 190.719 118.969 190.344 118.463Z" fill="black"/>
<path d="M199.094 112.36C198.937 112.17 198.812 111.949 198.75 111.696C198.75 111.632 198.687 111.253 198.75 111.221C198.812 111.19 198.969 111.696 199 111.727C199.062 111.98 199.031 112.265 198.906 112.486C199.125 112.423 199.344 112.36 199.562 112.328C198.781 111.885 198.406 111.063 198.531 110.178C198.281 110.304 198.062 110.462 197.812 110.589C198.687 110.968 199.187 111.885 198.969 112.834C199.156 112.739 199.344 112.613 199.531 112.518C199.062 112.36 198.687 111.949 198.594 111.443C198.594 111.411 198.594 111.126 198.562 111.126C198.5 111.158 198.437 111.19 198.344 111.221C198.375 111.285 198.437 111.379 198.469 111.443C198.594 111.791 198.594 112.138 198.562 112.518C198.844 112.391 199.094 112.297 199.375 112.17C199.094 111.949 198.875 111.696 198.719 111.348C198.437 110.81 197.625 111.285 197.906 111.822C198.094 112.202 198.375 112.55 198.719 112.834C199.062 113.119 199.469 112.929 199.531 112.486C199.594 111.854 199.531 111 199.062 110.526C198.687 110.146 198 110.114 197.75 110.684C197.25 111.791 198.312 113.087 199.281 113.435C199.531 113.53 199.812 113.34 199.844 113.119C200.187 111.791 199.531 110.336 198.25 109.798C197.906 109.64 197.594 109.83 197.531 110.209C197.375 111.411 198 112.581 199.031 113.182C199.219 113.308 199.562 113.245 199.687 113.024C199.937 112.423 200 111.822 199.781 111.221C199.594 110.747 199.187 110.241 198.656 110.304C197.281 110.462 197.875 112.455 198.437 113.087C198.844 113.498 199.5 112.802 199.094 112.36Z" fill="black"/>
<path d="M207.25 139.556C207.25 139.588 207.25 139.588 207.219 139.62C207.406 139.525 207.594 139.398 207.781 139.303C207.75 139.303 207.719 139.272 207.688 139.272C207.781 139.493 207.875 139.746 207.969 139.968C208.031 139.841 208.875 139.43 209.125 139.209C209.688 138.734 210.156 138.102 210.594 137.501C211.563 136.204 212.281 134.781 212.875 133.295C212.563 133.2 212.281 133.137 211.969 133.042C211.031 135.762 210.375 139.556 207.75 141.169C207.969 141.391 208.188 141.612 208.406 141.833C209.031 140.885 209.656 139.904 210.281 138.956C210.563 138.513 209.906 137.975 209.531 138.386C209.031 138.924 208.5 139.493 208 140.031C208.219 140.252 208.438 140.473 208.656 140.695C209.125 140.126 209.563 139.525 209.969 138.924C210.281 138.481 209.594 137.944 209.219 138.355C208.781 138.829 208.344 139.177 207.781 139.462C208.031 139.588 208.25 139.746 208.5 139.873C208.5 139.778 208.469 139.683 208.469 139.588C208.406 138.987 207.469 138.987 207.531 139.588C207.531 139.683 207.563 139.778 207.563 139.873C207.594 140.22 207.938 140.473 208.281 140.284C208.906 139.936 209.406 139.556 209.906 139.019C209.656 138.829 209.406 138.639 209.156 138.45C208.781 138.987 208.406 139.525 208 140.031C207.625 140.505 208.25 141.169 208.656 140.695C209.156 140.157 209.688 139.588 210.188 139.05C209.938 138.861 209.688 138.671 209.438 138.481C208.813 139.43 208.188 140.41 207.563 141.359C207.313 141.77 207.813 142.244 208.219 142.023C211.094 140.252 211.844 136.331 212.875 133.326C213.063 132.726 212.188 132.536 211.969 133.073C211.313 134.686 210.469 136.268 209.344 137.596C208.813 138.228 207.969 138.576 207.469 139.145C207.344 139.272 207.219 139.303 207.156 139.462C207 139.746 207.125 140.031 207.438 140.157C207.469 140.157 207.5 140.189 207.531 140.189C207.781 140.284 208.031 140.094 208.094 139.873C208.094 139.841 208.094 139.841 208.125 139.809C208.375 139.24 207.469 138.987 207.25 139.556Z" fill="black"/>
<path d="M210.719 138.608C211 138.291 211.188 137.975 211.281 137.596C211.438 137.026 210.719 136.837 210.438 137.216C209.781 138.102 209.125 138.987 208.469 139.873C208.094 140.347 208.906 140.821 209.281 140.347C209.938 139.462 210.594 138.576 211.25 137.691C210.969 137.564 210.688 137.438 210.406 137.311C210.344 137.532 210.25 137.722 210.094 137.912C209.656 138.418 210.344 139.082 210.719 138.608Z" fill="black"/>
<path d="M196.281 130.765C195.406 128.994 196.344 128.33 198.094 127.856C198.312 127.792 198.531 127.761 198.719 127.666C199.469 127.318 199.906 126.559 200.219 125.832C200.719 124.756 201 123.586 201.656 122.606C203.031 120.487 205.469 120.582 206.25 123.112C207.031 125.642 206.062 128.456 204.406 130.385C203.594 131.334 202.594 132.22 201.406 132.631C200.375 133.01 199.469 132.884 198.469 132.441C197.75 132.125 196.437 131.492 196.25 130.67C196.125 130.069 195.219 130.322 195.344 130.923C195.687 132.568 198.125 133.58 199.594 133.801C201.187 134.054 202.687 133.263 203.906 132.251C206.625 129.974 208.312 125.958 207 122.479C205.594 118.716 201.781 120.108 200.375 123.08C199.937 123.997 199.719 125.547 199 126.211C198.094 127.065 196.937 126.749 196 127.413C194.687 128.362 194.812 130.038 195.469 131.334C195.75 131.809 196.562 131.334 196.281 130.765Z" fill="black"/>
<path d="M195.656 129.785C200.5 129.658 202.844 125.104 203.906 120.93C204.063 120.329 203.156 120.076 203 120.677C202.063 124.409 200.031 128.709 195.656 128.836C195.062 128.868 195.062 129.816 195.656 129.785Z" fill="black"/>
<path d="M182.813 118.748C182.25 119.064 178.844 115.301 177.406 110.273C176.344 106.604 176.656 103.347 177.031 101.291C177.563 99.647 178.313 97.876 179.344 96.0735C183.781 88.3572 190.781 84.7205 194.406 83.1709C193.656 83.8982 192.781 84.847 191.969 86.0487C190.844 87.6299 190.125 89.1162 189.656 90.3495C190.719 89.4324 191.938 88.5153 193.25 87.6299C196.188 85.6376 199.031 84.2145 201.5 83.2025C201.125 84.8153 200.719 86.4282 200.344 88.0094C201.219 87.5034 202.438 86.776 203.938 86.0487C205.594 85.2581 209 83.6136 209.531 84.341C209.688 84.5624 209.5 84.8153 209.219 85.7324C208.844 86.9341 208.719 87.9461 208.656 88.6102C209.625 88.4521 210.719 88.3256 211.906 88.294C213.219 88.2307 214.406 88.294 215.469 88.3888C215.094 89.8435 214.719 91.2666 214.344 92.7213C215.094 93.0059 216.156 93.5435 217.25 94.429C220.188 96.8641 221.031 100.153 221.25 101.45C221.719 104.549 220.969 107.142 220.406 108.565C218.906 105.339 215.938 104.074 214.25 104.865C213.219 105.339 212.031 106.857 212.156 108.407C212.188 108.755 212.281 109.071 212.375 109.292C211.281 108.28 209.625 106.92 207.469 105.656C205.313 104.391 202.906 102.967 199.719 102.556C193.719 101.766 189.031 105.086 187.781 106.003C185.844 107.395 182.688 109.64 182.125 113.214C181.563 116.218 183.25 118.526 182.813 118.748Z" fill="#116D9E"/>
<path opacity="0.11" d="M206.594 104.865C207.562 107.079 208.875 110.526 209.594 114.858C210.344 119.159 211.281 124.693 209 130.828C208.219 132.915 206.375 136.932 202 140.695C203.031 140.663 204.813 140.474 206.688 139.462C209.75 137.849 211.094 135.161 211.5 134.212C212.969 135.667 214.937 137.944 216.437 141.169C217.281 142.972 217.812 144.648 218.125 146.039C218.969 145.28 220.531 143.636 221.25 141.043C221.531 140.031 221.625 139.114 221.625 138.355C219.812 137.343 218.656 136.109 218 135.319C217.719 134.971 214.937 131.429 215.094 126.527C215.156 124.756 215.531 124.725 215.812 122.005C216.062 119.57 215.937 117.515 215.812 116.155C217.406 116.819 218.219 116.503 218.594 116.281C219.312 115.838 219.5 115.048 220.156 111.032C220.5 108.881 220.687 107.806 220.75 107.237C221.125 104.169 221.312 102.62 221.125 101.386C220.594 97.8761 218.375 95.5359 217.625 94.8086C216.375 93.5752 215.094 92.8795 214.25 92.5C214.625 91.1718 214.969 89.812 215.344 88.4838C213.562 90.6026 211.906 92.0573 210.781 93.006C207.969 95.2829 206.344 95.8205 204.406 98.0026C202.875 99.7103 202 101.45 201.5 102.62C203.219 103.41 204.906 104.138 206.594 104.865Z" fill="#494949"/>
<path opacity="0.17" d="M193.719 83.5188C192.656 83.9932 190.156 85.3214 188.406 88.1359C187.969 88.8316 187 90.5709 186.719 93.006C186.406 95.694 187.063 97.8128 187.438 98.8564C187.563 96.2316 188.188 91.994 190.688 87.6299C191.656 85.9855 192.719 84.6256 193.719 83.5188Z" fill="#494949"/>
<path opacity="0.08" d="M215.812 116.313C215.719 116.281 215.531 116.629 214.844 119.032C213.906 122.29 213.406 124.693 213.125 125.895C212.719 127.634 212.031 130.101 210.75 133.073C212.969 133.516 215.187 133.959 217.406 134.37C216.594 132.568 215.625 129.974 215.25 126.749C214.656 121.215 216.125 116.376 215.812 116.313Z" fill="#494949"/>
</svg>
