<svg id="visual" viewBox="0 0 960 540" width="960" height="540" xmlns="http://www.w3.org/2000/svg" xmlns:xlink="http://www.w3.org/1999/xlink" version="1.1"><path d="M0 328L16 330.5C32 333 64 338 96 340C128 342 160 341 192 336C224 331 256 322 288 316.5C320 311 352 309 384 312C416 315 448 323 480 327.7C512 332.3 544 333.7 576 335.2C608 336.7 640 338.3 672 338.3C704 338.3 736 336.7 768 332.5C800 328.3 832 321.7 864 320.2C896 318.7 928 322.3 944 324.2L960 326L960 541L944 541C928 541 896 541 864 541C832 541 800 541 768 541C736 541 704 541 672 541C640 541 608 541 576 541C544 541 512 541 480 541C448 541 416 541 384 541C352 541 320 541 288 541C256 541 224 541 192 541C160 541 128 541 96 541C64 541 32 541 16 541L0 541Z" fill="#1c98db"></path><path d="M0 370L16 372.2C32 374.3 64 378.7 96 381.2C128 383.7 160 384.3 192 381.7C224 379 256 373 288 374.8C320 376.7 352 386.3 384 389.7C416 393 448 390 480 389.8C512 389.7 544 392.3 576 391.8C608 391.3 640 387.7 672 381.7C704 375.7 736 367.3 768 365.8C800 364.3 832 369.7 864 369.8C896 370 928 365 944 362.5L960 360L960 541L944 541C928 541 896 541 864 541C832 541 800 541 768 541C736 541 704 541 672 541C640 541 608 541 576 541C544 541 512 541 480 541C448 541 416 541 384 541C352 541 320 541 288 541C256 541 224 541 192 541C160 541 128 541 96 541C64 541 32 541 16 541L0 541Z" fill="#1889c6"></path><path d="M0 421L16 424.2C32 427.3 64 433.7 96 437.2C128 440.7 160 441.3 192 437C224 432.7 256 423.3 288 420.5C320 417.7 352 421.3 384 420.7C416 420 448 415 480 416.7C512 418.3 544 426.7 576 431.7C608 436.7 640 438.3 672 434.2C704 430 736 420 768 422C800 424 832 438 864 439.3C896 440.7 928 429.3 944 423.7L960 418L960 541L944 541C928 541 896 541 864 541C832 541 800 541 768 541C736 541 704 541 672 541C640 541 608 541 576 541C544 541 512 541 480 541C448 541 416 541 384 541C352 541 320 541 288 541C256 541 224 541 192 541C160 541 128 541 96 541C64 541 32 541 16 541L0 541Z" fill="#147bb2"></path><path d="M0 479L16 481.8C32 484.7 64 490.3 96 490.2C128 490 160 484 192 482.2C224 480.3 256 482.7 288 484.8C320 487 352 489 384 486.7C416 484.3 448 477.7 480 478.3C512 479 544 487 576 489.2C608 491.3 640 487.7 672 485C704 482.3 736 480.7 768 481.5C800 482.3 832 485.7 864 489.8C896 494 928 499 944 501.5L960 504L960 541L944 541C928 541 896 541 864 541C832 541 800 541 768 541C736 541 704 541 672 541C640 541 608 541 576 541C544 541 512 541 480 541C448 541 416 541 384 541C352 541 320 541 288 541C256 541 224 541 192 541C160 541 128 541 96 541C64 541 32 541 16 541L0 541Z" fill="#116d9e"></path></svg>