<svg width="500" height="400" viewBox="0 0 500 400" fill="none" xmlns="http://www.w3.org/2000/svg">
<path d="M163.75 137.919C163.75 137.919 135.775 181.916 137.287 215.829C138.8 249.742 137.287 265.889 137.287 265.889L180.462 269.657L189.012 244.169L163.75 137.919Z" fill="#F4A28C"/>
<path opacity="0.09" d="M158.087 229.826C158.087 229.826 169.112 252.74 160.587 267.919L180.437 269.657L188.987 244.169C188.987 244.169 181.412 217.434 158.087 229.826Z" fill="black"/>
<path d="M316.6 201.884L300.588 92.9939L183.613 112.378L170.45 103.515L160.55 116.2L179.725 246.557L319.763 223.352L329.663 210.681L316.6 201.884Z" fill="#F98E0E"/>
<path opacity="0.09" d="M316.6 201.884L300.588 92.9939L183.613 112.378L170.45 103.515L160.55 116.2L179.725 246.557L319.763 223.352L329.663 210.681L316.6 201.884Z" fill="black"/>
<path d="M310.494 80.3228L170.452 103.521L189.618 233.879L329.661 210.682L310.494 80.3228Z" fill="#F98E0E"/>
<path opacity="0.09" d="M199.937 123.324C203.969 123.324 207.237 119.855 207.237 115.576C207.237 111.297 203.969 107.827 199.937 107.827C195.906 107.827 192.637 111.297 192.637 115.576C192.637 119.855 195.906 123.324 199.937 123.324Z" fill="black"/>
<path d="M196.08 87.4559L194.808 87.6667C192.987 87.9683 191.741 89.78 192.025 91.7131L195.327 114.169C195.611 116.102 197.318 117.425 199.139 117.123L200.411 116.913C202.233 116.611 203.479 114.799 203.194 112.866L199.893 90.4099C199.608 88.4768 197.902 87.1543 196.08 87.4559Z" fill="#24285B"/>
<path opacity="0.09" d="M227.262 118.787C231.294 118.787 234.562 115.318 234.562 111.038C234.562 106.759 231.294 103.29 227.262 103.29C223.231 103.29 219.962 106.759 219.962 111.038C219.962 115.318 223.231 118.787 227.262 118.787Z" fill="black"/>
<path d="M223.407 82.9166L222.135 83.1273C220.314 83.429 219.068 85.2407 219.352 87.1738L222.653 109.63C222.938 111.563 224.644 112.886 226.466 112.584L227.738 112.373C229.559 112.072 230.805 110.26 230.521 108.327L227.219 85.8706C226.935 83.9375 225.228 82.6149 223.407 82.9166Z" fill="#24285B"/>
<path opacity="0.09" d="M253.638 114.422C257.669 114.422 260.938 110.952 260.938 106.673C260.938 102.394 257.669 98.9246 253.638 98.9246C249.606 98.9246 246.338 102.394 246.338 106.673C246.338 110.952 249.606 114.422 253.638 114.422Z" fill="black"/>
<path d="M249.77 78.5614L248.498 78.7721C246.677 79.0738 245.431 80.8854 245.715 82.8185L249.016 105.275C249.301 107.208 251.007 108.53 252.829 108.229L254.101 108.018C255.922 107.716 257.168 105.905 256.884 103.972L253.582 81.5154C253.298 79.5823 251.591 78.2597 249.77 78.5614Z" fill="#24285B"/>
<path opacity="0.09" d="M280 110.056C284.032 110.056 287.3 106.587 287.3 102.308C287.3 98.0285 284.032 94.5593 280 94.5593C275.968 94.5593 272.7 98.0285 272.7 102.308C272.7 106.587 275.968 110.056 280 110.056Z" fill="black"/>
<path d="M276.145 74.1906L274.873 74.4013C273.052 74.703 271.806 76.5146 272.09 78.4477L275.392 100.904C275.676 102.837 277.383 104.16 279.204 103.858L280.476 103.647C282.297 103.345 283.543 101.534 283.259 99.6007L279.958 77.1445C279.673 75.2114 277.967 73.8889 276.145 74.1906Z" fill="#24285B"/>
<path opacity="0.46" d="M192.1 147.937C193.84 147.937 195.25 146.44 195.25 144.593C195.25 142.746 193.84 141.25 192.1 141.25C190.36 141.25 188.95 142.746 188.95 144.593C188.95 146.44 190.36 147.937 192.1 147.937Z" fill="white"/>
<path opacity="0.46" d="M195.612 171.832C197.352 171.832 198.762 170.335 198.762 168.489C198.762 166.642 197.352 165.145 195.612 165.145C193.873 165.145 192.462 166.642 192.462 168.489C192.462 170.335 193.873 171.832 195.612 171.832Z" fill="white"/>
<path opacity="0.46" d="M199.125 195.728C200.865 195.728 202.275 194.231 202.275 192.384C202.275 190.538 200.865 189.041 199.125 189.041C197.385 189.041 195.975 190.538 195.975 192.384C195.975 194.231 197.385 195.728 199.125 195.728Z" fill="white"/>
<path d="M206.425 142.218L294.888 127.557" stroke="white" stroke-width="2.03" stroke-linecap="round" stroke-linejoin="bevel"/>
<path d="M209.938 166.113L298.413 151.452" stroke="white" stroke-width="2.03" stroke-linecap="round" stroke-linejoin="bevel"/>
<path d="M213.45 190.009L301.925 175.361" stroke="white" stroke-width="2.03" stroke-linecap="round" stroke-linejoin="bevel"/>
<path d="M160.55 188.165L187.837 165.291C197.737 156.999 210.187 172.137 200.862 181.213C200.337 181.717 199.762 182.234 199.125 182.738C189.948 190.13 182.928 200.125 178.875 211.57C178.875 211.57 183.437 235.797 166.7 243.068C149.962 250.339 128.537 222.144 160.55 188.165Z" fill="#F4A28C"/>
<path d="M130.7 261.046L188.95 269.657L184.963 326.722L118.863 320.261L130.7 261.046Z" fill="#116D9E"/>
<path d="M270 172.602C262.187 172.894 258.55 162.438 264.425 156.959C275.675 146.504 294.887 134.523 318.487 143.996C356.525 159.241 374.025 225.952 374.025 225.952L339.362 243.479C339.362 243.479 308.75 207.802 280.462 199.204C270.462 196.139 272.562 180.138 282.962 180.854L284.112 180.974C298.187 182.991 306.325 194.932 315.462 190.487C324.6 186.042 327.637 166.95 310.137 162.292C296.6 158.684 286.562 172.005 270 172.602Z" fill="#F4A28C"/>
<path opacity="0.09" d="M250.063 166.114L235.488 171.832L251.313 183.747L351.488 206.78L355.363 185.405L310.05 169.775L250.063 166.114Z" fill="black"/>
<path d="M344.925 177.823L256.458 157.452L253.164 173.569L341.631 193.94L344.925 177.823Z" fill="#24285B"/>
<path d="M256.463 157.436L235.488 161.045L253.163 173.557L256.463 157.436Z" fill="white"/>
<path d="M365.818 182.621L344.917 177.808L341.623 193.925L362.524 198.738L365.818 182.621Z" fill="#116D9E"/>
<path d="M326.962 239.777L379.775 224.267L404.562 326.722H334.575L326.962 239.777Z" fill="#116D9E"/>
<path opacity="0.09" d="M166.575 157.091C161.767 166.608 159.673 177.406 160.55 188.165L169.975 180.204L166.575 157.091Z" fill="black"/>
</svg>
