<svg width="800" height="600" viewBox="0 0 800 600" fill="none" xmlns="http://www.w3.org/2000/svg">
<path d="M85.3999 508.1C78.5499 502.5 71.3999 497.15 65.0499 491C62.0999 488.15 59.3499 485.05 57.2499 481.5C56.1499 479.7 55.2499 477.75 54.5999 475.75C54.0499 474.1 53.4999 471.55 55.8999 471.3C56.7999 471.2 57.7499 471.4 58.5999 471.65C59.5499 471.9 59.9499 470.45 58.9999 470.2C56.1499 469.5 52.0499 469.7 52.4999 473.7C53.0499 478.2 55.9999 482.8 58.6999 486.25C65.6999 495.25 75.5999 502 84.3499 509.15C85.0999 509.75 86.1499 508.7 85.3999 508.1Z" fill="#E8E8E8"/>
<path d="M59.2498 470.45C56.3498 467 54.0998 463 52.7998 458.65C52.1998 456.7 51.9498 454.7 51.3498 452.8C50.9498 451.6 50.1998 450.5 51.2998 449.45C51.7998 449 52.5498 448.7 53.0998 448.3C54.7998 447.15 55.7498 445.8 53.6498 444.35C52.4498 443.55 50.9498 443.4 49.6498 442.75C47.8998 441.8 46.5498 440.25 45.5498 438.6C43.4498 435.2 42.2998 431.2 41.0498 427.45C39.5498 423 38.0998 418.45 36.7998 413.95C34.1998 404.85 32.0498 395.65 30.2998 386.4C30.1498 386.7 29.9498 387 29.7998 387.3C39.1998 384.2 48.5498 392.15 55.2498 397.8C62.1498 403.6 68.3498 410.25 73.7998 417.45C85.0498 432.45 92.8998 449.75 97.7998 467.8C100.8 478.85 102.7 490.2 103.75 501.6C103.85 502.55 105.35 502.55 105.25 501.6C101.6 462.25 87.0998 422.4 56.0498 396.45C48.9498 390.55 39.3498 382.6 29.4498 385.85C29.0498 386 28.8498 386.35 28.9498 386.75C30.7998 396.65 33.1498 406.45 35.9998 416.15C37.3498 420.7 38.7498 425.2 40.2998 429.65C41.5498 433.25 42.6998 437.1 44.8998 440.25C45.7498 441.45 46.6998 442.55 47.8998 443.4C49.3498 444.45 51.0498 444.55 52.4998 445.45C54.3998 446.6 51.6498 447.5 50.6498 448.2C49.8998 448.75 49.1998 449.4 49.0498 450.4C48.8498 451.9 50.1498 453.65 50.4998 455.05C50.9998 457.2 51.4498 459.3 52.2498 461.4C53.6998 465.1 55.7498 468.5 58.2998 471.55C58.7998 472.25 59.8498 471.2 59.2498 470.45Z" fill="#E8E8E8"/>
<path d="M37.85 394.45C58.75 418.05 75 445.6 85.6 475.3C88.55 483.55 91 491.95 93.05 500.45C93.3 501.4 94.7 501 94.5 500.05C87.1 469.25 73.8 439.9 55.4 414.05C50.3 406.85 44.8 399.95 38.95 393.35C38.25 392.7 37.2 393.75 37.85 394.45Z" fill="#E8E8E8"/>
<path d="M41.25 427.35C43.65 427.95 46 428.75 48.3 429.7C49.2 430.05 49.6 428.6 48.7 428.25C46.4 427.3 44.05 426.5 41.65 425.9C40.75 425.65 40.35 427.1 41.25 427.35Z" fill="#E8E8E8"/>
<path d="M58.8497 460.55C62.0997 460.45 64.7997 462.15 67.4497 463.75C69.8497 465.2 72.1997 466.65 74.4997 468.25C79.2497 471.55 83.5497 475.45 86.3997 480.55C86.8497 481.4 88.1497 480.65 87.6997 479.8C84.6997 474.5 80.1997 470.4 75.2497 467C72.6497 465.2 69.8997 463.5 67.1497 461.9C64.5497 460.35 61.8997 459.05 58.7997 459.1C57.8997 459.05 57.8997 460.55 58.8497 460.55Z" fill="#E8E8E8"/>
<path d="M78.7499 451.55C77.3999 443.45 77.4499 435.25 78.8999 427.2C79.0499 426.25 77.5999 425.85 77.4499 426.8C75.9499 435.15 75.8999 443.6 77.2999 451.95C77.4499 452.9 78.8999 452.5 78.7499 451.55Z" fill="#E8E8E8"/>
<path d="M76.1996 417.3C77.2496 407.4 79.3496 397.5 82.8496 388.2C85.7996 380.35 90.1996 372.65 97.7496 368.45C97.3496 368.25 96.9996 368 96.5996 367.8C97.3996 381.7 105.55 394.05 105.9 408C106.1 407.75 106.25 407.5 106.45 407.3C104.55 407.8 102.65 408.3 100.75 408.8C100.2 408.95 99.9996 409.65 100.4 410.05C102.7 412.25 103.15 415.35 103.25 418.4C103.3 420 104.15 427.75 102.3 428.25C101.85 428.4 101.6 428.95 101.85 429.35C107.4 438.25 104.85 448.8 103.3 458.4C101.7 468.3 101.5 478.3 102.65 488.2C102.75 489.15 104.25 489.15 104.15 488.2C102.85 477.05 103.5 466.1 105.4 455.1C106.95 446.2 108.2 436.65 103.2 428.55C103.05 428.9 102.9 429.3 102.75 429.65C104.1 429.3 104.55 428.25 104.75 426.95C105.1 424.55 104.85 421.9 104.8 419.5C104.75 415.7 104.35 411.75 101.45 409C101.35 409.4 101.25 409.85 101.1 410.25C103 409.75 104.9 409.25 106.8 408.75C107.1 408.65 107.35 408.35 107.35 408.05C107 394.05 98.8996 381.75 98.0496 367.85C97.9996 367.3 97.4496 366.9 96.8996 367.2C89.4496 371.35 84.9496 378.7 81.8496 386.45C77.8996 396.3 75.6996 406.85 74.5996 417.4C74.5996 418.25 76.0996 418.25 76.1996 417.3Z" fill="#E8E8E8"/>
<path d="M94.3497 375.3C88.9997 395.55 86.2497 416.45 86.1997 437.4C86.1997 438.35 87.6997 438.35 87.6997 437.4C87.7497 416.55 90.4497 395.85 95.7497 375.7C96.0497 374.75 94.5997 374.35 94.3497 375.3Z" fill="#E8E8E8"/>
<path d="M681.4 345.35C684.6 355.65 687 366.15 688.5 376.85C689.25 382.25 689.8 387.75 690.05 393.2C690.15 394.6 690.2 396.05 690.25 397.45C690.3 398.3 690.05 399.7 690.35 400.5C690.65 401.25 691.7 401.75 692.3 402.25C693.35 403.1 694.4 403.95 695.4 404.8C695.45 404.4 695.5 404 695.55 403.6C694.15 404.45 692.8 404.85 691.15 404.9C690.8 404.9 690.55 405.15 690.45 405.45C689 409.95 690.05 414.7 693.3 418.2C693.5 417.75 693.65 417.35 693.85 416.9C688.65 416.7 688.55 422.7 689.05 426.4C689.75 431.55 690.75 436.7 692.2 441.7C695.1 451.5 699.95 460.8 707.9 467.5C708.65 468.1 709.7 467.05 708.95 466.45C702.25 460.8 697.75 453.2 694.85 444.95C693.5 441.05 692.45 437.05 691.65 433.05C691 429.7 687.75 418.2 693.85 418.4C694.55 418.45 694.8 417.6 694.4 417.1C691.55 414 690.65 409.8 691.95 405.85C691.7 406.05 691.45 406.2 691.25 406.4C693.15 406.4 694.75 405.95 696.4 404.9C696.75 404.65 696.95 404.05 696.55 403.7C694.7 402.2 692.15 400.9 691.85 398.4C691.55 395.75 691.65 393 691.45 390.35C691.1 385.4 690.6 380.45 689.85 375.5C688.35 365.15 686 354.95 682.9 344.95C682.55 344 681.1 344.4 681.4 345.35Z" fill="#E8E8E8"/>
<path d="M683.85 347.6C681.8 344.9 685.65 342.9 687.9 343.45C690.15 344.05 692 345.85 693.55 347.45C696.4 350.35 698.65 353.75 700.6 357.3C704.65 364.6 708.05 372.4 711.05 380.15C717.2 396.1 721.45 412.8 723.7 429.7C724.95 439.3 725.6 448.95 725.6 458.6C725.6 459.55 727.1 459.55 727.1 458.6C727.1 438.5 724.35 418.45 718.95 399.15C716.3 389.75 713.05 380.55 709.2 371.55C705.65 363.25 701.85 354.35 695.75 347.55C693.3 344.8 689.15 340.55 685.05 342C682.55 342.85 680.9 346.05 682.6 348.35C683.15 349.1 684.45 348.4 683.85 347.6Z" fill="#E8E8E8"/>
<path d="M719.85 402.55C722.4 394 725.35 385.65 728.7 377.4C730.45 373.15 732.3 368.9 734.3 364.75C735.25 362.8 736.2 360.8 737.2 358.85C737.85 357.6 739.8 352.1 741.85 352.6C742.45 352.75 742.85 352.25 742.75 351.7C742.25 348.6 745.75 345.95 747.6 343.9C749.25 342.1 750.85 340.3 752.5 338.5C755.9 334.8 759.25 331.1 762.65 327.35C762.25 327.25 761.8 327.15 761.4 327C766.55 339.75 765.2 353.7 762.2 366.8C760.65 373.5 758.7 380.15 757.05 386.85C755.9 391.5 754.65 398.55 748.95 399.55C748.55 399.6 748.35 400.1 748.45 400.45C749.9 406.4 745.9 411.9 743.25 416.9C740.75 421.6 738.45 426.45 736.35 431.4C732.25 441.05 729 451 726.55 461.15C726.3 462.1 727.75 462.5 728 461.55C730.7 450.3 734.4 439.35 739.15 428.8C741.4 423.8 743.9 418.9 746.55 414.1C748.95 409.75 751.15 405.15 749.95 400.1C749.8 400.4 749.6 400.7 749.45 401C754.3 400.15 756.4 395.25 757.65 390.95C759.7 383.75 761.55 376.35 763.3 369.05C766.65 355.15 768.45 340.2 762.95 326.6C762.75 326.1 762.1 325.8 761.7 326.25C757.45 330.9 753.2 335.6 748.95 340.25C746.95 342.45 744.8 344.55 742.95 346.9C741.75 348.5 741.1 350 741.4 352C741.7 351.7 742 351.4 742.3 351.1C738.7 350.2 736.95 356.1 735.75 358.45C733.35 363.2 731.1 368 729.05 372.85C724.95 382.35 721.45 392.15 718.5 402.05C718.1 403.05 719.55 403.45 719.85 402.55Z" fill="#E8E8E8"/>
<path d="M758.95 340.3C743.35 369.4 727.45 399.4 723.7 432.65C723.6 433.6 725.1 433.6 725.2 432.65C728.95 399.65 744.8 369.85 760.25 341.05C760.75 340.2 759.45 339.45 758.95 340.3Z" fill="#E8E8E8"/>
<path d="M693.9 360.3C706.05 392.45 713.3 426.35 715.45 460.65C715.5 461.6 717 461.6 716.95 460.65C714.8 426.2 707.55 392.2 695.35 359.9C695 359.05 693.55 359.4 693.9 360.3Z" fill="#E8E8E8"/>
<path d="M62.0999 344.2C92.5999 338.75 124.1 339.05 154.5 345.1C169.55 348.1 184.3 352.45 198.5 358.15C213.35 364.1 227.6 371.25 242.15 377.85C297.05 402.75 355.8 419.05 415.65 426.15C449.6 430.2 483.9 431.25 518 429.35C518.95 429.3 518.95 427.8 518 427.85C456.8 431.3 395.15 425.05 335.85 409.5C306.1 401.7 276.95 391.55 248.8 379.2C234.2 372.8 219.95 365.6 205.3 359.35C191.3 353.4 176.85 348.6 162.05 345.2C129.2 337.7 94.9 336.85 61.6999 342.8C60.7499 342.9 61.1499 344.35 62.0999 344.2Z" fill="#E8E8E8"/>
<path d="M334.1 408.4C362.55 409.85 390 399.6 416.75 391.4C444.75 382.85 472.85 374.55 501 366.45C529 358.4 557 349.95 585.45 343.5C613.8 337.1 642.7 334.05 671.75 333.2C704.1 332.2 736.45 333.65 768.75 335.15C769.7 335.2 769.7 333.7 768.75 333.65C711.7 331.05 653.9 328.5 597.5 339.45C568.9 345 540.9 353.5 512.9 361.45C484.75 369.5 456.65 377.75 428.6 386.2C413.05 390.9 397.55 396 381.9 400.3C366.3 404.6 350.3 407.7 334.05 406.9C333.15 406.85 333.15 408.35 334.1 408.4Z" fill="#E8E8E8"/>
<path d="M212.7 357.1C232.45 362.8 252.95 358.85 272.65 355.05C293.75 351 315.05 348.25 336.55 347.4C379.15 345.8 421.5 351.9 463.95 353.6C487.45 354.55 511.05 354 534.25 350.15C535.2 350 534.8 348.55 533.85 348.7C492.1 355.65 449.7 351.5 407.8 348.35C386.85 346.75 365.85 345.4 344.8 345.75C323.95 346.1 303.1 348.1 282.5 351.75C259.7 355.75 236 362.35 213.05 355.7C212.15 355.4 211.75 356.85 212.7 357.1Z" fill="#E8E8E8"/>
<path d="M301.2 453.45C307.6 450.8 314.5 449.45 321.45 449.65C327.9 449.85 333.7 451.95 339.95 453.25C344.6 454.25 349.25 454.25 353 450.95C354.45 449.7 355.7 448.4 357.8 449.05C359.35 449.5 360.65 450.55 362.1 451.2C363.8 452 365.55 452.3 367.35 451.95C371.65 451.1 374.9 447.55 378.65 445.5C385 442.1 391.1 446.65 397.3 448.3C410.2 451.75 424 450.7 437.2 450.55C453.45 450.4 469.75 450.5 485.9 448.5C486.85 448.4 486.85 446.9 485.9 447C471.4 448.75 456.75 448.85 442.15 449C428.25 449.15 413.55 450.45 399.85 447.35C396.65 446.65 393.65 445.6 390.6 444.35C387.95 443.25 385.2 442.2 382.3 442.6C377.75 443.2 374.35 446.8 370.5 449C368.5 450.15 366.3 450.95 364 450.3C361.5 449.55 359.45 447.35 356.7 447.25C354.1 447.2 352.85 449.3 350.95 450.65C348.3 452.5 344.95 452.55 341.85 452.05C335.25 451 329.1 448.45 322.35 448.15C315 447.8 307.65 449.15 300.8 452C299.9 452.35 300.3 453.8 301.2 453.45Z" fill="#E8E8E8"/>
<path d="M333.1 408.85C334 409 334.85 409.2 335.75 409.35C336.7 409.55 337.05 408.25 336.15 407.9C335.6 407.7 335.05 407.5 334.45 407.3C333.65 407 333.1 408.3 333.85 408.65C338.45 411.05 343.25 412.95 348.25 414.3C349.2 414.55 349.6 413.1 348.65 412.85C343.75 411.55 339.1 409.7 334.6 407.35C334.4 407.8 334.2 408.25 334 408.7C334.55 408.9 335.1 409.1 335.7 409.3C335.85 408.8 335.95 408.35 336.1 407.85C335.2 407.7 334.35 407.5 333.45 407.35C332.55 407.2 332.15 408.65 333.1 408.85Z" fill="#E8E8E8"/>
<path d="M265.9 478.15C264.8 476.85 263.8 475.5 262.95 474C262.55 473.25 262.05 472.45 261.8 471.6C261.45 471.05 261.4 470.4 261.6 469.75C261.45 469.05 261.65 468.5 262.15 468.1C262.9 466.05 262 463.9 261.5 461.8C260.75 458.5 260 455.2 259.25 451.9C258.85 450.15 258.45 448.45 258.1 446.7C257.9 445.9 257.75 445.15 257.55 444.35C257.25 442.95 256.95 442.3 258 441.15C258.5 440.1 259.25 439.9 260.25 440.7C260.7 441.15 261.15 441.6 261.6 442.05C262.1 442.7 262.45 443.45 262.85 444.15C263.55 445.45 264.25 446.75 264.9 448.05C266.45 451.15 267.8 454.35 268.95 457.6C271.15 463.7 272.65 470 273.55 476.45C273.8 476.15 274.05 475.8 274.25 475.5C274.35 475.6 274.4 475.75 274.5 475.85C274.75 474.9 273.3 474.5 273.05 475.45C272.85 476.35 273.3 477 274.25 477C274.8 477 275.05 476.55 274.95 476.05C273.8 467.8 271.65 459.75 268.35 452.1C266.8 448.5 265.15 444.5 262.85 441.3C261.6 439.55 259.35 437.95 257.2 439.2C254.75 440.6 255.9 444.05 256.4 446.2C257.4 450.6 258.4 455 259.35 459.4C259.8 461.5 260.75 463.85 260.85 466C260.9 467.75 259.45 468.55 259.7 470.3C260.2 473.55 262.65 476.85 264.7 479.25C265.45 479.9 266.5 478.85 265.9 478.15Z" fill="#E8E8E8"/>
<path d="M270.5 456.65C269.75 452.15 269.85 447.55 270.9 443.1C271.15 441.95 271.5 440.85 271.9 439.75C272.6 437.85 273.6 438.05 274.6 439.45C275.9 441.3 276.9 443.35 277.65 445.45C280.7 454.15 279.35 463.5 278.05 472.35C277.9 473.3 279.35 473.7 279.5 472.75C281.15 461.6 282.85 448.95 276.1 439C275.35 437.9 274.35 436.05 272.8 436.3C271.15 436.6 270.6 438.85 270.15 440.15C268.35 445.6 268.05 451.4 269 457C269.25 458 270.7 457.6 270.5 456.65Z" fill="#E8E8E8"/>
<path d="M273.2 445.15C274.7 452.95 275.25 460.8 275 468.7C274.95 469.65 276.45 469.65 276.5 468.7C276.8 460.65 276.15 452.65 274.65 444.75C274.45 443.8 273.05 444.2 273.2 445.15Z" fill="#E8E8E8"/>
<path d="M89.2998 338.55C87.8498 335.35 84.5998 333.1 82.5498 330.3C80.2998 327.2 78.3998 323.85 76.5498 320.55C76.3998 320.9 76.2498 321.3 76.0998 321.65C86.1498 319.85 91.9498 329.75 93.8998 338.1C94.0998 339.05 95.5498 338.65 95.3498 337.7C93.1998 328.45 86.5998 318.3 75.6998 320.2C75.1998 320.3 75.0498 320.9 75.2498 321.3C77.0998 324.65 78.9498 328 81.2498 331.05C83.2998 333.85 86.5998 336.2 87.9998 339.3C88.3998 340.2 89.6998 339.45 89.2998 338.55Z" fill="#E8E8E8"/>
<path d="M93.6498 330.5C94.3998 322.65 101.9 317.75 104.8 310.8C104.45 310.95 104.05 311.1 103.7 311.25C107.05 313.4 104.55 321.2 103.6 324.2C102.2 328.6 99.8998 332.6 96.9498 336.1C96.3498 336.85 97.3998 337.9 97.9998 337.15C101.7 332.8 104.35 327.75 105.7 322.2C106.55 318.7 108.15 312.35 104.45 309.95C104 309.65 103.5 310 103.35 310.4C100.35 317.6 92.9498 322.3 92.1498 330.5C92.0498 331.45 93.5498 331.45 93.6498 330.5Z" fill="#E8E8E8"/>
<path d="M537.65 353.2C537.2 352.05 536.75 350.9 536.3 349.75C536.05 349.2 535.85 348.6 535.6 348.05C535.3 347.65 535.3 347.2 535.55 346.75C536 347.15 536.9 346.9 536.85 346.2C536.6 343.7 536.35 341.15 536.1 338.65C536.05 338.05 535.45 335.7 535.8 335.25C537.35 333.1 538.4 336.65 538.55 337.2C539.9 341.8 539.85 347.1 539.8 351.85C539.8 352.8 541.3 352.8 541.3 351.85C541.35 347.95 541.15 344.1 540.6 340.25C540.25 337.8 539.85 334.25 537.45 332.8C535.9 331.85 534.6 332.85 534.3 334.5C534 336.1 534.5 338 534.65 339.55C534.85 341.75 535.1 343.95 535.3 346.15C535.75 345.95 536.15 345.8 536.6 345.6C535.75 344.8 534.45 344.95 533.95 346.05C533.6 346.8 533.9 347.6 534.15 348.35C534.75 350.1 535.55 351.8 536.2 353.55C536.55 354.5 538 354.1 537.65 353.2Z" fill="#E8E8E8"/>
<path d="M541 345.05C540.8 338.05 542.25 331.2 545.3 324.85C544.9 324.9 544.5 324.95 544.1 325C547.35 327.7 545.2 335 544.65 338.5C543.9 343.2 542.95 347.9 541.75 352.5C541.5 353.45 542.95 353.85 543.2 352.9C544.65 347.3 545.75 341.6 546.55 335.85C547.05 332.15 548.5 326.7 545.15 323.9C544.8 323.6 544.2 323.6 543.95 324.05C540.8 330.6 539.25 337.7 539.45 345C539.55 346 541.05 346 541 345.05Z" fill="#E8E8E8"/>
<path d="M278.6 498.1C281.75 494.9 286.65 499.2 290.3 499C292.05 498.9 293.65 498.25 295.25 497.7C297.4 497 299.45 496.75 301.7 496.95C310.6 497.7 319.25 498.35 328.2 497.75C329.15 497.7 329.15 496.2 328.2 496.25C323.35 496.55 318.55 496.65 313.7 496.45C308.8 496.25 303.7 495.05 298.85 495.4C296.9 495.55 295.1 496.2 293.25 496.8C290.55 497.65 288.5 497.5 285.9 496.55C283.05 495.5 279.85 494.65 277.5 497.05C276.85 497.75 277.9 498.8 278.6 498.1Z" fill="#E8E8E8"/>
<path d="M184.15 510.25C187.65 506.45 193.8 506.2 197.5 509.8C197.55 509.4 197.6 509 197.65 508.6C195.05 509.85 192.4 510.4 189.55 510.25C188.6 510.2 188.6 511.7 189.55 511.75C192.7 511.9 195.6 511.3 198.45 509.9C198.9 509.7 198.95 509.05 198.6 508.7C194.3 504.55 187.15 504.75 183.1 509.15C182.45 509.9 183.5 510.95 184.15 510.25Z" fill="#E8E8E8"/>
<path d="M44.7999 523.75C42.2499 523.55 39.6999 524.3 37.7499 526.05C36.5499 527.15 34.8499 529.2 36.3999 530.65C38.1499 532.25 42.3499 531.2 44.3999 531C48.1499 530.6 51.7999 529.9 55.4499 528.95C56.3999 528.7 55.9999 527.25 55.0499 527.5C50.6499 528.65 46.1999 529.4 41.6499 529.7C40.7499 529.75 39.7999 529.85 38.8999 529.85C36.6499 529.75 37.6999 528.05 38.7999 527.1C40.4499 525.6 42.5999 525.05 44.7999 525.25C45.7999 525.3 45.7499 523.8 44.7999 523.75Z" fill="#E8E8E8"/>
<path d="M116.25 482.5C116.35 482.1 116.65 481.85 117.05 481.85C117.4 481.8 117.75 481.75 118.05 481.7C118.85 481.6 119.6 481.65 120.4 481.75C121.95 481.95 123.35 482.5 124.7 483.35C124.75 482.9 124.8 482.45 124.9 482C123.05 482.65 121.2 482.8 119.25 482.5C118.3 482.35 117.9 483.8 118.85 483.95C121.05 484.3 123.15 484.15 125.3 483.45C125.9 483.25 126.05 482.45 125.5 482.1C122.9 480.45 119.5 479.65 116.45 480.5C114.8 480.95 113.5 483.5 115.85 484C116.8 484.15 117.2 482.7 116.25 482.5Z" fill="#E8E8E8"/>
<path d="M157.65 138.65C145.75 134.45 137.25 122.9 135.95 110.4C134.6 97.5 141.85 85.2 152.75 78.6C164.5 71.5 181.2 71.45 190.85 82.2C195.8 87.65 198.85 95.1 200.65 102.15C202.5 109.4 202.8 117.45 198.65 124C194.45 130.55 186.95 134.2 179.9 136.95C172.45 139.9 163.5 142.2 156.2 137.6C155.4 137.1 154.65 138.4 155.45 138.9C162 143 169.9 141.95 176.9 139.65C183.75 137.4 191 134.25 196.3 129.15C208.15 117.8 203.3 99.05 195.9 86.6C192 80 186.15 75.15 178.7 73.15C171.6 71.25 164 71.9 157.25 74.65C144.85 79.75 135.15 91.65 134.35 105.25C133.45 120.25 143.1 135.1 157.25 140.1C158.15 140.45 158.55 139 157.65 138.65Z" fill="#E8E8E8"/>
<path d="M533.6 428.9C567.7 426.75 601.6 422.15 635 415.1C644.65 413.05 654.25 410.8 663.8 408.35C664.75 408.1 664.35 406.65 663.4 406.9C630.3 415.35 596.6 421.45 562.6 425C552.95 426 543.3 426.8 533.65 427.4C532.65 427.45 532.65 428.95 533.6 428.9Z" fill="#E8E8E8"/>
<path d="M455.45 465C459.85 465.75 464.35 465.7 468.7 464.65C471.4 464 473.35 462.95 476.15 463.85C477.9 464.4 479.55 464.6 481.35 464.25C483.35 463.85 485.2 462.85 486.9 461.75C488.75 460.5 490.6 458.75 492.85 458.3C495.45 457.8 497.8 459.85 500.3 460.4C502.1 460.8 503.95 460.75 505.75 460.45C506.7 460.3 506.3 458.85 505.35 459C502.2 459.55 499.75 458.75 496.9 457.5C495.7 456.95 494.55 456.65 493.2 456.75C489.15 457.2 486.35 461 482.6 462.35C480.2 463.2 478.25 462.9 475.9 462.15C474.1 461.6 472.8 461.9 471.05 462.45C466.1 464 461.05 464.45 455.95 463.6C454.95 463.4 454.5 464.85 455.45 465Z" fill="#E8E8E8"/>
<path d="M207.7 530.05C246.55 530.05 285.4 530.05 324.25 530.05C326.2 530.05 326.2 527.05 324.25 527.05C285.4 527.05 246.55 527.05 207.7 527.05C205.75 527.05 205.75 530.05 207.7 530.05Z" fill="#333333"/>
<path d="M332.6 529.15C337.15 529.15 341.7 529.15 346.25 529.15C348.2 529.15 348.2 526.15 346.25 526.15C341.7 526.15 337.15 526.15 332.6 526.15C330.65 526.15 330.65 529.15 332.6 529.15Z" fill="#333333"/>
<path d="M356.35 528.7C357.8 528.7 359.3 528.7 360.75 528.7C362.7 528.7 362.7 525.7 360.75 525.7C359.3 525.7 357.8 525.7 356.35 525.7C354.4 525.7 354.4 528.7 356.35 528.7Z" fill="#333333"/>
<path d="M82.3498 541.05C111.1 541.05 139.8 541.05 168.55 541.05C170.5 541.05 170.5 538.05 168.55 538.05C139.8 538.05 111.1 538.05 82.3498 538.05C80.4498 538.05 80.4498 541.05 82.3498 541.05Z" fill="#333333"/>
<path d="M176.9 541.05C184.4 541.05 191.85 541.05 199.35 541.05C201.3 541.05 201.3 538.05 199.35 538.05C191.85 538.05 184.4 538.05 176.9 538.05C175 538.05 175 541.05 176.9 541.05Z" fill="#333333"/>
<path d="M212.1 540.15C212.55 540.15 213 540.15 213.4 540.15C214.2 540.15 214.95 539.45 214.9 538.65C214.85 537.85 214.25 537.15 213.4 537.15C212.95 537.15 212.5 537.15 212.1 537.15C211.3 537.15 210.55 537.85 210.6 538.65C210.65 539.45 211.25 540.15 212.1 540.15Z" fill="#333333"/>
<path d="M66.5499 541.45C67.5999 541.45 68.5999 541.45 69.6499 541.45C71.5999 541.45 71.5999 538.45 69.6499 538.45C68.5999 538.45 67.5999 538.45 66.5499 538.45C64.5999 538.45 64.5999 541.45 66.5499 541.45Z" fill="#333333"/>
<path d="M462.75 486.5C503.05 486.5 543.35 486.5 583.7 486.5C585.65 486.5 585.65 483.5 583.7 483.5C543.4 483.5 503.1 483.5 462.75 483.5C460.8 483.5 460.8 486.5 462.75 486.5Z" fill="#333333"/>
<path d="M599.5 484.75C636 484.75 672.5 484.75 709 484.75C710.95 484.75 710.95 481.75 709 481.75C672.5 481.75 636 481.75 599.5 481.75C597.6 481.75 597.6 484.75 599.5 484.75Z" fill="#333333"/>
<path d="M718.7 483.85C721.65 483.85 724.55 483.85 727.5 483.85C729.45 483.85 729.45 480.85 727.5 480.85C724.55 480.85 721.65 480.85 718.7 480.85C716.75 480.85 716.75 483.85 718.7 483.85Z" fill="#333333"/>
<path d="M680 467.15C688.35 467.15 696.7 467.15 705.05 467.15C707 467.15 707 464.15 705.05 464.15C696.7 464.15 688.35 464.15 680 464.15C678.05 464.15 678.05 467.15 680 467.15Z" fill="#333333"/>
<path d="M713.4 466.7C715.45 466.7 717.5 466.7 719.55 466.7C721.5 466.7 721.5 463.7 719.55 463.7C717.5 463.7 715.45 463.7 713.4 463.7C711.5 463.7 711.5 466.7 713.4 466.7Z" fill="#333333"/>
<path d="M438.55 495.3C449.25 495.3 459.95 495.3 470.65 495.3C472.6 495.3 472.6 492.3 470.65 492.3C459.95 492.3 449.25 492.3 438.55 492.3C436.65 492.3 436.65 495.3 438.55 495.3Z" fill="#333333"/>
<path d="M482.1 494.85C486.65 494.85 491.2 494.85 495.75 494.85C497.7 494.85 497.7 491.85 495.75 491.85C491.2 491.85 486.65 491.85 482.1 491.85C480.15 491.85 480.15 494.85 482.1 494.85Z" fill="#333333"/>
<path d="M501.9 502.35C505 502.35 508.05 502.35 511.15 502.35C513.1 502.35 513.1 499.35 511.15 499.35C508.05 499.35 505 499.35 501.9 499.35C499.95 499.35 499.95 502.35 501.9 502.35Z" fill="#333333"/>
<path d="M288.95 251.65C287.15 249.4 293.95 248 295.05 247.55C297.2 246.6 298.55 244.85 299.05 242.55C299.55 240.2 299.05 237.7 299.75 235.4C300.8 232 304.7 232.2 307.6 232.35C309.55 232.45 309.5 229.45 307.6 229.35C304.3 229.15 300.5 229.25 298.2 231.95C296.15 234.35 296.55 237.6 296.3 240.55C296.1 243.2 295.1 244.5 292.5 245.25C291 245.7 289.5 245.95 288.25 246.9C285.95 248.55 285 251.45 286.85 253.75C288 255.3 290.15 253.15 288.95 251.65Z" fill="#333333"/>
<path d="M299.6 254.15C298.25 252.55 301.35 250.95 302.35 250.35C303.7 249.55 304.85 248.8 305.85 247.6C307.9 245.15 309.25 240.5 312.95 240.3C314.85 240.2 314.9 237.2 312.95 237.3C306.8 237.6 306.3 244 302.1 247C300.3 248.25 298.15 248.95 297 250.95C295.95 252.75 296.15 254.7 297.45 256.25C298.7 257.75 300.85 255.6 299.6 254.15Z" fill="#333333"/>
<path d="M533.9 92.3C533.7 95.5 531.2 99.35 534.2 102.05C536.8 104.35 540.05 102.65 543 102.85C546.25 103.1 544.85 106.1 544.45 108.3C544.15 109.95 544 111.75 544.75 113.35C545.95 115.85 549.2 117.45 551.6 115.65C553.1 114.5 551.6 111.9 550.1 113.05C547.65 114.9 547.15 110.45 547.4 109.1C547.65 107.65 548.15 106.2 548.2 104.7C548.25 102.6 547.15 100.95 545.2 100.25C542.8 99.4 540.65 100.35 538.25 100.3C533.9 100.2 536.8 94.9 536.95 92.3C537.05 90.35 534.05 90.35 533.9 92.3Z" fill="#333333"/>
<path d="M551.1 95.75C549.85 98.45 548.65 101.65 550.65 104.35C551.4 105.35 552.4 105.95 553.6 106.15C554.4 106.25 555.45 105.9 556.15 106.2C557.3 106.65 557.95 108 557.4 109.2C556.55 110.95 559.15 112.45 560 110.7C561.05 108.45 560.65 105.85 558.65 104.2C557.55 103.3 556.55 103.3 555.2 103.15C551.55 102.8 552.55 99.75 553.7 97.3C554.5 95.55 551.9 94 551.1 95.75Z" fill="#333333"/>
<path d="M710.45 199.45C709.35 196.6 712 192.5 715.35 193.55C717.9 194.4 719.05 198.2 717.35 200.3C716.15 201.8 718.25 203.9 719.45 202.4C722.55 198.65 721 192.1 716.15 190.65C710.8 189.05 705.65 195.15 707.6 200.2C708.25 202.05 711.15 201.25 710.45 199.45Z" fill="#333333"/>
<path d="M126.75 318.15C126.45 314.6 130.95 312.6 132.85 315.95C134.45 318.85 131.3 321.4 128.55 320.45C126.75 319.8 125.95 322.7 127.75 323.35C133.3 325.35 138.55 319.05 135.2 314.05C131.6 308.7 123.25 311.85 123.8 318.15C123.9 320.05 126.9 320.1 126.75 318.15Z" fill="#333333"/>
<path d="M144.15 178C143 179.9 142.9 182.35 144.4 184.1C145.15 184.95 146.2 185.5 147.3 185.7C148.85 185.95 150 185.1 151.35 185.75C152.7 186.45 152.4 187.3 152.55 188.7C152.6 189.55 152.65 190.35 152.75 191.2C152.85 192.1 152.95 193 153.6 193.7C154.2 194.35 154.95 194.6 155.8 194.75C156.4 194.85 157 194.8 157.65 194.8C158.15 194.8 158.7 194.8 159.2 194.9C160.15 195.15 160.55 195.8 160.45 196.75C159.7 197.3 160.4 198.6 161.2 198.05C162.7 196.95 162.2 195.25 160.9 194.15C160.3 193.65 159.65 193.4 158.85 193.3C156.25 192.95 154.75 193.95 154.15 190.3C153.85 188.5 154.5 184.75 152.65 183.55C151.8 183 151.05 183.25 150.2 183.6C148.85 184.15 147.75 184.6 146.35 183.75C144.45 182.6 144.4 180.35 145.45 178.65C145.95 177.95 144.65 177.2 144.15 178Z" fill="#F9430E"/>
<path d="M164.35 183.95C163.35 185.7 162.15 188.35 163.7 190.15C164.7 191.35 166.4 191.2 167.7 191.95C169.75 193.1 170.7 195.5 170.3 197.75C170.15 198.7 171.6 199.1 171.75 198.15C172.15 195.9 171.65 193.7 170.1 192C169.45 191.25 168.6 190.7 167.7 190.3C166.65 189.85 164.85 189.3 164.5 188C164.25 187.05 165.25 185.45 165.65 184.7C166.1 183.85 164.8 183.1 164.35 183.95Z" fill="#F9430E"/>
<path d="M445.8 341.85C444.1 338.35 447.3 334.25 451.1 335.6C455.05 337 454.9 342.4 451.15 343.9C450.25 344.25 450.65 345.7 451.55 345.35C456.4 343.4 457.05 336.45 452 334.35C446.8 332.15 442.2 337.8 444.55 342.65C444.95 343.5 446.25 342.7 445.8 341.85Z" fill="#F9430E"/>
<path d="M261.65 330C258.45 329.35 263.6 325.9 264.15 325.55C264.95 325 265.7 324.4 266.1 323.45C267.45 320.4 265 314.3 270.4 314C271.35 313.95 271.35 312.45 270.4 312.5C268.3 312.6 266.75 313.75 265.8 315.55C264.25 318.45 266.1 322.4 263.1 324.4C261.4 325.55 259.6 326.3 259.4 328.55C259.3 329.9 259.85 331.1 261.25 331.4C262.2 331.65 262.6 330.2 261.65 330Z" fill="#F9430E"/>
<path d="M271.25 325.65C269.85 323.7 270.65 320.95 273 320.2C274.6 319.7 275.8 319.95 276.7 318.3C277.6 316.6 277.45 314.6 278.45 312.85C279.7 310.6 281.8 309.05 284.2 308.3C285.1 308 284.75 306.55 283.8 306.85C281.55 307.55 279.6 308.8 278.15 310.65C277.4 311.6 276.75 312.7 276.35 313.9C275.8 315.5 276.05 317.65 274.25 318.5C273.15 319.05 272.05 318.75 271 319.55C270.3 320.05 269.8 320.8 269.5 321.55C268.8 323.2 268.95 324.95 270 326.4C270.5 327.2 271.8 326.45 271.25 325.65Z" fill="#F9430E"/>
<path d="M220.4 95.7C219.5 93.9 223.35 94.55 223.5 94.6C224.05 94.8 224.6 95.25 225.1 95.55C225.9 96 226.8 96.45 227.75 96.5C229 96.55 230.05 96 230.85 95.1C233.15 92.3 232.3 85.05 237.7 87.2C239.3 87.85 241.1 88.8 242.85 88C244.25 87.35 244.55 85.95 244.35 84.55C244.25 83.85 243.45 82.45 243.65 81.75C244.05 80.4 245.3 80.3 246.25 80.75C246.7 80.95 247.1 81.25 247.6 81.4C249.1 81.95 250.55 81.85 251.45 80.45C251.95 79.65 250.65 78.9 250.15 79.7C249.15 81.3 245.15 78 243.35 79C241.9 79.75 241.95 81.25 242.3 82.65C242.7 84.3 243.7 86.7 240.65 86.65C239.3 86.65 238.05 85.5 236.75 85.25C235.2 84.95 233.8 85.35 232.8 86.55C230.3 89.5 231.25 97.2 225.45 94.05C223.75 93.15 222.35 92.25 220.45 93.1C219 93.75 218.3 95 219.05 96.45C219.55 97.3 220.8 96.55 220.4 95.7Z" fill="#116D9E"/>
<path d="M279.95 136.5C277.7 135.95 277.4 133.05 278.5 131.35C280.05 128.95 283.7 129.1 286.15 129.55C290.25 130.3 294.05 131.9 298.2 130.35C302.2 128.85 305.2 125.6 309.7 125.5C314.4 125.4 318.85 127.45 323.6 127.3C331.9 127.05 339.45 122.95 347.4 121.05C352.1 119.9 356.7 119.8 361.4 121C365.9 122.15 370.1 124 374.6 125.1C379.3 126.3 383.95 126.1 388.7 125.7C393.9 125.3 399.25 124.9 403.95 127.6C403.85 127.3 403.7 127.05 403.6 126.75C401.1 134.1 393 137.1 385.85 137.5C376.9 138 368.2 134.75 359.2 135.1C350.1 135.45 342.4 141 333.45 141.85C324.3 142.75 315.65 138.4 306.55 138.65C297.3 138.9 285.25 143.95 277.95 135.7C277.3 135 276.25 136.05 276.9 136.75C282.65 143.2 291.75 142.05 299.4 140.9C305.05 140.05 310.2 140 315.85 141.1C320.65 142.05 325.45 143.35 330.35 143.45C340.25 143.7 348.6 137.3 358.35 136.65C368.2 136 377.75 139.95 387.6 138.85C394.95 138.05 402.6 134.6 405.1 127.1C405.2 126.8 405.05 126.4 404.75 126.25C395.95 121.1 385.35 125.95 375.9 123.8C370.7 122.6 365.85 120.3 360.6 119.2C356.05 118.2 351.55 118.45 347.05 119.55C342.25 120.7 337.7 122.6 333 124.05C327.6 125.7 322.45 126.2 316.85 125.05C312.4 124.1 308.3 123.35 304.1 125.45C302.15 126.45 300.35 127.8 298.35 128.7C294.95 130.2 291.7 129.3 288.25 128.45C284.6 127.6 279.1 127 277.05 131.05C275.75 133.6 276.65 137.25 279.65 137.95C280.5 138.15 280.9 136.7 279.95 136.5Z" fill="#E8E8E8"/>
<path d="M71.7498 213.55C78.5498 212.65 84.9998 216.15 91.7498 215.3C94.4998 214.95 97.0498 213.75 99.5998 212.7C100.8 212.2 102.05 211.75 103.35 211.45C105.8 210.9 108 211.55 110.4 212.05C117.1 213.5 124.6 211.9 131.3 210.95C134.6 210.5 137.85 210 141.15 209.45C144.9 208.8 148.65 207.8 152.4 207.4C156.35 207 161 208.75 159.4 213.6C158.05 217.75 153 218.95 149.2 219.25C142.6 219.75 136.05 217.85 129.45 219.1C123.3 220.25 117.8 223.45 111.85 225.2C108.55 226.2 105.25 226.6 101.85 226.15C98.4498 225.65 95.2498 224.8 91.7498 225.05C84.6498 225.5 77.0998 229.65 69.9998 228C65.6498 227 63.3998 223 65.4998 218.85C67.5498 214.85 72.2498 213.8 76.3498 213.8C77.2998 213.8 77.2998 212.3 76.3498 212.3C70.5998 212.3 63.7998 214.8 63.1998 221.4C62.6498 227.5 68.6498 230 73.7998 229.8C77.5498 229.65 81.2498 228.55 84.8998 227.7C89.6498 226.6 93.9998 226.2 98.7998 227.1C102.35 227.75 105.65 228.1 109.25 227.4C112.95 226.7 116.45 225.2 119.9 223.8C123.4 222.4 126.95 220.95 130.7 220.4C135.1 219.75 139.5 220.45 143.9 220.7C149.65 221.05 158.8 220.8 160.9 214C161.65 211.55 161.1 208.7 158.95 207.1C156.85 205.55 154 205.65 151.55 205.95C142.55 207.2 133.7 209.25 124.6 210.25C119.5 210.8 114.6 211.45 109.6 210.25C105.55 209.25 102.35 209.95 98.5498 211.5C96.5498 212.3 94.5998 213.2 92.4998 213.6C89.8998 214.1 87.1998 213.75 84.5998 213.3C80.3498 212.5 76.1998 211.4 71.8998 211.95C70.7998 212.15 70.7998 213.65 71.7498 213.55Z" fill="#E8E8E8"/>
<path d="M681 273C671.55 276.3 660.5 268.5 653.7 262.6C653.6 263 653.5 263.45 653.35 263.85C658.15 261.9 663.2 261.8 668.3 262.1C673.35 262.35 678.4 262.7 683.45 262.85C694.2 263.15 705 262.9 715.7 262.1C721.25 261.7 726.75 261.15 732.25 260.5C734.95 260.15 738.2 259.5 740.75 260.75C744.3 262.55 744 266.45 740.6 267.95C738.85 268.7 736.95 268.95 735.1 269.3C732.2 269.8 729.3 270.35 726.4 270.85C721.1 271.8 715.8 272.75 710.45 273.7C707.4 274.25 704.35 274.8 701.3 275.35C698.45 275.85 695.5 276.6 692.55 276.65C687.55 276.7 683.8 272.3 678.8 272.85C677.85 272.95 677.85 274.45 678.8 274.35C681.65 274 683.9 275.55 686.35 276.7C688.35 277.65 690.3 278.15 692.5 278.15C698.25 278.1 704.2 276.35 709.85 275.3C715.95 274.2 722.1 273.1 728.2 272C731.1 271.5 734 270.95 736.9 270.45C738.85 270.1 740.9 269.65 742.6 268.5C745.45 266.55 745.55 262.95 743.15 260.6C739.4 256.9 732.95 258.85 728.4 259.35C716.1 260.7 703.7 261.4 691.3 261.35C684.5 261.35 677.7 261.1 670.9 260.65C664.85 260.3 658.7 260 653 262.3C652.55 262.5 652.2 263.15 652.65 263.55C659.85 269.8 671.35 277.85 681.4 274.35C682.3 274.15 681.95 272.7 681 273Z" fill="#E8E8E8"/>
<path d="M451.7 537.15C451.25 534.3 455.3 534.75 456.9 535.3C458.15 535.7 459.35 536.2 460.65 536.35C463.75 536.75 466.8 535.7 469.7 534.75C472.5 533.8 475.45 532.75 478.45 533.05C482.05 533.4 484.95 536.35 484.4 540.15C483.8 544.1 479.75 545.95 476.15 544.85C473.7 544.1 471.55 542.55 469 542.15C463.6 541.35 457.95 546.05 452.75 543.55C451.9 543.15 451.1 544.4 452 544.85C455.1 546.35 458.2 545.65 461.35 544.75C463.35 544.2 465.45 543.5 467.55 543.55C470 543.6 472 544.8 474.15 545.7C477.2 547 480.4 547.25 483.1 545.05C485.4 543.2 486.4 540.25 485.7 537.4C483.6 529.15 474.1 531.7 468.4 533.6C465.7 534.5 462.85 535.35 459.95 534.75C458.1 534.35 456.35 533.2 454.35 533.25C451.95 533.3 449.8 535.05 450.2 537.55C450.4 538.5 451.85 538.1 451.7 537.15Z" fill="#E8E8E8"/>
<path d="M394.05 520.5C396.45 518.25 399.75 517.3 403 518C404.35 518.3 408.1 519.3 405.75 521.1C404.5 522.05 401.75 521.95 400.25 521.95C399.3 521.95 399.3 523.45 400.25 523.45C402.45 523.45 406.3 523.35 407.95 521.6C409.35 520.1 407.75 518.45 406.4 517.7C402.1 515.2 396.55 516.15 393 519.45C392.3 520.1 393.35 521.15 394.05 520.5Z" fill="#E8E8E8"/>
<path d="M366.25 553.65C365.85 553.5 365.5 553.35 365.1 553.2C365.05 553.6 365 554 364.95 554.4C368 552.2 371.45 553.8 374.7 554.55C377.45 555.2 379.85 554.9 382.55 554.25C385.9 553.45 389.3 552.95 392.75 552.75C394.35 552.65 395.95 552.6 397.55 552.55C399.05 552.5 402.8 551.75 401.5 554.3C399.95 557.35 395.45 557.45 392.7 556.55C390.35 555.8 388.15 554.7 385.65 555.3C383.05 555.9 380.85 557.55 378.15 558.1C374.55 558.85 371 558.5 367.55 557.25C366.65 556.95 366.25 558.35 367.15 558.7C370.55 559.9 374.1 560.3 377.7 559.7C381.75 559 385.35 555.85 389.55 557C392.55 557.85 395 559.2 398.2 558.25C400.25 557.65 403.15 555.85 403.55 553.55C404.05 550.85 400.7 550.95 398.95 551C394.9 551.1 390.8 551.3 386.75 551.9C384.55 552.25 382.45 552.85 380.3 553.25C377.65 553.75 375.5 553.25 372.95 552.55C369.95 551.7 366.85 551.2 364.15 553.1C363.75 553.4 363.65 553.9 364 554.3C364.75 555.15 365.55 555.35 366.6 555.15C367.6 554.95 367.2 553.5 366.25 553.65Z" fill="#E8E8E8"/>
<path d="M572.75 525C575.65 523.8 578.7 523.15 581.85 523.2C585.1 523.25 587.85 524.5 590.95 525.2C595.5 526.3 598.9 523.5 602.6 521.35C608.45 517.9 614.25 520.15 620.35 521.4C624.7 522.3 629.35 522.45 633.1 519.8C633.9 519.25 633.15 517.95 632.35 518.5C627.65 521.9 621.85 520.25 616.7 519C611.85 517.85 607.05 517.2 602.5 519.7C600.5 520.8 598.65 522.25 596.55 523.2C593.35 524.65 590.75 523.5 587.65 522.6C582.6 521.15 577.25 521.55 572.4 523.55C571.45 523.9 571.85 525.35 572.75 525Z" fill="#E8E8E8"/>
<path d="M225.1 278.8C229.55 277.1 237.35 286.25 241.2 292.25C247.1 301.3 248.05 309.2 250.95 327.5C252.05 334.6 253.85 345.85 256.3 360.05C260.7 364.35 262.35 368.55 263 371.15C263.9 374.5 264.15 378.8 263 379.2C261.75 379.65 259.55 375.45 258.65 375.85C257.45 376.4 261.35 383.15 259 386.25C256.6 389.4 247.6 388.9 242.9 384.25C238.5 379.9 240.25 374.35 239.55 361.1C239.3 356.6 238.6 344.35 234.85 332.25C230.25 317.5 225.45 316.75 222.75 303.7C220.85 294.5 220.3 280.65 225.1 278.8Z" fill="white" stroke="#333333" stroke-width="2" stroke-miterlimit="10"/>
<path opacity="0.15" d="M231.7 291.7C234.45 291.1 239.25 303.55 239.55 304.25C243.95 315.75 241.85 320.65 243.8 337.6C245.4 351.4 246.3 359.25 250.75 368.95C255.05 378.25 260.05 383.7 258.15 386.2C256.25 388.75 248.8 386.3 242.95 383.95C242.4 382.7 241.6 380.75 240.95 378.35C239.3 372.5 239.4 367.85 239.4 365.6C239.4 364.35 239.35 349.85 236.5 337.2C234.95 330.45 234.25 331.45 232.45 324.45C228.5 309.25 228.65 292.35 231.7 291.7Z" fill="#BDBDBD"/>
<path opacity="0.17" d="M238.45 315.9C239 321.1 239.7 328.85 240 338.3C240.45 352.85 239.75 364.95 239.35 364.95C239 364.95 239.45 356.25 237.55 344.35C236.3 336.45 234.45 330.05 233.05 325.8C234 324.85 235.15 323.55 236.2 321.75C237.5 319.45 238.15 317.35 238.45 315.9Z" fill="#BDBDBD"/>
<path d="M235 493.25C233.7 495.65 233.5 498.25 236.5 520.9C236.85 523.7 237.2 526 237.4 527.6C245.05 528.8 255.85 529.75 268.65 528.5C276.4 527.75 285.45 526.9 285.95 523.95C286.35 521.55 281.1 517.25 257.1 509.05C256 501.05 254.85 493.05 253.75 485.05C239.7 486 236.05 491.4 235 493.25Z" fill="#333333"/>
<path d="M204.85 350.7C209.55 357.1 216.25 366.3 224.1 377.55C242.7 404.15 252 417.45 255.25 426.35C264.85 452.7 262.35 478.3 261.4 487C260.85 492 260.15 496.1 259.6 498.9C255.8 500.35 250.35 501.95 243.7 502.5C237.75 503 232.65 502.45 228.9 501.8C227.75 495 226.8 487.35 226.35 479.05C225.7 466.7 226.3 455.65 227.45 446.2C214.6 436.35 206.3 426.2 201.25 419.15C187.75 400.1 184.15 383.6 182 373C178.95 358.3 181.05 354.3 183 352.2C189.5 345.45 203.6 350.3 204.85 350.7Z" fill="white" stroke="#333333" stroke-width="2" stroke-miterlimit="10"/>
<path opacity="0.19" d="M206.3 392.9C211.45 397.25 218.15 403.7 224.65 412.55C226.45 415.05 233.9 425.7 240.45 442.8C249.45 466.5 250.2 488.6 249.8 501.1C247.6 501.9 244.5 502.75 240.8 503.05C235.85 503.4 231.8 502.55 229.2 501.75C227.6 492 226.4 480.75 226.3 468.25C226.25 460.15 226.6 452.6 227.25 445.7C226 445 201.85 431.4 202.15 408.65C202.2 402.3 204.2 396.9 206.3 392.9Z" fill="#BDBDBD"/>
<path opacity="0.15" d="M212.75 431.2C213.85 429.7 227.6 433.9 233.05 444.1C237.15 451.75 233.85 457.65 234 468.55C234.1 476.7 236.2 488.3 245.25 502.35C240 502.25 234.75 502.15 229.45 502.05C228 492.75 226.85 482.15 226.55 470.5C226.3 461.3 226.6 452.8 227.2 445.05C225.25 444.05 222.75 442.5 220.1 440.2C217.15 437.6 211.95 432.3 212.75 431.2Z" fill="#BDBDBD"/>
<path d="M146.65 489.3C142.85 491.75 142.2 495.15 138.75 502.65C136.35 507.85 132.75 514.8 127.2 522.7C130.35 526.25 135.6 531.2 143.3 534.85C153.85 539.85 168.65 542.25 170.95 537.9C173.4 533.2 160.55 522.05 156.7 518.75C157.75 516.4 159.45 512.65 161.55 508.1C167.1 496.2 168.2 494.45 167.3 492.3C165.2 487.2 153.55 484.9 146.65 489.3Z" fill="#333333"/>
<path d="M162.7 339.4C159.7 347.65 156.65 355.9 153.65 364.1C148.7 378.4 150.85 388.3 152.45 393.05C154.2 398.3 157.25 402.8 163.3 411.75C168 418.65 172.25 424.2 175.35 428.05C169.15 434.5 162.1 442.85 155.45 453.35C146.5 467.55 141.2 480.9 137.95 491.35C140.9 493.6 145.35 496.45 151.2 498.6C157.75 501 163.55 501.55 167.5 501.6C174.45 496.25 183.95 487.9 192.8 475.65C199.75 466.1 209.1 453.25 212.1 435.25C217.2 404.6 200.55 379.65 194.6 370.75C183.85 354.6 170.95 344.8 162.7 339.4Z" fill="white" stroke="#333333" stroke-width="2" stroke-miterlimit="10"/>
<path d="M183.75 357.4C187.6 362.75 191.4 368.15 195.05 373.6C195.5 373.35 195.9 373.1 196.35 372.85C193.1 368.5 190.2 363.85 187.7 359C187.35 359.35 187 359.7 186.65 360.05C188.7 361.45 189.85 363.55 191.1 365.6C192.55 368 194.05 370.4 195.5 372.8C198.35 377.45 201.2 382.15 204.05 386.8C204.5 386.55 204.9 386.3 205.35 386.05C201 379.25 196.65 372.45 192.25 365.65C191.75 364.85 190.45 365.6 190.95 366.4C196.35 375.4 201.8 384.35 207.2 393.35C207.7 394.2 209 393.45 208.5 392.6C204.55 385.9 200.65 379.15 196.7 372.45C196.3 372.75 195.9 373.05 195.5 373.35C201.15 379.6 202.15 388.7 208.3 394.55C209 395.2 210.05 394.15 209.35 393.5C203.2 387.7 202.2 378.55 196.55 372.3C195.95 371.65 194.95 372.5 195.35 373.2C199.3 379.9 203.2 386.65 207.15 393.35C207.6 393.1 208 392.85 208.45 392.6C203.05 383.6 197.6 374.65 192.2 365.65C191.75 365.9 191.35 366.15 190.9 366.4C195.25 373.2 199.6 380 204 386.8C204.5 387.6 205.8 386.85 205.3 386.05C202.1 380.8 198.9 375.55 195.7 370.35C193.35 366.45 191.2 361.4 187.3 358.75C186.65 358.3 185.95 359.15 186.25 359.8C188.75 364.65 191.6 369.25 194.9 373.65C195.45 374.4 196.75 373.7 196.2 372.9C192.55 367.4 188.8 362 184.9 356.7C184.5 355.85 183.2 356.6 183.75 357.4Z" fill="white"/>
<path opacity="0.2" d="M186.9 359.6C184.3 363.35 180.7 369.55 179.15 377.7C174.4 402.4 194.4 413.35 189.95 435C187.6 446.4 181.65 445.35 168.35 469.05C161.6 481.1 157.3 491.7 154.75 498.9C151.5 497.9 147.95 496.6 144.2 494.9C142 493.9 139.95 492.9 138.1 491.85C141.05 482.65 145.5 471.55 152.2 459.65C159.8 446.2 168.15 435.7 175.2 427.95C173.25 425.45 170.35 421.65 167 416.9C157.75 403.8 153.05 397.1 151.5 389.4C149.75 380.9 151.2 373.65 152.2 368.75C153.7 361.35 156.25 355.55 158.3 351.6C167.8 354.25 177.35 356.95 186.9 359.6Z" fill="#BDBDBD"/>
<path opacity="0.17" d="M175.15 356.55C169.5 363 162.1 373.6 162.7 386.4C163.6 406.45 183.4 414.1 180.55 430.55C179.75 435.1 173.45 442.4 160.8 456.85C153.85 464.8 147.95 471.15 143.9 475.4C147 467.8 151.5 458.7 158 449.1C163.75 440.6 169.65 433.8 174.9 428.45C173.35 426.1 170.6 421.9 167.15 416.7C155.1 398.6 152.75 395.75 151.4 389.45C149.8 382.05 150.85 375.8 151.65 371.15C153.1 362.5 156.15 355.85 158.45 351.65C164 353.25 169.6 354.9 175.15 356.55Z" fill="#BDBDBD"/>
<path d="M201 269.55C193.9 273.75 180.4 283 170.1 300C157 321.65 157 342.8 157.45 351C159.9 351.8 162.4 352.6 164.95 353.35C182 358.45 198.5 361.9 214.1 364.1C215.4 359.65 216.8 355.15 218.3 350.5C220.55 343.65 222.9 337.1 225.3 330.85C233.6 326.55 236.5 321 237.45 318.7C241.3 309.7 237.65 300.3 233.7 290.15C231.5 284.45 230.35 281.55 227.6 278.45C219 268.7 204.8 269.3 201 269.55Z" fill="#F9430E"/>
<path opacity="0.27" d="M217.85 281.4C204.2 283.2 196.9 289.4 193.95 292.3C177.3 308.75 183.05 336.5 184.6 344C186 350.75 188.1 356.15 189.75 359.8C179.2 356.95 168.7 354.05 158.15 351.2C157.5 343.55 156.85 323.9 168.2 302.95C178.75 283.55 193.9 273.6 200.65 269.7C201.6 269.75 202.55 269.85 203.5 269.9C204.95 271.6 206.7 273.4 208.85 275.25C212.05 278.05 215.2 280 217.85 281.4Z" fill="#BDBDBD"/>
<path opacity="0.2" d="M174.1 293.95C172.7 301.3 171.55 311.95 173.05 324.55C174.85 339.35 179.6 350.8 183.3 358C174.7 355.8 166.05 353.6 157.45 351.45C157.05 344.55 157.25 334.2 160.55 322.3C164.15 309.3 169.95 299.8 174.1 293.95Z" fill="#BDBDBD"/>
<path d="M596.8 459.15C593.65 466.2 594.25 472.8 594.75 475.9C604.6 480.25 613.35 482.25 620.05 483.25C622.25 483.6 649.45 487.45 652.1 480C652.75 478.15 651.7 476.25 650.65 474.4C644.8 464.15 630 463.55 628 463.5C627.45 452.85 620.6 444.95 613.6 444.4C603.7 443.65 597.5 457.6 596.8 459.15Z" fill="#333333"/>
<path d="M609.8 287.15C616.3 296.5 625.05 311.05 631.4 330.35C641.75 361.8 640.05 388.2 638.9 403.15C637.9 416.45 635.2 435.35 627.65 457.15C625.6 458.45 616.55 463.85 605.1 461.4C598.3 459.95 593.7 456.35 591.5 454.35C595.55 445.45 600.45 432.05 602.3 415.35C604.35 397.15 601.85 382.9 598.55 364.6C591.05 323.25 580.7 307.55 589.65 296C593.95 290.4 601.3 287.9 609.8 287.15Z" fill="white" stroke="#333333" stroke-width="2" stroke-miterlimit="10"/>
<path opacity="0.16" d="M613.35 310C616.75 326.55 619.45 345.55 620.5 366.65C622.3 404.1 618.25 436.4 613 461.55C610.75 461.85 605.3 462.2 599.5 459.3C596.05 457.55 593.7 455.25 592.35 453.65C598.6 439.25 600.85 427 601.75 418.75C603.15 405.8 602 395.4 599.85 376C598.6 364.65 597.15 355.35 596.1 349C601.85 336.05 607.6 323 613.35 310Z" fill="#BDBDBD"/>
<path opacity="0.22" d="M602.4 334.9C606.7 346.1 613.15 367.45 610.95 394.6C608.85 420.75 599.65 440.2 593.8 450.5C603.6 422.2 604.1 404.85 602.6 394.1C602.2 391.35 600.5 380.45 598.55 364.4C597.75 357.75 597.15 352.3 596.8 348.8C598.7 344.15 600.55 339.5 602.4 334.9Z" fill="#BDBDBD"/>
<path d="M524.45 437.5C520.3 439.55 519.05 442.9 513.35 453.75C509.55 460.95 506.35 466.7 504.25 470.4C510.65 475 520.8 481.05 534.35 484.25C542.35 486.15 559 488.8 560.9 484.25C563 479.2 545.9 467.55 538.7 462.85C546.1 455.65 546.45 445.2 541.45 439.85C537.2 435.3 529.5 435 524.45 437.5Z" fill="#333333"/>
<path d="M596.95 286.1C613.45 300.65 594.15 349.15 578.3 387.95C571.45 404.7 560.75 428.95 545 457.3C542.25 457.7 534 458.5 525.2 453.75C516.35 449 512.5 441.55 511.35 439.1C515.95 431.15 521.5 420.45 526.8 407.4C528.9 402.25 537.95 379.25 543.05 346.75C545.05 333.9 546.85 316.95 546.6 296.8C549.55 293.8 566 277.65 585.45 281.35C588.4 281.9 593.25 282.85 596.95 286.1Z" fill="white" stroke="#333333" stroke-width="2" stroke-miterlimit="10"/>
<path d="M602.3 306.1C602.25 307.85 602.2 309.6 602.2 311.35C602.7 311.35 603.2 311.35 603.7 311.35C603.45 308.55 603.6 305.9 604.15 303.15C603.65 303.1 603.15 303 602.7 302.95C603 308.85 601.65 315.05 600.6 320.85C599.55 326.7 598.15 332.5 596.5 338.2C597 338.35 597.45 338.45 597.95 338.6C600.7 328.2 603 317.75 604.9 307.15C605.05 306.2 603.6 305.8 603.45 306.75C601.55 317.3 599.25 327.8 596.5 338.2C596.25 339.15 597.7 339.55 597.95 338.6C599.7 332.6 601.1 326.45 602.2 320.3C603.2 314.7 604.5 308.65 604.2 302.95C604.15 302.15 602.9 301.9 602.75 302.75C602.15 305.6 602 308.45 602.25 311.35C602.35 312.3 603.75 312.35 603.75 311.35C603.8 309.6 603.85 307.85 603.85 306.1C603.85 305.15 602.35 305.15 602.3 306.1Z" fill="white"/>
<path d="M595.95 335.05C596 338.9 596.1 342.75 596.15 346.6C596.15 347.55 597.65 347.55 597.65 346.6C597.6 342.75 597.5 338.9 597.45 335.05C597.4 334.05 595.9 334.05 595.95 335.05Z" fill="white"/>
<path opacity="0.19" d="M575.15 301.65C575.3 311.7 574.75 325.4 571.8 341.3C568.65 358.15 563.85 371.2 556.85 390.85C551.15 406.95 548.4 411.75 542.6 429.6C539.05 440.45 536.55 449.55 534.95 455.65C532.2 455.3 526.5 454.15 520.8 449.9C515.5 445.95 512.8 441.25 511.6 438.8C520.8 422.65 526.65 408.5 530.35 398.2C541.8 366.35 544.5 338.65 546.05 321.6C546.7 314.5 547.05 308.6 547.2 304.75C556.5 303.7 565.85 302.7 575.15 301.65Z" fill="#BDBDBD"/>
<path opacity="0.24" d="M570 303.1C566.1 320.25 561.6 333.75 558.05 343.2C555.15 351 550.7 361.5 541.85 382.45C538.6 390.2 536.95 394.05 536.15 395.8C531.25 406.8 523.4 422.25 510.85 440.45C522.1 420.25 535 391.45 541.85 355.15C545.3 336.85 546.55 320.15 546.7 305.7C546.65 305.65 546.65 305.65 570 303.1Z" fill="#BDBDBD"/>
<path d="M585.8 180.15C586.6 182.1 588 184.95 590.55 187.85C592.4 189.95 594.75 192.65 598.25 193.7C605.05 195.8 611.65 190.4 612.55 189.65C619.15 193.55 625.75 197.45 632.3 201.35C632.9 209.5 632.95 221.8 629.75 236.15C626.7 249.8 623.75 251.45 621.35 264.7C617.7 284.6 620.4 302.35 619.5 302.4C619.35 302.4 619.15 302 618.75 299.85C593 301.8 567.25 303.75 541.5 305.7C540.75 290.25 540.85 277.25 541.15 267.65C541.55 252.65 542.75 234.5 547.75 213.45C551.3 198.4 554.1 193.3 558.35 189.3C567.55 180.55 580.15 180 585.8 180.15Z" fill="#116D9E"/>
<path opacity="0.3" d="M615.6 191.45C614.75 200.6 613.15 214.2 610.1 230.5C609.2 235.4 606.65 248.9 604.6 255.5C602.1 263.6 592.35 286.75 544.65 305.55C559.2 303.85 574.2 302.35 589.55 301.1C599.15 300.3 608.65 299.6 618 299.05C621.3 287.3 624.35 274 626.55 259.3C629.9 237.05 630.55 216.95 630 200C625.2 197.15 620.4 194.3 615.6 191.45Z" fill="#014A71"/>
<path d="M595 150.05C593.25 159 592.45 168.9 585.2 179.85C584.2 181.35 583.35 182.5 582.75 183.25C583.35 184.45 589.7 196.75 603.2 198.6C610.9 199.65 616.95 196.7 619.25 195.45C618.9 192.45 618.7 188.85 619 184.8C619.4 178.85 620.65 173.9 621.9 170.15C627.7 169.4 633.45 168.65 639.25 167.9C640.4 165.35 641.5 162.8 642.65 160.2C644.25 160.15 645.8 160.1 647.4 160.05C646.2 156.55 644.4 151 642.3 144.15C638.4 131.25 638.45 129.4 636.35 126.5C630.55 118.55 617.55 113.5 609 117.75C600.75 121.8 598.25 133.35 595 150.05Z" fill="white" stroke="#333333" stroke-width="2" stroke-miterlimit="10"/>
<path d="M647.15 159.35C644.3 159.4 641.5 159.2 638.7 158.8C637.75 158.65 637.35 160.1 638.3 160.25C641.25 160.7 644.15 160.9 647.15 160.85C648.15 160.85 648.15 159.35 647.15 159.35Z" fill="#333333"/>
<path d="M649.15 136.4C646.6 135 643.55 135.8 641.9 138.15C641.35 138.95 642.65 139.7 643.2 138.9C644.35 137.25 646.65 136.75 648.4 137.7C649.25 138.15 650 136.85 649.15 136.4Z" fill="#333333"/>
<path d="M647.85 145.4C648.1 144.25 648.05 143.1 647.5 142.05C647.1 141.3 646.25 140.4 645.3 140.8C644.3 141.2 644.35 142.6 644.55 143.45C644.75 144.5 645.3 145.45 646.1 146.15C646.55 146.55 647.4 146.3 647.4 145.6C647.4 144.35 647.1 143.25 646.55 142.1C646.15 141.25 644.85 142 645.25 142.85C645.65 143.7 645.85 144.6 645.9 145.55C646.35 145.35 646.75 145.2 647.2 145C646.35 144.3 646.05 143.4 646 142.35C646.05 142.25 646 142.15 645.85 142.15C645.95 142.2 646.05 142.3 646.1 142.4C646.25 142.6 646.4 142.9 646.45 143.15C646.65 143.75 646.65 144.3 646.5 144.9C646.15 145.95 647.6 146.35 647.85 145.4Z" fill="#333333"/>
<path d="M634.65 138.4C631.75 137.45 628.7 138.65 627 141.15C626.45 141.95 627.75 142.7 628.3 141.9C629.6 139.95 632 139.15 634.25 139.85C635.15 140.1 635.55 138.7 634.65 138.4Z" fill="#333333"/>
<path d="M635.45 146.75C635.55 145.4 635 143.3 633.6 142.75C631.75 142 631.75 144.6 631.95 145.7C632.2 146.8 633.1 148.85 634.6 148C635.2 147.65 635.3 147 635.1 146.4C634.75 145.45 634.2 144.6 633.8 143.7C633.4 144 633 144.3 632.6 144.6C632.8 144.8 632.95 145 633 145.3C633.25 146.25 634.7 145.85 634.45 144.9C634.3 144.35 634.05 143.95 633.65 143.55C633 142.95 632.1 143.7 632.45 144.45C632.65 144.8 632.8 145.15 633 145.55C633.15 145.85 633.3 146.4 633.55 146.65C633.65 147 633.75 147 633.9 146.65C633.85 146.55 633.75 146.4 633.7 146.3C633.55 146 633.45 145.7 633.4 145.35C633.35 145.05 633.4 144.65 633.3 144.35C633.35 144.15 633.3 144.1 633.25 144.35C633.35 144.5 633.5 144.65 633.55 144.8C633.9 145.4 634 146.1 633.95 146.8C633.85 147.7 635.35 147.7 635.45 146.75Z" fill="#333333"/>
<path d="M638.35 129.7C637.95 127.05 636.9 122.75 634.1 118.3C633.1 116.75 630.95 113.4 627.55 111.15C621.05 106.85 611.05 107.2 603.75 112.45C596.65 117.6 593.1 126.85 594.65 136C609.25 133.9 623.8 131.8 638.35 129.7Z" fill="#F9430E"/>
<path d="M662.25 124.9C639.8 127.75 617.4 130.6 594.95 133.45C592.1 133.8 592.1 138.3 594.95 137.95C617.4 135.1 639.8 132.25 662.25 129.4C665.05 129.05 665.1 124.55 662.25 124.9Z" fill="#333333"/>
<path d="M609.2 135.4C613.15 136.85 615.45 139.6 618.15 142.9C623.8 149.8 622.1 152.35 626.1 156.65C632.4 163.5 638.8 159.45 644.45 166.15C649.25 171.85 648.6 179.55 648.4 181.25C648.2 182.95 647.35 189.8 641.8 194.5C637 198.55 630.45 199.5 630.05 198.6C629.9 198.25 630.45 197.45 634 195.05C632.95 195.8 631.35 196.7 629.2 197.1C626.75 197.55 624.45 197.1 624.4 196.75C624.4 196.5 625.7 196.5 626.7 195.4C627.3 194.75 627.55 194 627.7 193.35C625.75 194.65 623.25 195.75 620.9 195.05C614.5 193.1 613.35 178.75 612.95 174C611.75 158.6 616.15 150.2 610.8 144.8C610.35 144.35 608.2 142.15 605.85 142.6C602.85 143.15 600.55 147.85 601.55 150.95C602.4 153.6 605.4 154.35 605.2 154.85C604.9 155.5 599.85 154.5 595.6 151.1C594.05 149.85 592.8 148.85 592.15 147C591 143.8 592.35 140.15 594.15 138C597.9 133.5 604.9 133.8 609.2 135.4Z" fill="#333333" stroke="#333333" stroke-width="2" stroke-miterlimit="10"/>
<path opacity="0.22" d="M603.25 155.25C604.2 155.35 605.55 155.4 605.65 155.05C605.7 154.9 605.35 154.65 605.35 154.65C605.35 154.65 606.5 156.1 607.9 156.3C608.6 156.4 609.15 156.15 609.55 155.95C607 161.3 604.4 167.8 602.25 175.3C600 183.05 598.75 190.15 598.1 196.2C595.9 195.5 591.9 193.9 588.2 190.3C585.5 187.7 583.95 184.95 583.05 183.1C586.05 178.6 587.8 174.65 588.85 171.95C589.8 169.45 590.15 167.8 591.85 162.1C593.25 157.5 594.35 153.7 595.1 151.1C595.5 151.45 596.1 152 596.9 152.55C598.05 153.35 600.3 154.9 603.25 155.25Z" fill="#BDBDBD"/>
<path d="M619.4 108.45C613.55 109.6 609.2 114.3 608.55 119.85C607.75 126.45 612.6 130.95 613.05 131.35C606.85 132.1 600.65 132.9 594.45 133.65C594.35 132.2 594.3 130.2 594.65 127.9C595.85 120.5 600.15 115.95 601.05 115C602.5 113.5 607.6 108.65 615.15 108.2C616.9 108.1 618.35 108.3 619.4 108.45Z" fill="#DC390A"/>
<path d="M630.8 200.85C634.8 200.25 638.9 207.2 640.8 210.4C651.8 229.1 647.2 250.7 645.8 257C644.7 261.95 642.65 270.7 636.25 280.35C630.15 289.65 622.95 295.4 618.35 298.55C610.65 301.5 596.65 305.55 579.8 302.8C573.95 301.85 568.85 300.25 564.6 298.55C557.4 299 550.2 299.4 543 299.85C541.85 299.65 540.25 299.35 538.35 298.65C536.05 297.8 533.85 296.95 533.85 296.15C533.85 295.25 536.35 293.85 548.55 291.95C547.95 292.05 539.95 293.6 534.6 288C529.6 282.8 529.3 273.9 533.1 270.4C536.3 267.45 541.5 268.75 551 271.3C560.4 273.8 567.95 277.2 573.45 280.1C575.55 281.05 591.9 288.1 606.85 279.5C618.25 272.95 622.05 261.2 622.95 257.95C626.55 245.05 620 240.5 622.35 221.85C622.65 218.65 624.8 201.7 630.8 200.85Z" fill="white" stroke="#333333" stroke-width="2" stroke-miterlimit="10"/>
<path d="M531.2 281.55C537 282 542.55 283.4 547.85 285.8C548.7 286.2 549.5 284.9 548.6 284.5C543.05 281.95 537.25 280.45 531.2 280C530.25 280 530.25 281.5 531.2 281.55Z" fill="#333333"/>
<path d="M530.85 275.45C537.5 275.25 543.15 279.3 549.35 281.2C550.25 281.5 550.65 280.05 549.75 279.75C543.45 277.8 537.7 273.75 530.85 273.95C529.9 274 529.85 275.5 530.85 275.45Z" fill="#333333"/>
<path d="M537.25 270.15C542.7 270.6 547.5 273.2 552.2 275.85C553.05 276.3 553.8 275.05 552.95 274.55C548 271.8 543 269.15 537.25 268.65C536.25 268.55 536.25 270.05 537.25 270.15Z" fill="#333333"/>
<path opacity="0.18" d="M624.7 210.05C621.75 221.9 629.6 229.9 632.25 243.45C632.7 245.85 636.25 265.3 625.85 279.1C614.25 294.5 591.25 295.05 586.75 295.2C575 295.5 570.55 292.05 552.15 293C550.4 293.1 534.4 294 534.25 296.25C534.2 297.45 538.65 298.8 542 299.25C546.4 299.85 548.7 298.85 554.3 298.4C556.7 298.2 560.15 298.05 564.4 298.4C569.5 300.5 576.1 302.55 584 303.35C586.15 303.55 592.85 304.15 601.45 302.9C601.45 302.9 608.65 301.9 614.35 299.9C628.5 295 642.5 274.35 646.45 251.85C650.9 226.5 641 207.4 635.45 203.15C634.7 202.55 632.55 200.9 630.3 201.45C626.65 202.25 625.15 208.2 624.7 210.05Z" fill="#BDBDBD"/>
<path opacity="0.17" d="M645.8 225.1C645 225.1 645 234.65 642.8 246.65C641.45 253.95 638.7 268.8 632.05 279.15C620.2 297.6 596 301.75 586.8 302.85C594.7 303.95 606.85 304.2 618.7 297.9C644.4 284.2 646.9 251.15 647.35 245.15C648.05 235.05 646.6 225.1 645.8 225.1Z" fill="#BDBDBD"/>
<path d="M214.05 414.3C234.75 395.9 255.55 377.6 276.45 359.45C315.85 325.2 355.6 291.4 395.75 258C392.6 248.65 388.55 232.45 390.95 212.75C391.7 206.5 398.1 160.45 440.3 136.65C443.8 134.65 492.25 108.45 537.65 137.35C567.6 156.4 583.1 191.15 579.45 225.1C574.05 275.55 529.25 297.9 526.65 299.15C494.35 314.55 455.5 310 426.55 287.5C383.05 323.3 339.65 359.15 296.3 395.1C277.3 410.85 258.35 426.6 239.4 442.4C235.45 440.5 228.9 436.7 223 429.75C218.05 423.95 215.45 418.15 214.05 414.3Z" fill="#333333"/>
<path d="M486.2 292.7C529.996 292.7 565.5 258.674 565.5 216.7C565.5 174.726 529.996 140.7 486.2 140.7C442.404 140.7 406.9 174.726 406.9 216.7C406.9 258.674 442.404 292.7 486.2 292.7Z" fill="white" stroke="#333333" stroke-width="2" stroke-miterlimit="10"/>
<path d="M492.65 144.9C478.15 175.6 462.9 206 446.95 236C442.45 244.45 437.9 252.9 433.3 261.3C432.85 262.15 434.15 262.9 434.6 262.05C450.95 232.25 466.6 202.1 481.5 171.55C485.7 162.95 489.85 154.3 494 145.6C494.4 144.8 493.1 144.05 492.65 144.9Z" fill="#E8E8E8"/>
<path d="M517.099 152.35C501.199 177.45 486.1 203 471.75 229C471.3 229.85 472.6 230.6 473.05 229.75C487.4 203.75 502.5 178.2 518.399 153.1C518.899 152.3 517.599 151.55 517.099 152.35Z" fill="#E8E8E8"/>
<path d="M469.1 237.8C462.5 250.65 455.45 263.3 447.9 275.65C447.4 276.5 448.7 277.25 449.2 276.4C456.7 264.05 463.8 251.4 470.399 238.55C470.849 237.7 469.55 236.9 469.1 237.8Z" fill="#E8E8E8"/>
<path d="M496.85 200.3C488.45 216.1 480.1 231.9 471.7 247.7C471.25 248.55 472.55 249.3 473 248.45C481.4 232.65 489.75 216.85 498.15 201.05C498.6 200.2 497.3 199.45 496.85 200.3Z" fill="#E8E8E8"/>
<path opacity="0.08" d="M483.85 140.45C478.3 142.45 441.75 156.15 430.05 192.85C428.7 197.1 424.5 210.8 427.65 226.65C433.7 256.85 463.9 281.3 503.4 289.5C500.4 290.5 496.2 291.7 491 292.35C459.6 296.3 435.25 274.9 432.4 272.35C426.2 266.7 407.05 247.5 406.7 217.1C406.65 214.45 406.8 184.45 429.55 162.8C442.8 150.2 458.3 145.6 464.8 143.75C472.4 141.6 479.05 140.8 483.85 140.45Z" fill="#BDBDBD"/>
<path d="M191.25 294.7C194.85 294.25 200.25 294.2 204.2 297.4C212.7 304.3 206.15 319.3 210.35 335.15C212.6 343.65 218.55 355.1 235.85 366.45C242.7 369.9 248.4 372.5 252.35 374.3C258 376.85 261.6 378.3 261.55 380.25C261.5 382.2 257.95 383.65 255.4 384.5C258.45 387.35 260 390.95 258.95 393.7C258.15 395.85 255.95 396.9 253.5 398.1C250.7 399.5 248.35 399.8 245.65 400.15C240.6 400.8 238.1 401.1 235.8 400.15C232.25 398.65 230.65 395.35 228.3 390.6C227 388 225.4 383.95 224.55 378.7C218.9 376.1 210.8 371.6 202.75 364.05C199.6 361.1 170.4 333.1 179.6 308.9C181 305.5 183.95 300 191.25 294.7Z" fill="white" stroke="#333333" stroke-width="2" stroke-miterlimit="10"/>
<path d="M235.95 393.95C237.2 396.7 239.1 399 241.55 400.85C242.3 401.45 243.05 400.15 242.3 399.55C240.1 397.9 238.4 395.7 237.25 393.2C236.85 392.35 235.55 393.1 235.95 393.95Z" fill="#333333"/>
<path d="M241.95 393.15C243.45 396.05 245.7 398.45 248.45 400.25C249.25 400.75 250 399.45 249.2 398.95C246.65 397.35 244.6 395.1 243.2 392.4C242.8 391.55 241.5 392.3 241.95 393.15Z" fill="#333333"/>
<path d="M248.25 389.75C249.65 392.7 252.05 395.05 255 396.45C255.85 396.85 256.65 395.55 255.75 395.15C253 393.85 250.85 391.75 249.55 389C249.1 388.1 247.85 388.85 248.25 389.75Z" fill="#333333"/>
<path opacity="0.2" d="M192.5 294.8C191.4 299.75 190.2 307.55 191.25 316.95C194 340.75 209.4 356.45 211.95 359C224.65 371.6 232.95 369.9 238 381.15C239.35 384.15 241.75 390.95 248.25 394.5C250.8 395.85 253.2 396.35 254.8 396.55C253.95 397.25 252.55 398.2 250.7 399C247.6 400.35 244.9 400.4 240.65 400.45C237.5 400.5 235.9 400.5 234.5 399.85C231.55 398.5 230.15 395.7 229.6 394.3C227.6 388.9 225.65 383.5 223.65 378.1C213.9 373.1 200.1 364.2 189.2 348.95C184.65 342.6 177.05 331.7 177.7 318.6C178 312.65 179.9 308.5 180.35 307.5C183.9 300.15 189.8 296.35 192.5 294.8Z" fill="#BDBDBD"/>
<path opacity="0.32" d="M178.35 321.65C178.65 321.55 180.55 327.55 184.3 334.55C193.45 351.85 206.65 362.45 216.1 369.85C220.4 373.2 224.05 375.7 226.35 377.25C229.15 381.95 230.75 386 231.7 388.95C232.5 391.4 232.95 393.6 234.8 395.9C236.7 398.4 239.15 399.8 240.95 400.6C239.6 400.65 237.55 400.55 235.4 399.55C231.3 397.65 229.5 393.7 227.6 389.5C226.5 387.1 225.2 383.5 224.5 378.85C198.4 365.65 188.6 349 184.9 341.1C181.1 333 177.95 321.85 178.35 321.65Z" fill="#BDBDBD"/>
<path d="M219.75 249.05C216.2 250.45 218.3 257.45 212.6 263.8C209.8 266.95 206.4 268.45 204.05 269.3C205.55 271.55 208.5 275.2 213.35 278.1C216.8 280.2 220.1 281.2 222.4 281.65C223.15 280.3 224.4 278.2 225.95 275.7C231.5 266.95 233.5 266 233.8 263.1C234.55 256 224.3 247.25 219.75 249.05Z" fill="white" stroke="#333333" stroke-width="2" stroke-miterlimit="10"/>
<path d="M219.1 262.55C221.15 266.65 223.3 270.7 226.7 273.85C227.4 274.5 228.45 273.45 227.75 272.8C224.45 269.75 222.4 265.75 220.4 261.8C219.95 260.95 218.65 261.7 219.1 262.55Z" fill="#333333"/>
<path d="M217.6 259.85C219.9 264.35 222.4 268.8 226.8 271.55C227.55 272 228.3 271 227.7 270.35C226.25 268.8 224.75 267.25 223.35 265.7C223 266.05 222.65 266.4 222.3 266.75C223.15 267.65 224.05 268.5 225.05 269.2C225.4 269.45 226.5 269.95 226.7 270.25C227 270.75 226.7 271.55 226.55 272.05C227.05 272.2 227.5 272.3 228 272.45C228.05 272.2 228.05 271.95 228.1 271.75C228.2 271.1 227.4 270.4 226.85 271C226.85 270.45 226.7 269.9 226.35 269.45C225.9 269.7 225.5 269.95 225.05 270.2C225.6 270.95 226.15 271.7 226.7 272.45C227.1 272.15 227.5 271.85 227.9 271.55C227.45 271.05 227.1 270.55 226.75 270C226.3 269.35 225.05 269.75 225.4 270.6C225.7 271.25 225.8 271.5 226.25 272.05C226.85 272.8 227.9 271.75 227.3 271C227.15 270.75 227 270.5 226.85 270.2C226.4 270.4 225.95 270.6 225.5 270.8C225.95 271.45 226.4 272.05 226.9 272.65C227.45 273.3 228.6 272.45 228.1 271.75C227.55 271 227 270.25 226.45 269.5C225.9 268.7 224.75 269.4 225.15 270.25C225.65 271.25 226.65 273.6 228 272.1C227.6 271.85 227.15 271.6 226.75 271.35C226.7 271.6 226.7 271.85 226.65 272.05C226.5 273 227.85 273.4 228.1 272.45C228.45 271.25 229.3 270.7 228.3 269.5C227.85 268.95 227.1 268.7 226.55 268.35C225.4 267.6 224.4 266.7 223.45 265.7C222.8 265 221.75 266.05 222.4 266.75C223.85 268.3 225.3 269.85 226.75 271.4C227.05 271 227.35 270.6 227.65 270.2C223.5 267.6 221.2 263.3 219 259.05C218.45 258.2 217.15 259 217.6 259.85Z" fill="#333333"/>
<path d="M265.75 235.8C264.75 240.25 262.7 246.85 258 253.65C249.75 265.6 238.55 270.65 233.75 272.5C231 271.45 227.4 269.6 224 266.45C214.7 257.8 214 245.95 213.9 242.9C212.9 242.65 211.45 242.1 210.2 240.9C207 237.8 206.25 231.65 209.2 229.1C212.55 226.2 218.95 229.75 219.65 230.1C221.2 230.95 222.3 232 223 232.8C225.75 224.5 232.35 218.25 240.2 216.95C250.9 215.2 262.6 223 265.75 235.8Z" fill="white" stroke="#333333" stroke-width="2" stroke-miterlimit="10"/>
<path d="M253.65 247.75C251.65 252.25 248.7 256.1 244.9 259.25C244.15 259.85 245.2 260.9 245.95 260.3C249.9 257.1 252.9 253.15 254.95 248.5C255.35 247.6 254.05 246.85 253.65 247.75Z" fill="#333333"/>
<path d="M243 255.9C242.8 257.6 243.4 259.25 244.55 260.5C245.2 261.2 246.25 260.15 245.6 259.45C244.7 258.45 244.35 257.25 244.5 255.9C244.6 254.95 243.1 254.95 243 255.9Z" fill="#333333"/>
<path d="M239.95 247.35C241.25 245.55 242.8 243.95 244.55 242.5C244.15 242.25 243.7 242 243.3 241.75C242.65 243.75 241.25 245.35 239.4 246.35C239.7 246.75 240 247.15 240.3 247.55C241.45 246.15 242.6 244.8 243.75 243.4C244.35 242.65 243.3 241.6 242.7 242.35C241.55 243.75 240.4 245.1 239.25 246.5C238.7 247.15 239.4 248.1 240.15 247.7C242.35 246.5 243.95 244.55 244.75 242.2C245 241.4 244.05 241.05 243.5 241.45C241.65 242.95 240.05 244.65 238.7 246.6C238.1 247.4 239.4 248.15 239.95 247.35Z" fill="#333333"/>
<path d="M256.55 251.75C257.2 250.65 258.05 249.7 259 248.85C258.6 248.6 258.15 248.35 257.75 248.1C257.3 249.6 256.4 250.95 255.1 251.9C255.45 252.2 255.85 252.45 256.2 252.75C256.5 251.95 256.95 251.2 257.5 250.55C258.1 249.8 257.05 248.75 256.45 249.5C255.75 250.4 255.2 251.3 254.8 252.35C254.55 252.95 255.4 253.6 255.9 253.2C257.5 252 258.65 250.45 259.2 248.55C259.45 247.8 258.5 247.35 257.95 247.8C256.9 248.7 256 249.8 255.25 251C254.7 251.8 256 252.55 256.55 251.75Z" fill="#333333"/>
<path d="M234.8 243.65C235.55 245.4 235.95 247.2 235.95 249.05C235.95 249.55 236.7 249.55 236.7 249.05C236.7 247.05 236.25 245.1 235.45 243.25C235.25 242.8 234.6 243.2 234.8 243.65Z" fill="#333333"/>
<path d="M232.7 242.35C233.2 243.15 233.55 243.95 233.85 244.8C234 245.25 234.7 245.05 234.55 244.6C234.25 243.65 233.85 242.8 233.35 241.95C233.1 241.55 232.45 241.95 232.7 242.35Z" fill="#333333"/>
<path d="M244.25 238.25C246.1 237.7 247.85 238.95 247.9 240.9C247.9 241.6 249.05 241.65 249.05 240.9C248.95 238.25 246.55 236.45 243.95 237.15C243.25 237.35 243.55 238.45 244.25 238.25Z" fill="#333333"/>
<path d="M257.65 245.6C258.45 245.1 259.4 245.05 260.25 245.55C260.85 245.95 261.45 244.95 260.8 244.6C259.65 243.9 258.2 243.9 257.1 244.65C256.5 245.05 257.05 246 257.65 245.6Z" fill="#333333"/>
<path d="M233.25 258.45C234.45 260.6 236.5 262.15 238.9 262.8C239.85 263.05 240.25 261.6 239.3 261.35C237.25 260.8 235.6 259.55 234.55 257.7C234.05 256.85 232.75 257.6 233.25 258.45Z" fill="#333333"/>
<path d="M222.95 234.8C224.05 232.9 226.7 228.85 231.8 226.05C235.3 224.1 238.6 223.55 240.6 223.35C241.7 224.8 243.5 226.7 246.15 227.9C252.4 230.75 257.45 227 261.15 229.5C263.1 230.8 265.05 233.95 264.3 242.55C267.6 245.95 269.8 246.15 271 245.9C276 244.9 279.6 233.65 276.45 225.45C275.5 223 274.25 221.6 263.65 213.15C248.7 201.25 246.85 200.55 244.9 200.1C234.6 197.7 225.5 202.9 223.95 203.8C221.95 204.95 221.5 205.5 210.05 217.55C201.15 226.9 200.3 227.75 199.5 230.05C197.4 235.85 197.8 244.25 203.15 250.4C208.2 256.15 215 257 216.75 257.2C216 255.5 215.2 253.1 214.8 250.15C214.3 246.35 214.8 243.2 215.25 241.15C214.9 240.9 212.9 239.25 212.75 236.45C212.65 234.4 213.6 231.8 215.8 230.95C218.25 230 221.6 231.45 222.95 234.8Z" fill="#116D9E"/>
<path d="M220.8 209.65C218.75 205.6 212.75 205 211.7 204.9C203.35 204.05 196.65 211.5 192.7 215.85C185.7 223.6 187.7 225.9 180.9 235.25C171.9 247.65 165.15 248.2 163.75 256.75C163.65 257.4 162.4 266 168.1 271.2C173 275.7 180.9 275.75 186.1 273.05C193.15 269.4 192.55 262.05 197.65 249.7C207.65 225.6 224.75 217.45 220.8 209.65Z" fill="#116D9E"/>
<path opacity="0.12" d="M228.85 227.85C227.25 231.85 225.35 238.2 225.45 246.15C225.6 258.85 230.8 268.15 233.4 272.15C230.55 270.95 225.8 268.4 221.65 263.4C219.95 261.35 215.95 256.5 214.9 249.05C214.4 245.7 214.7 242.9 215 241C214.7 240.75 212.65 238.9 212.75 236C212.8 234.1 213.8 231.55 215.95 230.8C218.35 229.95 221.65 231.5 222.95 234.85C223.45 233.85 224.15 232.6 225.2 231.3C226.5 229.75 227.8 228.65 228.85 227.85Z" fill="#BDBDBD"/>
<path opacity="0.13" d="M220.05 264.45C219.65 265.35 219.2 266.25 218.65 267.15C216.15 271.35 212.9 274.15 210.35 275.85C209.45 275.3 208.25 274.45 207.05 273.15C205.75 271.75 204.95 270.35 204.5 269.35C206.45 268.75 211.3 266.9 214.6 262.05C215.75 260.3 216.45 258.6 216.85 257.2C217.9 259.65 218.95 262.05 220.05 264.45Z" fill="#BDBDBD"/>
<path opacity="0.18" d="M215.65 240.15C215.9 243.6 216.55 248.1 218.25 253.15C220.6 260 224 265.05 226.6 268.25C224 266.15 220.9 263 218.4 258.6C216.75 255.65 214.3 251.4 214.6 245.6C214.7 243.35 215.2 241.45 215.65 240.15Z" fill="#BDBDBD"/>
<path opacity="0.32" d="M223.3 205.05C221.2 207.1 208.1 220.3 209.9 239.05C210.65 247.05 213.85 253.1 216.15 256.65C214.55 256.55 211.45 256.2 208.1 254.25C204.75 252.3 202.85 249.75 202 248.45C201.35 247.4 200.55 245.7 200.05 243.55C200.05 243.55 199.15 239.35 200.8 234.15C202.55 228.45 210.45 217.35 223.3 205.05Z" fill="#014A71"/>
<path opacity="0.33" d="M196.25 213.15C197.4 213.9 191.05 227.25 184.05 238.9C177.75 249.35 174.65 252.25 174.2 258.65C173.75 265.3 176.55 271 179.05 274.85C177.8 274.95 173.1 275.1 169 271.85C166.75 270.05 165.55 267.95 165 266.65C163.8 263.15 162.75 258.05 164.85 253.25C166.25 250 167.9 249.75 173.05 244.55C177.6 239.95 182.1 235.4 185.4 228.65C187.1 225.2 187.7 222.7 190.6 218.8C192.5 216.2 195.6 212.7 196.25 213.15Z" fill="#014A71"/>
</svg>
