<svg width="1077" height="127" viewBox="0 0 1077 127" fill="none" xmlns="http://www.w3.org/2000/svg">
<path d="M-27 10.3999L-8.53333 11.7749C9.93333 13.1499 46.8667 15.8999 83.8 16.9999C120.733 18.0999 157.667 17.5499 194.6 14.7999C231.533 12.0499 268.467 7.09993 305.4 4.07493C342.333 1.04993 379.267 -0.050074 416.2 1.59993C453.133 3.24993 490.067 7.64993 527 10.2349C563.933 12.7649 600.867 13.5349 637.8 14.3599C674.733 15.1849 711.667 16.0649 748.6 16.0649C785.533 16.0649 822.467 15.1849 859.4 12.8749C896.333 10.5649 933.267 6.93493 970.2 6.10993C1007.13 5.28493 1044.07 7.26493 1062.53 8.30993L1081 9.29993V127.55H1062.53C1044.07 127.55 1007.13 127.55 970.2 127.55C933.267 127.55 896.333 127.55 859.4 127.55C822.467 127.55 785.533 127.55 748.6 127.55C711.667 127.55 674.733 127.55 637.8 127.55C600.867 127.55 563.933 127.55 527 127.55C490.067 127.55 453.133 127.55 416.2 127.55C379.267 127.55 342.333 127.55 305.4 127.55C268.467 127.55 231.533 127.55 194.6 127.55C157.667 127.55 120.733 127.55 83.8 127.55C46.8667 127.55 9.93333 127.55 -8.53333 127.55H-27V10.3999Z" fill="#1C98DB"/>
<path d="M-27 33.5L-8.53333 34.71C9.93333 35.865 46.8667 38.285 83.8 39.66C120.733 41.035 157.667 41.365 194.6 39.935C231.533 38.45 268.467 35.15 305.4 36.14C342.333 37.185 379.267 42.465 416.2 44.335C453.133 46.15 490.067 44.5 527 44.39C563.933 44.335 600.867 45.765 637.8 45.49C674.733 45.215 711.667 43.235 748.6 39.935C785.533 36.635 822.467 32.015 859.4 31.19C896.333 30.365 933.267 33.335 970.2 33.39C1007.13 33.5 1044.07 30.75 1062.53 29.375L1081 28V127.55H1062.53C1044.07 127.55 1007.13 127.55 970.2 127.55C933.267 127.55 896.333 127.55 859.4 127.55C822.467 127.55 785.533 127.55 748.6 127.55C711.667 127.55 674.733 127.55 637.8 127.55C600.867 127.55 563.933 127.55 527 127.55C490.067 127.55 453.133 127.55 416.2 127.55C379.267 127.55 342.333 127.55 305.4 127.55C268.467 127.55 231.533 127.55 194.6 127.55C157.667 127.55 120.733 127.55 83.8 127.55C46.8667 127.55 9.93333 127.55 -8.53333 127.55H-27V33.5Z" fill="#1889C6"/>
<path d="M-27 61.5499L-8.53333 63.3099C9.93333 65.0149 46.8667 68.5349 83.8 70.4599C120.733 72.3849 157.667 72.7149 194.6 70.3499C231.533 67.9849 268.467 62.8149 305.4 61.2749C342.333 59.7349 379.267 61.7149 416.2 61.3849C453.133 60.9999 490.067 58.2499 527 59.1849C563.933 60.0649 600.867 64.6849 637.8 67.4349C674.733 70.1849 711.667 71.0649 748.6 68.8099C785.533 66.4999 822.467 60.9999 859.4 62.0999C896.333 63.1999 933.267 70.8999 970.2 71.6149C1007.13 72.3849 1044.07 66.1149 1062.53 63.0349L1081 59.8999V127.55H1062.53C1044.07 127.55 1007.13 127.55 970.2 127.55C933.267 127.55 896.333 127.55 859.4 127.55C822.467 127.55 785.533 127.55 748.6 127.55C711.667 127.55 674.733 127.55 637.8 127.55C600.867 127.55 563.933 127.55 527 127.55C490.067 127.55 453.133 127.55 416.2 127.55C379.267 127.55 342.333 127.55 305.4 127.55C268.467 127.55 231.533 127.55 194.6 127.55C157.667 127.55 120.733 127.55 83.8 127.55C46.8667 127.55 9.93333 127.55 -8.53333 127.55H-27V61.5499Z" fill="#147BB2"/>
<path d="M-27 93.4501L-8.53333 94.99C9.93333 96.585 46.8667 99.6651 83.8 99.6101C120.733 99.5001 157.667 96.2001 194.6 95.2101C231.533 94.1651 268.467 95.485 305.4 96.64C342.333 97.85 379.267 98.9501 416.2 97.6851C453.133 96.3651 490.067 92.735 527 93.065C563.933 93.45 600.867 97.8501 637.8 99.0601C674.733 100.215 711.667 98.2351 748.6 96.7501C785.533 95.2651 822.467 94.3851 859.4 94.8251C896.333 95.2651 933.267 97.135 970.2 99.39C1007.13 101.7 1044.07 104.45 1062.53 105.825L1081 107.2V127.55H1062.53C1044.07 127.55 1007.13 127.55 970.2 127.55C933.267 127.55 896.333 127.55 859.4 127.55C822.467 127.55 785.533 127.55 748.6 127.55C711.667 127.55 674.733 127.55 637.8 127.55C600.867 127.55 563.933 127.55 527 127.55C490.067 127.55 453.133 127.55 416.2 127.55C379.267 127.55 342.333 127.55 305.4 127.55C268.467 127.55 231.533 127.55 194.6 127.55C157.667 127.55 120.733 127.55 83.8 127.55C46.8667 127.55 9.93333 127.55 -8.53333 127.55H-27V93.4501Z" fill="#116D9E"/>
</svg>
