<svg xmlns="http://www.w3.org/2000/svg" viewBox="0 0 400 300" width="406" height="306" class="illustration styles_illustrationTablet__1DWOa"><g id="_131_world_connection_flatline" data-name="#131_world_connection_flatline"><path d="M86.66,200.18h26.58c6.64,0,12-4.37,12-9.75,0-5-4.61-9.09-10.55-9.68a8.65,8.65,0,0,0,.24-2c0-5.66-5.65-10.24-12.62-10.24a15.05,15.05,0,0,0-5.45,1c0-.11,0-.23,0-.34,0-5.66-5.65-10.24-12.62-10.24-5.17,0-9.61,2.52-11.56,6.13a25.89,25.89,0,0,0-4.17-.33c-11.13,0-20.23,7-20.93,15.92-6.56.07-11.86,4.4-11.86,9.75s5.39,9.75,12,9.75" fill="#fff"></path><path d="M113.24,200.68H86.66a.5.5,0,0,1,0-1h26.58c6.35,0,11.52-4.15,11.52-9.25,0-4.66-4.34-8.61-10.1-9.18a.47.47,0,0,1-.36-.21.52.52,0,0,1-.08-.4,8.11,8.11,0,0,0,.23-1.87c0-5.37-5.44-9.74-12.12-9.74a14.46,14.46,0,0,0-5.27,1,.49.49,0,0,1-.47-.06.52.52,0,0,1-.21-.43v-.16a.92.92,0,0,0,0-.16c0-5.37-5.43-9.74-12.12-9.74-4.83,0-9.19,2.3-11.12,5.87a.5.5,0,0,1-.52.26,25.36,25.36,0,0,0-4.09-.33c-10.78,0-19.75,6.79-20.43,15.46a.49.49,0,0,1-.49.46c-6.27.07-11.37,4.22-11.37,9.25s5.17,9.25,11.53,9.25a.5.5,0,0,1,0,1c-6.91,0-12.53-4.6-12.53-10.25,0-5.46,5.3-10,11.91-10.24,1-9,10.27-15.93,21.38-15.93a25.54,25.54,0,0,1,3.91.29c2.18-3.71,6.77-6.09,11.82-6.09,7.09,0,12.88,4.62,13.12,10.36a15.66,15.66,0,0,1,4.93-.79c7.23,0,13.12,4.82,13.12,10.74a9.11,9.11,0,0,1-.14,1.55c6,.82,10.45,5.08,10.45,10.11C125.76,196.08,120.14,200.68,113.24,200.68Z" fill="#d1d3d4"></path><circle cx="197.74" cy="155.93" r="103.95" fill="#fff"></circle><path d="M197.74,52a104,104,0,1,1-103.95,104,104,104,0,0,1,104-104m0-.91A104.87,104.87,0,1,0,302.61,155.93,105,105,0,0,0,197.74,51.06Z" fill="#231f20"></path><path d="M275.69,87.15a4,4,0,0,1-2.39.15L274.69,86c-1.88-2.07-3.86-4.06-5.9-6a4.68,4.68,0,0,0,2.35,3.73c-2.2.13-3.91-1.18-5.83-1.76a64.1,64.1,0,0,0-6.95-1.3l3.45,2.47a17.94,17.94,0,0,1-2,.63c-.64-1.39-1.48-.26-2.23-.3-1.7-.1-3.56,1.89-4.85-.17a10.13,10.13,0,0,0-1.79.39,19,19,0,0,0-4.53,2.12c-1.56,1.26-2.05,1.4-3.26-.45l1.59-.55,0-.65-3.23-.69a10.94,10.94,0,0,0-.14,2.31,4.49,4.49,0,0,0,.65,1.37,22.45,22.45,0,0,0-2.83.43,25.14,25.14,0,0,0-2.61,1.09l.78,1.61-4.31-.7L233,90l1.66,1.08c-2.48.74-4-.55-4-3.08l-2.11-1.13a5.42,5.42,0,0,1,2.23.27c2.33.52,4.69,1.1,7-.07,1.18-.6,1.12-1.45,0-2a24,24,0,0,0-4.34-1.85c-2.63-.75-5.32-1.27-8-1.89.13-.2.28-.45.44-.69a27.82,27.82,0,0,0-3.77-.8,6.6,6.6,0,0,0-2.21.72c.22-.46.35-.76.66-1.42-1.26.59-2.27,1.51-3,1.34-1.67-.38-3,.92-4.67.58-1-.19-2.28,1.27-3,1.73a12,12,0,0,0-2.33.52,14.29,14.29,0,0,0-2,1.53l2.64-.64c-1.19,1.48-2.47,3.22-3.91,4.81-1,1.1-2.06,2.52-3.35,2.87a12.12,12.12,0,0,0-4.73,2.7,2.77,2.77,0,0,0-.72,2.09,14,14,0,0,0,.91,3.22,2.4,2.4,0,0,0,3,1.33c1-.51,2.34-1.76,3-1.47.93.43,1.38,1.93,2,3,.13.22.24.45.35.67.59,1.23.52,4.12,2.82,1.14,1.86.4,1.87-1.12,2-2.16A3,3,0,0,1,211,99.87a1.44,1.44,0,0,0,.17-2.65c-1.43-1-1.59-2-.36-3.29.66-.7,1.65-1.08,2.37-1.74s1.11-1.54,1.83-2.11a8.13,8.13,0,0,1,2.8-1.58c.59-.16,1.37.39,2.23.67-1.7,1.34-3,2.33-4.23,3.34-.7.56-1.53,4-.89,4.35a9,9,0,0,0,3.87,1.26c1.2.07,2.43-.6,3.66-.77a5.59,5.59,0,0,1,1.79.36l0,.76c-1.08.1-2.15.19-3.22.3a19.21,19.21,0,0,0-2.53.3c-1.15.25-1.3,1-.5,1.75,1,1,.72,1.65-.14,2.41-2.17-1.77-2.65-1.59-3.16,1.15a10.18,10.18,0,0,0,0,1.91c-.88.38-2,1.26-2.51,1-2.27-1.09-3.78.93-5.79,1.08-.61-1.58-1.75-.61-2.79-.59a3.24,3.24,0,0,1-1.86-.89c-.28-.24-.47-1.1-.29-1.29a3.14,3.14,0,0,0,.58-3.49c-2.74,1.5-2.72,1.5-2.08,4.3a7.86,7.86,0,0,1,.11,1.74l-4.06,1.62c-1.3,1.29-2.23,2.22-3.17,3.13-.33.33-.83.54-1,.92a3,3,0,0,1-4.05,1.57c.07.56.14,1.1.21,1.7l-3.6-.16a35.32,35.32,0,0,0,3.37,3.7c1.44,1.65.26,3.41,0,5.09-3,.24-6.06-1.16-9,.61,1.66,3.38-1.12,6.89.88,10.2l2-.24c.5.66.94,1.24,1.18,1.57,3-.71,6-1.14,6.87-3.76,0-1-.23-1.76,0-2.14.7-1,1.64-1.75,2.42-2.65.53-.61,1.4-1.31,1.37-1.93-.1-1.95,1.07-1.84,2.14-1.41a2.28,2.28,0,0,0,2.8-.5,17.85,17.85,0,0,1,2.14-1.46c.51.65,1,1.35,1.58,2a20.64,20.64,0,0,0,3,3.24c2,1.43,4.3,2.48,3.46,5.67L210,133l-.65-2.28,2.25,1c-.07-.37,0-.63-.14-.69-1.33-.88-2.13-2.46-3.86-2.84a2.73,2.73,0,0,1-1.24-1.09c-.51-.67-.84-1.48-1.37-2.13-1.33-1.61-1.09-2.47.73-3a5.28,5.28,0,0,0,.62,1.16c.2.22.82.2.87.39.48,1.81,2,2.35,3.42,3.19.86.53,2,1.55,2,2.35,0,3.66,2.62,5.9,3.9,8.8a17.88,17.88,0,0,0,1.48-2.59,2.55,2.55,0,0,0-.18-1.73,20.27,20.27,0,0,0-1.47-2.37c.83.05,1.59.32,1.88.07,1.42-1.28,1.38-1.32,2.61-.61-.1,1.34-.19,2.47-.26,3.47.55.82,1,2.07,1.76,2.44,1,.45,1.81,2.17,3.51.67.53-.47,2.32.48,3.53.77a.33.33,0,0,0,.18-.05l3.08-1.41c-.64,2.82-1.14,5.06-1.65,7.3-.33,1.44-.88,2.52-2.69,2.57-.7,0-1.38.77-1.73,1l2.82,3L228,151.43c.06.19.12.37.19.55l2.71-.82c.37.66.89,1.48,1.32,2.35.73,1.47,1.42,3,2.08,4.47.53,1.21,1,2.44,1.49,3.68.34.9.48,1.88.9,2.73a25,25,0,0,0,1.8,2.79c1.86,2.7,1.81,5.89,2.35,8.93.19,1.07.65,1.47,1.64,1a52.78,52.78,0,0,0,5.2-2.77c1.77-1.16,3.26-2.74,5.08-3.81a13.24,13.24,0,0,0,4.36-3.53c.31-.44.55-.93.84-1.39a8.06,8.06,0,0,1,.88-1.4c2.09-2.3,1.66-4.33-1.13-5.7a2.8,2.8,0,0,1-1.19-1.52,12.1,12.1,0,0,1-.27-2.46,17.87,17.87,0,0,0-2.11,2.72c-.8,1.59-2.08.62-3.14.83-.11-.66-.21-1.33-.34-2-.08-.43-.18-.86-.4-1.81l-.73,1.73-3.2-6.84c1.71-1.91,2.07-1.87,3.27.45a8.81,8.81,0,0,1,.45,1,4.72,4.72,0,0,0,6.65,2.67c.89,2.21,1.07,2.49,3.6,2.65s5.18,0,7.49,0l4.24,4.82-1.21.5,2.79,2.42,1.44-1.75c.65,3.51,1.2,7.58,2.21,11.55a61.8,61.8,0,0,0,3.81,11.72A14.21,14.21,0,0,0,284.45,175a4.87,4.87,0,0,1,.34-2.7c.9-1.33,2.37-2.27,3.23-3.61,1.33-2.08,4-3.14,4.46-5.86.06-.35.81-.69,1.3-.81,1.35-.35,2.74-.59,4.16-.88a10,10,0,0,0,1,3,17.16,17.16,0,0,1,2.09,3.59,104,104,0,0,0-25.34-80.58Z" fill="#68e1fd"></path><path d="M131.61,236.13a6.46,6.46,0,0,0,.6-2.09c.13-1.76.71-2.94,2.17-3.61,1.71-.78,3.53-1.3,5.29-2a2.06,2.06,0,0,0,1.05-.67,19.86,19.86,0,0,0,2.13-4.59,54.84,54.84,0,0,0,.78-6.8,1.67,1.67,0,0,1,.15-.73c.9-1.17,1.94-2.25,2.74-3.49s2.14-2.86,2.22-4.35a3.2,3.2,0,0,0-3-3.58,1.28,1.28,0,0,1-.73-.55c-2-2.74-5-2.13-7.81-2.18.25-1.18-.35-1.56-1.58-1.84-2.86-.66-5.15-2-6-5.23-.87-3.41-2.55-4.36-6.11-4.56a6.57,6.57,0,0,1-2.9-1.4,13.08,13.08,0,0,1-1.86-1.86,6.62,6.62,0,0,0-.92-1c-1-.68-1.69-2.14-3-1.86s-2.78.65-4.17,0-2.51-1.18-4-1.89l-1.39,3.8c-1-1.49,0-2.95.24-4.5-2.77,1.71-6,2.68-6.61,6.46l-.18-.11A104,104,0,0,0,131.61,236.13Z" fill="#68e1fd"></path><path d="M110.75,122.11c3.49.8,6.09-1,8.88-2.31a1.82,1.82,0,0,0,1-1.33,2.53,2.53,0,0,0-1-1.71,8.54,8.54,0,0,0-2.45-.6c.42-.27.9-.59,1.09-.7a24.29,24.29,0,0,1-4-2.5c-.61-.55-.41-1.89-.88-2.7a46.23,46.23,0,0,0-2.79-4c-.94,1.31-1.19,3.68-3.47,3.11a2.72,2.72,0,0,1-1.72-1.16,103.27,103.27,0,0,0-11.27,39.89,6.05,6.05,0,0,1,1.21-1c2.84-1.63,3-2.14,2.28-5.42a16,16,0,0,1,0-3.21c.3,1.11.51,1.92.72,2.74.68-1.19,1.65-2.17,1.74-3.22.17-1.87,1.1-2.29,2.68-2.32a9.17,9.17,0,0,0,1.84-.4l-.53-.24c.1-.93-.14-2.35.36-2.68a57.45,57.45,0,0,1,6.15-3.2l-1.34,2.89.47.11,6.52-3.48c-.1-.17-.19-.34-.29-.5l-.81.46.45-1.53a.83.83,0,0,0-.7.42c-1.18,1.75-1.81,1.89-3.57.63-1.31-.94-1.79-2-.39-3.35.13-.12-.21-1.07-.38-1.09a6,6,0,0,0-2.19.17,26,26,0,0,0-2.79,1.15C107,123.63,108.51,121.6,110.75,122.11Z" fill="#68e1fd"></path><path d="M200.64,192.78a3.84,3.84,0,0,1,.49,2.7c-.81,2.76-.83,5.07,1.42,7.38a10,10,0,0,1,2.67,7.61,1.82,1.82,0,0,0,.27,1.08c.92,1.23.36,2.12-.25,3.37-1.34,2.76-2.63,5.59-.73,8.83,1.12,1.91,2.35,3.81,2.44,6.34a9.63,9.63,0,0,0,2.39,6.58c1,1.08,2,2.84,1.86,4.18a3.19,3.19,0,0,0,1.77,3.41,9.42,9.42,0,0,1,1.78-.59,33,33,0,0,0,5.11-.54c4.23-1.22,6.31-4.85,8.46-8.27.4-.63.14-1.67.21-2.88.25-.14.83-.5,1.44-.79a2.79,2.79,0,0,0,1.71-3.76c-.19-.66-.51-1.29-.67-2-.09-.37-.14-1,.06-1.15,1.41-1.29,3-2.44,4.34-3.75.9-.86,2.09-1.81,2.32-2.89a13.91,13.91,0,0,0-.25-5c-.18-1.11-.92-2.13-1.12-3.25s.59-2.63-.71-3.71c-.16-.13-.08-.8.11-1.06,2.11-2.91,3.81-6.35,6.51-8.54,3.58-2.9,5.37-6.71,7.34-10.53a13,13,0,0,0,.71-3.58c-2.73.69-5.15,1.36-7.6,1.9a1.63,1.63,0,0,1-1.36-.65c-.41-.69-.35-1.7-.84-2.29-.89-1.09-2.08-1.94-3.07-3a5.44,5.44,0,0,1-1.32-1.9c-.81-2.48-2.66-4.45-2.95-7.26-.18-1.73-1.77-3.28-2.56-5a61.4,61.4,0,0,1-2.63-6.53c-.55-1.63-1.47-1.49-2.77-1.14a6,6,0,0,1-3,.22,56,56,0,0,1-5.72-2c-1.68-.64-3,.09-3.18,1.79-.11,1.23-.64,1.9-1.82,1s-3.49-.4-3.91-2.6c0-.08-.45,0-.65-.11-1.78-.77-4.2.21-5.2-1.68.49-1.43.89-2.63,1.33-3.94a15.29,15.29,0,0,0-2.47-.34c-2.16.08-4.32.15-6.45.44a18.13,18.13,0,0,0-4.46,1.18c-2.27.93-4.46,1.76-6.5.12-1,1.1-1.8,2.38-2.93,3a3.84,3.84,0,0,0-2.13,3.47c0,2.29-1.2,3.09-3,3.65a2.16,2.16,0,0,0-1.15.8c-1.07,1.74-2.14,3.49-3.06,5.32-.64,1.28-1.82,2.37-.64,4.25.69,1.08.57,3,.13,4.37A14.21,14.21,0,0,0,170,181a2.55,2.55,0,0,0,.73,1.18c.27.32.69.53.92.86a45,45,0,0,0,3.26,4.73,49.15,49.15,0,0,0,4.32,3.64,2.73,2.73,0,0,0,2.92.41,26.11,26.11,0,0,1,4.71-.46,8.42,8.42,0,0,0,1.81-.27,38.22,38.22,0,0,1,3.67-1.31c1.25-.27,3-1.06,3.55.82.53,1.7,1.49,1.64,2.85,1.51A2.39,2.39,0,0,1,200.64,192.78Z" fill="#68e1fd"></path><path d="M122,84.76a4.81,4.81,0,0,0,1-.48l3,2.13-3.9-.56-.09.58,3.73,1.4v1.84L121.35,92l2.05,1.62a4.4,4.4,0,0,0,0,1.64c1.41,2.9,2.85,5.79,4.38,8.62a4.87,4.87,0,0,0,1.78,1.74,30.82,30.82,0,0,0,3.26,1.46c.84.37,1.62.79,1.87-.67s.62-2.75.95-4.12c.06-.25.15-.6.34-.69,1.54-.8,1.82-2.1,1.81-3.7,0-.52.9-1.53,1.31-1.49,3,.28,4.93-1.26,6.56-3.52.45-.63,1.21-1.4,1.87-1.45,4-.24,7.31-2,10.84-4l-4.75-.5,1.28-1.54,3.77,1.58c.28-2-.42-2.88-1.87-3.45-1.62-.63-1.78-1.5-.94-2.63h4.35L159,79.4l2.79-.4-1.23-1.28c2.17-1.48-.68-2.22-.51-3.34l2.71-.17c-.5-.75-.77-1.65-1.33-1.9a8.63,8.63,0,0,0-2.7-.2c2.51-3.75,6.77-5,10.68-6.82a8.27,8.27,0,0,0-6.89-.44,44.54,44.54,0,0,1-6.15,1.23l1-1.53c-.8.09-1.6.19-2.41.26-.44,0-.89,0-1.34,0l-.06-.77,4.89-.82c-1.66-.45-3.25-1.08-4.85-1.4A104.38,104.38,0,0,0,122,84.76Z" fill="#68e1fd"></path><path d="M108.76,102.15c-.2.33-.39.67-.59,1,.4.13.8.27,1.2.43Z" fill="#68e1fd"></path><path d="M114.44,93.85l-.06,0c-.31.41-.61.82-.91,1.24C113.8,94.66,114.12,94.25,114.44,93.85Z" fill="#68e1fd"></path><path d="M110.58,101.59a4.25,4.25,0,0,0-.12-2.14c-.43.67-.85,1.33-1.27,2Z" fill="#68e1fd"></path><path d="M241.35,226.18c-.66,1.42-.47,4.15.67,5.12a2.1,2.1,0,0,0,3.39-.87c1.08-3.58,2-7.19,3-10.79.08-.27,0-.62.19-.83a3.25,3.25,0,0,0-.58-4.25c-2.09,1.56-2.31,5-6.07,4.83,0,1.22.08,2.35,0,3.47A10.13,10.13,0,0,1,241.35,226.18Z" fill="#68e1fd"></path><path d="M191.17,111.59c.17-.46.61-1.12.45-1.32a1.83,1.83,0,0,0-1-.46c-1.46-2-2.72-3.75-4.07-5.61,1.1-2,1.05-2.68-.42-3.63-.91-.6-3,.23-3.91,1.56-.43.61.2,1.77,1.82,3.31l-.23,1.17c.32,0,.55,0,.68.09.58.44,1.44.82,1.61,1.4s-.36,1.29-1.32.89a1.36,1.36,0,0,0-.47.69c-.07.69,0,1.38,0,2.24l1.56.47-2.76,2.11,7.45-1.19C190.88,112.39,191,112,191.17,111.59Z" fill="#68e1fd"></path><path d="M254.72,74.1a46,46,0,0,1-4.5,4.25c2,1.93,4.52,2.19,7.62,2.07-.85-.6-1.56-.87-1.88-1.39s-.58-1.53-.31-1.88a15.12,15.12,0,0,1,5.07-3.93c-.66-.5-1.32-1-2-1.48A7.38,7.38,0,0,0,254.72,74.1Z" fill="#68e1fd"></path><path d="M160.82,101.61a4.67,4.67,0,0,0,2.23,0,9.47,9.47,0,0,0,3.22-1.52c.72-.6,2.37-1.09,1.58-2.45a13.32,13.32,0,0,0-2.69-2.6l-.15.62L159.32,97l-1.38-1.85.21.62-2.48,1.43.26.32h2.67l-2.42,1.27,2.68.77-1.35,1C158.63,101,159.71,101.37,160.82,101.61Z" fill="#68e1fd"></path><path d="M209.58,70.22c1.22-1,2.22-1.84,3.3-2.58a1.42,1.42,0,0,1,1.27,0c.31.21.38.78.6,1.3h3.64c0-.23,0-.46.07-.68l-10.22-4.08c.43,1,.59,1.31.62,1.39l-6.08-.53-.14.63a9,9,0,0,0,2.63,1.76c.89.23,2-.23,3-.39l.06.47-2.31.83.08.32,1.82.17-1.23.63Z" fill="#68e1fd"></path><path d="M182.55,108.17c.87-.52,1-1.27.14-1.69s-1.85-1.19-2.84,0c-.54.61-1.18,1.12-1.92,1.81v3l-.6.29c.33.27.73.81,1,.75a18.26,18.26,0,0,0,3.93-1.43c.31-.18.08-1.33.12-2C182.36,108.57,182.41,108.26,182.55,108.17Z" fill="#68e1fd"></path><path d="M95.2,167.51a3.8,3.8,0,0,0-.8-.28l.15,1.31a16.36,16.36,0,0,1,2.19.93c.74.37,1.2,1.3,2,2.19l3.43-.39C99.64,169.91,97.46,168.64,95.2,167.51Z" fill="#68e1fd"></path><path d="M108.73,173.82c.15-1.68-2.85-2.74-5.57-2l1.44,1.65-2.83-.25C104,174.77,106.41,173.63,108.73,173.82Z" fill="#68e1fd"></path><path d="M221.45,64.3h-9.6a13,13,0,0,0,4,1.32,43.67,43.67,0,0,0,5.59-.26C221.45,65,221.45,64.65,221.45,64.3Z" fill="#68e1fd"></path><path d="M285.37,189.84c.54-.21,1.27-1.24,1.13-1.62a21.28,21.28,0,0,0-1.91-3.41l-.56.26c0,1.15,0,2.3,0,3.44S284.33,190.25,285.37,189.84Z" fill="#68e1fd"></path><path d="M200.92,129.61l-1.24.51v3.21c2.13-.11,1.16-1.83,1.59-2.75C201.37,130.37,201.06,130,200.92,129.61Z" fill="#68e1fd"></path><path d="M207.82,134.84h-3.39l-.1.4,3.1,1.88C207.57,136.27,207.71,135.51,207.82,134.84Z" fill="#68e1fd"></path><path d="M195.74,173.3l-3.54-7.15c-3.76-7.6-7.47-15.22-11.29-22.79a18.81,18.81,0,0,1-2.27-8.81,17.12,17.12,0,0,1,33.7-4,16.73,16.73,0,0,1-1.29,11.87q-4.73,9.54-9.46,19.07-2.78,5.59-5.54,11.19Zm0-30a8.56,8.56,0,1,0-8.53-8.56A8.58,8.58,0,0,0,195.72,143.35Z" fill="#231f20"></path><path d="M291,140.05c-1.07-2.18-2.11-4.26-3.14-6.35-3.33-6.74-6.63-13.49-10-20.2a16.76,16.76,0,0,1-2-7.82,15.18,15.18,0,0,1,29.89-3.51,14.77,14.77,0,0,1-1.14,10.52q-4.2,8.46-8.39,16.91l-4.92,9.92C291.2,139.67,291.12,139.82,291,140.05Zm0-26.56a7.59,7.59,0,1,0-7.57-7.59A7.61,7.61,0,0,0,291,113.49Z" fill="#231f20"></path><path d="M140.11,81.46c-.9-1.82-1.77-3.57-2.63-5.32-2.8-5.65-5.56-11.31-8.4-16.94a14.06,14.06,0,0,1-1.69-6.55,12.73,12.73,0,0,1,25.06-2.94,12.38,12.38,0,0,1-1,8.82l-7,14.17L140.34,81Zm0-22.26a6.37,6.37,0,1,0-6.35-6.36A6.39,6.39,0,0,0,140.1,59.2Z" fill="#231f20"></path><path d="M127.38,201.83c-.91-1.82-1.77-3.57-2.64-5.32-2.79-5.65-5.55-11.31-8.39-16.93a14,14,0,0,1-1.69-6.56,12.73,12.73,0,0,1,25.06-2.94,12.49,12.49,0,0,1-1,8.82l-7,14.18q-2.06,4.15-4.12,8.31C127.54,201.52,127.47,201.65,127.38,201.83Zm0-22.26a6.37,6.37,0,1,0-6.34-6.36A6.37,6.37,0,0,0,127.36,179.57Z" fill="#231f20"></path><path d="M207.76,166.33h-.1a.5.5,0,0,1-.39-.59c.06-.28,6.22-28.53,37.34-42.32,10.28-4.55,19.32-5.19,26.86-1.9,10.55,4.6,14.4,15.48,14.44,15.59a.51.51,0,0,1-.31.64.51.51,0,0,1-.64-.31c0-.11-3.75-10.59-13.9-15-7.28-3.16-16-2.52-26,1.91-30.64,13.57-36.71,41.32-36.77,41.6A.49.49,0,0,1,207.76,166.33Z" fill="#231f20"></path><path d="M132.77,200.87a.59.59,0,0,1-.23-.05.5.5,0,0,1-.21-.68c21.23-40.92,57-27.44,57.31-27.3a.5.5,0,1,1-.36.93c-.35-.14-35.26-13.27-56.07,26.83A.5.5,0,0,1,132.77,200.87Z" fill="#231f20"></path><path d="M187.67,115.89a.5.5,0,0,1-.47-.33c-.11-.3-11.5-30-39.76-33.6a.5.5,0,1,1,.12-1c28.87,3.69,40.47,33.94,40.58,34.24a.5.5,0,0,1-.29.65A.57.57,0,0,1,187.67,115.89Z" fill="#231f20"></path><path d="M337.58,65a6.1,6.1,0,0,0,.16-1.36c0-3.88-3.88-7-8.66-7a10.27,10.27,0,0,0-3.73.69c0-.08,0-.16,0-.24,0-3.87-3.88-7-8.66-7a8.9,8.9,0,0,0-7.93,4.21,17.81,17.81,0,0,0-2.86-.23C298.27,54,292,58.86,291.55,65c-4.5,0-8.13,3-8.13,6.69s3.69,6.69,8.25,6.69h23.68" fill="#fff"></path><path d="M315.35,78.83H291.67c-4.83,0-8.75-3.23-8.75-7.19,0-3.79,3.63-6.93,8.18-7.17.76-6.17,7.16-10.94,14.81-10.94a18.83,18.83,0,0,1,2.6.18,9.52,9.52,0,0,1,8.19-4.16c4.86,0,8.85,3.13,9.14,7.06a10.69,10.69,0,0,1,3.24-.49c5.05,0,9.16,3.37,9.16,7.52a6.24,6.24,0,0,1-.18,1.48.5.5,0,0,1-.6.37.5.5,0,0,1-.37-.61,5.26,5.26,0,0,0,.15-1.24c0-3.6-3.66-6.52-8.16-6.52a9.68,9.68,0,0,0-3.55.66.53.53,0,0,1-.67-.61c0-3.69-3.66-6.62-8.16-6.62a8.43,8.43,0,0,0-7.49,4,.48.48,0,0,1-.52.25,17.18,17.18,0,0,0-2.78-.22c-7.31,0-13.4,4.59-13.86,10.46a.49.49,0,0,1-.49.46c-4.21,0-7.64,2.82-7.64,6.19s3.47,6.19,7.75,6.19h23.68a.5.5,0,0,1,0,1Z" fill="#d1d3d4"></path><path d="M341,245c0-6.5-6.45-11.78-14.44-11.87-.84-10.81-11.92-19.37-25.46-19.37a31.29,31.29,0,0,0-5.08.41c-2.37-4.4-7.78-7.47-14.07-7.47-8.48,0-15.36,5.58-15.36,12.46,0,.14,0,.28,0,.42a18.31,18.31,0,0,0-6.63-1.23c-8.49,0-15.36,5.58-15.36,12.46a10.13,10.13,0,0,0,.29,2.41c-7.23.72-12.84,5.71-12.84,11.78,0,6.55,6.55,11.87,14.63,11.87" fill="#fff"></path><path d="M246.69,257.41c-8.34,0-15.13-5.55-15.13-12.37,0-6.09,5.44-11.26,12.74-12.21a10.29,10.29,0,0,1-.19-2c0-7.15,7.11-13,15.86-13a18.72,18.72,0,0,1,6.1,1c.2-7,7.24-12.66,15.86-12.66,6.14,0,11.72,2.9,14.34,7.42a32,32,0,0,1,4.81-.36c13.5,0,24.79,8.48,25.92,19.39,8,.28,14.48,5.75,14.48,12.35a.5.5,0,0,1-1,0c0-6.18-6.25-11.28-13.94-11.37a.49.49,0,0,1-.49-.46c-.83-10.6-11.8-18.91-25-18.91a30.85,30.85,0,0,0-5,.4.49.49,0,0,1-.52-.26c-2.36-4.37-7.71-7.2-13.63-7.2-8.19,0-14.86,5.36-14.86,12,0,.07,0,.14,0,.2l0,.2a.55.55,0,0,1-.21.43.51.51,0,0,1-.48.06,17.57,17.57,0,0,0-6.44-1.2c-8.2,0-14.86,5.36-14.86,12a9.58,9.58,0,0,0,.28,2.3.51.51,0,0,1-.08.4.47.47,0,0,1-.36.21c-7.06.7-12.39,5.55-12.39,11.28,0,6.27,6.34,11.37,14.13,11.37a.5.5,0,0,1,0,1Z" fill="#d1d3d4"></path></g></svg>