<?xml version="1.0" encoding="utf-8"?>
<!-- Generator: Adobe Illustrator 24.1.2, SVG Export Plug-In . SVG Version: 6.00 Build 0)  -->
<svg version="1.0" id="Layer_1" xmlns="http://www.w3.org/2000/svg" xmlns:xlink="http://www.w3.org/1999/xlink" x="0px" y="0px"
	 viewBox="0 0 2448 2448" style="enable-background:new 0 0 2448 2448;" xml:space="preserve">
<style type="text/css">
	.st0{fill:#010101;}
</style>
<g>
	<rect x="218.76" y="428.69" class="st0" width="9.89" height="48.69"/>
	<path class="st0" d="M189.15,421.68c-9.33,0-16.89,7.63-16.89,17.04c0,9.41,7.56,17.04,16.89,17.04c9.33,0,16.89-7.63,16.89-17.04
		C206.03,429.31,198.47,421.68,189.15,421.68z M189.15,448.76c-5.45,0-9.89-4.51-9.89-10.05c0-5.54,4.44-10.05,9.89-10.05
		c5.45,0,9.89,4.51,9.89,10.05C199.04,444.26,194.6,448.76,189.15,448.76z"/>
	<rect x="289.2" y="428.69" class="st0" width="9.89" height="48.69"/>
	<path class="st0" d="M328.7,421.68c-9.33,0-16.89,7.63-16.89,17.04c0,9.41,7.56,17.04,16.89,17.04c9.33,0,16.89-7.63,16.89-17.04
		C345.59,429.31,338.02,421.68,328.7,421.68z M328.7,448.76c-5.45,0-9.89-4.51-9.89-10.05c0-5.54,4.44-10.05,9.89-10.05
		c5.45,0,9.89,4.51,9.89,10.05C338.59,444.26,334.15,448.76,328.7,448.76z"/>
	<rect x="265.72" y="428.69" class="st0" width="9.89" height="48.69"/>
	<rect x="242.24" y="428.69" class="st0" width="9.89" height="48.69"/>
	<path class="st0" d="M371.94,378.69l-11.05-62.63c-0.69-4.29-5.47-7.52-11.14-7.52H168.1c-5.67,0-10.45,3.23-11.14,7.52
		l-11.05,62.63H371.94z M163.85,317.28c0.17-0.54,1.72-1.74,4.25-1.74h181.64c2.53,0,4.07,1.2,4.24,1.66l9.62,54.49H154.25
		L163.85,317.28z"/>
	<path class="st0" d="M433.85,350.03H394.4h-7v7v28.27v0.12h-0.7l-12.65-73.14c-1.24-9.38-9.26-16.42-18.74-16.42H162.54
		c-9.48,0-17.5,7.05-18.74,16.42l-12.65,73.14h-0.7v-0.12v-28.27v-7h-7H83.99h-7v7v28.27v7h7h23.96v0.12v10.39v1.32
		C90.24,408.26,77,424.14,77,443.09v41.51v1.09v5.91v1.09v35.14v0.08v6.92v0.08v60.15c0,15.55,12.65,28.2,28.2,28.2h7.47
		c15.55,0,28.2-12.65,28.2-28.2v-60.15v-0.08h9.15v0.29v30.11v7h7h203.8h7v-7v-30.11v-0.29h9.15v0.29v60.15
		c0,15.55,12.65,28.2,28.2,28.2h7.47c15.55,0,28.2-12.65,28.2-28.2v-60.15v-0.29v-6.71v-0.29v-35.14v-1.09v-5.91v-1.09v-41.51
		c0-18.95-13.25-34.84-30.96-38.97v-1.32v-10.39v-0.12h23.96h7v-7v-28.27v-7H433.85z M360.83,565.22h-203.8v-30.11h203.8V565.22z
		 M129.07,397.36l-0.73,4.25l-0.21,1.19h-13.18v-10.39h14.12V397.36z M160.3,409.8c-2.82,2.07-5.31,4.56-7.39,7.37v-7.13v-0.24
		H160.3z M364.88,484.6H152.97v-46.53c0-15.48,12.43-28.03,27.77-28.03H337.1c15.34,0,27.77,12.55,27.77,28.03V484.6z
		 M364.94,410.04v7.13c-2.09-2.81-4.58-5.3-7.39-7.37h7.39V410.04z M389.51,401.61l-0.73-4.25v-4.95h14.12v10.39h-13.18
		L389.51,401.61z M150.71,313.32c0.73-5.98,5.8-10.47,11.82-10.47h192.77c6.02,0,11.09,4.49,11.82,10.47l14.64,84.64v4.84h-245.7
		v-4.84L150.71,313.32z M83.99,357.02h39.45v28.27H83.99V357.02z M83.99,443.09c0-18.26,14.8-33.05,33.05-33.05h28.86v74.56H83.99
		V443.09z M133.87,595.05c0,11.71-9.49,21.2-21.21,21.2h-7.47c-11.71,0-21.2-9.49-21.2-21.2v-60.15h49.88V595.05z M433.85,595.26
		c0,11.71-9.49,21.21-21.2,21.21h-7.47c-11.71,0-21.21-9.49-21.21-21.21v-60.15h49.88V595.26z M433.85,527.83H83.99v-35.14h61.91h7
		v0h0.06h211.91h0.06v0h7h61.91V527.83z M433.85,443.09v41.51h-61.91v-74.56h28.86C419.05,410.04,433.85,424.84,433.85,443.09z
		 M433.85,385.29H394.4v-28.27h39.45V385.29z"/>
</g>
<g>
	<path class="st0" d="M850.63,387.82c-3.75-6.13-11.11-9.96-19.14-9.96h-132.6c-8.02,0-15.39,3.83-19.14,9.96l-22.97,43.66H873.6
		L850.63,387.82z M685.83,391.3c2.5-3.92,7.6-6.45,13.06-6.45h132.6c5.46,0,10.57,2.52,13.06,6.45l17.45,33.18H668.37L685.83,391.3z
		"/>
	<path class="st0" d="M662.03,498.28c-2.28-3.9-6.09-6.66-10.5-7.62l-24.16-5.25c-0.65-0.14-1.3-0.21-1.94-0.21
		c-4.87,0-9.04,3.95-9.04,9.06v2.52c0,6.4,4.48,11.94,10.74,13.27l34.05,7.26c0.46,0.1,0.91,0.14,1.34,0.14
		c4.57,0,7.76-5.08,5.28-9.31L662.03,498.28z M628.58,503.2c-3.01-0.64-5.2-3.35-5.2-6.43v-2.52c0-1.27,1.06-2.06,2.04-2.06
		c0.15,0,0.3,0.02,0.46,0.05l24.16,5.25c2.49,0.54,4.66,2.12,5.95,4.32l4.83,8.26L628.58,503.2z"/>
	<path class="st0" d="M868.36,498.28l-5.77,9.86c-2.48,4.23,0.71,9.31,5.28,9.31c0.44,0,0.88-0.05,1.34-0.14l34.05-7.26
		c6.26-1.34,10.74-6.87,10.74-13.27v-2.52c0-5.11-4.17-9.06-9.04-9.06c-0.64,0-1.29,0.07-1.94,0.21l-24.16,5.25
		C874.45,491.62,870.64,494.39,868.36,498.28z M904.51,492.25c0.15-0.03,0.31-0.05,0.46-0.05c0.72,0,1.2,0.38,1.43,0.6
		c0.28,0.27,0.61,0.75,0.61,1.46v2.52c0,3.08-2.19,5.79-5.2,6.43l-32.24,6.87l4.83-8.26c1.29-2.2,3.46-3.78,5.95-4.32L904.51,492.25
		z"/>
	<path class="st0" d="M718.73,568.13h92.9v-32.11h-92.9V568.13z M725.73,543.02h78.91v18.12h-78.91V543.02z"/>
	<path class="st0" d="M681.64,498.82c0,16.57,13.44,30.01,30.01,30.01h107.08c16.58,0,30.01-13.44,30.01-30.01v-6.65h-167.1V498.82z
		 M841.74,499.16c-0.19,12.53-10.44,22.67-23.01,22.67H711.65c-12.57,0-22.83-10.14-23.01-22.67H841.74z"/>
	<path class="st0" d="M935.31,419.08h-22.45h-7v7v22.03v5.06l-10.72-17.66l-29.4-55.66c-5.37-10.16-15.84-16.47-27.32-16.47H691.97
		c-11.49,0-21.96,6.31-27.32,16.47l-29.4,55.66l-11.86,19.54v-6.94v-22.03v-7h-7h-22.45c-9.93,0-18.01,8.08-18.01,18.01
		s8.08,18.01,18.01,18.01h22.45h6.96l-11.76,19.37c-6.39,3.21-10.52,9.75-10.52,17.03v64.49c0,0.44,0.01,0.86,0.02,1.27l-0.02,1.21
		v45.2c0,9.88,8.04,17.91,17.91,17.91h21.24c9.86,0,17.88-8.04,17.88-17.91v-18.37h213.82v18.37c0,9.88,8.02,17.91,17.88,17.91
		h21.24c9.88,0,17.91-8.04,17.91-17.91v-43.2c0.24-1.55,0.36-3.03,0.36-4.49V491.5c0-7.27-4.12-13.8-10.5-17.01l-11.76-19.38h5.82
		h22.45c9.93,0,18.01-8.08,18.01-18.01S945.24,419.08,935.31,419.08z M616.38,448.11h-22.45c-6.08,0-11.02-4.93-11.02-11.02
		c0-6.08,4.93-11.02,11.02-11.02h22.45V448.11z M922.31,491.5v64.49c0,1.34-0.14,2.64-0.36,3.91v43.78c0,6.02-4.9,10.92-10.92,10.92
		h-21.24c-6.02,0-10.88-4.9-10.88-10.92v-25.36H651.1v25.36c0,6.02-4.86,10.92-10.88,10.92h-21.24c-6.02,0-10.92-4.9-10.92-10.92
		v-45.2h0.14c-0.1-0.8-0.14-1.64-0.14-2.48V491.5c0-5.36,3.51-9.86,8.34-11.46l24.93-41.07l29.5-55.85
		c4.14-7.84,12.27-12.74,21.14-12.74h146.45c8.86,0,17,4.9,21.14,12.74l29.5,55.85l24.94,41.08
		C918.81,481.64,922.31,486.14,922.31,491.5z M935.31,448.11h-22.45v-22.03h22.45c6.08,0,11.02,4.93,11.02,11.02
		C946.32,443.17,941.39,448.11,935.31,448.11z"/>
</g>
<g>
	<path class="st0" d="M1341.32,506.04l-12.4-20.42l-9.97-18.87l-5.76-11.33c-2.3-3.88-6.34-6.56-10.96-7.4
		c-0.97-0.18-1.97-0.28-2.99-0.28h-76.9c-1.01,0-2.02,0.1-2.99,0.28c-4.63,0.84-8.67,3.51-10.96,7.4l-5.94,11.68l-9.68,18.34
		l-12.5,20.6c-3.32,1.65-5.47,5.03-5.47,8.8v58.9c0,5.09,4.14,9.23,9.23,9.23h11.15c5.08,0,9.21-4.14,9.21-9.23v-9.82h33.92v4.57
		h18.5v35.76h-22v13.4h-29.27v29.11h109.45v-29.11h-29.12v-13.4h-22v-35.76h18.5v-4.57H1317v9.82c0,5.09,4.13,9.23,9.21,9.23h11.15
		c5.09,0,9.23-4.14,9.23-9.23v-22.7c0.12-0.76,0.19-1.54,0.19-2.34v-33.86C1346.78,511.07,1344.64,507.69,1341.32,506.04z
		 M1307.98,624.65v15.12h-95.46v-15.12h22.28h51.06H1307.98z M1278.86,617.65h-37.07v-6.41h37.07V617.65z M1214.33,459.56
		c1.34-2.53,3.75-4.24,6.5-4.7c0.53-0.08,1.07-0.12,1.63-0.12h76.65c0.53,0,1.06,0.04,1.57,0.11c2.78,0.45,5.21,2.17,6.56,4.71
		l5.55,10.5l4.96,9.76h-113.93L1214.33,459.56z M1181.78,517.66c0-0.92,0.37-1.76,0.99-2.25c0.43-0.34,0.88-0.45,1.37-0.33
		l14.7,3.55c1.7,0.41,3.2,1.65,4.12,3.38l3.51,6.67c0.17,0.32,0.13,0.61,0.07,0.79c-0.08,0.23-0.2,0.36-0.2,0.37l-20.72-4.91
		c-2.23-0.53-3.84-2.87-3.84-5.57V517.66z M1239.89,556.88v-18.95h41.78v18.95H1239.89z M1283.4,530.94h-45.22
		c-5.06,0-9.17-5.5-9.17-12.25h63.57C1292.57,525.45,1288.45,530.94,1283.4,530.94z M1339.79,548.7c0,0.5-0.06,0.98-0.14,1.45
		l-0.05,23.58c0,1.23-1,2.23-2.23,2.23h-11.15c-1.22,0-2.22-1-2.22-2.23v-16.82h-35.32v-20.03c6.33-2.61,10.9-9.78,10.9-18.2v-6.99
		h-77.56v6.99c0,8.42,4.56,15.59,10.89,18.2v20.04h-35.52v16.82c0,1.23-0.99,2.23-2.21,2.23h-11.15c-1.23,0-2.23-1-2.23-2.23V553.5
		h0.55l-0.51-3.95c-0.04-0.28-0.04-0.57-0.04-0.86v-17.74c0.7,0.33,1.45,0.6,2.23,0.78l20.72,4.91c2.68,0.63,5.45-0.36,7.2-2.61
		c1.91-2.46,2.2-5.85,0.73-8.62l-3.51-6.67c-1.85-3.52-5.01-6.04-8.67-6.93l-13.57-3.28l11.92-19.66l1.09-2.07h121.71l13.01,21.72
		l-13.58,3.28c-3.65,0.88-6.81,3.41-8.66,6.93l-3.51,6.67c-1.46,2.78-1.18,6.16,0.73,8.62c1.75,2.25,4.49,3.25,7.2,2.61l20.72-4.91
		c0.78-0.19,1.53-0.45,2.23-0.78V548.7z M1339.79,519.36c0,2.7-1.62,5.04-3.84,5.57l-20.69,4.91c-0.06-0.05-0.16-0.17-0.23-0.37
		c-0.06-0.18-0.1-0.47,0.07-0.79l3.51-6.67c0.92-1.74,2.42-2.97,4.11-3.38l14.7-3.55c0.12-0.03,0.25-0.04,0.37-0.04
		c0.35,0,0.69,0.13,1,0.38c0.62,0.49,0.99,1.33,0.99,2.25V519.36z"/>
	<path class="st0" d="M1186.15,476.99h-15.28c-5.12,0-9.28,4.16-9.28,9.28s4.16,9.28,9.28,9.28h15.28V476.99z M1179.15,488.56h-8.29
		c-1.26,0-2.29-1.02-2.29-2.28c0-1.26,1.03-2.29,2.29-2.29h8.29V488.56z"/>
	<path class="st0" d="M1350.71,476.99h-15.28v18.56h15.28c5.12,0,9.28-4.16,9.28-9.28S1355.83,476.99,1350.71,476.99z
		 M1350.71,488.56h-8.29v-4.57h8.29c1.26,0,2.29,1.02,2.29,2.29C1352.99,487.53,1351.97,488.56,1350.71,488.56z"/>
	<path class="st0" d="M1081.82,392.39v254.38h58.24V435.61h240.38v211.15h58.24V392.39H1081.82z M1431.68,639.77h-44.24V428.62
		h-254.38v211.15h-44.24V399.39h342.86V639.77z"/>
	<path class="st0" d="M1157.44,339.71c-2.82,0-5.1,2.28-5.1,5.1s2.28,5.1,5.1,5.1c2.82,0,5.1-2.28,5.1-5.1
		S1160.25,339.71,1157.44,339.71z"/>
	<path class="st0" d="M1406.9,322.52c0-11.37-9.25-20.62-20.62-20.62h-252.06c-11.37,0-20.62,9.25-20.62,20.62v62.39h293.3V322.52z
		 M1399.9,377.92h-279.31v-55.39c0-7.51,6.11-13.62,13.62-13.62h252.06c7.51,0,13.62,6.11,13.62,13.62V377.92z"/>
	<path class="st0" d="M1359.42,318.94c-10.71-0.91-19.28,7.2-21.92,10.02l-9.27,2.14h-156.09c-3.8-4.1-9.07-6.41-14.71-6.41
		c-11.09,0-20.12,9.03-20.12,20.12c0,11.1,9.03,20.12,20.12,20.12c5.64,0,10.91-2.32,14.71-6.41h156.27l9.05,1.1
		c1.94,2.26,6.57,6.3,15.7,7.88c1.84,0.32,3.58,0.46,5.22,0.46c12.26,0,18.95-7.83,19.26-8.21l3.27-3.92l-18.89-6.4
		c-0.41-1.12-0.88-3.18-0.28-5.79c0.63-2.67,2.54-4.46,3.69-5.32l17.74,3.73v-4.31C1383.18,332.49,1371.69,319.96,1359.42,318.94z
		 M1364.27,330.92l-1.1,0.57c-0.27,0.14-6.57,3.44-8.23,10.57c-1.6,6.89,1.32,11.62,1.66,12.13l0.66,1.01l10.4,3.52
		c-3.02,1.58-7.47,2.89-13.29,1.88c-9.02-1.56-11.89-5.91-11.97-6.04l-0.87-1.5l-12.46-1.52l-160.23-0.03l-1.05,1.35
		c-2.51,3.22-6.28,5.07-10.34,5.07c-7.24,0-13.12-5.89-13.12-13.12c0-7.24,5.89-13.12,13.12-13.12c4.06,0,7.83,1.85,10.34,5.07
		l1.05,1.35h159.81l12.68-2.84l0.76-0.91c0.08-0.09,7.85-9.15,16.78-8.43c4.97,0.42,9.66,3.53,12.92,6.58L1364.27,330.92z"/>
</g>
<g>
	<path class="st0" d="M1891.11,431.24h-25.95v24.37l-8.29-13.66l-7.48-14.17l-8.34-15.79l-4.61,17.25l-0.78,2.92
		c-0.95,3.67-1.43,7.34-1.43,10.94v53.87v8.68l8.48-1.84l23.52-5.11c0.15-0.03,0.31-0.05,0.46-0.05c0.98,0,2.04,0.79,2.04,2.06v2.52
		c0,3.08-2.19,5.79-5.2,6.43l-23.76,5.07l-5.54,1.18v5.66v91.97v1.12l0.35,1.07c2.43,7.36,9.23,12.31,16.93,12.31h21.24
		c9.88,0,17.91-8.04,17.91-17.91v-43.2c0.24-1.55,0.36-3.03,0.36-4.49v-64.49c0-7.27-4.12-13.8-10.5-17.01L1868,460.26h23.12
		c8,0,14.51-6.51,14.51-14.51C1905.63,437.75,1899.12,431.24,1891.11,431.24z M1884.04,497.93v64.49c0,1.34-0.14,2.64-0.36,3.91
		v43.78c0,6.02-4.9,10.92-10.92,10.92h-21.24c-4.82,0-8.85-3.16-10.28-7.51v-91.97l23.76-5.07c6.26-1.34,10.74-6.87,10.74-13.27
		v-2.52c0-5.11-4.17-9.06-9.04-9.06c-0.64,0-1.29,0.07-1.94,0.21l-23.52,5.11v-53.87c0-3.08,0.42-6.16,1.19-9.13l0.78-2.92
		l7.58,14.35l24.94,41.08C1880.54,488.08,1884.04,492.57,1884.04,497.93z M1891.11,453.27h-18.95v-15.03h18.95
		c4.14,0,7.52,3.37,7.52,7.52C1898.63,449.89,1895.26,453.27,1891.11,453.27z"/>
	<path class="st0" d="M1751.66,430.91h-5.62h-127.22l17.45-33.18c2.5-3.92,7.6-6.45,13.06-6.45h60.91h10.97l-4.63-9.95
		c-1.01-2.18-1.48-3.65-1.57-3.92c-0.27-0.83-0.47-1.55-0.67-2.28l-0.06-0.2l-1.42-5.13h-5.32h-65.15
		c-11.49,0-21.96,6.31-27.32,16.47l-29.4,55.66l-5.46,9v-19.7h-25.94c-8,0-14.51,6.51-14.51,14.51c0,8,6.51,14.51,14.51,14.51h20.28
		l-12.53,20.64c-6.39,3.21-10.52,9.75-10.52,17.03v64.49c0,0.44,0.01,0.86,0.02,1.27l-0.02,1.21v45.2c0,9.88,8.04,17.91,17.91,17.91
		h21.24c9.86,0,17.88-8.04,17.88-17.91v-18.37h139.23h7v-7v-10.18v-7h-7h-71.59v-18.12h71.59h7v-7v-7.19v-7h-7h-85.67
		c-12.57,0-22.83-10.14-23.01-22.67h108.68h7v-7v-45.37c0-5.49-0.64-11.16-1.9-16.84L1751.66,430.91z M1573.23,453.27h-18.95
		c-4.14,0-7.52-3.37-7.52-7.52c0-4.14,3.37-7.52,7.52-7.52h18.95V453.27z M1747.77,498.6h-115.68v6.65
		c0,16.57,13.44,30.01,30.01,30.01h85.67v7.19h-78.59v32.11h78.59v10.18h-146.23v25.36c0,6.02-4.86,10.92-10.88,10.92h-21.24
		c-6.02,0-10.92-4.9-10.92-10.92v-45.2h0.14c-0.11-0.8-0.14-1.64-0.14-2.48v-64.49c0-5.36,3.51-9.86,8.34-11.46l24.93-41.07
		l29.5-55.85c4.14-7.84,12.27-12.74,21.14-12.74h65.15c0.25,0.89,0.49,1.79,0.78,2.68c0.22,0.71,0.81,2.44,1.91,4.81h-60.91
		c-8.02,0-15.39,3.83-19.14,9.96l-22.97,43.66h138.81c1.11,5.01,1.73,10.13,1.73,15.32V498.6z"/>
	<path class="st0" d="M1612.48,504.72c-2.28-3.9-6.09-6.66-10.5-7.62l-24.16-5.25c-0.65-0.14-1.3-0.21-1.94-0.21
		c-4.87,0-9.04,3.95-9.04,9.06v2.52c0,6.4,4.48,11.94,10.74,13.27l34.05,7.26c0.46,0.1,0.91,0.14,1.34,0.14
		c4.57,0,7.76-5.08,5.28-9.31L1612.48,504.72z M1579.03,509.63c-3.01-0.64-5.2-3.35-5.2-6.43v-2.52c0-1.27,1.06-2.06,2.04-2.06
		c0.15,0,0.3,0.02,0.46,0.05l24.16,5.25c2.49,0.54,4.66,2.12,5.95,4.32l4.83,8.26L1579.03,509.63z"/>
	<path class="st0" d="M1843.93,389.63c9.13-7.73,24.73-24.11,24.73-45.87c0-30.82-37.05-62.41-51.99-62.41l10.81,40.23
		c0,0,5.28,20.99-25.71,31.59c-6.8,2.33-12.76,3.23-17.92,3.23c-18.36,0-26.61-11.49-26.61-11.49l-14.69-46.11
		c0,0-29.04,42.4-17.49,77.49c0,0,3.64,12.32,16.79,22.36c6.75,5.11,12.14,11.79,15.36,19.63l1.61,3.85
		c4.06,9.87,6.16,20.43,6.16,31.1v167.9h61.19V443.09c0-3.99,0.52-7.98,1.57-11.83l7.31-27.5
		C1836.52,398.24,1839.59,393.34,1843.93,389.63z M1820.98,429.42c-1.21,4.43-1.82,9.03-1.82,13.67v171.05h-47.2v-160.9
		c0-11.62-2.25-22.98-6.7-33.8l-1.59-3.81c-3.6-8.76-9.69-16.56-17.59-22.53c-11.01-8.4-14.31-18.72-14.33-18.78l-0.03-0.1
		l-0.03-0.1c-6.6-20.07,1.96-43.54,9.04-57.93l9.83,30.85l0.34,1.06l0.65,0.9c0.42,0.59,10.59,14.41,32.3,14.41
		c6.39,0,13.18-1.21,20.19-3.61c29.34-10.03,32.61-30.5,30.21-40.03l-7.39-27.52c14.37,8.75,34.82,30.8,34.82,51.52
		c0,18.86-13.95,33.49-22.28,40.55c-5.43,4.64-9.26,10.74-11.1,17.65L1820.98,429.42z"/>
</g>
<path class="st0" d="M2317.01,606.21l22.41,11.91l13.16,6.99l-3.02-14.59c-0.26-1.26-6.64-31-27.52-41.91
	c-1.11-0.6-6.87-3.47-15.14-3.47c-2.07,0-4.15,0.18-6.2,0.54c-0.32,0.06-0.65,0.08-0.96,0.08c-0.92,0-1.77-0.24-2.46-0.69
	l-12.82-8.43c-0.6-0.39-1.16-0.85-1.66-1.36l-70.7-70.7l1.24-1.23l70.58-70.58l11.7-10.8c3.48-3.21,7.88-5.05,12.38-5.17
	c7.97-0.22,19.28-2.28,27.88-10.87c14.65-14.65,13.77-45.32,4.95-54.14l-6.38-6.38l-4.59,7.77l-11.66,19.73
	c-0.33,0.43-1.96,2.27-5.48,2.27c-2.24,0-4.86-0.7-7.78-2.09c-8.62-4.09-9.66-9.59-9.71-11.77l11.92-22.44l6.99-13.16l-14.59,3.02
	c-1.26,0.26-30.99,6.64-41.9,27.51c-0.77,1.41-4.95,9.82-2.93,21.35c0.22,1.27,0.01,2.48-0.61,3.42l-8.43,12.82
	c-0.39,0.6-0.85,1.16-1.36,1.66l-69.41,69.41l-1.24,1.24l-60.43-60.43c-1.43-1.43-2.67-3.04-3.68-4.79l-9.41-16.24
	c-1.18-2.03-1.7-4.33-1.51-6.63c0.76-9.16,0.24-26.33-11.89-38.45c-7.93-7.93-21.1-12.49-36.12-12.49c-9.4,0-21.46,2.01-27.09,7.64
	l-6.45,6.45l7.9,4.56l23.59,13.61c0.92,0.67,6.25,5.24,0.15,17.67c-5.68,11.58-13.23,13.05-16.42,13.1l-27.03-13.95l-12.71-6.56
	l2.63,14.07c0.28,1.5,7.12,36.76,31.64,49.19c1.17,0.62,7.48,3.69,16.73,3.69c1.88,0,3.78-0.13,5.66-0.38
	c1.2-0.16,2.4-0.24,3.59-0.24c3.22,0,6.29,0.59,9.1,1.77l2.52,1.05c5.68,2.36,10.77,5.77,15.12,10.12l55.69,55.69l-1.24,1.25
	l-59.24,59.24c-1.43,1.43-3.04,2.67-4.79,3.68l-16.24,9.41c-1.74,1.01-3.71,1.54-5.7,1.54c-0.31,0-0.62-0.01-0.93-0.04
	c-1.81-0.15-3.65-0.23-5.47-0.23c-9.52,0-22.97,2.1-32.99,12.12c-16.54,16.54-15.05,53-4.85,63.21l6.45,6.45l4.56-7.9l13.61-23.58
	c0.38-0.53,2.48-3.05,7.22-3.05c3.01,0,6.53,0.98,10.45,2.9c11.93,5.85,13.11,13.62,13.12,16.39l-13.97,27.07l-6.56,12.71
	l14.07-2.63c1.5-0.28,36.76-7.12,49.18-31.63c0.77-1.45,4.97-10.11,3.31-22.39c-0.6-4.46-0.08-8.84,1.52-12.69l1.05-2.53
	c2.36-5.68,5.77-10.77,10.12-15.12l54.5-54.5l1.24-1.25l71.87,71.87l10.8,11.7c3.21,3.48,5.05,7.88,5.17,12.38
	c0.22,7.97,2.28,19.28,10.87,27.88c10.16,10.16,25.82,11.25,32.08,11.25c4.74,0,16.37-0.61,22.06-6.3l6.38-6.38l-7.77-4.59
	l-19.73-11.66c-0.95-0.72-4.49-4.17-0.18-13.26C2309.1,607.71,2314.17,606.29,2317.01,606.21z M2249.26,380.48
	c0.84-0.84,1.6-1.77,2.26-2.77l8.43-12.82c1.64-2.5,2.17-5.52,1.65-8.46c-1.72-9.84,2.21-16.85,2.21-16.85
	c9.47-18.22,37.15-23.95,37.15-23.95l-12.62,23.74c0,0-2.31,12.54,13.58,20.08c4.26,2.02,7.83,2.76,10.78,2.76
	c8.03,0,11.39-5.5,11.39-5.5l11.78-19.93c5.63,5.63,7.19,32.1-4.95,44.24c-6.94,6.94-16.34,8.64-23.12,8.82
	c-6.3,0.17-12.3,2.75-16.94,7.02l-11.8,10.89l-70.68,70.68l-28.53-28.53L2249.26,380.48z M2112.98,573.82
	c-4.98,4.98-8.93,10.88-11.63,17.38l-1.05,2.52c-2.14,5.15-2.75,10.79-2,16.32c1.46,10.82-2.58,18.23-2.58,18.23
	c-10.97,21.76-44.26,27.98-44.26,27.98l14.63-28.35c0,0,2.47-15.09-16.92-24.6c-5.42-2.66-9.9-3.62-13.53-3.62
	c-9.37,0-13.17,6.36-13.17,6.36l-13.72,23.78c-6.95-6.95-9.51-38.96,4.85-53.31c8.32-8.32,19.83-10.07,28.04-10.07
	c1.81,0,3.46,0.09,4.88,0.2c0.5,0.04,1.01,0.06,1.51,0.06c3.23,0,6.4-0.86,9.21-2.49l16.24-9.41c2.27-1.32,4.37-2.93,6.23-4.79
	l59.24-59.24l28.53,28.53L2112.98,573.82z M2298.89,612.91c-7.54,15.89,2.74,22.16,2.74,22.16l19.93,11.78
	c-2.54,2.54-9.32,4.25-17.11,4.25c-9.48,0-20.46-2.54-27.13-9.2c-6.94-6.94-8.64-16.34-8.82-23.12c-0.17-6.3-2.75-12.3-7.02-16.94
	l-10.89-11.8L2084.5,423.96c-4.98-4.98-10.88-8.93-17.38-11.63l-2.52-1.05c-3.75-1.56-7.76-2.3-11.79-2.3
	c-1.51,0-3.02,0.1-4.53,0.31c-1.66,0.22-3.23,0.32-4.72,0.32c-8.2,0-13.51-2.9-13.51-2.9c-21.76-10.97-27.98-44.26-27.98-44.26
	l28.35,14.63c0,0,0.62,0.1,1.69,0.1c4.2,0,15.33-1.57,22.91-17.02c9.51-19.39-2.74-26.7-2.74-26.7l-23.78-13.72
	c3.29-3.29,12.17-5.59,22.14-5.59c11.12,0,23.6,2.87,31.17,10.44c10.15,10.15,10.52,25.06,9.86,32.92
	c-0.31,3.74,0.54,7.48,2.42,10.72l9.41,16.24c1.32,2.27,2.93,4.37,4.79,6.23l169.55,169.55c0.84,0.84,1.77,1.6,2.77,2.26l12.82,8.43
	c1.88,1.24,4.07,1.84,6.3,1.84c0.72,0,1.45-0.06,2.17-0.19c1.76-0.31,3.44-0.43,5-0.43c7.13,0,11.85,2.65,11.85,2.65
	c18.22,9.47,23.95,37.15,23.95,37.15l-23.74-12.62c0,0-0.64-0.12-1.71-0.12C2313.57,599.21,2304.73,600.6,2298.89,612.91z"/>
<g>
	<path class="st0" d="M296.69,921.8c-4.07,0-7.38,3.3-7.38,7.38c0,4.07,3.3,7.38,7.38,7.38c4.07,0,7.38-3.3,7.38-7.38
		C304.07,925.11,300.76,921.8,296.69,921.8z M296.69,929.56c-0.21,0-0.38-0.17-0.38-0.38c0-0.21,0.17-0.38,0.38-0.38
		c0.21,0,0.38,0.17,0.38,0.38C297.07,929.39,296.9,929.56,296.69,929.56z"/>
	<path class="st0" d="M287.5,951.06h-62.35c-2.37,0-4.29,1.92-4.29,4.29v0.16c0,2.37,1.92,4.29,4.29,4.29h62.35
		c2.37,0,4.29-1.92,4.29-4.29v-0.16C291.79,952.98,289.87,951.06,287.5,951.06z"/>
	<path class="st0" d="M228.24,929.18c0-4.07-3.3-7.38-7.38-7.38c-4.07,0-7.38,3.3-7.38,7.38c0,4.07,3.3,7.38,7.38,7.38
		C224.94,936.56,228.24,933.26,228.24,929.18z M220.48,929.18c0-0.21,0.17-0.38,0.38-0.38c0.21,0,0.38,0.17,0.38,0.38
		c0,0.21-0.17,0.38-0.38,0.38C220.65,929.56,220.48,929.39,220.48,929.18z"/>
	<path class="st0" d="M281.74,783.56c6,0,10.88-4.88,10.88-10.88c0-6-4.88-10.88-10.88-10.88c-6,0-10.88,4.88-10.88,10.88
		C270.86,778.68,275.74,783.56,281.74,783.56z M281.74,768.8c2.14,0,3.88,1.74,3.88,3.88s-1.74,3.88-3.88,3.88s-3.88-1.74-3.88-3.88
		S279.6,768.8,281.74,768.8z"/>
	<path class="st0" d="M233.52,783.56c6,0,10.88-4.88,10.88-10.88c0-6-4.88-10.88-10.88-10.88c-6,0-10.88,4.88-10.88,10.88
		C222.64,778.68,227.52,783.56,233.52,783.56z M233.52,768.8c2.14,0,3.88,1.74,3.88,3.88s-1.74,3.88-3.88,3.88s-3.88-1.74-3.88-3.88
		S231.38,768.8,233.52,768.8z"/>
	<path class="st0" d="M300.97,720.43h-89.3v24.46h89.3V720.43z M293.98,737.89h-75.31v-10.46h75.31V737.89z"/>
	<path class="st0" d="M467.71,851.81c4.52,0,8.19-3.67,8.19-8.19v-0.59c0-4.52-3.67-8.19-8.19-8.19h-26.27
		c-3.94,0-7.14,3.2-7.14,7.15v30.06c0,3.94,3.2,7.15,7.14,7.15h26.27c4.52,0,8.19-3.67,8.19-8.19v-0.59c0-4.52-3.67-8.19-8.19-8.19
		h-14.34v-10.41H467.71z M467.71,869.21c0.66,0,1.19,0.54,1.19,1.19V871c0,0.66-0.54,1.19-1.19,1.19l-26.41-0.15v-27.48l0.15-2.74
		h26.27c0.66,0,1.19,0.54,1.19,1.19v0.59c0,0.66-0.54,1.19-1.19,1.19h-21.34v24.4H467.71z"/>
	<polygon class="st0" points="181.76,861.38 192.64,861.38 201.39,852.63 190.51,852.63 	"/>
	<polygon class="st0" points="201.46,861.38 212.34,861.38 221.09,852.63 210.21,852.63 	"/>
	<polygon class="st0" points="221.16,861.38 232,861.38 240.79,852.63 229.9,852.63 	"/>
	<polygon class="st0" points="240.82,861.38 251.7,861.38 260.45,852.63 249.6,852.63 	"/>
	<polygon class="st0" points="260.52,861.38 271.4,861.38 280.14,852.63 269.26,852.63 	"/>
	<polygon class="st0" points="280.21,861.38 291.09,861.38 299.84,852.63 288.96,852.63 	"/>
	<polygon class="st0" points="299.91,861.38 310.76,861.38 319.54,852.63 308.66,852.63 	"/>
	<polygon class="st0" points="319.57,861.38 330.45,861.38 339.2,852.63 328.35,852.63 	"/>
	<path class="st0" d="M65.7,852.63v8.75h19.49c-0.63-2.83-0.63-5.84,0.07-8.75H65.7z"/>
	<path class="st0" d="M108.82,867.89c6,0,10.88-4.88,10.88-10.88c0-6-4.88-10.88-10.88-10.88c-6,0-10.88,4.88-10.88,10.88
		C97.94,863.01,102.82,867.89,108.82,867.89z M108.82,853.13c2.14,0,3.88,1.74,3.88,3.88c0,2.14-1.74,3.88-3.88,3.88
		s-3.88-1.74-3.88-3.88C104.94,854.87,106.68,853.13,108.82,853.13z"/>
	<path class="st0" d="M408.74,846.13c-6,0-10.88,4.88-10.88,10.88c0,6,4.88,10.88,10.88,10.88c6,0,10.88-4.88,10.88-10.88
		C419.61,851.01,414.73,846.13,408.74,846.13z M408.74,860.89c-2.14,0-3.88-1.74-3.88-3.88c0-2.14,1.74-3.88,3.88-3.88
		c2.14,0,3.88,1.74,3.88,3.88C412.61,859.15,410.88,860.89,408.74,860.89z"/>
	<path class="st0" d="M425.74,842.99l-0.96-1.16c-0.32-0.36-0.68-0.73-1.05-1.09c-0.36-0.36-0.77-0.77-1.44-1.29l-3.64-2.47
		l-117.73-69.06c-0.59-10.18-9.03-18.29-19.36-18.29h-50.48c-10.7,0-19.41,8.7-19.42,19.4L98.91,837l-8.26,7.9l-0.57,0.73
		c-0.54,0.92-1,1.88-1.42,2.9c-0.25,0.63-0.49,1.26-0.7,2c-0.14,0.45-0.27,0.89-0.39,1.42c-0.14,0.7-0.29,1.39-0.38,2.11
		c-0.06,0.3-0.1,0.59-0.1,0.89c-0.09,0.74-0.13,1.49-0.13,2.23c0,0.63,0.04,1.29,0.11,2.28l0.07,0.51c0.04,0.7,0.18,1.4,0.33,2.12
		c0.2,0.85,0.41,1.71,0.67,2.42c0.28,0.9,0.68,1.83,1.1,2.74c0.22,0.48,0.52,1.01,0.77,1.42c0.25,0.46,0.54,0.92,0.87,1.43
		c1.44,2.16,3.22,4.04,5.39,5.66l1.1,0.77c0.4,0.26,0.8,0.53,1.29,0.79c0.04,0.02,0.08,0.04,0.12,0.06l92.8,53.59l-9.8,20.89
		c-2.3,4.9-1.94,10.55,0.97,15.11c2.9,4.57,7.86,7.29,13.27,7.29h120.6c5.41,0,10.37-2.73,13.27-7.29
		c2.9-4.57,3.26-10.22,0.97-15.11l-8.75-18.67l97.01-55.99c0.51-0.3,1-0.64,1.48-0.97c0.1-0.07,0.21-0.11,0.31-0.18
		c0.56-0.4,1.13-0.85,1.73-1.35c0.37-0.32,0.73-0.65,1.09-1.01c0.36-0.36,0.72-0.73,1.04-1.09c0.68-0.76,1.28-1.55,2-2.56l1.23-2.12
		l0.67-0.73v-0.66c0.29-0.67,0.56-1.35,0.77-1.97c2.02-6.03,1.52-12.41-1.41-18L425.74,842.99z M231.08,756.62h50.48
		c6.85,0,12.42,5.57,12.42,12.42v19.38c0,6.85-5.57,12.42-12.42,12.42h-15.82h-17.13h-17.53c-6.85,0-12.42-5.57-12.42-12.42v-19.38
		C218.66,762.19,224.23,756.62,231.08,756.62z M354.1,861.38l-74.95,43.26c-1.37,0.78-2.7,1.75-3.96,2.88l-1.67,1.5h-29.45
		l-1.67-1.5c-1.27-1.14-2.6-2.11-3.95-2.88l-74.98-43.26h9.48l8.75-8.75h-17.76l73.24-44.79h40.42l75.87,44.79h-5.44l-8.75,8.75
		H354.1z M96.74,866.27c-0.2-0.31-0.4-0.62-0.63-1.04c-0.18-0.31-0.37-0.63-0.5-0.9c-0.29-0.64-0.59-1.32-0.83-2.06
		c-0.2-0.58-0.35-1.2-0.47-1.74c-0.07-0.33-0.15-0.68-0.19-1.22l-0.09-0.58c-0.03-0.53-0.06-1.05-0.06-1.55
		c0-0.52,0.02-1.05,0.1-1.57l0.11-0.68l-0.02-0.09c0.06-0.49,0.17-0.96,0.26-1.4c0.06-0.28,0.15-0.54,0.23-0.81l0.12-0.38
		c0.1-0.37,0.26-0.74,0.42-1.15c0.2-0.49,0.44-1.01,0.71-1.51l6.98-6.79l108.79-65.59v11.23c0,0.97,0.1,1.92,0.23,2.85
		c0.03,0.19,0.05,0.38,0.09,0.57c0.16,0.89,0.38,1.77,0.65,2.62c0.05,0.15,0.11,0.3,0.17,0.46c0.28,0.78,0.6,1.54,0.98,2.28
		c0.05,0.11,0.1,0.22,0.16,0.32c0.42,0.78,0.89,1.52,1.41,2.24c0.12,0.16,0.23,0.32,0.35,0.47c0.54,0.7,1.11,1.37,1.74,1.99
		c0.07,0.07,0.15,0.13,0.22,0.2c0.59,0.57,1.22,1.09,1.88,1.58c0.14,0.11,0.28,0.22,0.42,0.32c0.71,0.5,1.46,0.95,2.24,1.35
		c0.17,0.09,0.34,0.16,0.51,0.25c0.77,0.37,1.56,0.7,2.38,0.97c0.05,0.02,0.09,0.04,0.14,0.06l-69.79,42.69l-6.16,3.56l0,0
		l-31.17,17.98c-4.83,2.79-11.14,2.81-15.97,0.06l0,0.01c-0.06-0.03-0.11-0.05-0.17-0.08c-0.23-0.13-0.46-0.29-0.64-0.41l-0.96-0.67
		C98.93,869.01,97.7,867.71,96.74,866.27z M116.69,879.32c1.71-0.51,3.36-1.19,4.91-2.08l27.67-15.98l78.61,45.36h-20.26
		c-5.07,0-9.72,3.11-11.84,7.93l-3.78,8.57l-75.65-43.69C116.47,879.41,116.58,879.36,116.69,879.32z M316.63,967.26h-120.6
		c-6.4,0-10.62-6.65-7.91-12.44l15.84-33.78c1.44-3.07,4.52-5.02,7.91-5.02h88.93c3.39,0,6.47,1.96,7.91,5.02l15.84,33.78
		C327.25,960.61,323.02,967.26,316.63,967.26z M321.66,925.37l-4.79-10.81c-2.12-4.82-6.77-7.93-11.84-7.93H289.7l78.58-45.37
		l2.8,1.61l24.87,14.36c1.51,0.87,3.12,1.53,4.77,2.04c0.17,0.05,0.33,0.13,0.5,0.17L321.66,925.37z M422.79,862.37
		c-0.2,0.63-0.49,1.28-0.78,1.9l-1.05,1.84c-0.45,0.63-0.9,1.24-1.41,1.81c-0.24,0.27-0.51,0.53-0.77,0.8
		c-0.27,0.26-0.53,0.5-0.73,0.68c-0.38,0.32-0.79,0.65-1.19,0.93l-0.01-0.01c-5.1,3.6-12.13,3.9-17.4,0.84l-19.71-11.36l-2.47-1.43
		l-88.36-51.97c0.02-0.01,0.04-0.02,0.07-0.03c0.78-0.33,1.54-0.71,2.26-1.13c0.16-0.09,0.32-0.19,0.48-0.29
		c0.67-0.41,1.31-0.85,1.92-1.34c0.06-0.04,0.12-0.08,0.17-0.13c0.65-0.53,1.26-1.11,1.83-1.72c0.13-0.14,0.25-0.28,0.38-0.42
		c0.53-0.59,1.03-1.21,1.49-1.87c0.03-0.04,0.06-0.08,0.09-0.13c0.47-0.69,0.89-1.43,1.27-2.18c0.09-0.18,0.17-0.36,0.26-0.54
		c0.35-0.74,0.66-1.5,0.92-2.3c0.01-0.03,0.02-0.06,0.03-0.09c0.26-0.81,0.44-1.66,0.59-2.51c0.04-0.21,0.07-0.42,0.1-0.63
		c0.12-0.87,0.2-1.75,0.2-2.66v-12.36l113.93,66.82l3.21,2.18c0.25,0.2,0.46,0.42,0.66,0.62c0.27,0.27,0.53,0.53,0.65,0.66
		l2.19,3.09l0.21,0.38C423.87,853.68,424.21,858.12,422.79,862.37z"/>
</g>
<g>
	<path class="st0" d="M775.14,694.95l-30.56,30.56L853.2,834.15l30.56-30.56L775.14,694.95z M754.47,725.51l20.67-20.67l98.74,98.74
		l-20.67,20.67L754.47,725.51z"/>
	<path class="st0" d="M839.72,715.75c-6.41,6.41-6.41,16.84,0,23.25c3.2,3.2,7.41,4.81,11.62,4.81c4.21,0,8.42-1.6,11.63-4.81v0
		c6.41-6.41,6.41-16.84,0-23.25C856.55,709.34,846.13,709.34,839.72,715.75z M858.02,734.05c-3.68,3.68-9.67,3.68-13.36,0
		c-3.68-3.68-3.68-9.67,0-13.36c1.84-1.84,4.26-2.76,6.68-2.76s4.84,0.92,6.68,2.76C861.7,724.38,861.7,730.37,858.02,734.05z"/>
	<path class="st0" d="M880.95,758.24c5.21-17.16,0.57-35.69-12.11-48.37c-12.68-12.68-31.21-17.32-48.37-12.11l-25.89,7.86
		l78.5,78.5L880.95,758.24z M807.79,708.93l14.72-4.47c14.67-4.46,30.54-0.49,41.39,10.36c10.85,10.85,14.82,26.71,10.36,41.39
		l-4.47,14.72L807.79,708.93z"/>
	<path class="st0" d="M574.41,895.68l108.63,108.63l30.56-30.56L604.97,865.12L574.41,895.68z M683.04,994.42l-98.74-98.74
		l20.67-20.67l98.74,98.74L683.04,994.42z"/>
	<path class="st0" d="M576.25,942c-5.21,17.15-0.57,35.69,12.11,48.37c9.24,9.24,21.59,14.21,34.24,14.21
		c4.71,0,9.47-0.69,14.12-2.1l25.89-7.86l-78.5-78.5L576.25,942z M649.42,991.3l-14.73,4.47c-14.67,4.46-30.54,0.49-41.39-10.36
		c-10.85-10.85-14.82-26.71-10.36-41.39l4.47-14.73L649.42,991.3z"/>
	<path class="st0" d="M605.86,989.3c4.39,0,8.52-1.71,11.62-4.81c0,0,0,0,0,0c3.11-3.11,4.82-7.23,4.82-11.62
		c0-4.39-1.71-8.52-4.82-11.62c-3.11-3.11-7.23-4.82-11.62-4.82s-8.52,1.71-11.62,4.81c-3.11,3.11-4.82,7.23-4.82,11.62
		c0,4.39,1.71,8.52,4.82,11.62C597.34,987.59,601.47,989.3,605.86,989.3z M599.18,966.18c1.78-1.78,4.15-2.77,6.68-2.77
		c2.52,0,4.89,0.98,6.68,2.77c1.78,1.78,2.77,4.15,2.77,6.67c0,2.52-0.98,4.89-2.77,6.68v0c-3.57,3.57-9.79,3.57-13.35,0
		c-1.78-1.78-2.77-4.15-2.77-6.68C596.42,970.34,597.4,967.97,599.18,966.18z"/>
	<path class="st0" d="M833.66,821.18l-34.36-19.84l9.33-9.33l-21.93-21.93l-15.2,15.2l-39.36-22.72c-2.5-1.44-5.41-1.82-8.17-1.08
		c-2.78,0.74-5.1,2.53-6.54,5.02c-2.97,5.14-1.2,11.74,3.94,14.72l34.36,19.84l-15.09,15.09l-39.36-22.72
		c-2.49-1.44-5.4-1.82-8.18-1.08c-2.78,0.74-5.1,2.53-6.54,5.02c-2.97,5.14-1.2,11.74,3.94,14.72l34.36,19.84l-15.09,15.09
		l-39.36-22.72c-2.49-1.44-5.4-1.82-8.18-1.08c-2.78,0.74-5.1,2.53-6.54,5.02c-1.44,2.49-1.82,5.39-1.08,8.17
		c0.74,2.78,2.52,5.1,5.02,6.54L694,862.79l-15.09,15.09l-39.35-22.72c-2.5-1.45-5.39-1.82-8.18-1.08c-2.78,0.74-5.1,2.53-6.54,5.02
		c-2.97,5.15-1.2,11.75,3.95,14.72l34.36,19.84l-13.59,13.59l21.93,21.93l19.46-19.46l39.36,22.72c1.69,0.98,3.54,1.44,5.37,1.44
		c3.73,0,7.36-1.93,9.35-5.38c1.44-2.49,1.82-5.4,1.08-8.18c-0.74-2.78-2.53-5.1-5.02-6.54l-34.36-19.84l15.09-15.09l39.35,22.72
		c1.69,0.98,3.54,1.44,5.37,1.44c3.73,0,7.36-1.93,9.35-5.38c1.44-2.49,1.82-5.4,1.08-8.18s-2.53-5.1-5.02-6.54l-34.36-19.84
		l15.09-15.09l39.36,22.72c1.69,0.98,3.54,1.44,5.37,1.44c3.73,0,7.36-1.93,9.35-5.38c1.44-2.49,1.82-5.4,1.08-8.18
		s-2.53-5.1-5.02-6.54l-34.36-19.84l15.09-15.09l39.35,22.72c1.69,0.98,3.54,1.44,5.37,1.44c3.73,0,7.36-1.93,9.35-5.38
		c1.44-2.49,1.82-5.39,1.08-8.17C837.93,824.95,836.15,822.62,833.66,821.18z M786.7,779.99l12.03,12.03l-1.87,1.87l-15.26-8.81
		L786.7,779.99z M671.48,919.28l-12.03-12.03l6.16-6.16l15.26,8.81L671.48,919.28z M739.33,922.12c0.26,0.97,0.13,1.99-0.38,2.86
		c-1.04,1.8-3.35,2.42-5.16,1.38l-101.51-58.61c-1.8-1.04-2.42-3.36-1.38-5.16c1.04-1.8,3.35-2.43,5.16-1.38l101.51,58.61
		C738.44,920.33,739.07,921.15,739.33,922.12z M704.3,886.45l-15.26-8.81l7.41-7.41l15.26,8.81L704.3,886.45z M770.2,891.26
		c0.26,0.97,0.13,1.99-0.38,2.86c-1.04,1.8-3.36,2.42-5.16,1.38L663.14,836.9c-0.87-0.5-1.5-1.32-1.76-2.29
		c-0.26-0.97-0.13-1.99,0.38-2.87c0.5-0.87,1.32-1.5,2.29-1.76c0.98-0.26,2-0.13,2.87,0.38l101.51,58.61
		C769.31,889.47,769.93,890.29,770.2,891.26z M735.16,855.6l-15.26-8.81l7.4-7.41l15.26,8.81L735.16,855.6z M801.06,860.4
		c0.26,0.97,0.13,1.99-0.38,2.86c-1.04,1.8-3.35,2.42-5.16,1.38l-101.51-58.61c-1.8-1.04-2.42-3.36-1.38-5.16
		c0.5-0.87,1.32-1.5,2.29-1.76c0.98-0.26,2-0.13,2.87,0.38l101.51,58.61C800.17,858.61,800.79,859.42,801.06,860.4z M766.01,824.74
		l-15.26-8.81l7.41-7.41l15.26,8.81L766.01,824.74z M831.54,832.4c-1.04,1.81-3.37,2.42-5.16,1.38l-101.51-58.61
		c-1.8-1.04-2.42-3.36-1.38-5.16c1.04-1.81,3.36-2.42,5.16-1.38l101.52,58.61c0.87,0.51,1.5,1.32,1.76,2.29
		C832.18,830.51,832.05,831.53,831.54,832.4z"/>
</g>
<g>
	<path class="st0" d="M1101.46,730.36l76.37-27.8l-3.85-10.59c-1.1-3.02-3.95-4.9-6.99-4.9c-0.84,0-1.7,0.15-2.54,0.45l-62.39,22.71
		c-3.86,1.41-5.85,5.67-4.45,9.53L1101.46,730.36z M1104.44,716.81l62.39-22.71c0.05-0.02,0.1-0.03,0.15-0.03
		c0.01,0,0.31,0,0.42,0.29l1.46,4.01l-63.22,23.01l-1.46-4.01C1104.09,717.15,1104.21,716.9,1104.44,716.81z"/>
	<path class="st0" d="M1444.92,739.55l-115.22-41.94c-11.39-4.14-24.05,1.75-28.2,13.15l-2.27,6.21l23.14,8.42
		c0.38,0.14,0.56,0.42,0.64,0.58c0.08,0.16,0.18,0.48,0.04,0.86l-1.51,4.16c-0.14,0.38-0.43,0.56-0.58,0.64
		c-0.16,0.07-0.49,0.17-0.86,0.04l-23.14-8.42l-7.28,20.02l23.13,8.42c0.58,0.21,0.89,0.86,0.68,1.45l-1.51,4.16
		c-0.21,0.59-0.87,0.88-1.45,0.68l-23.13-8.42l-7.29,20.02l23.14,8.42c0.38,0.14,0.56,0.43,0.64,0.58c0.08,0.16,0.18,0.48,0.04,0.86
		l-1.51,4.16c-0.14,0.38-0.43,0.56-0.58,0.64c-0.16,0.07-0.47,0.18-0.86,0.04l-23.13-8.42l-2.26,6.21
		c-2.01,5.52-1.75,11.5,0.73,16.82c2.48,5.33,6.89,9.37,12.42,11.38l115.22,41.94c0.92,0.33,1.85,0.54,2.79,0.75
		c-1.01-0.2-1.97-0.44-2.81-0.74l-112.14-40.83l-0.58-0.21h-54.66l2.5-0.91c11.4-4.15,17.3-16.8,13.15-28.2l-2.26-6.21l-23.14,8.42
		v0c-0.39,0.14-0.71,0.03-0.86-0.04c-0.16-0.08-0.44-0.26-0.58-0.64l-1.51-4.15c-0.22-0.59,0.09-1.24,0.67-1.45l23.13-8.42
		l-7.28-20.02l-23.13,8.42c-0.57,0.21-1.24-0.09-1.45-0.67l-1.51-4.16c-0.14-0.38-0.04-0.71,0.04-0.86
		c0.08-0.16,0.25-0.44,0.64-0.58l23.14-8.42l-7.29-20.02l-23.13,8.42c-0.6,0.21-1.24-0.09-1.45-0.67l-1.51-4.16
		c-0.14-0.38-0.03-0.7,0.04-0.86c0.08-0.16,0.26-0.44,0.64-0.58l23.13-8.42l-2.26-6.21c-2.01-5.52-6.05-9.93-11.38-12.42
		c-5.32-2.48-11.3-2.75-16.82-0.73l-115.22,41.94c-5.52,2.01-9.93,6.05-12.42,11.38c-2.48,5.32-2.75,11.3-0.73,16.82l2.26,6.21
		l23.14-8.42c0.38-0.14,0.7-0.03,0.86,0.04c0.16,0.07,0.44,0.25,0.58,0.64l1.51,4.16c0.14,0.38,0.04,0.7-0.04,0.86
		c-0.08,0.16-0.25,0.44-0.64,0.58l-23.13,8.42l7.28,20.02l23.13-8.42c0.39-0.14,0.7-0.04,0.86,0.04c0.16,0.08,0.44,0.26,0.58,0.64
		l1.51,4.16c0.21,0.58-0.09,1.23-0.68,1.45l-23.13,8.42l7.28,20.02l23.14-8.42c0.38-0.15,0.7-0.04,0.86,0.04
		c0.16,0.07,0.44,0.25,0.58,0.64l1.51,4.16c0.14,0.38,0.04,0.71-0.04,0.86c-0.08,0.16-0.25,0.44-0.64,0.58l-23.13,8.42l2.26,6.21
		c3.25,8.92,11.71,14.48,20.69,14.48c0.97,0,1.94-0.12,2.91-0.25l-3.5,0.48l18.03,117.04c1.99,12.92,12.93,22.31,26.01,22.31h208.24
		c13.08,0,24.02-9.38,26-22.31l18.03-117.04l-3.38-0.46c0.94,0.12,1.88,0.25,2.83,0.25c3.17,0,6.33-0.69,9.28-2.07
		c5.33-2.48,9.37-6.89,11.38-12.41l2.26-6.21l-23.13-8.42c-0.58-0.21-0.89-0.86-0.68-1.45l1.51-4.16c0.22-0.59,0.87-0.88,1.45-0.68
		l23.13,8.42l7.28-20.02l-23.13-8.42c-0.58-0.21-0.88-0.86-0.67-1.45l1.52-4.16c0.14-0.38,0.42-0.56,0.58-0.63
		c0.15-0.08,0.49-0.18,0.86-0.04l23.14,8.42l7.28-20.02l-23.13-8.42c-0.38-0.14-0.56-0.43-0.64-0.58c-0.07-0.16-0.17-0.48-0.04-0.86
		l1.51-4.16c0.21-0.58,0.86-0.89,1.45-0.67l23.13,8.42l2.27-6.21C1462.22,756.34,1456.32,743.69,1444.92,739.55z M1102.31,837.01
		l16.55-6.03c2.04-0.74,3.67-2.23,4.59-4.2c0.92-1.97,1.01-4.17,0.27-6.21l-1.51-4.15c-0.74-2.04-2.23-3.67-4.2-4.59
		c-1.97-0.92-4.18-1.02-6.21-0.28l-16.56,6.03l-2.5-6.87l16.56-6.03c2.04-0.74,3.67-2.23,4.59-4.2c0.92-1.97,1.01-4.17,0.27-6.21
		l-1.51-4.16c-1.53-4.21-6.21-6.39-10.41-4.85l-16.56,6.03l-2.5-6.87l16.56-6.03c2.04-0.74,3.67-2.23,4.59-4.2
		c0.92-1.97,1.01-4.18,0.27-6.21l-1.51-4.16c-0.74-2.04-2.23-3.67-4.2-4.59c-1.97-0.92-4.18-1.02-6.21-0.27l-16.56,6.03
		c-1.23-3.66-1.01-7.59,0.63-11.1c1.69-3.63,4.7-6.39,8.47-7.76l115.22-41.94c3.76-1.36,7.84-1.2,11.47,0.5
		c3.52,1.64,6.21,4.51,7.62,8.1l-16.55,6.03c-2.04,0.74-3.67,2.23-4.59,4.2c-0.92,1.97-1.01,4.18-0.27,6.21l1.51,4.16
		c1.53,4.21,6.23,6.38,10.41,4.85l16.56-6.03l2.5,6.87l-16.56,6.03c-2.04,0.74-3.67,2.23-4.59,4.2c-0.92,1.97-1.01,4.17-0.27,6.21
		l1.51,4.16c1.53,4.21,6.2,6.4,10.41,4.85l16.56-6.03l2.5,6.87l-16.56,6.03c-4.21,1.53-6.39,6.2-4.86,10.42l1.51,4.16
		c0.74,2.04,2.23,3.67,4.2,4.59c1.96,0.92,4.18,1.01,6.21,0.27v0l16.56-6.03c2.58,7.68-1.45,16.08-9.09,18.86l-115.22,41.94
		C1113.75,848.39,1105.27,844.54,1102.31,837.01z M1123.8,852.19l93.54-34.05l-93.53,34.06c-0.84,0.31-1.81,0.54-2.84,0.75
		C1121.91,852.74,1122.86,852.53,1123.8,852.19z M1387.07,969.71c-1.46,9.49-9.49,16.37-19.09,16.37h-208.24
		c-9.6,0-17.63-6.89-19.09-16.37l-16.97-110.18c0.88-0.22,1.72-0.47,2.51-0.76l111.57-40.62h52.2l111.57,40.62l0.02,0.01
		c0.8,0.29,1.63,0.53,2.51,0.75L1387.07,969.71z M1451.62,764.99l-16.56-6.03c-4.2-1.53-8.88,0.64-10.41,4.85l-1.51,4.16
		c-0.74,2.04-0.65,4.25,0.27,6.21c0.92,1.97,2.55,3.46,4.59,4.2l16.56,6.03l-2.5,6.87l-16.56-6.03c-2.05-0.75-4.25-0.65-6.21,0.27
		c-1.97,0.92-3.46,2.55-4.2,4.58l-1.51,4.16c-1.53,4.21,0.64,8.88,4.85,10.42l16.56,6.03l-2.5,6.87l-16.56-6.03
		c-4.23-1.53-8.88,0.65-10.41,4.86l-1.51,4.16c-0.74,2.04-0.65,4.25,0.27,6.21c0.92,1.97,2.55,3.46,4.59,4.2l16.55,6.03
		c-1.41,3.59-4.11,6.46-7.62,8.1c-3.64,1.7-7.71,1.87-11.47,0.5l-115.22-41.94c-3.77-1.37-6.77-4.13-8.47-7.76
		c-1.64-3.51-1.86-7.44-0.63-11.1l16.55,6.03c2.03,0.74,4.24,0.65,6.21-0.27c1.97-0.92,3.46-2.55,4.2-4.59l1.51-4.16
		c1.53-4.21-0.64-8.88-4.85-10.42l-16.56-6.03l2.5-6.87l16.56,6.03c4.23,1.53,8.88-0.65,10.41-4.86l1.51-4.16
		c0.74-2.04,0.65-4.25-0.27-6.21c-0.92-1.97-2.55-3.46-4.59-4.2l-16.56-6.03l2.5-6.87l16.56,6.03c2.05,0.75,4.25,0.65,6.21-0.27
		c1.96-0.92,3.46-2.55,4.2-4.59l1.51-4.16c0.74-2.04,0.65-4.25-0.27-6.21c-0.92-1.97-2.55-3.46-4.59-4.2l-16.55-6.03
		c2.96-7.54,11.45-11.38,19.09-8.6l115.22,41.94C1450.18,748.91,1454.19,757.31,1451.62,764.99z"/>
	<polygon class="st0" points="1360.74,687.08 1360.74,687.08 1360.74,687.08 	"/>
	<path class="st0" d="M1430.11,719.77c1.41-3.86-0.59-8.13-4.45-9.53l-62.39-22.71c-0.84-0.31-1.7-0.45-2.54-0.45l0.15,7.03
		l62.39,22.71c0.23,0.08,0.35,0.34,0.26,0.57l-1.46,4.02l-63.22-23.01l1.46-4.02c0.11-0.29,0.4-0.29,0.42-0.29l0-7c0,0,0,0,0,0
		c-3.04,0-5.89,1.88-6.99,4.9l-3.85,10.59l76.37,27.8L1430.11,719.77z"/>
	<path class="st0" d="M1226.2,878.3c0-10.21-8.31-18.52-18.52-18.52c-10.21,0-18.52,8.31-18.52,18.52
		c0,10.21,8.31,18.52,18.52,18.52C1217.89,896.82,1226.2,888.52,1226.2,878.3z M1196.16,878.3c0-6.35,5.17-11.52,11.52-11.52
		s11.52,5.17,11.52,11.52c0,6.35-5.17,11.52-11.52,11.52S1196.16,884.66,1196.16,878.3z"/>
	<path class="st0" d="M1307.37,902.37c0-7.53,3.68-14.64,9.85-19.03l5.7-4.05l-89.24-28.57l5.09,8.11
		c3.68,5.87,5.63,12.6,5.63,19.47c0,20.24-16.47,36.72-36.7,36.71l-9.6-0.13l47.25,43.06l2.03-4.26c1.67-3.51,5.09-5.69,8.93-5.69
		c4.71,0,8.8,3.35,9.72,7.97l0.93,4.65l62.38-33.75l-7.06-2.74C1313.23,920.6,1307.37,912.07,1307.37,902.37z M1271.4,950.25
		c-2.83-5.56-8.61-9.26-15.08-9.26c-4.93,0-9.58,2.21-12.75,5.86l-28.03-25.54c20.37-3.71,35.86-21.58,35.86-43.01
		c0-5.31-0.97-10.54-2.85-15.47l59.76,19.13c-5.04,5.54-7.92,12.81-7.92,20.41c0,10.24,5.02,19.49,13.22,25.05L1271.4,950.25z"/>
	<path class="st0" d="M1331.28,872.03l-108.85-34.84c-0.99-0.36-2-0.68-3.21-1.03l-3.21-1.01l-0.09,0.25
		c-2.76-0.54-5.51-0.81-8.23-0.81c-24.1,0-43.72,19.61-43.72,43.72c0,15.16,7.69,28.99,20.59,37.05l59.56,54.26
		c0.27,0.29,0.57,0.55,0.97,0.9l3.4,3.03l0.41-0.45c2.31,1.15,4.83,1.75,7.42,1.75c1.54,0,3.06-0.22,4.55-0.65l0.2,0.38l86.89-47.01
		l-0.09-0.15c8.22-5.62,13.2-14.91,13.2-25.02C1361.07,885.83,1347.76,872.33,1331.28,872.03z M1341.51,923.06l-3.22,1.69l0.03,0.04
		l-75.04,40.6l-2.42,1.27c-3.55,1.85-7.47,1.43-10.5-0.87l-0.3-0.22l-0.51-0.46c-0.14-0.12-0.28-0.23-0.57-0.52l-59.97-54.64
		l-0.53-0.39c-10.98-6.75-17.54-18.44-17.54-31.27c0-20.25,16.47-36.72,36.72-36.72c3.13,0,6.34,0.44,9.55,1.3l0.42,0.11
		c0.82,0.23,1.63,0.5,2.54,0.82l109.47,35.04l1.07,0.17c12.87,0,23.35,10.47,23.35,23.35
		C1354.07,911.09,1349.26,919.01,1341.51,923.06z"/>
	<path class="st0" d="M1330.72,885.25c-9.44,0-17.12,7.68-17.12,17.12c0,9.44,7.68,17.12,17.12,17.12s17.12-7.68,17.12-17.12
		C1347.84,892.93,1340.16,885.25,1330.72,885.25z M1330.72,912.49c-5.58,0-10.12-4.54-10.12-10.12s4.54-10.12,10.12-10.12
		c5.58,0,10.12,4.54,10.12,10.12S1336.3,912.49,1330.72,912.49z"/>
	<path class="st0" d="M1256.31,953.62c-2.37,0-4.3,1.92-4.3,4.3c0,2.37,1.92,4.3,4.3,4.3s4.3-1.92,4.3-4.3
		C1260.61,955.54,1258.69,953.62,1256.31,953.62z"/>
	<path class="st0" d="M1207.68,854.32c2.37,0,4.3-1.92,4.3-4.3c0-2.37-1.92-4.3-4.3-4.3c-2.37,0-4.3,1.92-4.3,4.3
		C1203.38,852.39,1205.31,854.32,1207.68,854.32z"/>
	<path class="st0" d="M1179.39,874.01c-2.37,0-4.3,1.92-4.3,4.3c0,2.37,1.92,4.3,4.3,4.3s4.3-1.92,4.3-4.3
		C1183.69,875.93,1181.77,874.01,1179.39,874.01z"/>
	<path class="st0" d="M1203.38,906.59c0,2.37,1.92,4.3,4.3,4.3c2.37,0,4.3-1.92,4.3-4.3c0-2.37-1.92-4.3-4.3-4.3
		C1205.31,902.29,1203.38,904.22,1203.38,906.59z"/>
	<path class="st0" d="M1235.96,882.6c2.37,0,4.3-1.92,4.3-4.3c0-2.37-1.92-4.3-4.3-4.3s-4.3,1.92-4.3,4.3
		C1231.67,880.68,1233.59,882.6,1235.96,882.6z"/>
</g>
<g>
	<path class="st0" d="M1887.57,754.26v-20.57h-34.57v20.57h-6.49v22.02h-3.68v-36.81h-254.38v36.81h-3.68v-22.02h-6.49v-20.57
		h-34.57v20.57h-6.49v22.02v7v167.93v7v36.81h356.86v-36.81v-7V783.28v-7v-22.02H1887.57z M1860,740.69h20.57v13.58H1860V740.69z
		 M1595.45,746.48h240.38v29.81h-240.38V746.48z M1550.7,740.69h20.57v13.58h-20.57V740.69z M1544.21,761.26h33.56v15.03h-33.56
		V761.26z M1887.07,988.02h-342.86v-29.81h342.86V988.02z M1887.07,951.22h-342.86V783.28h40.56h3.68h254.38h3.68h40.56V951.22z
		 M1853.51,776.29v-15.03h33.56v15.03H1853.51z"/>
	<polygon class="st0" points="1585.48,803.55 1577.06,803.55 1577.06,814.46 1566.15,814.46 1566.15,822.88 1577.06,822.88 
		1577.06,833.79 1585.48,833.79 1585.48,822.88 1596.39,822.88 1596.39,814.46 1585.48,814.46 	"/>
	<rect x="1834.89" y="814.46" class="st0" width="30.24" height="8.42"/>
	<path class="st0" d="M1703.96,830.29l-16.25,55.46h18.02l-23.13,62.91l59.87-79.7h-20.43l23.01-38.68H1703.96z M1728.46,875.97
		l-22.87,30.45l10.16-27.66h-18.7l12.15-41.47h23.54l-23.01,38.68H1728.46z"/>
	<path class="st0" d="M1581.27,792.31c-14.53,0-26.36,11.82-26.36,26.36s11.82,26.36,26.36,26.36c14.54,0,26.36-11.82,26.36-26.36
		S1595.8,792.31,1581.27,792.31z M1581.27,838.03c-10.68,0-19.36-8.69-19.36-19.36c0-10.68,8.69-19.36,19.36-19.36
		c10.68,0,19.37,8.69,19.37,19.36C1600.63,829.35,1591.94,838.03,1581.27,838.03z"/>
	<path class="st0" d="M1823.65,818.67c0,14.54,11.82,26.36,26.36,26.36c14.53,0,26.36-11.82,26.36-26.36s-11.82-26.36-26.36-26.36
		C1835.47,792.31,1823.65,804.13,1823.65,818.67z M1850.01,799.31c10.68,0,19.36,8.69,19.36,19.36c0,10.68-8.68,19.36-19.36,19.36
		c-10.68,0-19.37-8.69-19.37-19.36C1830.64,807.99,1839.33,799.31,1850.01,799.31z"/>
</g>
<g>
	<path class="st0" d="M2230.18,944.86c-9.25,0-16.78,7.53-16.78,16.78s7.53,16.78,16.78,16.78s16.78-7.53,16.78-16.78
		S2239.43,944.86,2230.18,944.86z M2230.18,971.41c-5.39,0-9.78-4.39-9.78-9.78s4.39-9.78,9.78-9.78s9.78,4.39,9.78,9.78
		S2235.57,971.41,2230.18,971.41z"/>
	<path class="st0" d="M2305.83,944.86c-9.25,0-16.78,7.53-16.78,16.78s7.53,16.78,16.78,16.78s16.78-7.53,16.78-16.78
		S2315.08,944.86,2305.83,944.86z M2305.83,971.41c-5.39,0-9.78-4.39-9.78-9.78s4.39-9.78,9.78-9.78s9.78,4.39,9.78,9.78
		S2311.22,971.41,2305.83,971.41z"/>
	<path class="st0" d="M2345.67,940.53V918.6h-104.46l-13.49-34.6h-3.54v-17.18l74.57-79.96c4.74-5.08,4.6-12.9-0.31-17.81
		c-4.91-4.91-12.73-5.05-17.81-0.31l-84.36,78.68h-8.95c-8.86,0-16.07,7.21-16.07,16.07V884h-14.55v-65.65l-46.49-0.38
		c-9.5,0.86-17.41,7.31-20.15,16.45l-11.12,37.14l-50.96,9.3c-11.03,2.01-19.04,11.61-19.04,22.83v37.72
		c-2.34,1.92-3.86,4.8-3.86,8.05v5.2c0,5.77,4.7,10.47,10.47,10.47h26.67c1.74,15.28,14.74,27.2,30.49,27.2
		c15.74,0,28.74-11.92,30.49-27.2h96.48c1.74,15.28,14.74,27.2,30.49,27.2c15.74,0,28.74-11.92,30.49-27.2h14.68
		c1.74,15.28,14.74,27.2,30.49,27.2c15.74,0,28.74-11.92,30.49-27.2h3.97c5.77,0,10.47-4.7,10.47-10.47v-5.2
		C2350.76,945.66,2348.71,942.37,2345.67,940.53z M2099.09,945.99h104.72c-2.17,3.64-3.62,7.75-4.12,12.15h-96.48
		C2102.71,953.73,2101.26,949.63,2099.09,945.99z M2257.26,945.99h21.6c-1.93,3.79-3.13,7.89-3.55,12.15h-14.49
		C2260.39,953.88,2259.19,949.78,2257.26,945.99z M2178.26,891v-27.5c0-5,4.07-9.07,9.07-9.07h11.71l86.38-80.56
		c2.31-2.15,5.86-2.09,8.09,0.14c2.23,2.23,2.29,5.78,0.14,8.09l-76.45,81.98V891h5.75l13.49,34.6h102.24v12.2h-11.6
		c-6.07-4.68-13.56-7.25-21.24-7.25c-7.69,0-15.18,2.57-21.24,7.25h-33.16c-6.07-4.68-13.56-7.25-21.25-7.25s-15.18,2.57-21.24,7.25
		h-52.22V891H2178.26z M2015.96,903.68c0-7.83,5.59-14.54,13.3-15.94l55.17-10.07l12.35-41.24c1.91-6.38,7.44-10.89,13.73-11.48
		l39.21,0.34V884v53.8h-55.53c-6.12-4.77-13.69-7.39-21.46-7.39s-15.34,2.62-21.46,7.39h-35.3V903.68z M2012.1,954.66v-5.2
		c0-1.92,1.56-3.47,3.47-3.47h30.17c-1.92,3.8-3.12,7.89-3.54,12.15h-26.63C2013.65,958.14,2012.1,956.58,2012.1,954.66z
		 M2072.72,985.34c-13.07,0-23.7-10.63-23.7-23.7c0-1.18,0.14-2.33,0.28-3.48c1.69-11.42,11.53-20.23,23.42-20.23
		c4.38,0,8.47,1.21,11.99,3.29l3.3,4.11c3.31,4.12,7.33,9.12,8.3,14.1c0.07,0.73,0.11,1.46,0.11,2.2
		C2096.43,974.71,2085.79,985.34,2072.72,985.34z M2230.18,985.34c-13.07,0-23.7-10.63-23.7-23.7c0-5.96,4.37-11.88,8.47-16.95
		l2.36-2.93c3.71-2.41,8.13-3.83,12.88-3.83c13.07,0,23.7,10.63,23.7,23.7S2243.25,985.34,2230.18,985.34z M2305.83,985.34
		c-13.07,0-23.7-10.63-23.7-23.7c0-1.18,0.14-2.34,0.29-3.49c1.7-11.42,11.54-20.21,23.42-20.21c13.07,0,23.7,10.63,23.7,23.7
		S2318.9,985.34,2305.83,985.34z M2343.76,954.66c0,1.91-1.56,3.47-3.47,3.47h-3.7c-0.42-4.26-1.63-8.36-3.55-12.15h7.25
		c1.92,0,3.47,1.56,3.47,3.47V954.66z"/>
	<path class="st0" d="M2142.41,832.46l-28.22-0.22c-6.04,0.54-11.08,4.66-12.82,10.47l-8.07,26.94l49.11-0.25V832.46z
		 M2135.41,862.43l-32.69,0.17l5.36-17.88c0.92-3.06,3.56-5.22,6.4-5.5l20.94,0.18V862.43z"/>
	<path class="st0" d="M2072.72,944.86c-9.25,0-16.78,7.53-16.78,16.78s7.53,16.78,16.78,16.78s16.78-7.53,16.78-16.78
		S2081.97,944.86,2072.72,944.86z M2072.72,971.41c-5.39,0-9.78-4.39-9.78-9.78s4.39-9.78,9.78-9.78s9.78,4.39,9.78,9.78
		S2078.11,971.41,2072.72,971.41z"/>
	<path class="st0" d="M2288.68,851.77c1.28-1.13,2.16-1.99,2.65-2.57c0.67-0.81,1.15-1.61,1.46-2.4c0.41-1.05,0.61-2.3,0.61-3.75
		c0-0.25,0-0.25,0-0.25c-0.01-0.47-0.82-0.86-1.79-0.86c-0.98,0-1.83,1.14-1.9,2.54c0,0,0,0-0.18,0.66s-0.45,1.24-0.82,1.74
		c-0.37,0.51-0.37,0.51-0.37,0.51c-1.09,1.02-3.11,2.95-4.49,4.3c0,0-0.49,0.48-1.11,1.59s-0.92,2.32-0.92,3.63
		c0,2.27,0.87,4.2,2.62,5.8c1.75,1.6,4.09,2.4,7.03,2.4c2.77,0,5.01-0.74,6.69-2.23c1.69-1.49,2.12-3.06,2.12-3.06
		c0.51-1.86,0.07-3.48-0.97-3.6c-1.04-0.12-2.32,1.29-2.84,3.14c0,0-0.07,0.26-1.13,1.24c-1.05,0.98-2.36,1.48-3.94,1.48
		c-1.63,0-3-0.54-4.12-1.63c-1.12-1.09-1.68-2.35-1.68-3.78c0-0.79,0.19-1.52,0.57-2.19C2286.57,853.8,2287.4,852.9,2288.68,851.77z
		"/>
	<path class="st0" d="M2301.02,824.62v-7.6v-23.34c0-0.77-0.63-1.4-1.4-1.4c-0.77,0-1.4,0.63-1.4,1.4v17.14
		c-1.48-1.32-3.41-2.15-5.55-2.15h-2.31c-2.14,0-4.07,0.83-5.55,2.15v-1.22c0-0.77-0.63-1.4-1.4-1.4c-0.78,0-1.4,0.63-1.4,1.4v7.43
		v8.3v1.96c0,4.4,3.41,7.97,7.73,8.29c-0.19,0.32-0.33,0.67-0.33,1.06c0,1.16,0.95,2.1,2.1,2.1c1.16,0,2.1-0.95,2.1-2.1
		c0-0.4-0.14-0.75-0.33-1.06c4.33-0.31,7.75-3.89,7.75-8.29V824.62z M2291.52,820.57c-1.86,0-3.38-1.51-3.38-3.38
		c0-1.87,1.51-3.38,3.38-3.38c1.87,0,3.38,1.51,3.38,3.38C2294.89,819.06,2293.38,820.57,2291.52,820.57z"/>
	<path class="st0" d="M2196.27,884.69c7,0,12.7-5.7,12.7-12.7c0-7-5.7-12.69-12.7-12.69c-7,0-12.69,5.7-12.69,12.69
		C2183.58,878.99,2189.28,884.69,2196.27,884.69z M2196.27,866.29c3.14,0,5.7,2.56,5.7,5.7c0,3.14-2.56,5.7-5.7,5.7
		c-3.14,0-5.7-2.56-5.7-5.7C2190.58,868.85,2193.13,866.29,2196.27,866.29z"/>
</g>
<g>
	<path class="st0" d="M291.76,1453.93c-6.4-0.74-13.41,6.15-16.34,16.14c-0.3,0.42-1.31,1.69-4.16,4.36
		c-4.07,3.8-9.03,5.65-15.18,5.65c-6.37,0-11.59-2.06-15.96-6.29c-4.34-4.2-6.44-8.9-6.44-14.37c0-2.95,0.69-5.58,2.1-8.06
		c1.04-1.81,3.68-5.22,10.4-11.14c5.88-5.19,9.88-9.07,12.22-11.88c3.22-3.88,5.6-7.81,7.07-11.67c1.98-5.08,2.99-11.14,2.99-18.02
		v-1.19c-0.1-4.21-4.94-7.26-11.51-7.26c-6.2,0-11.4,6.24-11.97,14.28l-0.7,2.58c-0.68,2.5-1.73,4.73-3.11,6.63l-1.45,1.99
		c-4.98,4.65-13.81,13.11-19.86,19.03c-0.26,0.26-2.64,2.66-5.56,7.9c-3.02,5.44-4.56,11.46-4.56,17.9
		c0,11.11,4.32,20.69,12.85,28.48c8.44,7.71,19.79,11.62,33.75,11.62c13.21,0,24.04-3.65,32.19-10.85
		c8.22-7.26,10.43-15.04,10.52-15.37c1.8-6.56,1.32-12.78-1.28-16.64C296.31,1455.57,294.18,1454.21,291.76,1453.93z
		 M292.31,1472.55c-0.01,0.06-1.83,6.18-8.4,11.98c-6.84,6.04-16.11,9.1-27.56,9.1c-12.16,0-21.92-3.29-29.03-9.79
		c-7.12-6.5-10.57-14.13-10.57-23.31c0-5.23,1.24-10.11,3.68-14.5c2.41-4.34,4.34-6.3,4.34-6.3c6.11-5.99,15.07-14.58,19.97-19.14
		l2.09-2.75c1.89-2.59,3.31-5.6,4.21-8.92l0.79-2.93l0.12-0.73c0.24-4.6,2.84-8.03,5-8.03c2.36,0,3.91,0.62,4.51,1v0.44
		c0,6-0.84,11.21-2.52,15.5c-1.2,3.16-3.19,6.43-5.91,9.7c-2.08,2.48-5.94,6.22-11.48,11.11c-6.05,5.34-9.93,9.57-11.85,12.92
		c-2.01,3.51-3.02,7.39-3.02,11.53c0,7.36,2.88,13.89,8.57,19.4c5.66,5.48,12.67,8.26,20.83,8.26c7.9,0,14.62-2.54,19.96-7.53
		c5.41-5.06,5.83-6.53,6.01-7.16c2.05-7.31,6.75-11.69,8.9-11.5c0.15,0.02,0.55,0.06,1.04,0.79
		C293.15,1463.41,293.71,1467.45,292.31,1472.55z"/>
	<path class="st0" d="M256.53,1264.66c-10.24,0-18.58,8.33-18.58,18.57c0,10.24,8.33,18.58,18.58,18.58
		c10.24,0,18.58-8.33,18.58-18.58C275.1,1272.99,266.77,1264.66,256.53,1264.66z M256.53,1294.81c-6.39,0-11.58-5.19-11.58-11.58
		s5.19-11.58,11.58-11.58c6.39,0,11.58,5.19,11.58,11.58S262.91,1294.81,256.53,1294.81z"/>
	<path class="st0" d="M251.37,1248.67h10.32c8.26,0,16.23,3.05,22.44,8.58l5.83,5.19v-33h-66.85v33l5.83-5.19
		C235.14,1251.72,243.11,1248.67,251.37,1248.67z M230.1,1236.43h52.85v11.26c-6.38-3.91-13.72-6.02-21.27-6.02h-10.32
		c-7.55,0-14.89,2.1-21.26,6.02V1236.43z"/>
	<path class="st0" d="M205.03,1236.43h5.56v91.86c0,19.62,14.24,36.42,33.14,40.04c-0.08,0.57-0.12,1.14-0.12,1.72
		c0,7.1,5.78,12.88,12.88,12.88s12.88-5.78,12.88-12.88c0-0.57-0.04-1.14-0.12-1.71c18.96-3.58,33.23-20.39,33.23-40.05v-91.86h5.56
		v-34.38H205.03V1236.43z M212.02,1209.05h89.01v20.39h-5.56v98.85c0,17.52-13.68,32.31-31.16,33.66l-5.52,0.43l2.75,4.8
		c0.54,0.94,0.81,1.9,0.81,2.88c0,3.25-2.64,5.88-5.88,5.88s-5.88-2.64-5.88-5.88c0-0.97,0.27-1.94,0.81-2.88l2.75-4.79l-5.5-0.44
		c-17.42-1.39-31.07-16.17-31.07-33.65v-98.85h-5.56V1209.05z"/>
	<path class="st0" d="M259.65,1192.33c0.63,1.08,1.78,1.75,3.03,1.75h19.72c1.25,0,2.41-0.67,3.03-1.75l29.58-51.24
		c0.63-1.08,0.63-2.42,0-3.5c-0.63-1.08-1.78-1.75-3.03-1.75h-19.72c-1.25,0-2.41,0.67-3.03,1.75l-29.58,51.24
		C259.03,1189.92,259.03,1191.25,259.65,1192.33z M294.29,1142.84h11.64l-25.54,44.24h-11.64L294.29,1142.84z"/>
	<path class="st0" d="M227.24,1192.33c0.63,1.08,1.78,1.75,3.03,1.75H250c1.25,0,2.41-0.67,3.03-1.75l29.58-51.24
		c0.63-1.08,0.63-2.42,0-3.5c-0.63-1.08-1.78-1.75-3.03-1.75h-19.72c-1.25,0-2.41,0.67-3.03,1.75l-29.58,51.24
		C226.62,1189.92,226.62,1191.25,227.24,1192.33z M261.88,1142.84h11.64l-25.54,44.24h-11.64L261.88,1142.84z"/>
	<path class="st0" d="M220.62,1192.33l29.58-51.24c0.63-1.08,0.63-2.42,0-3.5c-0.63-1.08-1.78-1.75-3.03-1.75h-19.72
		c-1.25,0-2.41,0.67-3.03,1.75l-29.58,51.24c-0.63,1.08-0.63,2.42,0,3.5c0.63,1.08,1.78,1.75,3.03,1.75h19.72
		C218.84,1194.08,219.99,1193.42,220.62,1192.33z M203.93,1187.08l25.54-44.24h11.64l-25.54,44.24H203.93z"/>
	<path class="st0" d="M217.79,1137.59c-0.63-1.08-1.78-1.75-3.03-1.75H188.1c-1.93,0-3.5,1.57-3.5,3.5v46.17
		c0,1.58,1.06,2.97,2.59,3.38c0.3,0.08,0.6,0.12,0.91,0.12c1.23,0,2.4-0.65,3.03-1.75l26.65-46.17
		C218.41,1140.01,218.41,1138.68,217.79,1137.59z M191.6,1172.45v-29.61h17.09L191.6,1172.45z"/>
	<path class="st0" d="M324.96,1135.84h-0.28c-1.25,0-2.41,0.67-3.03,1.75l-29.58,51.24c-0.63,1.08-0.63,2.42,0,3.5
		c0.63,1.08,1.78,1.75,3.03,1.75h29.86c1.93,0,3.5-1.57,3.5-3.5v-51.24C328.45,1137.41,326.89,1135.84,324.96,1135.84z
		 M321.46,1187.08h-20.3l20.3-35.16V1187.08z"/>
</g>
<g>
	<path class="st0" d="M700.38,1211.47c-47.89,0-86.84,38.96-86.84,86.84c0,47.89,38.96,86.84,86.84,86.84s86.85-38.96,86.85-86.84
		C787.22,1250.43,748.26,1211.47,700.38,1211.47z M700.38,1378.16c-44.03,0-79.85-35.82-79.85-79.85
		c0-44.03,35.82-79.85,79.85-79.85c44.03,0,79.85,35.82,79.85,79.85C780.23,1342.34,744.41,1378.16,700.38,1378.16z"/>
	<path class="st0" d="M859.5,1298.31c0-2.65-0.09-5.41-0.27-8.53l15.77-5.51l-5.73-32.49L852.6,1252
		c-1.66-5.45-3.61-10.83-5.84-16.05l12.91-10.55l-16.5-28.57l-15.61,5.91c-3.42-4.54-7.1-8.91-10.97-13.06l8.54-14.36l-25.27-21.21
		l-12.62,10.87c-4.74-3.09-9.71-5.96-14.8-8.55l3.1-16.36l-31-11.28l-8.14,14.53c-5.59-1.29-11.23-2.29-16.83-2.97l-2.68-16.44
		h-32.99l-2.69,16.44c-5.6,0.68-11.24,1.67-16.83,2.97l-8.14-14.53l-31,11.28l3.1,16.36c-5.1,2.59-10.06,5.46-14.8,8.55
		l-12.62-10.87l-25.27,21.21l8.54,14.36c-3.88,4.15-7.56,8.53-10.97,13.06l-15.61-5.91l-16.5,28.57l12.91,10.55
		c-2.23,5.23-4.19,10.61-5.84,16.05l-16.67-0.22l-5.73,32.49l15.77,5.51c-0.18,3.12-0.27,5.88-0.27,8.53c0,2.65,0.09,5.41,0.27,8.53
		l-15.77,5.51l5.73,32.49l16.67-0.22c1.66,5.45,3.61,10.83,5.84,16.05l-12.91,10.55l16.5,28.57l15.61-5.91
		c3.41,4.52,7.08,8.9,10.97,13.06l-8.54,14.36l25.27,21.21l12.62-10.87c4.74,3.09,9.7,5.96,14.8,8.55l-3.1,16.36l31,11.28
		l8.14-14.53c5.58,1.29,11.22,2.29,16.83,2.97l2.69,16.44h32.99l2.69-16.44c5.61-0.68,11.25-1.67,16.83-2.97l8.14,14.53l31-11.28
		l-3.1-16.36c5.1-2.6,10.07-5.46,14.8-8.55l12.62,10.87l25.27-21.21l-8.54-14.36c3.88-4.15,7.56-8.53,10.97-13.06l15.61,5.91
		l16.5-28.57l-12.91-10.55c2.23-5.22,4.19-10.6,5.84-16.05l16.67,0.22l5.73-32.49l-15.77-5.51
		C859.41,1303.72,859.5,1300.96,859.5,1298.31z M867.08,1317l-3.66,20.77l-16.05-0.21l-0.73,2.57c-1.96,6.87-4.43,13.65-7.33,20.15
		l-1.09,2.44l12.43,10.16l-10.55,18.27l-15.03-5.69l-1.57,2.16c-4.19,5.75-8.83,11.27-13.79,16.41l-1.86,1.92l8.22,13.82
		l-16.16,13.56l-12.15-10.46l-2.22,1.5c-5.86,3.97-12.11,7.58-18.58,10.74l-2.4,1.17l2.99,15.74l-19.82,7.21l-7.83-13.98l-2.59,0.65
		c-6.99,1.74-14.1,3-21.13,3.72l-2.66,0.28l-2.58,15.83h-21.1l-2.58-15.83l-2.66-0.28c-7.03-0.72-14.14-1.98-21.13-3.72l-2.59-0.65
		l-7.83,13.98l-19.82-7.21l2.99-15.74l-2.4-1.17c-6.47-3.16-12.73-6.77-18.58-10.74l-2.22-1.5l-12.15,10.46l-16.16-13.56l8.22-13.82
		l-1.86-1.92c-4.97-5.15-9.61-10.67-13.79-16.41l-1.57-2.16l-15.03,5.69l-10.55-18.27l12.43-10.16l-1.09-2.44
		c-2.9-6.5-5.37-13.28-7.33-20.15l-0.73-2.57l-16.05,0.21l-3.66-20.77l15.18-5.3l-0.18-2.67c-0.29-4.09-0.42-7.5-0.42-10.71
		c0-3.22,0.13-6.62,0.42-10.71l0.18-2.66l-15.18-5.3l3.66-20.77l16.05,0.21l0.73-2.57c1.96-6.87,4.43-13.65,7.33-20.15l1.09-2.44
		l-12.43-10.16l10.55-18.27l15.03,5.69l1.57-2.16c4.19-5.76,8.83-11.28,13.79-16.41l1.86-1.92l-8.22-13.83l16.16-13.56l12.15,10.46
		l2.22-1.5c5.87-3.97,12.12-7.58,18.58-10.73l2.4-1.17l-2.99-15.74l19.82-7.21l7.83,13.99l2.59-0.65c7-1.74,14.11-3,21.13-3.72
		l2.66-0.28l2.58-15.83h21.09l2.58,15.83l2.66,0.28c7.02,0.72,14.13,1.98,21.13,3.72l2.59,0.65l7.84-13.99l19.82,7.21l-2.99,15.74
		l2.4,1.17c6.46,3.15,12.71,6.76,18.58,10.73l2.22,1.5l12.15-10.46l16.16,13.56l-8.22,13.83l1.86,1.92
		c4.96,5.12,9.6,10.65,13.79,16.41l1.57,2.16l15.03-5.69l10.55,18.27l-12.43,10.16l1.09,2.44c2.9,6.5,5.37,13.28,7.33,20.15
		l0.73,2.57l16.05-0.21l3.66,20.77l-15.18,5.3l0.18,2.67c0.29,4.09,0.42,7.5,0.42,10.71c0,3.21-0.13,6.62-0.42,10.71l-0.18,2.67
		L867.08,1317z"/>
	<path class="st0" d="M700.38,1276.58c-11.99,0-21.74,9.75-21.74,21.74c0,11.99,9.75,21.74,21.74,21.74s21.74-9.75,21.74-21.74
		C722.11,1286.33,712.36,1276.58,700.38,1276.58z M700.38,1313.05c-8.13,0-14.74-6.61-14.74-14.74c0-8.13,6.61-14.74,14.74-14.74
		s14.74,6.61,14.74,14.74C715.12,1306.44,708.51,1313.05,700.38,1313.05z"/>
	<circle class="st0" cx="700.38" cy="1245.31" r="7.02"/>
	<circle class="st0" cx="647.38" cy="1298.31" r="7.02"/>
	<path class="st0" d="M700.38,1344.29c-3.88,0-7.02,3.14-7.02,7.02c0,3.88,3.14,7.02,7.02,7.02s7.02-3.14,7.02-7.02
		C707.4,1347.43,704.25,1344.29,700.38,1344.29z"/>
	<path class="st0" d="M746.36,1298.31c0,3.88,3.14,7.02,7.02,7.02c3.88,0,7.02-3.14,7.02-7.02c0-3.88-3.14-7.02-7.02-7.02
		C749.5,1291.29,746.36,1294.44,746.36,1298.31z"/>
</g>
<path class="st0" d="M1358.89,1366.26l-74.97-74.96l74.97-74.97l15.34-1.08l31.42-31.42l-37.39-37.39l-31.42,31.42l-1.08,15.34
	l-74.97,74.97l-74.97-74.97l-1.08-15.34l-31.42-31.42l-37.39,37.39l31.42,31.42l15.34,1.08l74.97,74.97l-74.97,74.97l-15.34,1.08
	l-31.42,31.42l37.39,37.39l31.42-31.42l1.08-15.34l74.97-74.97l74.97,74.97l1.08,15.34l31.42,31.42l37.39-37.39l-31.42-31.42
	L1358.89,1366.26z M1150.45,1208.45l-24.63-24.63l27.49-27.49l24.62,24.63l1.08,15.34l74.23,74.23l-13.24,13.24l-74.23-74.23
	L1150.45,1208.45z M1179.95,1385.37l-0.93,0.92l-1.08,15.34l-24.62,24.63l-27.49-27.49l24.63-24.62l15.34-1.08l176.77-176.77
	l1.08-15.34l24.62-24.63l27.49,27.49l-24.63,24.63l-15.34,1.08L1179.95,1385.37z M1368.26,1426.26l-24.62-24.63l-1.08-15.34
	l-74.23-74.23l13.24-13.24l73.31,73.3l0.92,0.93l15.34,1.08l24.63,24.62L1368.26,1426.26z"/>
<g>
	<path class="st0" d="M1904.27,1259.04l-114.47,18.08l-6.75-22.18h-88.73v-11.06h30.42v-19.47h-80.86v19.47h30.42v11.06h-88.73
		l-6.88,22.61h-60.72v39.91c0,16.95,12.14,30.73,27.07,30.73h32.74v11.41c0,12.66,9.13,22.96,20.34,22.96h172.38
		c11.22,0,20.34-10.3,20.34-22.96v-35.44l113.43-36.55V1259.04z M1590.76,1261.94h90.54v-25.06h-30.42v-5.47h66.87v5.47h-30.42
		v25.06h90.54l4.76,15.62h-196.62L1590.76,1261.94z M1897.27,1282.52l-113.43,36.55v40.53c0,8.8-5.99,15.96-13.34,15.96h-172.38
		c-7.36,0-13.34-7.16-13.34-15.96v-18.41h-39.74c-11.07,0-20.07-10.65-20.07-23.74v-32.91h51.59h210.78h4.72l-0.22-0.71
		l105.42-16.61V1282.52z"/>
	<path class="st0" d="M1530.5,1317.47c0,8.97,6.52,16.26,14.54,16.26h27.21v-41.69h-41.75V1317.47z M1537.5,1299.03h27.76v27.69
		h-20.22c-4.16,0-7.54-4.15-7.54-9.26V1299.03z"/>
	<path class="st0" d="M1912.27,1294.27l-3.06-5.52l-3.06,5.52c-2.08,3.74-20.29,36.96-20.29,50.15c0,14.58,10.47,26.43,23.35,26.43
		c12.87,0,23.35-11.86,23.35-26.43C1932.55,1331.23,1914.34,1298.01,1912.27,1294.27z M1909.21,1363.85
		c-9.01,0-16.35-8.72-16.35-19.44c0-8.14,9.99-28.93,16.35-41.06c6.36,12.13,16.35,32.92,16.35,41.06
		C1925.56,1355.13,1918.22,1363.85,1909.21,1363.85z"/>
</g>
<g>
	<path class="st0" d="M2181.82,1116.62c0-6.39-5.2-11.6-11.6-11.6h-71.42c-6.39,0-11.6,5.2-11.6,11.6v33.34h94.62V1116.62z
		 M2174.82,1142.97h-80.62v-26.34c0-2.54,2.06-4.6,4.6-4.6h71.42c2.54,0,4.6,2.06,4.6,4.6V1142.97z"/>
	<path class="st0" d="M2254.96,1216.04l-73.15-24.36v-34.65h-94.62v288.22c0,12.07,9.82,21.89,21.89,21.89h174.37
		c12.07,0,21.89-9.82,21.89-21.89v-159.31C2305.35,1254.17,2285.1,1226.08,2254.96,1216.04z M2298.35,1445.24
		c0,8.21-6.68,14.9-14.89,14.9h-174.37c-8.21,0-14.89-6.68-14.89-14.9v-281.22h80.62v32.7l77.93,25.96
		c27.27,9.08,45.6,34.5,45.6,63.25V1445.24z"/>
	<path class="st0" d="M2236.85,1229.34l-41.49-13.82c-4.74-1.58-9.83-0.33-13.3,3.26c-3.49,3.6-4.57,8.76-2.84,13.46
		c7.78,21.08,24.49,37.25,45.83,44.36l41.49,13.82c1.36,0.45,2.74,0.67,4.11,0.67c3.41,0,6.72-1.37,9.2-3.93
		c3.48-3.6,4.57-8.76,2.84-13.46C2274.9,1252.63,2258.19,1236.46,2236.85,1229.34z M2274.82,1282.3c-1.61,1.66-3.89,2.22-6.06,1.48
		l-41.49-13.82c-19.32-6.44-34.44-21.07-41.48-40.15c-0.81-2.19-0.32-4.49,1.3-6.17c1.61-1.66,3.89-2.21,6.06-1.48l41.49,13.82
		c19.32,6.44,34.44,21.07,41.48,40.15C2276.93,1278.32,2276.44,1280.63,2274.82,1282.3z"/>
	<path class="st0" d="M2196.27,1305.97l-2.95,4.6c-2.62,4.09-25.62,40.39-25.62,54.84c0,15.75,12.82,28.57,28.57,28.57
		s28.57-12.82,28.57-28.57c0-14.45-23-50.75-25.62-54.84L2196.27,1305.97z M2196.27,1386.98c-11.89,0-21.57-9.68-21.57-21.57
		c0-9.22,13.62-33.38,21.57-46.36c7.95,12.97,21.57,37.13,21.57,46.36C2217.84,1377.3,2208.17,1386.98,2196.27,1386.98z"/>
</g>
<g>
	<path class="st0" d="M315.66,1727.9v-45.88v-7.27c0-27.55-22.33-49.88-49.88-49.88s-49.88,22.33-49.88,49.88v7.27h0v45.88
		c0,27.55,22.33,49.88,49.88,49.88S315.66,1755.45,315.66,1727.9z M222.9,1674.74c0-23.65,19.24-42.88,42.88-42.88
		s42.88,19.24,42.88,42.88v0.28H222.9V1674.74z M265.78,1767.28c-21.72,0-39.38-17.67-39.38-39.39v-35.38l3.26,5.35
		c3.66,6,10.18,9.67,17.21,9.67h37.83c7.03,0,13.55-3.66,17.21-9.67l3.26-5.35v35.38C305.17,1749.62,287.5,1767.28,265.78,1767.28z"
		/>
	<path class="st0" d="M336.7,1800.16c-20.08-14.09-44.53-22.38-70.92-22.38h0c-26.39,0-50.84,8.29-70.92,22.38v26.31H336.7V1800.16z
		 M329.7,1819.47H201.86v-15.6c19.03-12.5,41.05-19.09,63.92-19.09c22.87,0,44.89,6.59,63.92,19.09V1819.47z"/>
	<path class="st0" d="M353.24,1814.01v138.7h36.23v-51.24C389.47,1867.31,375.63,1836.39,353.24,1814.01z M382.47,1945.71h-22.23
		v-112.8c14.44,19.8,22.23,43.58,22.23,68.56V1945.71z"/>
	<path class="st0" d="M142.09,1952.71h36.23v-138.7c-22.38,22.38-36.23,53.31-36.23,87.46V1952.71z M149.09,1901.47
		c0-24.98,7.8-48.76,22.23-68.56v112.8h-22.23V1901.47z"/>
	<path class="st0" d="M298.19,1921.95l5.25,2.79c0,0-1.27-6.12-5.3-8.21c0,0-1.55-0.87-3.73-0.49c-0.65,0.11-1.32,0-1.87-0.37
		l-2.84-1.86c-0.22-0.15-0.43-0.31-0.61-0.5l-37.49-37.49c-0.41-0.41-0.77-0.87-1.06-1.38l-2.08-3.59
		c-0.42-0.72-0.61-1.54-0.54-2.37c0.15-1.74,0.06-5.03-2.18-7.28c-3.17-3.17-10.25-2.61-11.79-1.07l5.26,3.03
		c0,0,2.71,1.62,0.61,5.9c-2.1,4.29-5.44,3.74-5.44,3.74l-6.27-3.24c0,0,1.37,7.36,6.19,9.79c0,0,1.64,0.9,4.03,0.57
		c1.22-0.17,2.47-0.03,3.61,0.44l0.56,0.23c1.44,0.6,2.74,1.47,3.84,2.57l36.72,36.72l2.41,2.61c0.95,1.02,1.52,2.35,1.55,3.74
		c0.04,1.5,0.42,3.58,1.95,5.11c2.69,2.69,8.54,2.34,9.78,1.09l-4.41-2.6c0,0-2.27-1.39-0.61-4.9
		C295.42,1921.44,298.19,1921.95,298.19,1921.95z"/>
	<path class="st0" d="M245.29,1911.05c-0.41,0.41-0.87,0.77-1.38,1.06l-3.59,2.08c-0.72,0.42-1.54,0.61-2.37,0.54
		c-1.74-0.14-5.03-0.06-7.28,2.18c-3.17,3.17-2.61,10.25-1.07,11.79l3.03-5.26c0,0,1.62-2.71,5.9-0.61c4.29,2.1,3.74,5.44,3.74,5.44
		l-3.24,6.27c0,0,7.36-1.38,9.79-6.19c0,0,0.9-1.64,0.57-4.03c-0.17-1.22-0.03-2.47,0.44-3.61l0.23-0.56
		c0.6-1.44,1.47-2.74,2.57-3.84l12.05-12.05l-6.31-6.31L245.29,1911.05z"/>
	<path class="st0" d="M283.28,1872.94c-0.14,0.22-0.31,0.43-0.5,0.61l-15.35,15.35l6.31,6.31l15.63-15.63l2.61-2.41
		c1.02-0.95,2.35-1.52,3.74-1.55c1.5-0.04,3.58-0.42,5.11-1.95c2.69-2.68,2.34-8.54,1.09-9.78l-2.6,4.41c0,0-1.39,2.27-4.9,0.61
		c-3.51-1.67-3-4.44-3-4.44l2.79-5.25c0,0-6.12,1.27-8.21,5.3c0,0-0.87,1.55-0.49,3.73c0.11,0.65,0,1.32-0.37,1.87L283.28,1872.94z"
		/>
	<path class="st0" d="M194.86,1838c-3.27,0-5.92,2.65-5.92,5.92s2.65,5.92,5.92,5.92c3.27,0,5.92-2.65,5.92-5.92
		S198.13,1838,194.86,1838z"/>
	<path class="st0" d="M336.7,1838c-3.27,0-5.92,2.65-5.92,5.92s2.65,5.92,5.92,5.92c3.27,0,5.92-2.65,5.92-5.92
		S339.97,1838,336.7,1838z"/>
	<rect x="192.68" y="1859.21" class="st0" width="4.36" height="93.5"/>
	<rect x="334.52" y="1859.21" class="st0" width="4.36" height="93.5"/>
</g>
<g>
	<path class="st0" d="M837.46,1633.95c-2.16-3.99-6.16-6.38-10.69-6.38H712.01v37.18h-28.76v-37.18H568.5
		c-4.48,0-8.58,2.45-10.7,6.39c-2.13,3.95-1.91,8.73,0.57,12.47l45.49,68.89c2.79,4.2,7.46,6.71,12.5,6.71h34.05v62.55l94.46-34.38
		v-28.17h34.07c5.07,0,9.73-2.52,12.47-6.71l45.53-68.9C839.39,1642.68,839.59,1637.9,837.46,1633.95z M831.09,1642.58l-45.53,68.91
		c-1.45,2.23-3.93,3.56-6.62,3.56h-41.07v30.27l-80.46,29.29v-59.56h-41.05c-2.69,0-5.18-1.34-6.67-3.57l-45.48-68.89
		c-1.07-1.62-1.16-3.6-0.25-5.3c0.91-1.7,2.61-2.71,4.54-2.71h107.76v37.18h42.75v-37.18h107.76c1.92,0,3.62,1.01,4.54,2.71
		C832.23,1638.99,832.14,1640.97,831.09,1642.58z"/>
	<path class="st0" d="M650.41,1877.7l94.46-34.38v-41.44l-94.46,34.38V1877.7z M657.41,1841.17l80.46-29.29v26.55l-80.46,29.29
		V1841.17z"/>
	<path class="st0" d="M650.41,1924.26l94.46-34.38v-41.43l-94.46,34.38V1924.26z M657.41,1887.72l80.46-29.29v26.54l-80.46,29.29
		V1887.72z"/>
	<path class="st0" d="M650.41,1831.15l94.46-34.38v-41.43l-94.46,34.38V1831.15z M657.41,1794.61l80.46-29.29v26.54l-80.46,29.29
		V1794.61z"/>
	<path class="st0" d="M650.41,1944.47l47.23,41.1l47.23-41.1V1895l-94.46,34.38V1944.47z M657.41,1934.28l80.46-29.29v36.29
		l-40.23,35.01l-40.23-35.01V1934.28z"/>
</g>
<g>
	<path class="st0" d="M1388.14,1779.54l-0.02-9.36l-0.27,0.27l-0.07-1.12c-1.55-24.4-8.48-47.52-20.61-68.7l-4.22-7.37l-0.08,0.28
		l-0.6-0.92c-13.12-20.08-30.89-37.21-51.39-49.53l-7.42-4.46l0.09,0.35l-0.95-0.5c-21.48-11.23-44.75-17.27-69.14-17.94l-8.78-0.24
		l0.23,0.23l-1.04,0.03c-24.65,0.78-48.1,7.03-69.7,18.57l-7.81,4.17l0.32,0.09l-0.87,0.54c-20.87,12.83-38.77,30.61-51.78,51.43
		l-4.71,7.53l0.28-0.08l-0.49,0.9c-11.97,22.04-18.4,46.06-19.09,71.39l-0.24,8.78l0.23-0.23l0.03,1.05
		c0.8,25.23,7.67,50.16,19.87,72.08l4.2,7.55l0.09-0.32l0.57,0.9c13.58,21.31,32.28,39.31,54.07,52.06l7.35,4.3l-0.08-0.3l0.97,0.5
		c22.48,11.42,46.68,17.21,71.94,17.21l9.27-0.12l-0.17-0.17l1.12-0.07c25-1.59,49.55-9.17,71-21.93l7.13-4.24l-0.24-0.06l0.94-0.64
		c20.4-13.8,37.58-32.47,49.69-53.99l4.08-7.25l-0.25,0.07l0.5-1.02C1382.74,1827.41,1388.14,1803.96,1388.14,1779.54z
		 M1366.48,1844.74l-20.69,5.55c-1.76,0.47-3.24,1.6-4.15,3.18s-1.15,3.42-0.68,5.18c0.97,3.63,4.71,5.79,8.36,4.82l7.93-2.13
		c-10.9,17.04-25.21,31.91-41.8,43.39l-21.98-5.89c-3.66-0.97-7.38,1.19-8.36,4.83c-0.97,3.63,1.19,7.38,4.82,8.36l9.25,2.48
		c-18.18,9.45-38.33,15.18-58.83,16.7l-16.46-16.46c-2.57-2.57-7.07-2.58-9.65,0c-1.29,1.29-2,3-2,4.82s0.71,3.54,2,4.82l7.08,7.08
		c-20.86-1.03-40.9-6.25-59.69-15.56l-5.95-22.19c-0.47-1.76-1.6-3.23-3.18-4.14c-1.58-0.91-3.41-1.15-5.18-0.68
		c-3.64,0.97-5.8,4.72-4.82,8.36l2.42,9.01c-17.23-11.47-32.11-26.48-43.42-43.84l5.63-21.02c0.47-1.76,0.23-3.6-0.68-5.18
		c-0.91-1.58-2.38-2.71-4.14-3.18c-1.76-0.47-3.6-0.23-5.18,0.68c-1.58,0.91-2.71,2.38-3.18,4.14l-2.03,7.57
		c-8.88-18.49-13.97-38.85-14.83-59.47l14.14-14.14c1.29-1.29,2.01-3,2.01-4.83s-0.71-3.54-2-4.82c-2.66-2.66-6.99-2.66-9.65,0
		l-4.07,4.06c1.74-20.4,7.45-39.83,17.03-57.88l17.7-4.75c1.76-0.47,3.24-1.6,4.15-3.18s1.15-3.42,0.68-5.18
		c-0.98-3.63-4.71-5.8-8.36-4.82l-3.67,0.98c11.56-16.21,26.31-30.17,43.13-40.75l16.37,4.39c1.76,0.47,3.6,0.23,5.18-0.68
		c1.58-0.91,2.71-2.38,3.18-4.15c0.97-3.64-1.19-7.38-4.82-8.36l-2.44-0.65c17.89-8.22,36.99-12.8,56.92-13.62l11.56,11.56
		c2.57,2.57,7.07,2.58,9.65,0c1.29-1.29,2-3,2-4.82c0-1.82-0.71-3.54-2-4.83l-1.47-1.47c19.53,1.67,38.21,7.02,55.68,15.93
		l4.35,16.21c0.97,3.63,4.72,5.8,8.36,4.82c3.64-0.97,5.8-4.72,4.82-8.36l-0.73-2.73c16,10.97,29.96,25.07,40.76,41.23l-4.65,17.35
		c-0.97,3.63,1.19,7.38,4.82,8.36c1.76,0.47,3.6,0.23,5.18-0.68c1.58-0.91,2.71-2.38,3.18-4.14l1.13-4.22
		c8.81,17.64,14,36.56,15.46,56.39l-13.88,13.88c-2.66,2.66-2.66,6.99,0,9.65c2.66,2.66,6.99,2.65,9.65,0l4.49-4.49
		C1379.96,1807.28,1375.11,1826.59,1366.48,1844.74z"/>
	<path class="st0" d="M1229.02,1692.7c-47.89,0-86.84,38.96-86.84,86.84c0,47.89,38.96,86.84,86.84,86.84s86.84-38.96,86.84-86.84
		C1315.86,1731.65,1276.9,1692.7,1229.02,1692.7z M1229.02,1859.39c-44.03,0-79.85-35.82-79.85-79.85
		c0-44.03,35.82-79.85,79.85-79.85c44.03,0,79.85,35.82,79.85,79.85C1308.86,1823.57,1273.04,1859.39,1229.02,1859.39z"/>
	<path class="st0" d="M1278.22,1732.59l-1.09-1.21l0.07-0.07l-0.86-0.81l-0.59-0.65l-0.05,0.05l-1.12-1.06
		c-11.65-11.04-26.91-17.47-42.96-18.09l-1.58-0.06v-0.08l-1.03,0.04l-1.03-0.04v0.08l-1.58,0.06
		c-16.05,0.62-31.31,7.04-42.96,18.09l-1.12,1.06l-0.05-0.05l-0.59,0.65l-0.86,0.81l0.07,0.07l-1.09,1.21
		c-10.65,11.8-16.7,27.05-17.05,42.91l-0.03,1.52h-0.06l0.04,0.78l-0.03,1.28h0.1l0.09,1.64c0.88,15.62,7.28,30.47,18.03,41.81
		l1.06,1.12l-0.05,0.05l0.66,0.6l0.8,0.84l0.06-0.06l1.21,1.09c11.48,10.36,26.3,16.39,41.75,16.99l1.58,0.06v0.08l1.03-0.04
		l1.03,0.04v-0.08l1.58-0.06c15.45-0.6,30.28-6.63,41.75-16.99l1.21-1.09l0.06,0.06l0.8-0.84l0.66-0.6l-0.05-0.05l1.06-1.12
		c10.75-11.34,17.15-26.18,18.03-41.81l0.09-1.64h0.1l-0.03-1.28l0.04-0.78h-0.06l-0.03-1.52
		C1294.92,1759.64,1288.87,1744.4,1278.22,1732.59z M1288.09,1772.08h-40.27c-0.28-1.13-0.66-2.22-1.13-3.26l28.73-28.73
		C1282.71,1749.27,1287.12,1760.41,1288.09,1772.08z M1234.98,1718.01c11.82,1.19,23.01,5.9,32.1,13.53l-28.52,28.52
		c-1.14-0.65-2.34-1.18-3.58-1.58V1718.01z M1223.05,1718.01v40.47c-1.24,0.4-2.44,0.93-3.58,1.58l-28.52-28.52
		C1200.04,1723.91,1211.22,1719.19,1223.05,1718.01z M1182.62,1740.09l28.73,28.73c-0.47,1.04-0.85,2.13-1.13,3.26h-40.27
		C1170.91,1760.41,1175.32,1749.27,1182.62,1740.09z M1170.19,1784.02h40.71c0.34,0.86,0.74,1.69,1.21,2.5l-28.51,28.51
		C1176.22,1806.23,1171.56,1795.43,1170.19,1784.02z M1223.05,1835.9c-11.27-1.14-22.02-5.51-30.89-12.55l28.72-28.72
		c0.7,0.32,1.42,0.59,2.17,0.83V1835.9z M1230.95,1789.23l-1.93,0.3l-1.93-0.3c-1.82-0.28-3.47-0.91-4.91-1.85l-1.47-0.97
		l-1.35-1.67c-1.23-1.52-2.07-3.21-2.48-5l-0.4-1.75l0.18-2.1c0.18-2.13,0.85-4.12,1.94-5.77l0.98-1.48l1.66-1.34
		c1.73-1.4,3.7-2.28,5.86-2.61l1.93-0.3l1.93,0.3c2.16,0.34,4.13,1.22,5.86,2.61l1.66,1.34l0.98,1.48c1.08,1.65,1.75,3.64,1.94,5.77
		l0.18,2.1l-0.4,1.75c-0.41,1.79-1.24,3.48-2.48,5l-1.35,1.67l-1.47,0.97C1234.42,1788.33,1232.76,1788.95,1230.95,1789.23z
		 M1234.98,1835.9v-40.44c0.74-0.23,1.47-0.51,2.17-0.83l28.72,28.72C1257.01,1830.39,1246.26,1834.76,1234.98,1835.9z
		 M1274.44,1815.03l-28.51-28.51c0.47-0.81,0.87-1.64,1.21-2.5h40.71C1286.48,1795.43,1281.81,1806.23,1274.44,1815.03z"/>
</g>
<path class="st0" d="M1873.88,1680.1c0-8.03-3.13-15.57-8.8-21.25l-4.26-4.26l10.45-10.45l-3.97-3.97l-10.45,10.45l-4.26-4.26
	c-11.72-11.71-30.78-11.71-42.5,0l-30.94,30.94l-24.93-24.93l-57.05,57.05l23.12,23.12l-90.52,90.52l11.79,11.79l-33.2,33.21
	l-8.99,8.99l-5.34,5.34l-9.4,9.4l-5.04,5.04l-9.4,9.4l-3.93,3.93l-1.42,1.42l0.19,0.09c-4.18,5.53-3.81,13.43,1.23,18.47
	l15.05,15.05c2.75,2.75,6.37,4.13,9.99,4.13c3.61,0,7.23-1.37,9.99-4.13l16.67-16.67l0,0l9.39-9.4l0,0l19.78-19.78l0,0l8.99-8.98
	l0,0l3.07-3.07l2.39-2.39l0,0l15-15.01l11.79,11.79l90.52-90.52l23.12,23.12l57.05-57.05l-24.93-24.93l30.94-30.94
	C1870.75,1695.67,1873.88,1688.12,1873.88,1680.1z M1596.34,1940.22c-2.78,2.77-7.3,2.77-10.08,0l-15.05-15.05
	c-2.78-2.78-2.78-7.3,0-10.08l0.38-0.38l34.27,15.98L1596.34,1940.22z M1611.22,1925.35l-34.27-15.98l9.17-9.17l34.27,15.98
	L1611.22,1925.35z M1803.06,1710.93l-47.19,47.19l-2.56-2.56l47.18-47.19L1803.06,1710.93z M1707.07,1709.43l47.16-47.16
	l41.25,41.25l-47.1,47.1l-23.08-23.08l-0.06,0.06L1707.07,1709.43z M1600.78,1885.53l34.27,15.98l-9.18,9.18l-34.27-15.98
	L1600.78,1885.53z M1640.39,1896.17l-34.27-15.98l8.99-8.99l34.27,15.98L1640.39,1896.17z M1654.84,1881.73l-34.27-15.98
	l25.95-25.95l25.13,25.13L1654.84,1881.73z M1688.38,1871.77l-6.85-6.85l-35.02-35.02l-6.84-6.84l85.57-85.57l23.08,23.08l0.06-0.06
	l2.56,2.56l-0.06,0.06l23.08,23.08L1688.38,1871.77z M1802.02,1804.37l-18.17-18.17l0.06-0.06l-23.08-23.08l47.1-47.1l41.25,41.25
	L1802.02,1804.37z M1829.28,1727.25l-45.09-45.09l30.86-30.86c8.99-8.99,23.62-8.99,32.6,0l12.48,12.49
	c4.35,4.35,6.75,10.14,6.75,16.3c0,6.16-2.4,11.94-6.75,16.3L1829.28,1727.25z"/>
<g>
	<path class="st0" d="M2202.97,1621.89c-98.38,0-178.43,80.04-178.43,178.43s80.04,178.43,178.43,178.43s178.43-80.04,178.43-178.43
		S2301.36,1621.89,2202.97,1621.89z M2202.97,1971.75c-94.53,0-171.43-76.9-171.43-171.43c0-94.53,76.9-171.43,171.43-171.43
		s171.43,76.9,171.43,171.43C2374.4,1894.84,2297.5,1971.75,2202.97,1971.75z"/>
	<path class="st0" d="M2202.97,1642.88c-86.81,0-157.44,70.62-157.44,157.44s70.62,157.44,157.44,157.44s157.44-70.62,157.44-157.44
		S2289.79,1642.88,2202.97,1642.88z M2202.97,1950.76c-82.95,0-150.44-67.49-150.44-150.44s67.49-150.44,150.44-150.44
		s150.44,67.49,150.44,150.44S2285.92,1950.76,2202.97,1950.76z"/>
	<path class="st0" d="M2202.51,1697.28c0,0-5.61,7.71-5.61,10.81v78.65c-4.94,2.3-8.38,7.27-8.38,13.08
		c0,7.99,6.47,14.46,14.46,14.46s14.46-6.47,14.46-14.46c0-6.17-3.88-11.39-9.31-13.47v-78.26
		C2208.12,1704.99,2202.51,1697.28,2202.51,1697.28z"/>
	<path class="st0" d="M2320.94,1794.62c-1.47-28.55-13.1-54.46-31.32-74.19l10.6-10.6l-7.4-7.41l-10.62,10.62
		c-19.86-18.05-45.86-29.46-74.45-30.71v-14.77h-10.47v14.77c-28.69,1.25-54.76,12.73-74.65,30.89l-10.15-10.15l-7.41,7.41
		l10.14,10.14c-18.31,19.92-29.9,46.1-31.16,74.93h-13.84v10.47h13.84c1.24,27.95,12.41,54.63,31.31,75.15l-9.65,9.65l7.4,7.41
		l11.9-11.9l2.84-2.82c-23.23-21.12-36.95-51.34-36.95-82.72c0-61.53,50.06-111.59,111.59-111.59
		c61.53,0,111.59,50.06,111.59,111.59c0,31.13-12.99,60.39-35.69,81.71l2.24,2.25l0,0l12.82,12.82l7.41-7.41l-10.16-10.16
		c18.33-20.59,29.23-47.32,30.26-74.91h14.75v-10.47H2320.94z"/>
	<path class="st0" d="M2151.46,1909.9h103.02v-27.26h-103.02V1909.9z M2158.46,1889.63h89.03v13.27h-89.03V1889.63z"/>
</g>
<path class="st0" d="M397.36,2162.04v42.11h-29.25v-1.36l-22.96-38.46h-38.81v-15.7c0-4.85-3.95-8.8-8.8-8.8h-42.76v-19.04h57.17
	v-22.82H180.4v22.82h56.66v19.04h-42.76c-4.85,0-8.8,3.95-8.8,8.8v15.7H174.6c-8.06,0-14.61,6.56-14.61,14.61v31.59h-17.51v-57.43
	h-22.82v131.56h22.82v-56.41h17.51v31.59c0,8.06,6.56,14.61,14.61,14.61h34.9v4.51c0,12.15,9.88,22.03,22.03,22.03h120.96
	c8.62,0,15.62-7.01,15.62-15.62v-42.07h29.25v42.12h41.71v-123.39H397.36z M187.4,2113.8v-8.83h117.56v8.83h-50.18h-17.72H187.4z
	 M244.06,2120.8h3.72v19.04h-3.72V2120.8z M135.48,2277.67h-8.83v-117.56h8.83v50.43v17.72V2277.67z M142.48,2221.26v-3.72h17.51
	v3.72H142.48z M361.12,2285.38c0,4.76-3.87,8.62-8.63,8.62H231.53c-8.29,0-15.03-6.74-15.03-15.03v-11.51h-41.9
	c-4.2,0-7.62-3.42-7.62-7.62v-31.59v-17.72v-31.59c0-4.2,3.42-7.62,7.62-7.62h17.91v-22.7c0-0.99,0.81-1.8,1.81-1.8h42.76h17.72
	h42.76c1,0,1.81,0.81,1.81,1.8v22.7h41.84l19.93,33.39v38.59V2285.38z M368.11,2236.32v-25.16h29.25v25.16H368.11z M432.07,2278.43
	h-27.72v-35.12v-39.16v-35.12h27.72V2278.43z"/>
<g>
	<path class="st0" d="M1271.16,2052.69h-84.17c-9.49,0-17.22,7.72-17.22,17.22c0,9.49,7.72,17.22,17.22,17.22h84.17
		c9.49,0,17.22-7.72,17.22-17.22C1288.37,2060.42,1280.65,2052.69,1271.16,2052.69z M1271.16,2080.13h-84.17
		c-5.63,0-10.22-4.59-10.22-10.22c0-5.63,4.59-10.22,10.22-10.22h84.17c5.63,0,10.22,4.59,10.22,10.22
		C1281.38,2075.54,1276.79,2080.13,1271.16,2080.13z"/>
	<path class="st0" d="M1288.42,2029.23h-118.71c-17.43,0-31.61,14.18-31.61,31.61v67.47c0,17.43,14.18,31.61,31.61,31.61h16.57
		v19.91h11.46v74.93h16.36v8.9h-16.36V2288h16.36v8.9h-16.36v24.35h16.36v8.9h-16.36v20.46l31.32,27.71l31.32-27.71v-170.79h11.46
		v-19.91h16.57c17.43,0,31.61-14.18,31.61-31.61v-67.47C1320.03,2043.41,1305.85,2029.23,1288.42,2029.23z M1253.39,2347.46
		l-24.32,21.51l-24.32-21.51v-10.31h16.36v-22.89h-16.36v-10.36h16.36v-22.89h-16.36v-10.36h16.36v-22.89h-16.36v-67.93h48.65
		V2347.46z M1313.03,2128.3c0,13.57-11.04,24.61-24.61,24.61h-23.57v19.91h-4.46h-62.64h-4.46v-19.91h-23.57
		c-13.57,0-24.61-11.04-24.61-24.61v-67.47c0-13.57,11.04-24.61,24.61-24.61h118.71c13.57,0,24.61,11.04,24.61,24.61V2128.3z"/>
</g>
<g>
	<path class="st0" d="M795.41,2218.92c-2.34-3.83-6.95-6.22-11.96-6.22h-82.88c-5.02,0-9.62,2.4-11.96,6.22l-14.35,27.29h135.51
		L795.41,2218.92z M694.68,2222.42c1.11-1.67,3.4-2.73,5.9-2.73h82.88c2.5,0,4.79,1.07,5.9,2.73l8.83,16.79H685.85L694.68,2222.42z"
		/>
	<path class="st0" d="M680.42,2287.51c-1.76-3.01-4.71-5.15-8.12-5.89l-18.68-4.06c-0.51-0.11-1.01-0.16-1.5-0.16
		c-3.76,0-6.99,3.06-6.99,7v1.94c0,4.95,3.46,9.23,8.3,10.26l26.32,5.61c0.35,0.08,0.7,0.11,1.04,0.11c3.53,0,6-3.92,4.08-7.2
		L680.42,2287.51z M654.9,2289.76c-1.6-0.34-2.76-1.78-2.76-3.42v-1.94l18.68,4.06c1.49,0.32,2.79,1.27,3.57,2.59l1.92,3.28
		L654.9,2289.76z"/>
	<path class="st0" d="M832.07,2277.24c-0.5,0-1.01,0.05-1.52,0.16l-18.91,4.11c-3.45,0.75-6.44,2.91-8.22,5.97l-4.52,7.72
		c-1.94,3.31,0.56,7.29,4.13,7.29c0.34,0,0.69-0.04,1.05-0.11l26.65-5.68c4.9-1.05,8.41-5.38,8.41-10.39v-1.97
		C839.14,2280.33,835.88,2277.24,832.07,2277.24z M829.28,2289.84l-21.87,4.66l2.04-3.49c0.79-1.36,2.13-2.33,3.67-2.66l18.91-4.11
		l0.11,2.06C832.14,2288,830.94,2289.49,829.28,2289.84z"/>
	<path class="st0" d="M839.89,2271.11l-14.38-23.68l-18.34-34.72c-3.81-7.21-11.24-11.69-19.4-11.69h-91.53
		c-8.16,0-15.59,4.48-19.4,11.69l-18.34,34.72l-14.37,23.67c-4.48,2.56-7.33,7.33-7.33,12.61v40.31c0,0.24,0,0.48,0.01,0.71
		l-0.01,0.84v28.25c0,7.62,6.2,13.82,13.82,13.82h13.27c7.61,0,13.8-6.2,13.8-13.82v-8.86h128.39v8.86c0,7.62,6.19,13.82,13.8,13.82
		h13.27c7.62,0,13.82-6.2,13.82-13.82v-26.8c0.15-1.03,0.23-2.02,0.23-3.01v-40.31C847.2,2278.44,844.36,2273.67,839.89,2271.11z
		 M840.21,2324.02c0,0.84-0.09,1.65-0.23,2.44v27.36c0,3.76-3.06,6.82-6.82,6.82h-13.27c-3.76,0-6.8-3.06-6.8-6.82v-15.85H670.7
		v15.85c0,3.76-3.04,6.82-6.8,6.82h-13.27c-3.76,0-6.82-3.06-6.82-6.82v-28.25h0.09c-0.07-0.5-0.09-1.03-0.09-1.55v-40.31
		c0-3.35,2.19-6.16,5.21-7.16l15.58-25.67l18.44-34.9c2.59-4.9,7.67-7.96,13.21-7.96h91.53c5.54,0,10.62,3.06,13.21,7.96l18.44,34.9
		l15.58,25.67c3.01,1,5.2,3.81,5.2,7.16V2324.02z"/>
	<path class="st0" d="M712.98,2331.61h58.06v-20.07h-58.06V2331.61z M719.97,2318.54h44.07v6.07h-44.07V2318.54z"/>
	<path class="st0" d="M689.79,2288.29c0,10.36,8.4,18.76,18.76,18.76h66.92c10.36,0,18.76-8.4,18.76-18.76v-4.16H689.79V2288.29z
		 M786.89,2291.14c-1.27,5.12-5.91,8.92-11.41,8.92h-66.92c-5.51,0-10.14-3.8-11.41-8.92H786.89z"/>
	<path class="st0" d="M645.64,2263.6v-7v-13.77v-7h-7h-14.03c-7.65,0-13.88,6.23-13.88,13.88c0,7.65,6.23,13.88,13.88,13.88h14.03
		H645.64z M617.73,2249.72c0-3.8,3.08-6.88,6.88-6.88h14.03v13.77h-14.03C620.81,2256.6,617.73,2253.52,617.73,2249.72z"/>
	<path class="st0" d="M859.34,2235.83h-14.03h-7v7v13.77v7h7h14.03c7.65,0,13.88-6.23,13.88-13.88
		C873.22,2242.06,866.99,2235.83,859.34,2235.83z M859.34,2256.6h-14.03v-13.77h14.03c3.8,0,6.88,3.08,6.88,6.88
		S863.14,2256.6,859.34,2256.6z"/>
	<path class="st0" d="M888.18,2057.93h-7H601.56h-7h-25.62v305.61h32.61v-221.76h279.62v221.76h32.62v-305.61H888.18z
		 M601.56,2064.93h279.62v18.62H601.56V2064.93z M881.18,2109.17H601.56v-18.62h279.62V2109.17z M594.56,2356.55h-18.62v-291.62
		h18.62v18.62v7v18.62v7v25.62V2356.55z M601.56,2134.79v-18.62h279.62v18.62H601.56z M906.8,2356.55h-18.62v-214.76v-25.62v-7
		v-18.62v-7v-18.62h18.62V2356.55z"/>
</g>
<g>
	<path class="st0" d="M1754.19,2058.32v22.32h-22.1v-22.32h-49.86v22.32h-22.1v-22.32h-43.93v57.66h181.92v-57.66H1754.19z
		 M1791.13,2108.99H1623.2v-43.67h29.93v22.32h36.1v-22.32h35.86v22.32h36.1v-22.32h29.94V2108.99z"/>
	<path class="st0" d="M1616.2,2140.65h181.92v-20.4H1616.2V2140.65z M1623.2,2127.24h167.93v6.41H1623.2V2127.24z"/>
	<path class="st0" d="M1616.19,2232.48h70.98l-51.34,88.95c-18.64-2.74-37.07,6.13-46.56,22.54c-12.7,21.96-5.15,50.18,16.85,62.9
		c7.24,4.18,15.15,6.16,22.96,6.16c15.93,0,31.45-8.26,39.96-23.02c9.46-16.41,7.87-36.82-3.79-51.58l61.2-105.96h71.66v-87.57
		h-181.93V2232.48z M1656.72,2339.23l1.66,1.89c11.13,12.61,12.98,30.86,4.6,45.4c-10.77,18.65-34.7,25.06-53.36,14.29
		c-18.65-10.79-25.06-34.71-14.3-53.33c7.09-12.26,20.07-19.54,33.84-19.54c2.58,0,5.18,0.26,7.78,0.78l2.47,0.5l55.84-96.75h23.13
		L1656.72,2339.23z M1623.19,2151.91h167.93v73.57h-60.62h-39.29h-68.02V2151.91z"/>
	<path class="st0" d="M1643.07,2342.95c-6.44-3.72-13.93-4.7-21.1-2.78c-7.17,1.93-13.15,6.53-16.84,12.94
		c-3.72,6.43-4.7,13.91-2.78,21.08c1.92,7.16,6.52,13.15,12.95,16.87c4.36,2.5,9.12,3.7,13.82,3.7c9.61,0,18.96-4.98,24.09-13.87
		C1660.85,2367.65,1656.31,2350.63,1643.07,2342.95z M1647.14,2377.39L1647.14,2377.39c-5.72,9.9-18.43,13.31-28.35,7.61
		c-4.81-2.78-8.25-7.27-9.69-12.62c-1.43-5.36-0.7-10.96,2.09-15.77c2.76-4.8,7.23-8.24,12.59-9.68c1.79-0.48,3.61-0.72,5.42-0.72
		c3.6,0,7.16,0.95,10.36,2.8C1649.47,2354.75,1652.87,2367.49,1647.14,2377.39z"/>
</g>
<g>
	<path class="st0" d="M2130.21,2086.56h70.07v101.57c-23.89,7.32-40.35,29.37-40.35,54.55s16.45,47.23,40.35,54.55v22.57h-70.07
		v34.85h173.68v-34.85h-70.06v-22.57c23.89-7.32,40.34-29.37,40.34-54.55s-16.45-47.23-40.34-54.55v-101.57h70.06v-34.85h-173.68
		V2086.56z M2137.21,2058.71h159.69v20.85h-70.06v113.94l2.63,0.67c22.2,5.67,37.71,25.62,37.71,48.51s-15.51,42.84-37.71,48.51
		l-2.63,0.67v34.93h70.06v20.85h-159.69v-20.85h70.07v-34.93l-2.63-0.67c-22.2-5.67-37.71-25.62-37.71-48.51
		s15.51-42.84,37.71-48.51l2.63-0.67v-113.94h-70.07V2058.71z"/>
	<path class="st0" d="M2205.28,2213.42c-1.08,0.44-2.14,0.92-3.15,1.46c-10.25,5.52-16.62,16.17-16.62,27.8s6.37,22.28,16.62,27.8
		c1.01,0.55,2.08,1.03,3.18,1.48l0.9,0.33c0.8,0.3,1.63,0.56,2.46,0.79c0.37,0.1,0.74,0.19,1.14,0.29c0.83,0.19,1.66,0.35,2.81,0.53
		c0.26,0.04,0.52,0.08,0.78,0.11c1.2,0.14,2.43,0.23,3.67,0.23c1.24,0,2.46-0.09,3.67-0.23l1.08-0.16c0.85-0.13,1.69-0.28,2.54-0.49
		c0.38-0.09,0.75-0.18,1.11-0.29c0.83-0.23,1.65-0.5,2.7-0.88l0.67-0.25c1.08-0.44,2.14-0.91,3.16-1.46
		c10.25-5.52,16.62-16.17,16.62-27.8s-6.37-22.28-16.62-27.8c-1.02-0.55-2.08-1.02-3.18-1.47l-0.9-0.33
		c-0.81-0.3-1.63-0.56-2.45-0.79c-0.37-0.1-0.74-0.19-1.14-0.29c-0.83-0.2-1.67-0.36-2.71-0.51c-0.3-0.05-0.59-0.1-0.89-0.13
		c-2.42-0.29-4.95-0.29-7.34,0c-0.3,0.03-0.58,0.08-1.07,0.16c-0.85,0.13-1.7,0.28-2.56,0.49c-0.37,0.09-0.74,0.19-1.1,0.29
		c-0.83,0.23-1.66,0.5-2.71,0.88L2205.28,2213.42z M2208.61,2219.65c0.63-0.23,1.26-0.44,1.92-0.61l0.86-0.23
		c0.65-0.15,1.3-0.27,2.27-0.42l0.54-0.08c0.94-0.11,1.89-0.18,2.85-0.18c0.96,0,1.92,0.07,2.86,0.18l0.85,0.13
		c0.66,0.1,1.31,0.22,1.93,0.36l0.9,0.23c0.65,0.18,1.29,0.39,2.21,0.72l0.4,0.15c0.85,0.34,1.67,0.71,2.47,1.14
		c7.98,4.29,12.94,12.59,12.94,21.64s-4.96,17.34-12.94,21.64c-0.8,0.43-1.62,0.8-2.45,1.13l-0.72,0.27
		c-0.63,0.23-1.26,0.43-1.92,0.62l-0.87,0.23c-0.65,0.15-1.3,0.27-1.95,0.37l-0.85,0.13c-1.88,0.22-3.83,0.22-5.71,0l-0.83-0.13
		c-0.66-0.1-1.32-0.22-1.94-0.37l-0.9-0.23c-0.65-0.18-1.28-0.39-2.23-0.73l-0.39-0.14c-0.84-0.34-1.67-0.71-2.47-1.14
		c-7.98-4.29-12.94-12.59-12.94-21.64s4.96-17.34,12.94-21.64c0.8-0.43,1.63-0.8,2.44-1.13L2208.61,2219.65z"/>
	<path class="st0" d="M2061.18,2382.08h64.36v-89.72h-64.36V2382.08z M2068.18,2299.36h50.37v75.72h-50.37V2299.36z"/>
	<path class="st0" d="M2061.18,2114h64.36v-89.72h-64.36V2114z M2068.18,2031.28h50.37V2107h-50.37V2031.28z"/>
	<path class="st0" d="M2308.25,2381.77h64.36v-89.72h-64.36V2381.77z M2315.25,2299.05h50.37v75.72h-50.37V2299.05z"/>
	<path class="st0" d="M2308.25,2023.97v89.72h64.36v-89.72H2308.25z M2365.62,2106.69h-50.37v-75.72h50.37V2106.69z"/>
</g>
<g>
	<path d="M789.78,157.93c-0.68-12.78-1.5-28.15-1.36-39.58h-0.41c-3.13,10.74-6.94,22.17-11.56,34.82l-16.18,44.47h-8.98
		l-14.82-43.66c-4.35-12.92-8.02-24.75-10.61-35.63h-0.27c-0.27,11.42-0.95,26.79-1.77,40.53l-2.45,39.3h-11.29l6.39-91.67h15.1
		l15.64,44.34c3.81,11.29,6.94,21.35,9.25,30.87h0.41c2.31-9.25,5.58-19.31,9.66-30.87l16.32-44.34h15.1l5.71,91.67h-11.56
		L789.78,157.93z"/>
	<path d="M869.33,155.21H833.7v33.05h39.71v9.93h-51.54v-91.67h49.5v9.93H833.7v28.97h35.63V155.21z"/>
	<path d="M952.84,195.19c-4.35,2.18-13.06,4.35-24.21,4.35c-25.84,0-45.29-16.32-45.29-46.38c0-28.7,19.45-48.14,47.87-48.14
		c11.42,0,18.63,2.45,21.76,4.08l-2.86,9.66c-4.49-2.18-10.88-3.81-18.5-3.81c-21.49,0-35.77,13.74-35.77,37.81
		c0,22.44,12.92,36.86,35.22,36.86c7.21,0,14.55-1.5,19.31-3.81L952.84,195.19z"/>
	<path d="M979.49,106.52v38.35h44.34v-38.35h11.97v91.67h-11.97v-42.98h-44.34v42.98h-11.83v-91.67H979.49z"/>
	<path d="M1071.15,169.35l-9.52,28.83h-12.24l31.14-91.67h14.28l31.28,91.67h-12.65l-9.79-28.83H1071.15z M1101.21,160.11
		l-8.98-26.38c-2.04-5.98-3.4-11.42-4.76-16.73h-0.27c-1.36,5.44-2.86,11.02-4.62,16.59l-8.98,26.52H1101.21z"/>
	<path d="M1139.56,198.19v-91.67h12.92l29.38,46.38c6.8,10.74,12.1,20.4,16.46,29.78l0.27-0.14c-1.09-12.24-1.36-23.39-1.36-37.67
		v-38.35h11.15v91.67h-11.97l-29.1-46.51c-6.39-10.2-12.51-20.67-17.14-30.6l-0.41,0.14c0.68,11.56,0.95,22.58,0.95,37.81v39.17
		H1139.56z"/>
	<path d="M1240.88,106.52v91.67h-11.83v-91.67H1240.88z"/>
	<path d="M1325.61,195.19c-4.35,2.18-13.06,4.35-24.21,4.35c-25.84,0-45.29-16.32-45.29-46.38c0-28.7,19.45-48.14,47.87-48.14
		c11.42,0,18.63,2.45,21.76,4.08l-2.86,9.66c-4.49-2.18-10.88-3.81-18.5-3.81c-21.49,0-35.77,13.74-35.77,37.81
		c0,22.44,12.92,36.86,35.22,36.86c7.21,0,14.55-1.5,19.31-3.81L1325.61,195.19z"/>
	<path d="M1338.8,183.77c5.3,3.26,13.06,5.98,21.22,5.98c12.1,0,19.18-6.39,19.18-15.64c0-8.57-4.9-13.46-17.27-18.22
		c-14.96-5.3-24.21-13.06-24.21-25.98c0-14.28,11.83-24.89,29.65-24.89c9.38,0,16.18,2.18,20.26,4.49l-3.26,9.66
		c-2.99-1.63-9.11-4.35-17.41-4.35c-12.51,0-17.27,7.48-17.27,13.74c0,8.57,5.58,12.78,18.22,17.68
		c15.5,5.98,23.39,13.46,23.39,26.93c0,14.14-10.47,26.38-32.1,26.38c-8.84,0-18.5-2.58-23.39-5.85L1338.8,183.77z"/>
	<path d="M1448.14,106.52v91.67h-11.83v-91.67H1448.14z"/>
	<path d="M1532.87,195.19c-4.35,2.18-13.06,4.35-24.21,4.35c-25.84,0-45.29-16.32-45.29-46.38c0-28.7,19.45-48.14,47.87-48.14
		c11.42,0,18.63,2.45,21.76,4.08l-2.86,9.66c-4.49-2.18-10.88-3.81-18.5-3.81c-21.49,0-35.77,13.74-35.77,37.81
		c0,22.44,12.92,36.86,35.22,36.86c7.21,0,14.55-1.5,19.31-3.81L1532.87,195.19z"/>
	<path d="M1623.17,151.4c0,31.55-19.18,48.28-42.57,48.28c-24.21,0-41.21-18.77-41.21-46.51c0-29.1,18.09-48.14,42.57-48.14
		C1606.99,105.03,1623.17,124.2,1623.17,151.4z M1552.04,152.9c0,19.58,10.61,37.13,29.24,37.13c18.77,0,29.38-17.27,29.38-38.08
		c0-18.22-9.52-37.26-29.24-37.26C1561.83,114.68,1552.04,132.77,1552.04,152.9z"/>
	<path d="M1638.54,198.19v-91.67h12.92l29.38,46.38c6.8,10.74,12.1,20.4,16.46,29.78l0.27-0.14c-1.09-12.24-1.36-23.39-1.36-37.67
		v-38.35h11.15v91.67h-11.97l-29.1-46.51c-6.39-10.2-12.51-20.67-17.14-30.6l-0.41,0.14c0.68,11.56,0.95,22.58,0.95,37.81v39.17
		H1638.54z"/>
	<path d="M1726.39,183.77c5.3,3.26,13.06,5.98,21.22,5.98c12.1,0,19.18-6.39,19.18-15.64c0-8.57-4.9-13.46-17.27-18.22
		c-14.96-5.3-24.21-13.06-24.21-25.98c0-14.28,11.83-24.89,29.65-24.89c9.38,0,16.18,2.18,20.26,4.49l-3.26,9.66
		c-2.99-1.63-9.11-4.35-17.41-4.35c-12.51,0-17.27,7.48-17.27,13.74c0,8.57,5.58,12.78,18.22,17.68
		c15.5,5.98,23.39,13.46,23.39,26.93c0,14.14-10.47,26.38-32.1,26.38c-8.84,0-18.5-2.58-23.39-5.85L1726.39,183.77z"/>
</g>
</svg>
