<?xml version="1.0" encoding="utf-8"?>
<!-- Generator: Adobe Illustrator 24.1.2, SVG Export Plug-In . SVG Version: 6.00 Build 0)  -->
<svg version="1.0" id="Layer_1" xmlns="http://www.w3.org/2000/svg" xmlns:xlink="http://www.w3.org/1999/xlink" x="0px" y="0px"
	 viewBox="0 0 2448 2448" style="enable-background:new 0 0 2448 2448;" xml:space="preserve">
<style type="text/css">
	.st0{fill:#010101;}
</style>
<g>
	<path d="M789.78,157.93c-0.68-12.78-1.5-28.15-1.36-39.58h-0.41c-3.13,10.74-6.94,22.17-11.56,34.82l-16.18,44.47h-8.98
		l-14.82-43.66c-4.35-12.92-8.02-24.75-10.61-35.63h-0.27c-0.27,11.42-0.95,26.79-1.77,40.53l-2.45,39.3h-11.29l6.39-91.67h15.1
		l15.64,44.34c3.81,11.29,6.94,21.35,9.25,30.87h0.41c2.31-9.25,5.58-19.31,9.66-30.87l16.32-44.34h15.1l5.71,91.67h-11.56
		L789.78,157.93z"/>
	<path d="M869.33,155.21H833.7v33.05h39.71v9.93h-51.54v-91.67h49.5v9.93H833.7v28.97h35.63V155.21z"/>
	<path d="M952.84,195.19c-4.35,2.18-13.06,4.35-24.21,4.35c-25.84,0-45.29-16.32-45.29-46.38c0-28.7,19.45-48.14,47.87-48.14
		c11.42,0,18.63,2.45,21.76,4.08l-2.86,9.66c-4.49-2.18-10.88-3.81-18.5-3.81c-21.49,0-35.77,13.74-35.77,37.81
		c0,22.44,12.92,36.86,35.22,36.86c7.21,0,14.55-1.5,19.31-3.81L952.84,195.19z"/>
	<path d="M979.49,106.52v38.35h44.34v-38.35h11.97v91.67h-11.97v-42.98h-44.34v42.98h-11.83v-91.67H979.49z"/>
	<path d="M1071.15,169.35l-9.52,28.83h-12.24l31.14-91.67h14.28l31.28,91.67h-12.65l-9.79-28.83H1071.15z M1101.21,160.11
		l-8.98-26.38c-2.04-5.98-3.4-11.42-4.76-16.73h-0.27c-1.36,5.44-2.86,11.02-4.62,16.59l-8.98,26.52H1101.21z"/>
	<path d="M1139.56,198.19v-91.67h12.92l29.38,46.38c6.8,10.74,12.1,20.4,16.46,29.78l0.27-0.14c-1.09-12.24-1.36-23.39-1.36-37.67
		v-38.35h11.15v91.67h-11.97l-29.1-46.51c-6.39-10.2-12.51-20.67-17.14-30.6l-0.41,0.14c0.68,11.56,0.95,22.58,0.95,37.81v39.17
		H1139.56z"/>
	<path d="M1240.88,106.52v91.67h-11.83v-91.67H1240.88z"/>
	<path d="M1325.61,195.19c-4.35,2.18-13.06,4.35-24.21,4.35c-25.84,0-45.29-16.32-45.29-46.38c0-28.7,19.45-48.14,47.87-48.14
		c11.42,0,18.63,2.45,21.76,4.08l-2.86,9.66c-4.49-2.18-10.88-3.81-18.5-3.81c-21.49,0-35.77,13.74-35.77,37.81
		c0,22.44,12.92,36.86,35.22,36.86c7.21,0,14.55-1.5,19.31-3.81L1325.61,195.19z"/>
	<path d="M1338.8,183.77c5.3,3.26,13.06,5.98,21.22,5.98c12.1,0,19.18-6.39,19.18-15.64c0-8.57-4.9-13.46-17.27-18.22
		c-14.96-5.3-24.21-13.06-24.21-25.98c0-14.28,11.83-24.89,29.65-24.89c9.38,0,16.18,2.18,20.26,4.49l-3.26,9.66
		c-2.99-1.63-9.11-4.35-17.41-4.35c-12.51,0-17.27,7.48-17.27,13.74c0,8.57,5.58,12.78,18.22,17.68
		c15.5,5.98,23.39,13.46,23.39,26.93c0,14.14-10.47,26.38-32.1,26.38c-8.84,0-18.5-2.58-23.39-5.85L1338.8,183.77z"/>
	<path d="M1448.14,106.52v91.67h-11.83v-91.67H1448.14z"/>
	<path d="M1532.87,195.19c-4.35,2.18-13.06,4.35-24.21,4.35c-25.84,0-45.29-16.32-45.29-46.38c0-28.7,19.45-48.14,47.87-48.14
		c11.42,0,18.63,2.45,21.76,4.08l-2.86,9.66c-4.49-2.18-10.88-3.81-18.5-3.81c-21.49,0-35.77,13.74-35.77,37.81
		c0,22.44,12.92,36.86,35.22,36.86c7.21,0,14.55-1.5,19.31-3.81L1532.87,195.19z"/>
	<path d="M1623.17,151.4c0,31.55-19.18,48.28-42.57,48.28c-24.21,0-41.21-18.77-41.21-46.51c0-29.1,18.09-48.14,42.57-48.14
		C1606.99,105.03,1623.17,124.2,1623.17,151.4z M1552.04,152.9c0,19.58,10.61,37.13,29.24,37.13c18.77,0,29.38-17.27,29.38-38.08
		c0-18.22-9.52-37.26-29.24-37.26C1561.83,114.68,1552.04,132.77,1552.04,152.9z"/>
	<path d="M1638.54,198.19v-91.67h12.92l29.38,46.38c6.8,10.74,12.1,20.4,16.46,29.78l0.27-0.14c-1.09-12.24-1.36-23.39-1.36-37.67
		v-38.35h11.15v91.67h-11.97l-29.1-46.51c-6.39-10.2-12.51-20.67-17.14-30.6l-0.41,0.14c0.68,11.56,0.95,22.58,0.95,37.81v39.17
		H1638.54z"/>
	<path d="M1726.39,183.77c5.3,3.26,13.06,5.98,21.22,5.98c12.1,0,19.18-6.39,19.18-15.64c0-8.57-4.9-13.46-17.27-18.22
		c-14.96-5.3-24.21-13.06-24.21-25.98c0-14.28,11.83-24.89,29.65-24.89c9.38,0,16.18,2.18,20.26,4.49l-3.26,9.66
		c-2.99-1.63-9.11-4.35-17.41-4.35c-12.51,0-17.27,7.48-17.27,13.74c0,8.57,5.58,12.78,18.22,17.68
		c15.5,5.98,23.39,13.46,23.39,26.93c0,14.14-10.47,26.38-32.1,26.38c-8.84,0-18.5-2.58-23.39-5.85L1726.39,183.77z"/>
</g>
<g>
	<rect x="139.47" y="547.51" class="st0" width="337.24" height="34.92"/>
	<rect x="205.01" y="588.33" class="st0" width="206.15" height="29.02"/>
	<path class="st0" d="M182.8,666.54h-35.96c-3.35,0-6.06-2.71-6.06-6.06v-72.36h48.08v72.36
		C188.86,663.83,186.14,666.54,182.8,666.54z"/>
	<path class="st0" d="M469.34,666.75h-35.96c-3.35,0-6.06-2.71-6.06-6.06v-72.36h48.08v72.36
		C475.4,664.03,472.68,666.75,469.34,666.75z"/>
	<path class="st0" d="M384.14,468.89H232.03c-14.92,0-27.02,12.1-27.02,27.02v45.9h206.15v-45.9
		C411.16,480.99,399.06,468.89,384.14,468.89z M240.21,512.97c-9.07,0-16.43-7.36-16.43-16.43c0-9.07,7.36-16.43,16.43-16.43
		c9.07,0,16.43,7.35,16.43,16.43C256.64,505.61,249.28,512.97,240.21,512.97z M278.64,533.8h-9.62v-46.93h9.62V533.8z M301.48,533.8
		h-9.62v-46.93h9.62V533.8z M324.31,533.8h-9.62v-46.93h9.62V533.8z M347.15,533.8h-9.62v-46.93h9.62V533.8z M375.97,512.97
		c-9.07,0-16.43-7.36-16.43-16.43c0-9.07,7.35-16.43,16.43-16.43c9.07,0,16.43,7.35,16.43,16.43
		C392.39,505.61,385.04,512.97,375.97,512.97z"/>
	<path class="st0" d="M467.26,468.89h-50.23v72.92h59.68v-63.48C476.71,473.12,472.48,468.89,467.26,468.89z"/>
	<path class="st0" d="M199.15,468.89h-50.23c-5.22,0-9.45,4.23-9.45,9.45v63.48h59.68V468.89z"/>
	<path class="st0" d="M412.39,375.66c-0.7-5.76-5.59-10.09-11.4-10.09H215.18c-5.8,0-10.69,4.33-11.4,10.09l-14.92,86.26h238.46
		L412.39,375.66z M209.8,378.31c0.66-4.14,5.27-7.25,10.74-7.25h175.09c5.47,0,10.08,3.11,10.74,7.25l10.65,60.37H199.15
		L209.8,378.31z"/>
	<rect x="433.25" y="451.9" class="st0" width="13.61" height="10.02"/>
	<rect x="438.68" y="420.04" class="st0" width="38.03" height="27.25"/>
	
		<rect x="169.31" y="451.9" transform="matrix(-1 -4.482959e-11 4.482959e-11 -1 352.2271 913.81)" class="st0" width="13.61" height="10.02"/>
	
		<rect x="139.47" y="420.04" transform="matrix(-1 -4.491708e-11 4.491708e-11 -1 316.9586 867.3309)" class="st0" width="38.03" height="27.25"/>
</g>
<g>
	<path class="st0" d="M939.53,536.37l-24.04-39.6l-28.43-53.83c-3.99-7.55-11.83-12.28-20.37-12.28H725.51
		c-8.54,0-16.38,4.73-20.37,12.28l-28.43,53.83l-24.03,39.59c-4.65,1.54-8.03,5.88-8.03,11.05v62.17c0,0.81,0.03,1.62,0.13,2.39
		h-0.13v43.57c0,5.8,4.72,10.52,10.52,10.52h20.47c5.8,0,10.49-4.72,10.49-10.52v-24.45h219.6v24.45c0,5.8,4.69,10.52,10.49,10.52
		h20.47c5.8,0,10.52-4.72,10.52-10.52v-42.2c0.22-1.23,0.35-2.48,0.35-3.77v-62.17C947.54,542.25,944.17,537.91,939.53,536.37z
		 M713.74,447.47c3.61-5.91,10.71-9.6,18.45-9.6h127.82c7.73,0,14.84,3.7,18.45,9.6l22.14,42.09h-209L713.74,447.47z M695.83,572.29
		l-32.82-7c-6.04-1.29-10.35-6.62-10.35-12.79v-2.42c0-5.57,5.14-9.71,10.58-8.53l23.29,5.06c4.25,0.92,7.93,3.59,10.13,7.35
		l5.56,9.5C704.83,567.92,700.89,573.37,695.83,572.29z M840.87,621.28h-89.55v-30.95h89.55V621.28z M876.63,554.47
		c0,15.98-12.95,28.93-28.93,28.93H744.49c-15.98,0-28.93-12.95-28.93-28.93v-6.41h161.07V554.47z M896.36,572.29
		c-5.06,1.08-9-4.37-6.38-8.83l5.56-9.5c2.2-3.76,5.87-6.42,10.13-7.35l23.29-5.06c5.44-1.18,10.58,2.96,10.58,8.53v2.42
		c0,6.17-4.32,11.51-10.35,12.79L896.36,572.29z"/>
	<path class="st0" d="M666.8,505.59v-21.24h-21.64c-5.86,0-10.62,4.75-10.62,10.62c0,5.86,4.75,10.62,10.62,10.62H666.8z"/>
	<path class="st0" d="M945.05,484.35h-21.64v21.24h21.64c5.86,0,10.62-4.75,10.62-10.62C955.67,489.1,950.92,484.35,945.05,484.35z"
		/>
</g>
<g>
	<g>
		<path class="st0" d="M1349.13,564.11l-12.62-20.79l-14.93-28.27c-2.09-3.97-6.21-6.45-10.7-6.45h-74.13
			c-4.49,0-8.6,2.48-10.7,6.45l-14.93,28.27l-12.62,20.79c-2.44,0.81-4.22,3.09-4.22,5.8v32.64c0,0.43,0.02,0.85,0.07,1.26h-0.07
			v22.88c0,3.05,2.48,5.52,5.52,5.52h10.75c3.05,0,5.51-2.48,5.51-5.52v-12.84h115.3v12.84c0,3.05,2.46,5.52,5.51,5.52h10.75
			c3.05,0,5.52-2.48,5.52-5.52v-22.16c0.11-0.64,0.18-1.3,0.18-1.98v-32.64C1353.34,567.2,1351.57,564.92,1349.13,564.11z
			 M1230.57,517.44c1.9-3.1,5.63-5.04,9.69-5.04h67.12c4.06,0,7.79,1.94,9.69,5.04l11.62,22.1h-109.74L1230.57,517.44z
			 M1221.17,582.97l-17.23-3.67c-3.17-0.68-5.44-3.48-5.44-6.72v-1.27c0-2.92,2.7-5.1,5.56-4.48l12.23,2.66
			c2.23,0.49,4.16,1.88,5.32,3.86l2.92,4.99C1225.89,580.68,1223.83,583.54,1221.17,582.97z M1297.32,608.7h-47.02v-16.25h47.02
			V608.7z M1316.1,573.62c0,8.39-6.8,15.19-15.19,15.19h-54.2c-8.39,0-15.19-6.8-15.19-15.19v-3.37h84.58V573.62z M1326.46,582.97
			c-2.66,0.57-4.72-2.29-3.35-4.64l2.92-4.99c1.15-1.97,3.08-3.37,5.32-3.86l12.23-2.66c2.86-0.62,5.56,1.56,5.56,4.48v1.27
			c0,3.24-2.27,6.04-5.44,6.72L1326.46,582.97z"/>
		<path class="st0" d="M1205.93,547.95V536.8h-11.36c-3.08,0-5.58,2.5-5.58,5.58s2.5,5.58,5.58,5.58H1205.93z"/>
		<path class="st0" d="M1352.03,536.8h-11.36v11.15h11.36c3.08,0,5.58-2.5,5.58-5.58S1355.11,536.8,1352.03,536.8z"/>
	</g>
	<polygon class="st0" points="1392.52,455.25 1154.07,455.25 1104.68,455.25 1104.68,693.71 1154.07,693.71 1154.07,490.17 
		1392.52,490.17 1392.52,693.71 1441.92,693.71 1441.92,455.25 	"/>
	<rect x="1223.92" y="672.39" class="st0" width="98.76" height="21.32"/>
	<rect x="1252.14" y="659.47" class="st0" width="42.47" height="9.04"/>
	<rect x="1252.14" y="613.81" class="st0" width="42.47" height="7.81"/>
	<rect x="1269.97" y="624.87" class="st0" width="6.81" height="30.71"/>
	<g>
		<path class="st0" d="M1174.19,404.31c-4.18,0-7.57,3.39-7.57,7.57c0,4.18,3.39,7.57,7.57,7.57c4.18,0,7.57-3.39,7.57-7.57
			C1181.76,407.7,1178.37,404.31,1174.19,404.31z"/>
		<path class="st0" d="M1394.78,373.9h-242.97c-9.11,0-16.5,7.39-16.5,16.5v56.77h275.98V390.4
			C1411.28,381.28,1403.9,373.9,1394.78,373.9z M1368.99,419.07l14.89,5.04c0,0-7.17,8.6-20.44,6.31
			c-10.6-1.83-13.88-7.44-13.88-7.44l-10.35-1.26h-152.4c-2.93,3.76-7.49,6.18-12.63,6.18c-8.85,0-16.02-7.17-16.02-16.02
			c0-8.85,7.17-16.02,16.02-16.02c5.14,0,9.69,2.43,12.63,6.18h152.4l10.35-2.4c0,0,8.45-10.22,19.05-9.34
			c10.6,0.88,19.81,12.11,19.81,14.76l-14.38-3.03c0,0-4.92,2.52-6.18,7.95C1366.6,415.41,1368.99,419.07,1368.99,419.07z"/>
	</g>
</g>
<g>
	<path class="st0" d="M1581.97,513.93V492.7h-21.64c-5.86,0-10.62,4.75-10.62,10.62s4.75,10.62,10.62,10.62H1581.97z"/>
	<path class="st0" d="M1864.72,492.7h-21.64v21.24h21.64c5.86,0,10.62-4.75,10.62-10.62S1870.59,492.7,1864.72,492.7z"/>
	<path class="st0" d="M1853.32,405.01c0,20.98-15.04,36.76-23.84,44.21c-4.18,3.57-7.15,8.3-8.57,13.62l-7.05,26.51
		c-1.01,3.71-1.52,7.55-1.52,11.4v171.62h-58.98V510.53c0-10.29-2.02-20.47-5.94-29.98l-1.55-3.71c-3.1-7.55-8.3-14-14.8-18.92
		c-12.68-9.68-16.19-21.55-16.19-21.55c-11.13-33.83,16.86-74.7,16.86-74.7l14.16,44.45c0,0,13.05,18.18,42.93,7.96
		c29.88-10.22,24.79-30.45,24.79-30.45l-10.42-38.78C1817.6,344.84,1853.32,375.3,1853.32,405.01z"/>
	<g>
		<path class="st0" d="M1855.7,542.57l-24.04-39.6l-7.31-13.83l-0.75,2.81c-0.74,2.87-1.15,5.83-1.15,8.8v51.92l22.67-4.93
			c5.44-1.18,10.58,2.96,10.58,8.53v2.42c0,6.17-4.32,11.51-10.35,12.79l-22.9,4.88v88.66c1.38,4.19,5.27,7.23,9.91,7.23h20.47
			c5.8,0,10.52-4.72,10.52-10.52v-42.2c0.22-1.23,0.35-2.48,0.35-3.77v-62.17C1863.72,548.45,1860.34,544.12,1855.7,542.57z"/>
		<path class="st0" d="M1743.24,627.48h-75.76v-30.95h75.76v-6.93h-82.58c-15.98,0-28.93-12.95-28.93-28.93v-6.41h111.51v-43.73
			c0-5.01-0.6-9.94-1.67-14.77h-133.8l22.14-42.09c3.61-5.91,10.71-9.6,18.45-9.6h58.72c-1.06-2.28-1.63-3.95-1.84-4.63
			c-0.28-0.86-0.52-1.72-0.75-2.58h-62.8c-8.54,0-16.38,4.73-20.37,12.28l-28.43,53.83l-24.03,39.59
			c-4.65,1.54-8.03,5.88-8.03,11.05v62.17c0,0.81,0.03,1.62,0.13,2.39h-0.13v43.57c0,5.8,4.72,10.52,10.52,10.52h20.47
			c5.8,0,10.49-4.72,10.49-10.52v-24.45h140.95V627.48z M1612,578.49l-32.82-7c-6.04-1.29-10.35-6.62-10.35-12.79v-2.42
			c0-5.57,5.14-9.71,10.58-8.53l23.29,5.06c4.25,0.92,7.93,3.59,10.13,7.35l5.56,9.5C1621,574.12,1617.06,579.57,1612,578.49z"/>
	</g>
	<path class="st0" d="M1853.32,405.01c0,20.98-15.04,36.76-23.84,44.21c-4.18,3.57-7.15,8.3-8.57,13.62l-7.05,26.51
		c-1.01,3.71-1.52,7.55-1.52,11.4v171.62h-58.98V510.53c0-10.29-2.02-20.47-5.94-29.98l-1.55-3.71c-3.1-7.55-8.3-14-14.8-18.92
		c-12.68-9.68-16.19-21.55-16.19-21.55c-11.13-33.83,16.86-74.7,16.86-74.7l14.16,44.45c0,0,13.05,18.18,42.93,7.96
		c29.88-10.22,24.79-30.45,24.79-30.45l-10.42-38.78C1817.6,344.84,1853.32,375.3,1853.32,405.01z"/>
</g>
<g>
	<path class="st0" d="M2277.12,685.81c0,0-9.91-6.05-2.64-21.37c7.27-15.32,19.35-13.09,19.35-13.09l22.88,12.16
		c0,0-5.53-26.68-23.09-35.81c0,0-6.76-3.79-16.24-2.13c-2.83,0.5-5.75-0.01-8.16-1.59l-12.36-8.12c-0.96-0.63-1.86-1.36-2.67-2.17
		l-163.44-163.44c-1.79-1.79-3.34-3.81-4.61-6l-9.07-15.65c-1.81-3.13-2.64-6.73-2.34-10.34c0.63-7.58,0.28-21.95-9.51-31.73
		c-13.84-13.84-44.69-11.37-51.39-4.67l22.92,13.22c0,0,11.81,7.05,2.64,25.74c-9.17,18.69-23.71,16.31-23.71,16.31l-27.33-14.1
		c0,0,5.99,32.09,26.97,42.66c0,0,7.15,3.9,17.57,2.49c5.33-0.72,10.76-0.14,15.73,1.92l2.43,1.01c6.26,2.61,11.95,6.41,16.75,11.21
		l160.1,160.1l10.5,11.38c4.12,4.47,6.6,10.25,6.77,16.33c0.18,6.54,1.82,15.6,8.5,22.29c11.71,11.71,37.22,10.2,42.65,4.77
		L2277.12,685.81z"/>
	<g>
		<path class="st0" d="M2120.3,546.73l-57.1,57.1c-1.79,1.79-3.81,3.34-6,4.61l-15.65,9.07c-3.13,1.81-6.73,2.64-10.34,2.34
			c-7.58-0.63-21.95-0.28-31.73,9.51c-13.84,13.84-11.37,44.69-4.67,51.39l13.22-22.92c0,0,7.05-11.81,25.74-2.64
			s16.31,23.71,16.31,23.71l-14.1,27.33c0,0,32.09-5.99,42.66-26.97c0,0,3.9-7.15,2.49-17.57c-0.72-5.33-0.14-10.76,1.92-15.73
			l1.01-2.43c2.6-6.26,6.41-11.95,11.21-16.75l52.53-52.53L2120.3,546.73z"/>
		<path class="st0" d="M2187.24,534.8l68.13-68.13l11.38-10.5c4.47-4.12,10.25-6.6,16.33-6.77c6.54-0.18,15.6-1.82,22.29-8.5
			c11.71-11.71,10.2-37.22,4.77-42.65l-11.35,19.21c0,0-6.05,9.91-21.37,2.64c-15.32-7.27-13.09-19.35-13.09-19.35l12.16-22.88
			c0,0-26.68,5.53-35.81,23.09c0,0-3.79,6.76-2.13,16.24c0.5,2.83-0.01,5.75-1.59,8.16l-8.12,12.36c-0.63,0.96-1.36,1.86-2.17,2.67
			l-66.9,66.9L2187.24,534.8z"/>
	</g>
</g>
<g>
	<path class="st0" d="M289.91,950.94h-31.26c-3.57,0-6.81,2.19-8.33,5.63l-5.16,11.7l-89.87-51.9c2.83,1.62,6.04,2.46,9.31,2.46
		c3.2,0,6.47-0.81,9.44-2.53l21.58-12.44l6.78-3.91l6.98,4.01l77.3,44.62C287.85,949.26,288.93,950.06,289.91,950.94z"/>
	<path class="st0" d="M462.27,915.33c-0.47,0.34-0.98,0.67-1.48,0.98L367,970.43l-6.14-13.86c-1.52-3.44-4.76-5.63-8.33-5.63h-26.51
		c0.98-0.88,2.06-1.69,3.24-2.36l77.26-44.62l6.98-4.01l6.98,4.01l21.38,12.34c2.97,1.72,6.24,2.53,9.44,2.53
		C455.22,918.84,459.07,917.59,462.27,915.33z"/>
	<path class="st0" d="M371.33,994.03l-15.27-32.56c-1.39-2.96-4.36-4.84-7.62-4.84h-85.72c-3.26,0-6.23,1.89-7.62,4.84l-15.27,32.56
		c-2.62,5.58,1.46,11.99,7.62,11.99h116.25C369.87,1006.02,373.95,999.61,371.33,994.03z M264.29,969.31c0-3.93,3.18-7.11,7.11-7.11
		c3.93,0,7.11,3.18,7.11,7.11c0,3.93-3.18,7.11-7.11,7.11C267.47,976.42,264.29,973.24,264.29,969.31z M339.76,994.68
		c0,2.28-1.85,4.13-4.13,4.13h-60.1c-2.28,0-4.13-1.85-4.13-4.13v-0.15c0-2.28,1.85-4.13,4.13-4.13h60.1c2.28,0,4.13,1.85,4.13,4.13
		V994.68z M344.49,976.42c-3.93,0-7.11-3.18-7.11-7.11c0-3.93,3.18-7.11,7.11-7.11c3.93,0,7.11,3.18,7.11,7.11
		C351.6,973.24,348.42,976.42,344.49,976.42z"/>
	<path class="st0" d="M329.91,799.6h-48.65c-8.47,0-15.34,6.87-15.34,15.34v18.71c0,8.47,6.87,15.34,15.34,15.34h48.65
		c8.47,0,15.34-6.87,15.34-15.34v-18.71C345.25,806.46,338.38,799.6,329.91,799.6z M283.6,825.57c-3.93,0-7.11-3.18-7.11-7.11
		c0-3.93,3.18-7.11,7.11-7.11c3.93,0,7.11,3.18,7.11,7.11C290.71,822.38,287.53,825.57,283.6,825.57z M330.08,825.57
		c-3.93,0-7.11-3.18-7.11-7.11c0-3.93,3.18-7.11,7.11-7.11s7.11,3.18,7.11,7.11C337.19,822.38,334.01,825.57,330.08,825.57z"/>
	<rect x="265.92" y="778.03" class="st0" width="79.34" height="16.83"/>
	<path class="st0" d="M507.56,886.83v-0.57c0-2.5-2.02-4.52-4.52-4.52h-25.32c-1.94,0-3.52,1.57-3.52,3.52v2.49v3.61v16.78v6.1
		c0,1.94,1.57,3.52,3.52,3.52h25.32c2.5,0,4.52-2.02,4.52-4.52v-0.57c0-2.5-2.02-4.52-4.52-4.52h-17.19v-16.78h17.19
		C505.53,891.35,507.56,889.33,507.56,886.83z"/>
	<polygon class="st0" points="215.74,895.52 233.64,895.52 225.21,903.96 215.13,903.96 208.55,899.94 	"/>
	<polygon class="st0" points="242.14,895.52 252.63,895.52 244.2,903.96 233.71,903.96 	"/>
	<polygon class="st0" points="261.13,895.52 271.62,895.52 263.19,903.96 252.7,903.96 	"/>
	<polygon class="st0" points="280.11,895.52 290.6,895.52 282.14,903.96 271.68,903.96 	"/>
	<polygon class="st0" points="299.1,895.52 309.56,895.52 301.13,903.96 290.64,903.96 	"/>
	<polygon class="st0" points="318.05,895.52 328.54,895.52 320.11,903.96 309.62,903.96 	"/>
	<polygon class="st0" points="337.04,895.52 347.53,895.52 339.1,903.96 328.61,903.96 	"/>
	<polygon class="st0" points="356.03,895.52 366.52,895.52 358.05,903.96 347.6,903.96 	"/>
	<polygon class="st0" points="375.01,895.52 385.47,895.52 377.04,903.96 366.55,903.96 	"/>
	<polygon class="st0" points="407.32,899.94 400.75,903.96 385.54,903.96 393.97,895.52 400.14,895.52 	"/>
	<path class="st0" d="M140.62,903.96h-18.78v-8.43h18.85C140.01,898.32,140.01,901.22,140.62,903.96z"/>
	<path class="st0" d="M277.29,851.46c-8.46,0-15.34-6.88-15.34-15.34v-14.23l-106.37,61.45l-7.35,7.15
		c-0.44,0.74-0.81,1.52-1.11,2.26c-0.2,0.51-0.4,1.01-0.54,1.52c-0.13,0.44-0.27,0.84-0.37,1.28c-0.14,0.64-0.27,1.28-0.34,1.96
		c-0.03,0.1-0.07,0.24-0.03,0.37c-0.1,0.67-0.14,1.35-0.14,2.02c0,0.54,0.03,1.11,0.07,1.69c0.03,0.24,0.07,0.51,0.1,0.78
		c0.03,0.51,0.14,1.01,0.24,1.48c0.17,0.71,0.34,1.42,0.57,2.09c0.24,0.74,0.57,1.52,0.91,2.26c0.17,0.37,0.4,0.78,0.64,1.18
		c0.2,0.37,0.44,0.74,0.67,1.11c1.15,1.72,2.6,3.27,4.32,4.55c0.34,0.24,0.67,0.47,1.01,0.71c0.3,0.2,0.61,0.4,0.91,0.57l0.14,0.07
		c2.83,1.62,6.04,2.46,9.31,2.46c3.2,0,6.47-0.81,9.44-2.53l21.58-12.44l6.78-3.91l7.62-4.42l76.35-44.08H277.29z M163.39,906.85
		c-3.93,0-7.11-3.18-7.11-7.11c0-3.93,3.18-7.11,7.11-7.11c3.93,0,7.11,3.18,7.11,7.11C170.51,903.67,167.32,906.85,163.39,906.85z"
		/>
	<path class="st0" d="M468.1,891.22c-0.14-0.24-0.27-0.51-0.4-0.74l-1.45-2.16c-0.27-0.34-0.54-0.64-0.81-0.98
		c-0.27-0.3-0.57-0.61-0.88-0.91c-0.27-0.27-0.57-0.57-0.91-0.84l-3.31-2.26l-111.12-64.18v16.96c0,8.46-6.88,15.34-15.34,15.34
		h-4.32l76.32,44.08l7.62,4.42l6.98,4.01l21.38,12.34c2.97,1.72,6.24,2.53,9.44,2.53c3.91,0,7.76-1.25,10.96-3.51
		c0.47-0.34,0.94-0.71,1.38-1.08c0.3-0.27,0.61-0.54,0.91-0.84c0.3-0.3,0.61-0.61,0.88-0.91c0.57-0.64,1.08-1.32,1.59-2.02
		c0.24-0.37,0.44-0.74,0.67-1.11l0.61-1.11c0.03-0.03,0.03-0.07,0.03-0.07c0.34-0.74,0.67-1.52,0.91-2.26
		C470.84,901.2,470.57,895.9,468.1,891.22z M452.5,906.85c-3.93,0-7.11-3.18-7.11-7.11c0-3.93,3.18-7.11,7.11-7.11
		c3.93,0,7.11,3.18,7.11,7.11C459.61,903.67,456.43,906.85,452.5,906.85z"/>
</g>
<g>
	
		<rect x="772.64" y="793.16" transform="matrix(0.7071 0.7071 -0.7071 0.7071 820.1915 -358.8857)" class="st0" width="141.35" height="34.92"/>
	<path class="st0" d="M890.58,763.34c-11.32-11.32-27.95-15.48-43.26-10.83l-19.57,5.95l67.71,67.71l5.95-19.57
		C906.06,791.29,901.9,774.66,890.58,763.34z M884.91,786.65c-4.87,4.87-12.77,4.87-17.64,0c-4.87-4.87-4.87-12.77,0-17.64
		c4.87-4.87,12.77-4.87,17.64,0C889.79,773.88,889.79,781.78,884.91,786.65z"/>
	
		<rect x="608.61" y="957.18" transform="matrix(0.7071 0.7071 -0.7071 0.7071 888.1341 -194.8576)" class="st0" width="141.35" height="34.92"/>
	<path class="st0" d="M627.13,959.08l-5.95,19.57c-4.65,15.31-0.49,31.94,10.83,43.26c11.32,11.32,27.95,15.48,43.26,10.83
		l19.57-5.95L627.13,959.08z M655.32,1016.25c-4.87,4.87-12.77,4.87-17.64,0c-4.87-4.87-4.87-12.77,0-17.64
		c4.87-4.87,12.77-4.87,17.64,0C660.19,1003.48,660.19,1011.38,655.32,1016.25z"/>
	<path class="st0" d="M857.67,882.74l-106.4-61.43c-0.99-0.57-1.34-1.85-0.76-2.84l4.93-8.54c0.57-0.99,1.85-1.34,2.84-0.76
		l106.4,61.43c0.99,0.57,1.34,1.85,0.76,2.84l-4.93,8.54C859.93,882.97,858.66,883.31,857.67,882.74z"/>
	<polygon class="st0" points="827.18,843.11 833.2,837.1 816.83,820.73 806.43,831.13 	"/>
	<polygon class="st0" points="797.44,872.85 809.52,860.77 788.77,848.79 776.69,860.87 	"/>
	<polygon class="st0" points="767.7,902.59 779.78,890.51 759.03,878.53 746.95,890.61 	"/>
	<g>
		<polygon class="st0" points="737.96,932.33 750.04,920.26 729.28,908.27 717.21,920.35 		"/>
		<polygon class="st0" points="699.54,938.02 689.39,948.16 705.76,964.53 720.29,950 		"/>
	</g>
	<path class="st0" d="M827.92,912.49l-106.4-61.43c-0.99-0.57-1.34-1.85-0.76-2.84l4.93-8.54c0.57-0.99,1.85-1.34,2.84-0.76
		l106.4,61.43c0.99,0.57,1.34,1.85,0.76,2.84l-4.93,8.54C830.18,912.72,828.91,913.06,827.92,912.49z"/>
	<path class="st0" d="M798.17,942.24l-106.4-61.43c-0.99-0.57-1.34-1.85-0.76-2.84l4.93-8.54c0.57-0.99,1.85-1.34,2.84-0.76
		l106.4,61.43c0.99,0.57,1.34,1.85,0.76,2.84l-4.93,8.54C800.43,942.47,799.16,942.81,798.17,942.24z"/>
	<path class="st0" d="M768.42,971.99l-106.4-61.43c-0.99-0.57-1.34-1.85-0.76-2.84l4.93-8.54c0.57-0.99,1.85-1.34,2.84-0.76
		l106.4,61.43c0.99,0.57,1.34,1.85,0.76,2.84l-4.93,8.54C770.68,972.22,769.41,972.56,768.42,971.99z"/>
</g>
<g>
	<path class="st0" d="M1242.18,832.79c-2.31,0.84-4.87-0.35-5.72-2.67l-1.46-4.01c-0.84-2.31,0.35-4.87,2.67-5.72l19.13-6.96
		l-4.72-12.96l-19.13,6.96c-2.31,0.84-4.87-0.35-5.72-2.67l-1.46-4.01c-0.84-2.31,0.35-4.87,2.67-5.72l19.13-6.96l-4.72-12.96
		l-19.13,6.96c-2.31,0.84-4.87-0.35-5.72-2.67l-1.46-4.01c-0.84-2.31,0.35-4.87,2.67-5.72l19.13-6.96l-1.02-2.82
		c-3.37-9.26-13.6-14.03-22.86-10.66l-111.07,40.43c-9.26,3.37-14.03,13.6-10.66,22.86l1.02,2.82l19.13-6.96
		c2.31-0.84,4.87,0.35,5.72,2.67l1.46,4.01c0.84,2.31-0.35,4.87-2.67,5.72l-19.13,6.96l4.72,12.96l19.13-6.96
		c2.31-0.84,4.87,0.35,5.72,2.67l1.46,4.01c0.84,2.31-0.35,4.87-2.67,5.72l-19.13,6.96l4.72,12.96l19.13-6.96
		c2.31-0.84,4.87,0.35,5.72,2.67l1.46,4.01c0.84,2.31-0.35,4.87-2.67,5.72l-19.13,6.96l1.02,2.82c3.37,9.26,13.6,14.03,22.86,10.66
		l111.07-40.43c9.26-3.37,14.03-13.6,10.66-22.86l-1.02-2.82L1242.18,832.79z"/>
	<path class="st0" d="M1185.68,734.65l-69.62,25.34c-1.1,0.4-1.67,1.62-1.27,2.73l5.44,14.95l73.61-26.79l-5.44-14.95
		C1188.01,734.82,1186.79,734.25,1185.68,734.65z"/>
	<path class="st0" d="M1311.37,832.79c2.31,0.84,4.87-0.35,5.72-2.67l1.46-4.01c0.84-2.31-0.35-4.87-2.67-5.72l-19.13-6.96
		l4.72-12.96l19.13,6.96c2.31,0.84,4.87-0.35,5.72-2.67l1.46-4.01c0.84-2.31-0.35-4.87-2.67-5.72l-19.13-6.96l4.72-12.96l19.13,6.96
		c2.31,0.84,4.87-0.35,5.72-2.67l1.46-4.01c0.84-2.31-0.35-4.87-2.67-5.72l-19.13-6.96l1.02-2.82c3.37-9.26,13.6-14.03,22.86-10.66
		l111.07,40.43c9.26,3.37,14.03,13.6,10.66,22.86l-1.02,2.82l-19.13-6.96c-2.31-0.84-4.87,0.35-5.72,2.67l-1.46,4.01
		c-0.84,2.31,0.35,4.87,2.67,5.72l19.13,6.96l-4.72,12.96l-19.13-6.96c-2.31-0.84-4.87,0.35-5.72,2.67l-1.46,4.01
		c-0.84,2.31,0.35,4.87,2.67,5.72l19.13,6.96l-4.72,12.96l-19.13-6.96c-2.31-0.84-4.87,0.35-5.72,2.67l-1.46,4.01
		c-0.84,2.31,0.35,4.87,2.67,5.72l19.13,6.96l-1.02,2.82c-3.37,9.26-13.6,14.03-22.86,10.66l-111.07-40.43
		c-9.26-3.37-14.03-13.6-10.66-22.86l1.02-2.82L1311.37,832.79z"/>
	<path class="st0" d="M1367.87,734.65l69.62,25.34c1.1,0.4,1.67,1.62,1.27,2.73l-5.44,14.95l-73.61-26.79l5.44-14.95
		C1365.55,734.82,1366.77,734.25,1367.87,734.65z"/>
	<circle class="st0" cx="1222.62" cy="920.27" r="17.79"/>
	<g>
		<path class="st0" d="M1315.35,943.47c0-8.71,4.32-16.4,10.91-21.09l-70.82-22.67c3.74,5.96,5.94,13,5.94,20.56
			c0,21.41-17.36,38.77-38.77,38.77c-0.14,0-0.27-0.02-0.41-0.02l35.64,32.47c2.08-4.37,6.5-7.41,11.66-7.41
			c6.27,0,11.5,4.47,12.68,10.39l49.69-26.89C1322.21,963.82,1315.35,954.46,1315.35,943.47z"/>
		<path class="st0" d="M1410.62,898.27l-108.1-39.36h-51.5l-108.1,39.36c-1.65,0.6-3.37,0.96-5.1,1.19l16.85,109.43
			c1.65,10.73,10.88,18.64,21.73,18.64h200.73c10.85,0,20.08-7.92,21.73-18.64l16.85-109.43
			C1414,899.23,1412.29,898.87,1410.62,898.27z M1353.19,966.4l0.01,0.01l-77.72,42.05l-0.02-0.03c-1.79,0.94-3.8,1.52-5.96,1.52
			c-2.93,0-5.6-1.01-7.77-2.65l-0.03,0.04l-0.74-0.68c-0.26-0.23-0.54-0.46-0.78-0.71l-57.8-52.67
			c-11.1-6.82-18.52-19.03-18.52-33.01c0-21.41,17.36-38.77,38.77-38.77c3.49,0,6.86,0.5,10.08,1.37l0.01-0.02l0.31,0.1
			c0.91,0.25,1.8,0.54,2.68,0.86l105.52,33.78c0,0,0,0,0.01,0c14.29,0,25.88,11.59,25.88,25.88
			C1367.11,953.44,1361.46,962.08,1353.19,966.4z"/>
	</g>
	<circle class="st0" cx="1341.23" cy="943.47" r="17.79"/>
	<circle class="st0" cx="1269.5" cy="997.01" r="4.14"/>
	<circle class="st0" cx="1222.62" cy="893" r="4.14"/>
	<circle class="st0" cx="1195.36" cy="920.27" r="4.14"/>
	<circle class="st0" cx="1222.62" cy="947.53" r="4.14"/>
	<circle class="st0" cx="1249.89" cy="920.27" r="4.14"/>
</g>
<g>
	<rect x="1543.64" y="1002.89" class="st0" width="337.24" height="35.48"/>
	<rect x="1593.04" y="782.42" class="st0" width="238.46" height="35.48"/>
	<rect x="1841.79" y="796.67" class="st0" width="39.1" height="21.23"/>
	<rect x="1543.64" y="796.67" class="st0" width="39.1" height="21.23"/>
	<rect x="1549.9" y="770.03" class="st0" width="26.58" height="19.83"/>
	<rect x="1848.05" y="770.03" class="st0" width="26.58" height="19.83"/>
	<polygon class="st0" points="1597.31,858.73 1586.8,858.73 1586.8,848.21 1578.68,848.21 1578.68,858.73 1568.17,858.73 
		1568.17,866.84 1578.68,866.84 1578.68,877.36 1586.8,877.36 1586.8,866.84 1597.31,866.84 	"/>
	
		<rect x="1837.73" y="848.21" transform="matrix(-1.836970e-16 1 -1 -1.836970e-16 2704.5715 -979.0031)" class="st0" width="8.11" height="29.15"/>
	<path class="st0" d="M1543.64,825.3v168.62h337.24V825.3H1543.64z M1582.74,884.82c-12.17,0-22.04-9.87-22.04-22.04
		c0-12.17,9.87-22.04,22.04-22.04c12.17,0,22.04,9.87,22.04,22.04C1604.78,874.96,1594.91,884.82,1582.74,884.82z M1731.38,914.64
		l-39.88,53.09l16.05-43.65h-17.7l13.69-46.72h31.15l-22.18,37.28H1731.38z M1841.79,884.82c-12.17,0-22.04-9.87-22.04-22.04
		c0-12.17,9.87-22.04,22.04-22.04c12.17,0,22.04,9.87,22.04,22.04C1863.82,874.96,1853.96,884.82,1841.79,884.82z"/>
</g>
<g>
	<path class="st0" d="M2208.24,977.94c-14.48,0-26.22,11.74-26.22,26.22c0,14.48,11.74,26.22,26.22,26.22
		c14.48,0,26.22-11.74,26.22-26.22C2234.47,989.68,2222.73,977.94,2208.24,977.94z M2208.24,1016.96c-7.07,0-12.8-5.73-12.8-12.8
		s5.73-12.8,12.8-12.8s12.8,5.73,12.8,12.8S2215.31,1016.96,2208.24,1016.96z"/>
	<path class="st0" d="M2281.17,977.94c-14.48,0-26.22,11.74-26.22,26.22c0,14.48,11.74,26.22,26.22,26.22s26.22-11.74,26.22-26.22
		C2307.39,989.68,2295.65,977.94,2281.17,977.94z M2281.17,1016.96c-7.07,0-12.8-5.73-12.8-12.8s5.73-12.8,12.8-12.8
		c7.07,0,12.8,5.73,12.8,12.8S2288.24,1016.96,2281.17,1016.96z"/>
	<path class="st0" d="M2232.06,985.71c3.96,5.1,6.34,11.5,6.34,18.46h12.61c0-6.96,2.38-13.35,6.34-18.46H2232.06z"/>
	<path class="st0" d="M2318.1,985.71h-13.12c3.96,5.1,6.34,11.5,6.34,18.46h6.77c3.71,0,6.72-3.01,6.72-6.72v-5.02
		C2324.82,988.72,2321.81,985.71,2318.1,985.71z"/>
	<path class="st0" d="M2001.38,985.71c-3.71,0-6.72,3.01-6.72,6.72v5.02c0,3.71,3.01,6.72,6.72,6.72h24.8
		c0-6.95,2.37-13.34,6.31-18.46H2001.38z"/>
	<path class="st0" d="M2134.05,985.71h-1.67h-51.93c3.94,5.11,6.31,11.5,6.31,18.46h45.62h1.67h44.03c0-6.96,2.38-13.35,6.34-18.46
		H2134.05z"/>
	<path class="st0" d="M2056.47,973.87c7.43,0,14.22,2.68,19.49,7.12h58.09V865.82l-41.14-0.35c-7.73,0.7-14.26,6.03-16.49,13.47
		l-11.32,37.78l-51.15,9.33c-9.03,1.65-15.58,9.51-15.58,18.68v36.26h38.6C2042.24,976.55,2049.04,973.87,2056.47,973.87z
		 M2082.2,884.23c1.77-5.9,6.94-10.12,13.07-10.68l32.61,0.28v40.06l-54.66,0.28L2082.2,884.23z"/>
	<path class="st0" d="M2056.47,977.94c-14.48,0-26.22,11.74-26.22,26.22c0,14.48,11.74,26.22,26.22,26.22s26.22-11.74,26.22-26.22
		C2082.69,989.68,2070.95,977.94,2056.47,977.94z M2056.47,1016.96c-7.07,0-12.8-5.73-12.8-12.8s5.73-12.8,12.8-12.8
		c7.07,0,12.8,5.73,12.8,12.8S2063.54,1016.96,2056.47,1016.96z"/>
	<path class="st0" d="M2264.63,888.73c1.23-1.09,2.08-1.91,2.56-2.48c0.65-0.78,1.11-1.55,1.4-2.31c0.4-1.01,0.59-2.22,0.59-3.62
		c0-0.24,0-0.24,0-0.24c-0.01-0.46-0.79-0.83-1.73-0.83s-1.77,1.1-1.83,2.45c0,0,0,0-0.17,0.63c-0.17,0.63-0.43,1.19-0.79,1.68
		c-0.36,0.49-0.36,0.49-0.36,0.49c-1.05,0.98-3,2.85-4.33,4.14c0,0-0.48,0.47-1.07,1.53c-0.59,1.07-0.89,2.23-0.89,3.5
		c0,2.19,0.84,4.05,2.53,5.59c1.69,1.54,3.95,2.31,6.78,2.31c2.67,0,4.82-0.72,6.45-2.15c1.63-1.44,2.04-2.95,2.04-2.95
		c0.49-1.79,0.07-3.35-0.94-3.47c-1.01-0.12-2.24,1.24-2.74,3.03c0,0-0.07,0.25-1.08,1.2c-1.01,0.95-2.28,1.42-3.79,1.42
		c-1.57,0-2.89-0.52-3.97-1.57s-1.62-2.26-1.62-3.65c0-0.76,0.18-1.47,0.55-2.11C2262.6,890.68,2263.4,889.82,2264.63,888.73z"/>
	<path class="st0" d="M2273.83,832.74v16.52c-1.42-1.27-3.29-2.07-5.35-2.07h-2.23c-2.06,0-3.92,0.8-5.35,2.07v-1.18
		c0-0.75-0.61-1.35-1.35-1.35c-0.75,0-1.35,0.61-1.35,1.35v7.16v8.01v1.89c0,4.24,3.29,7.68,7.45,7.99
		c-0.19,0.31-0.32,0.64-0.32,1.03c0,1.11,0.91,2.03,2.03,2.03s2.03-0.91,2.03-2.03c0-0.38-0.14-0.72-0.32-1.02
		c4.17-0.3,7.47-3.75,7.47-7.99v-2.57v-7.33v-22.5c0-0.75-0.61-1.35-1.35-1.35S2273.83,831.99,2273.83,832.74z M2267.37,858.66
		c-1.8,0-3.26-1.46-3.26-3.26s1.46-3.26,3.26-3.26c1.8,0,3.26,1.46,3.26,3.26S2269.17,858.66,2267.37,858.66z"/>
	<path class="st0" d="M2216.58,962.49l-13-33.36h-4.48v-21.26l72.79-78.05c3.3-3.54,3.21-9.06-0.22-12.48v0
		c-3.42-3.42-8.94-3.52-12.48-0.22l-82.29,76.75h-9.96c-6.69,0-12.12,5.43-12.12,12.12v23.14h-14.58v51.86h48.7
		c5.23-4.36,11.95-6.99,19.29-6.99c7.34,0,14.06,2.63,19.29,6.99h34.34c5.23-4.36,11.95-6.99,19.29-6.99
		c7.34,0,14.06,2.63,19.29,6.99h15.74v-18.51H2216.58z M2175.57,923.05c-4.9,0-8.87-3.97-8.87-8.87c0-4.9,3.97-8.87,8.87-8.87
		s8.86,3.97,8.86,8.87C2184.43,919.08,2180.46,923.05,2175.57,923.05z"/>
</g>
<g>
	<path class="st0" d="M339.35,1478.48c-4.49-0.53-9.99,5.55-12.23,13.53c0,0-0.31,1.12-4.84,5.35c-4.53,4.23-10.17,6.35-16.94,6.35
		c-7,0-12.91-2.34-17.73-7.01c-4.82-4.68-7.23-10.1-7.23-16.28c0-3.41,0.82-6.56,2.47-9.44c1.65-2.88,5.22-6.75,10.72-11.6
		c5.5-4.85,9.31-8.54,11.42-11.07c2.88-3.47,4.97-6.91,6.26-10.32c1.76-4.53,2.65-9.91,2.65-16.14c0-1.06,0-1.06,0-1.06
		c-0.05-2.04-3.52-3.71-7.72-3.71c-4.2,0-7.88,4.92-8.19,10.94c0,0,0,0-0.76,2.82c-0.76,2.82-1.94,5.32-3.53,7.5
		c-1.59,2.18-1.59,2.18-1.59,2.18c-4.71,4.38-13.4,12.71-19.31,18.5c0,0-2.12,2.08-4.77,6.84s-3.97,9.97-3.97,15.61
		c0,9.76,3.76,18.08,11.29,24.97c7.53,6.88,17.61,10.32,30.26,10.32c11.94,0,21.54-3.21,28.8-9.62c7.26-6.41,9.12-13.18,9.12-13.18
		C345.71,1485.98,343.83,1479.01,339.35,1478.48z"/>
	<path class="st0" d="M259.51,1262.11h5.36v47.74v37.4v6.77c0,18.88,14.56,34.33,33.06,35.8c-0.76,1.32-1.23,2.83-1.23,4.45
		c0,4.97,4.07,9.04,9.04,9.04c4.97,0,9.04-4.07,9.04-9.04c0-1.62-0.47-3.13-1.22-4.45c18.54-1.43,33.14-16.9,33.14-35.8v-6.77v-37.4
		v-47.74h5.36v-26.4h-92.55V1262.11z M305.78,1325.13c-8.03,0-14.53-6.51-14.53-14.53c0-8.03,6.51-14.53,14.53-14.53
		c8.03,0,14.53,6.51,14.53,14.53C320.31,1318.62,313.81,1325.13,305.78,1325.13z M334.62,1283.03c-6.35-5.66-14.7-9.12-23.87-9.12
		h-9.95c-9.17,0-17.52,3.47-23.87,9.12v-20.92h57.69V1283.03z"/>
	<polygon class="st0" points="330.72,1228.92 359.24,1179.53 340.23,1179.53 311.71,1228.92 	"/>
	<polygon class="st0" points="299.48,1228.92 328,1179.53 308.99,1179.53 280.47,1228.92 	"/>
	<polygon class="st0" points="296.76,1179.53 277.75,1179.53 249.23,1228.92 268.24,1228.92 	"/>
	<polygon class="st0" points="239.82,1179.53 239.82,1224.03 265.51,1179.53 	"/>
	<polygon class="st0" points="371.47,1179.53 342.96,1228.92 371.74,1228.92 371.74,1179.53 	"/>
</g>
<g>
	<path class="st0" d="M883.63,1325.13c0-3.56-0.17-7.07-0.41-10.56l14.91-5.21l-4.53-25.67l-15.76,0.2
		c-1.95-6.84-4.37-13.47-7.23-19.87l12.2-9.97l-13.03-22.57l-14.76,5.59c-4.15-5.71-8.7-11.11-13.59-16.18l8.07-13.58l-19.97-16.76
		l-11.93,10.27c-5.83-3.94-11.95-7.48-18.32-10.59l2.93-15.46l-24.49-8.92l-7.7,13.73c-6.78-1.69-13.73-2.94-20.84-3.67l-2.53-15.54
		h-26.07l-2.53,15.54c-7.11,0.73-14.06,1.98-20.84,3.67l-7.7-13.73l-24.49,8.92l2.93,15.46c-6.37,3.11-12.5,6.64-18.32,10.59
		l-11.93-10.27l-19.97,16.76l8.07,13.58c-4.9,5.06-9.44,10.47-13.59,16.18l-14.76-5.59l-13.03,22.57l12.2,9.97
		c-2.86,6.4-5.28,13.04-7.23,19.87l-15.76-0.2l-4.53,25.67l14.91,5.21c-0.24,3.49-0.41,7.01-0.41,10.56s0.17,7.07,0.41,10.56
		l-14.91,5.21l4.53,25.67l15.76-0.2c1.95,6.84,4.37,13.47,7.23,19.87l-12.2,9.97l13.03,22.57l14.76-5.59
		c4.15,5.71,8.7,11.11,13.59,16.18l-8.07,13.58l19.97,16.76l11.93-10.27c5.83,3.94,11.95,7.48,18.32,10.59l-2.93,15.46l24.49,8.92
		l7.7-13.74c6.78,1.69,13.73,2.94,20.84,3.67l2.53,15.54h26.07l2.53-15.54c7.11-0.73,14.06-1.98,20.84-3.67l7.7,13.74l24.49-8.92
		l-2.93-15.46c6.37-3.11,12.5-6.64,18.32-10.59l11.93,10.27l19.97-16.76l-8.07-13.58c4.9-5.06,9.44-10.47,13.59-16.18l14.76,5.59
		l13.03-22.57l-12.2-9.97c2.86-6.4,5.28-13.04,7.23-19.87l15.76,0.2l4.53-25.67l-14.91-5.21
		C883.46,1332.2,883.63,1328.68,883.63,1325.13z M813.96,1325.13c0,44.37-35.97,80.34-80.34,80.34c-44.37,0-80.34-35.97-80.34-80.34
		c0-44.37,35.97-80.34,80.34-80.34C777.99,1244.79,813.96,1280.76,813.96,1325.13z"/>
	<circle class="st0" cx="733.62" cy="1325.13" r="17.58"/>
	<circle class="st0" cx="733.62" cy="1274.04" r="6.76"/>
	<circle class="st0" cx="682.53" cy="1325.13" r="6.76"/>
	<path class="st0" d="M733.62,1369.45c-3.74,0-6.76,3.03-6.76,6.76c0,3.74,3.03,6.76,6.76,6.76c3.74,0,6.76-3.03,6.76-6.76
		C740.39,1372.48,737.36,1369.45,733.62,1369.45z"/>
	<path class="st0" d="M784.71,1318.36c-3.74,0-6.76,3.03-6.76,6.76c0,3.74,3.03,6.76,6.76,6.76c3.74,0,6.76-3.03,6.76-6.76
		C791.47,1321.39,788.44,1318.36,784.71,1318.36z"/>
</g>
<g>
	<polygon class="st0" points="1197.23,1426.22 1198.28,1411.43 1282.58,1327.13 1282.58,1327.13 1366.89,1242.82 1381.67,1241.78 
		1408.68,1214.77 1377.41,1183.5 1350.4,1210.51 1349.36,1225.29 1265.05,1309.6 1265.05,1309.6 1180.75,1393.9 1165.96,1394.95 
		1138.95,1421.96 1170.22,1453.23 	"/>
	<g>
		<polygon class="st0" points="1262.56,1307.11 1262.56,1307.1 1271.32,1298.34 1198.28,1225.29 1197.23,1210.51 1170.22,1183.5 
			1138.95,1214.77 1165.96,1241.78 1180.75,1242.82 1253.79,1315.87 		"/>
		<polygon class="st0" points="1381.67,1394.95 1366.89,1393.9 1293.84,1320.86 1285.08,1329.62 1285.07,1329.62 1276.31,1338.39 
			1349.36,1411.43 1350.4,1426.22 1377.41,1453.23 1408.68,1421.96 		"/>
	</g>
</g>
<g>
	<g>
		<polygon class="st0" points="1774.75,1276.71 1688.35,1276.71 1688.35,1259.3 1717.67,1259.3 1717.67,1247.28 1646.47,1247.28 
			1646.47,1259.3 1675.79,1259.3 1675.79,1276.71 1589.39,1276.71 1582.75,1298.51 1781.38,1298.51 		"/>
		<path class="st0" d="M1781.38,1308.5h-198.63h-57.65v35.1c0,14.5,10.17,26.25,22.72,26.25h34.94v14.37
			c0,10.36,7.27,18.76,16.23,18.76h166.16c8.97,0,16.23-8.4,16.23-18.76v-36.61l109.34-35.23v-21.14L1781.38,1308.5z
			 M1570.68,1355.89h-22.86c-5.87,0-10.64-5.52-10.64-12.3v-21.14h33.5V1355.89z"/>
	</g>
	<path class="st0" d="M1917.98,1369.57c0-12.21-19.13-46.7-19.13-46.7s-19.13,34.49-19.13,46.7s8.56,22.11,19.13,22.11
		S1917.98,1381.78,1917.98,1369.57z"/>
</g>
<g>
	<path class="st0" d="M2150.45,1147.25h-68.85c-4.31,0-7.81,3.49-7.81,7.81v28.77h84.46v-28.77
		C2158.26,1150.74,2154.76,1147.25,2150.45,1147.25z"/>
	<path class="st0" d="M2231.07,1249.02l-72.81-24.25v-32.46h-84.46v4.33v243.29v26.83c0,9.79,7.94,17.73,17.73,17.73h168.08
		c9.79,0,17.73-7.94,17.73-17.73v-153.57C2277.33,1284.07,2258.7,1258.23,2231.07,1249.02z M2175.57,1413.97
		c-13.35,0-24.16-10.82-24.16-24.16s24.16-51.05,24.16-51.05s24.16,37.7,24.16,51.05S2188.91,1413.97,2175.57,1413.97z
		 M2244.36,1314.32l-39.99-13.32c-19.87-6.62-35.11-21.85-42.08-40.73c-2.63-7.12,4.13-14.14,11.33-11.74l39.99,13.32
		c19.87,6.62,35.11,21.85,42.08,40.73C2258.32,1309.7,2251.56,1316.72,2244.36,1314.32z"/>
</g>
<g>
	<g>
		<path class="st0" d="M266.62,1739.22c0,26.55,21.53,48.08,48.08,48.08c26.55,0,48.08-21.53,48.08-48.08V1695h-96.16V1739.22z
			 M276.73,1705.11l3.14,5.15c3.53,5.79,9.81,9.32,16.59,9.32h36.47c6.78,0,13.06-3.53,16.59-9.32l3.14-5.15v34.11
			c0,20.93-17.03,37.96-37.96,37.96c-20.93,0-37.96-17.03-37.96-37.96V1705.11z"/>
		<path class="st0" d="M314.7,1635.22c-26.55,0-48.08,21.53-48.08,48.08v7.01h96.16v-7.01
			C362.78,1656.75,341.25,1635.22,314.7,1635.22z"/>
	</g>
	<g>
		<path class="st0" d="M246.33,1834.23h136.73v-25.36c-19.36-13.58-42.92-21.57-68.36-21.57h0c-25.44,0-49,7.99-68.36,21.57V1834.23
			z"/>
		<path class="st0" d="M399,1822.22v133.7h34.92v-49.39C433.93,1873.61,420.58,1843.8,399,1822.22z"/>
		<path class="st0" d="M195.47,1906.53v49.39h34.92v-133.7C208.81,1843.8,195.47,1873.61,195.47,1906.53z"/>
	</g>
	<g>
		<path class="st0" d="M342.25,1933.89c0,0-2.19-1.34-0.58-4.72s4.28-2.89,4.28-2.89l5.06,2.69c0,0-1.22-5.9-5.11-7.92
			c0,0-1.49-0.84-3.59-0.47c-0.63,0.11-1.27,0-1.8-0.35l-2.73-1.8c-0.21-0.14-0.41-0.3-0.59-0.48l-36.14-36.14
			c-0.4-0.4-0.74-0.84-1.02-1.33l-2.01-3.46c-0.4-0.69-0.58-1.49-0.52-2.29c0.14-1.68,0.06-4.85-2.1-7.02
			c-3.06-3.06-9.88-2.51-11.36-1.03l5.07,2.92c0,0,2.61,1.56,0.58,5.69s-5.24,3.61-5.24,3.61l-6.04-3.12c0,0,1.33,7.09,5.96,9.43
			c0,0,1.58,0.86,3.89,0.55c1.18-0.16,2.38-0.03,3.48,0.43l0.54,0.22c1.38,0.58,2.64,1.42,3.7,2.48l35.4,35.4l2.32,2.52
			c0.91,0.99,1.46,2.27,1.5,3.61c0.04,1.45,0.4,3.45,1.88,4.93c2.59,2.59,8.23,2.26,9.43,1.05L342.25,1933.89z"/>
		<g>
			<path class="st0" d="M307.57,1903.14l-12.63,12.63c-0.4,0.4-0.84,0.74-1.33,1.02l-3.46,2.01c-0.69,0.4-1.49,0.58-2.29,0.52
				c-1.68-0.14-4.85-0.06-7.02,2.1c-3.06,3.06-2.51,9.88-1.03,11.36l2.92-5.07c0,0,1.56-2.61,5.69-0.58
				c4.13,2.03,3.61,5.24,3.61,5.24l-3.12,6.04c0,0,7.09-1.33,9.43-5.96c0,0,0.86-1.58,0.55-3.89c-0.16-1.18-0.03-2.38,0.43-3.48
				l0.22-0.54c0.58-1.38,1.42-2.64,2.48-3.7l11.62-11.62L307.57,1903.14z"/>
			<path class="st0" d="M322.37,1900.5l15.06-15.06l2.52-2.32c0.99-0.91,2.27-1.46,3.61-1.5c1.45-0.04,3.45-0.4,4.93-1.88
				c2.59-2.59,2.26-8.23,1.05-9.43l-2.51,4.25c0,0-1.34,2.19-4.72,0.58c-3.39-1.61-2.89-4.28-2.89-4.28l2.69-5.06
				c0,0-5.9,1.22-7.92,5.11c0,0-0.84,1.49-0.47,3.59c0.11,0.63,0,1.27-0.35,1.8l-1.8,2.73c-0.14,0.21-0.3,0.41-0.48,0.59
				l-14.79,14.79L322.37,1900.5z"/>
		</g>
	</g>
	<circle class="st0" cx="246.33" cy="1851.06" r="5.71"/>
	<circle class="st0" cx="383.06" cy="1851.06" r="5.71"/>
	<rect x="244.23" y="1865.8" class="st0" width="4.21" height="90.12"/>
	<rect x="380.96" y="1865.8" class="st0" width="4.21" height="90.12"/>
</g>
<g>
	<path class="st0" d="M855.45,1645.89H748.21v35.84h-34.47v-35.84H606.5c-6.64,0-10.62,7.39-6.95,12.95l43.84,66.4
		c2.06,3.1,5.53,4.96,9.24,4.96h36.19v58.85l84.31-30.69v-28.17h36.22c3.71,0,7.18-1.85,9.21-4.96l43.88-66.4
		C866.07,1653.28,862.09,1645.89,855.45,1645.89z"/>
	<polygon class="st0" points="688.83,1878.81 773.13,1848.12 773.13,1815.36 688.83,1846.04 	"/>
	<polygon class="st0" points="688.83,1923.68 773.13,1893 773.13,1860.24 688.83,1890.92 	"/>
	<polygon class="st0" points="688.83,1833.93 773.13,1803.25 773.13,1770.48 688.83,1801.17 	"/>
	<polygon class="st0" points="688.83,1946.45 730.98,1983.13 773.13,1946.45 773.13,1905.11 688.83,1935.8 	"/>
</g>
<g>
	<path class="st0" d="M1382.93,1798.36c-1.25,1.25-3.28,1.25-4.53,0c-1.25-1.25-1.25-3.28,0-4.53l14.46-14.46
		c-1.49-23.47-8.37-45.45-19.43-64.76l-3.29,12.29c-0.46,1.71-2.22,2.72-3.93,2.27c-1.71-0.46-2.72-2.22-2.27-3.93l4.87-18.18
		c-12.41-18.98-28.98-34.99-48.45-46.7l2.96,11.05c0.46,1.71-0.56,3.47-2.27,3.93h0c-1.71,0.46-3.47-0.56-3.93-2.27l-4.57-17.07
		c-19.59-10.24-41.71-16.26-65.18-16.91l7.67,7.67c1.25,1.25,1.25,3.28,0,4.53c-1.25,1.25-3.28,1.25-4.53,0l-12.18-12.18
		c-23.7,0.76-46.02,6.98-65.71,17.5l10.97,2.94c1.71,0.46,2.72,2.22,2.27,3.93c-0.46,1.71-2.22,2.72-3.93,2.27l-17.2-4.61
		c-19.78,12.17-36.51,28.8-48.82,48.49l12.18-3.26c1.71-0.46,3.47,0.56,3.93,2.27c0.46,1.71-0.56,3.47-2.27,3.93l-18.48,4.95
		c-10.92,20.1-17.32,42.98-17.99,67.3l10.16-10.16c1.25-1.25,3.28-1.25,4.53,0c1.25,1.25,1.25,3.28,0,4.53l-14.68,14.68
		c0.79,24.61,7.48,47.71,18.73,67.95l4.21-15.7c0.46-1.71,2.22-2.72,3.93-2.27c1.71,0.46,2.72,2.22,2.27,3.93l-5.82,21.7
		c12.83,20.14,30.32,37,50.98,49.08l-4.54-16.96c-0.46-1.71,0.56-3.47,2.27-3.93c1.71-0.46,3.47,0.56,3.93,2.27l6.12,22.85
		c20.37,10.35,43.41,16.22,67.82,16.22c0.3,0,0.59-0.02,0.89-0.02l-12.74-12.74c-1.25-1.25-1.25-3.28,0-4.53
		c1.25-1.25,3.28-1.25,4.53,0l16.96,16.96c24.35-1.54,47.11-8.88,66.93-20.67l-16.96-4.54c-1.71-0.46-2.72-2.22-2.27-3.93
		c0.46-1.71,2.22-2.72,3.93-2.27l22.68,6.08c19.3-13.06,35.37-30.51,46.85-50.9l-15.7,4.21c-1.71,0.46-3.47-0.56-3.93-2.27
		c-0.46-1.71,0.56-3.47,2.27-3.93l21.44-5.75c9.69-19.84,15.14-42.14,15.14-65.7c0-0.3-0.02-0.59-0.02-0.89L1382.93,1798.36z
		 M1243.19,1869.34c-44.37,0-80.34-35.97-80.34-80.34s35.97-80.34,80.34-80.34s80.34,35.97,80.34,80.34
		S1287.56,1869.34,1243.19,1869.34z"/>
	<g>
		<path class="st0" d="M1227.92,1785.18c0.23-2.61,1.04-5.04,2.41-7.12l-32.06-32.06c-9.41,10.43-15.24,24.11-15.56,39.18H1227.92z"
			/>
		<path class="st0" d="M1245.57,1726.07v45.27c2.73,0.43,5.19,1.57,7.25,3.23l31.98-31.98
			C1274.49,1732.81,1260.76,1726.66,1245.57,1726.07z"/>
		<path class="st0" d="M1233.56,1774.57c2.06-1.66,4.52-2.8,7.25-3.23v-45.27c-15.18,0.59-28.91,6.74-39.23,16.52L1233.56,1774.57z"
			/>
		<path class="st0" d="M1231.25,1796.13c-1.44-1.79-2.52-3.87-3.05-6.19h-45.39c0.83,14.76,6.92,28.1,16.46,38.17L1231.25,1796.13z"
			/>
		<path class="st0" d="M1256.06,1778.06c1.36,2.07,2.18,4.51,2.41,7.12h45.22c-0.33-15.07-6.16-28.75-15.56-39.18L1256.06,1778.06z"
			/>
		<path class="st0" d="M1258.18,1789.94c-0.53,2.32-1.61,4.4-3.05,6.19l31.98,31.98c9.55-10.07,15.63-23.41,16.46-38.17H1258.18z"/>
		<path class="st0" d="M1240.81,1801.67c-2.21-0.35-4.27-1.12-6.06-2.3l-32.06,32.06c10.18,9.18,23.47,14.94,38.12,15.51V1801.67z"
			/>
		<path class="st0" d="M1251.64,1799.37c-1.79,1.18-3.85,1.95-6.06,2.3v45.27c14.65-0.57,27.94-6.33,38.12-15.51L1251.64,1799.37z"
			/>
	</g>
</g>
<g>
	
		<rect x="1667.21" y="1751.42" transform="matrix(0.7071 0.7071 -0.7071 0.7071 1781.1229 -673.6933)" class="st0" width="73.15" height="123.47"/>
	<path class="st0" d="M1832.07,1733.1l-48.23-48.23l44.86-44.86c2.96-2.96,7.77-2.96,10.73,0l37.5,37.5c2.96,2.96,2.96,7.77,0,10.73
		L1832.07,1733.1z"/>
	<g>
		
			<rect x="1716.81" y="1681.37" transform="matrix(0.7071 -0.7071 0.7071 0.7071 -697.9307 1740.7618)" class="st0" width="71.03" height="62.97"/>
		
			<rect x="1768.57" y="1733.13" transform="matrix(0.7071 -0.7071 0.7071 0.7071 -719.3713 1792.524)" class="st0" width="71.03" height="62.97"/>
	</g>
	<g>
		<polygon class="st0" points="1574.07,1913.88 1613.61,1932.32 1627.6,1918.33 1588.06,1899.89 		"/>
		<polygon class="st0" points="1553.78,1934.17 1593.32,1952.61 1607.31,1938.62 1567.77,1920.18 		"/>
		<path class="st0" d="M1547.49,1940.47l-2.11,2.11c-4,4-4,10.48,0,14.48l14.5,14.5c4,4,10.48,4,14.48,0l12.67-12.67
			L1547.49,1940.47z"/>
		<polygon class="st0" points="1654.18,1891.74 1674.62,1871.31 1645.63,1842.32 1614.65,1873.31 		"/>
		<polygon class="st0" points="1594.36,1893.59 1633.9,1912.03 1647.89,1898.04 1608.35,1879.6 		"/>
	</g>
	
		<rect x="1862.15" y="1642.64" transform="matrix(0.7071 0.7071 -0.7071 0.7071 1714.4026 -834.7703)" class="st0" width="5.41" height="18.89"/>
</g>
<g>
	<path class="st0" d="M2182.02,1640.41c-93.13,0-168.62,75.49-168.62,168.62c0,93.13,75.49,168.62,168.62,168.62
		c93.13,0,168.62-75.49,168.62-168.62C2350.64,1715.9,2275.15,1640.41,2182.02,1640.41z M2182.02,1957.41
		c-81.82,0-148.39-66.57-148.39-148.39s66.57-148.39,148.39-148.39s148.39,66.57,148.39,148.39S2263.84,1957.41,2182.02,1957.41z"/>
	<path class="st0" d="M2186.99,1795.57v-75.44c0-2.99-5.41-10.42-5.41-10.42s-5.41,7.43-5.41,10.42v75.82
		c-4.76,2.22-8.08,7.01-8.08,12.61c0,7.7,6.24,13.94,13.94,13.94s13.94-6.24,13.94-13.94
		C2195.96,1802.61,2192.22,1797.57,2186.99,1795.57z"/>
	<path class="st0" d="M2309.99,1803.53h-14.26c-1.42-27.52-12.63-52.5-30.19-71.52l10.22-10.22l-7.14-7.14l-10.24,10.24
		c-19.15-17.4-44.21-28.39-71.76-29.6v-14.23h-10.09v14.23c-27.65,1.21-52.79,12.27-71.96,29.78l-9.78-9.78l-7.14,7.14l9.78,9.78
		c-17.65,19.2-28.82,44.44-30.03,72.22h-13.34v10.09h13.34c1.2,26.95,11.96,52.66,30.19,72.44l-9.3,9.3l7.14,7.14l11.47-11.47
		l2.74-2.72c-22.4-20.35-35.62-49.49-35.62-79.74c0-59.31,48.25-107.56,107.56-107.56c59.31,0,107.56,48.25,107.56,107.56
		c0,30-12.53,58.21-34.4,78.76l2.16,2.17l0,0l12.36,12.36l7.14-7.14l-9.79-9.79c17.67-19.85,28.18-45.61,29.17-72.21h14.22V1803.53z
		"/>
	<rect x="2135.75" y="1891.74" class="st0" width="92.56" height="19.54"/>
</g>
<g>
	<path class="st0" d="M389.3,2163.29h-31.49h-7.38v-18.51c0-2.82-2.29-5.11-5.11-5.11H245.8c-2.82,0-5.11,2.29-5.11,5.11v18.51
		H226.8c-5.92,0-10.71,4.8-10.71,10.71v77.97c0,5.92,4.8,10.71,10.71,10.71h37.02v7.72c0,9.87,8,17.86,17.86,17.86h116.6
		c6.45,0,11.69-5.23,11.69-11.69v-78.67L389.3,2163.29z"/>
	<rect x="416.24" y="2201.67" class="st0" width="34.94" height="31"/>
	<rect x="458.01" y="2161.08" class="st0" width="33.46" height="112.19"/>
	<rect x="290.39" y="2109.68" class="st0" width="10.33" height="25.1"/>
	
		<rect x="194.04" y="2201.18" transform="matrix(6.123234e-17 -1 1 6.123234e-17 -2013.7847 2412.1985)" class="st0" width="10.33" height="23.62"/>
	<rect x="235.77" y="2088.36" class="st0" width="120.07" height="15.25"/>
	
		<rect x="113.34" y="2204.87" transform="matrix(6.123234e-17 -1 1 6.123234e-17 -2039.125 2385.874)" class="st0" width="120.07" height="15.25"/>
</g>
<g>
	<path class="st0" d="M1300.46,2033.05h-114.42c-14.96,0-27.1,12.13-27.1,27.1v65.04c0,14.96,12.13,27.1,27.1,27.1h19.35v19.19
		h75.73v-19.19h19.35c14.97,0,27.1-12.13,27.1-27.1v-65.04C1327.55,2045.18,1315.42,2033.05,1300.46,2033.05z M1297.04,2068.9
		c0,7.3-5.92,13.22-13.22,13.22h-81.14c-7.3,0-13.22-5.92-13.22-13.22v0c0-7.3,5.92-13.22,13.22-13.22h81.14
		C1291.12,2055.68,1297.04,2061.6,1297.04,2068.9L1297.04,2068.9z"/>
	<polygon class="st0" points="1216.43,2252.31 1232.2,2252.31 1232.2,2267.64 1216.43,2267.64 1216.43,2284.36 1232.2,2284.36 
		1232.2,2299.69 1216.43,2299.69 1216.43,2316.42 1232.2,2316.42 1232.2,2331.75 1216.43,2331.75 1216.43,2346.57 1243.24,2370.29 
		1270.06,2346.57 1270.06,2180.09 1216.43,2180.09 	"/>
</g>
<g>
	<g>
		<path class="st0" d="M863.4,2268.09l-15.02-24.75l-17.77-33.64c-2.49-4.72-7.39-7.68-12.73-7.68h-88.23
			c-5.34,0-10.24,2.95-12.73,7.68l-17.77,33.64l-15.02,24.74c-2.91,0.96-5.02,3.67-5.02,6.91v38.85c0,0.51,0.02,1.01,0.08,1.5h-0.08
			v27.23c0,3.63,2.95,6.58,6.58,6.58h12.79c3.63,0,6.55-2.95,6.55-6.58v-15.28h137.25v15.28c0,3.63,2.93,6.58,6.55,6.58h12.79
			c3.63,0,6.58-2.95,6.58-6.58v-26.37c0.14-0.77,0.22-1.55,0.22-2.36v-38.85C868.41,2271.77,866.3,2269.06,863.4,2268.09z
			 M722.28,2212.53c2.26-3.69,6.7-6,11.53-6h79.89c4.83,0,9.27,2.31,11.53,6l13.84,26.3H708.44L722.28,2212.53z M711.09,2290.54
			l-20.51-4.37c-3.77-0.8-6.47-4.14-6.47-8v-1.52c0-3.48,3.21-6.07,6.61-5.33l14.56,3.16c2.66,0.58,4.95,2.24,6.33,4.59l3.48,5.94
			C716.71,2287.81,714.25,2291.22,711.09,2290.54z M801.73,2321.16h-55.97v-19.34h55.97V2321.16z M824.09,2279.41
			c0,9.99-8.09,18.08-18.08,18.08H741.5c-9.99,0-18.08-8.09-18.08-18.08v-4.01h100.67V2279.41z M836.42,2290.54
			c-3.16,0.67-5.62-2.73-3.99-5.52l3.48-5.94c1.37-2.35,3.67-4.01,6.33-4.59l14.56-3.16c3.4-0.74,6.61,1.85,6.61,5.33v1.52
			c0,3.86-2.7,7.19-6.47,8L836.42,2290.54z"/>
		<path class="st0" d="M692.94,2248.85v-13.27h-13.52c-3.67,0-6.64,2.97-6.64,6.64c0,3.67,2.97,6.64,6.64,6.64H692.94z"/>
		<path class="st0" d="M866.85,2235.58h-13.52v13.27h13.52c3.67,0,6.64-2.97,6.64-6.64
			C873.48,2238.55,870.51,2235.58,866.85,2235.58z"/>
	</g>
	<rect x="604.51" y="2060.72" class="st0" width="24.7" height="287.85"/>
	
		<rect x="760.79" y="1934.93" transform="matrix(-1.836970e-16 1 -1 -1.836970e-16 2846.2046 1299.9373)" class="st0" width="24.7" height="276.28"/>
	
		<rect x="760.79" y="1966.49" transform="matrix(-1.836970e-16 1 -1 -1.836970e-16 2877.7583 1331.491)" class="st0" width="24.7" height="276.28"/>
	
		<rect x="760.79" y="1998.04" transform="matrix(-1.836970e-16 1 -1 -1.836970e-16 2909.312 1363.0447)" class="st0" width="24.7" height="276.28"/>
	<rect x="917.06" y="2060.72" class="st0" width="24.7" height="287.85"/>
</g>
<g>
	<g>
		<polygon class="st0" points="1788.4,2109.94 1788.4,2104.12 1788.4,2103.01 1788.4,2061.1 1752.8,2061.1 1752.8,2082.61 
			1724.75,2082.61 1724.75,2061.1 1683.44,2061.1 1683.44,2082.61 1655.39,2082.61 1655.39,2061.1 1619.79,2061.1 1619.79,2103.01 
			1619.79,2104.12 1619.79,2109.94 		"/>
		<rect x="1619.79" y="2120.79" class="st0" width="168.61" height="12.92"/>
		<rect x="1619.78" y="2144.57" class="st0" width="168.62" height="77.67"/>
	</g>
	<path class="st0" d="M1720.75,2230.19h-30.08l-53.59,92.84c-16.83-3.41-34.63,4.01-43.71,19.69
		c-11.33,19.59-4.59,44.68,15.01,56.02c19.63,11.33,44.72,4.62,56.05-15.01c9.04-15.68,6.54-34.8-4.82-47.69L1720.75,2230.19z
		 M1649.15,2374.93c-6.44,11.16-20.74,15.01-31.94,8.57c-11.2-6.48-15.04-20.77-8.57-31.97c6.44-11.2,20.77-15.04,31.97-8.57
		C1651.78,2349.44,1655.63,2363.74,1649.15,2374.93z"/>
</g>
<g>
	<path class="st0" d="M2182.8,2054.73h-67.54v26.85h67.54v103.84c-22.34,5.7-38.89,25.91-38.89,50.03s16.55,44.32,38.89,50.03v27.68
		h-67.54v26.85h160.67v-26.85h-67.54v-27.68c22.34-5.7,38.89-25.91,38.89-50.03s-16.55-44.32-38.89-50.03v-103.84h67.54v-26.85
		h-67.54H2182.8z M2222.64,2235.44c0,10.31-5.77,19.26-14.25,23.83l0,0c-0.87,0.47-1.78,0.88-2.71,1.26
		c-0.26,0.1-0.52,0.19-0.78,0.29c-0.69,0.25-1.39,0.48-2.11,0.68c-0.32,0.09-0.64,0.17-0.97,0.25c-0.71,0.17-1.43,0.3-2.16,0.41
		c-0.31,0.05-0.61,0.1-0.92,0.14c-1.03,0.12-2.08,0.2-3.15,0.2s-2.11-0.08-3.15-0.2c-0.31-0.04-0.62-0.09-0.92-0.14
		c-0.73-0.11-1.45-0.24-2.16-0.41c-0.32-0.08-0.65-0.16-0.97-0.25c-0.72-0.2-1.42-0.43-2.11-0.68c-0.26-0.1-0.52-0.18-0.78-0.29
		c-0.93-0.37-1.84-0.79-2.71-1.26l0,0c-8.48-4.56-14.25-13.52-14.25-23.83c0-10.31,5.77-19.26,14.25-23.83l0,0
		c0.87-0.47,1.78-0.88,2.71-1.26c0.26-0.1,0.52-0.19,0.78-0.29c0.69-0.25,1.39-0.48,2.11-0.68c0.32-0.09,0.64-0.17,0.97-0.25
		c0.71-0.17,1.43-0.3,2.16-0.41c0.31-0.05,0.61-0.1,0.92-0.14c1.03-0.12,2.08-0.2,3.15-0.2s2.11,0.08,3.15,0.2
		c0.31,0.04,0.62,0.09,0.92,0.14c0.73,0.11,1.45,0.24,2.16,0.41c0.32,0.08,0.65,0.16,0.97,0.25c0.72,0.2,1.42,0.43,2.11,0.68
		c0.26,0.1,0.52,0.18,0.78,0.29c0.93,0.37,1.84,0.79,2.71,1.26l0,0C2216.88,2216.18,2222.64,2225.13,2222.64,2235.44z"/>
	<rect x="2048.72" y="2286.7" class="st0" width="55.29" height="79.74"/>
	<rect x="2048.72" y="2028.29" class="st0" width="55.29" height="79.74"/>
	<rect x="2286.88" y="2286.4" class="st0" width="55.29" height="79.74"/>
	<rect x="2286.88" y="2027.99" class="st0" width="55.29" height="79.74"/>
</g>
</svg>
